<?xml version="1.0" encoding="UTF-8" standalone="no"?>
<svg
   width="200.00101"
   height="40"
   viewBox="0 0 200.00101 40"
   fill="none"
   version="1.1"
   id="svg3"
   sodipodi:docname="cryptonews-light.svg"
   inkscape:version="1.4.2 (ebf0e940d0, 2025-05-08)"
   xmlns:inkscape="http://www.inkscape.org/namespaces/inkscape"
   xmlns:sodipodi="http://sodipodi.sourceforge.net/DTD/sodipodi-0.dtd"
   xmlns="http://www.w3.org/2000/svg"
   xmlns:svg="http://www.w3.org/2000/svg">
  <defs
     id="defs3" />
  <sodipodi:namedview
     id="namedview3"
     pagecolor="#505050"
     bordercolor="#ffffff"
     borderopacity="1"
     inkscape:showpageshadow="0"
     inkscape:pageopacity="0"
     inkscape:pagecheckerboard="1"
     inkscape:deskcolor="#505050"
     inkscape:zoom="4.9338843"
     inkscape:cx="99.921273"
     inkscape:cy="19.963987"
     inkscape:window-width="1920"
     inkscape:window-height="1052"
     inkscape:window-x="0"
     inkscape:window-y="0"
     inkscape:window-maximized="1"
     inkscape:current-layer="svg3">
    <inkscape:page
       x="0"
       y="0"
       width="200.00101"
       height="40"
       id="page2"
       margin="0"
       bleed="0" />
  </sodipodi:namedview>
  <path
     fill-rule="evenodd"
     clip-rule="evenodd"
     d="m 132.643,22.9377 c -1.148,0 -2.078,0.9285 -2.078,2.0743 0,1.1455 0.93,2.074 2.078,2.074 1.148,0 2.079,-0.9285 2.079,-2.074 0,-1.1458 -0.931,-2.0743 -2.079,-2.0743 z m 67.026,-1.578 c -0.22,-0.491 -0.537,-0.9168 -0.948,-1.2777 -0.412,-0.3606 -0.904,-0.6615 -1.476,-0.9017 -0.573,-0.2406 -1.22,-0.4407 -1.943,-0.6012 -1.165,-0.2804 -2.024,-0.5461 -2.576,-0.7965 -0.552,-0.2505 -0.828,-0.5962 -0.828,-1.0372 0,-0.3609 0.166,-0.666 0.497,-0.9172 0.331,-0.2501 0.919,-0.3757 1.762,-0.3757 0.844,0 1.577,0.1157 2.199,0.346 0.622,0.2304 1.125,0.4862 1.506,0.7666 l 1.838,-2.4952 c -0.703,-0.521 -1.491,-0.9115 -2.365,-1.1722 -0.873,-0.2604 -1.933,-0.3909 -3.178,-0.3909 -0.703,0 -1.401,0.1005 -2.093,0.3005 -0.693,0.2008 -1.316,0.4862 -1.868,0.8569 -0.552,0.3708 -0.999,0.8319 -1.34,1.3829 -0.342,0.5511 -0.512,1.1772 -0.512,1.8786 0,0.6815 0.145,1.2678 0.436,1.7586 0.291,0.4914 0.663,0.9122 1.115,1.2626 0.452,0.3506 0.939,0.6265 1.461,0.8265 0.522,0.2007 1.024,0.3609 1.506,0.4808 0.783,0.1807 1.406,0.3511 1.868,0.5112 0.461,0.1605 0.823,0.3207 1.084,0.4809 0.261,0.1608 0.431,0.3259 0.512,0.4963 0.08,0.1701 0.121,0.356 0.121,0.556 0,0.4614 -0.232,0.7916 -0.693,0.992 -0.462,0.2004 -1.075,0.3006 -1.838,0.3006 -0.863,0 -1.632,-0.145 -2.304,-0.4357 -0.673,-0.2907 -1.23,-0.6565 -1.672,-1.0975 l -2.138,2.3149 c 0.642,0.7211 1.495,1.2676 2.56,1.638 1.064,0.3707 2.259,0.5563 3.584,0.5563 0.824,0 1.602,-0.1051 2.335,-0.3157 0.733,-0.2103 1.375,-0.5059 1.928,-0.8869 0.552,-0.3803 0.989,-0.8463 1.31,-1.3977 0.321,-0.5511 0.482,-1.167 0.482,-1.8486 0,-0.6812 -0.111,-1.2675 -0.332,-1.7586 z m -15.422,-8.3721 -2.681,9.7998 -3.012,-9.7998 h -2.982 l -2.982,9.7998 -2.711,-9.7998 h -3.916 l 4.789,14.0984 h 3.314 l 2.801,-8.5069 2.892,8.5069 h 3.434 l 4.789,-14.0984 z m -21.688,5.5615 c 0,-0.3608 -0.071,-0.7217 -0.211,-1.0823 -0.14,-0.3605 -0.346,-0.6861 -0.617,-0.9772 -0.271,-0.29 -0.618,-0.5305 -1.04,-0.7214 -0.421,-0.1901 -0.903,-0.2854 -1.445,-0.2854 -0.583,0 -1.1,0.0953 -1.552,0.2854 -0.452,0.1909 -0.828,0.4314 -1.129,0.7214 -0.302,0.2911 -0.533,0.6167 -0.693,0.9772 -0.161,0.3606 -0.241,0.7215 -0.241,1.0823 z m 3.283,-0.902 c 0.241,0.962 0.362,1.9442 0.362,2.946 v 0.5109 h -10.543 c 0,0.5214 0.115,0.992 0.346,1.4128 0.231,0.4213 0.532,0.7818 0.904,1.0824 0.372,0.3005 0.793,0.5309 1.265,0.6914 0.472,0.1605 0.939,0.2406 1.401,0.2406 0.682,0 1.28,-0.0649 1.792,-0.1954 0.512,-0.1302 0.949,-0.2805 1.31,-0.4512 0.362,-0.1701 0.658,-0.3504 0.889,-0.5412 0.231,-0.1898 0.407,-0.3454 0.527,-0.4657 l 1.928,2.1643 c -0.06,0.06 -0.226,0.2254 -0.497,0.496 -0.271,0.2706 -0.663,0.556 -1.175,0.8569 -0.512,0.3006 -1.165,0.5712 -1.957,0.8114 -0.794,0.2406 -1.743,0.3609 -2.847,0.3609 -1.125,0 -2.15,-0.1905 -3.073,-0.5711 -0.924,-0.3807 -1.712,-0.9067 -2.364,-1.5784 -0.653,-0.671 -1.155,-1.4774 -1.506,-2.4197 -0.352,-0.9419 -0.527,-1.984 -0.527,-3.1266 0,-1.0418 0.175,-2.0088 0.527,-2.9006 0.351,-0.8914 0.843,-1.6683 1.475,-2.3297 0.633,-0.6615 1.386,-1.1822 2.26,-1.5632 0.873,-0.3803 1.842,-0.5711 2.907,-0.5711 1.285,0 2.374,0.2356 3.268,0.7062 0.893,0.4713 1.611,1.0876 2.154,1.8489 0.542,0.7617 0.934,1.6232 1.174,2.5852 z m -20.754,-4.9597 c -0.562,0 -1.064,0.06 -1.506,0.1803 -0.442,0.1199 -0.839,0.2755 -1.19,0.4656 -0.351,0.1909 -0.653,0.3962 -0.904,0.6163 -0.251,0.2209 -0.466,0.4311 -0.647,0.6312 l -0.09,-1.5932 h -3.404 V 27.086 h 3.554 v -7.6352 c 0,-0.5207 0.085,-1.0071 0.256,-1.458 0.17,-0.4508 0.407,-0.8463 0.708,-1.1874 0.301,-0.3405 0.663,-0.6058 1.084,-0.7966 0.422,-0.1902 0.874,-0.2854 1.356,-0.2854 0.783,0 1.42,0.2455 1.913,0.7362 0.492,0.4915 0.738,1.1875 0.738,2.0895 v 8.5369 h 3.554 v -8.5668 c 0,-1.7837 -0.462,-3.2015 -1.385,-4.2538 -0.924,-1.0524 -2.27,-1.578 -4.037,-1.578 z m -19.609,7.3346 c 0,-0.5006 -0.081,-1.0171 -0.241,-1.5483 -0.161,-0.5306 -0.407,-1.0115 -0.738,-1.4429 -0.332,-0.4307 -0.749,-0.7814 -1.25,-1.052 -0.503,-0.2706 -1.095,-0.406 -1.777,-0.406 -0.684,0 -1.276,0.1354 -1.778,0.406 -0.502,0.2706 -0.919,0.6213 -1.25,1.052 -0.331,0.4314 -0.577,0.9123 -0.738,1.4429 -0.161,0.5312 -0.241,1.0477 -0.241,1.5483 0,0.5214 0.08,1.0421 0.241,1.5632 0.161,0.521 0.407,1.0022 0.738,1.4428 0.331,0.441 0.748,0.7966 1.25,1.0672 0.502,0.2705 1.094,0.4057 1.778,0.4057 0.682,0 1.274,-0.1352 1.777,-0.4057 0.501,-0.2706 0.918,-0.6262 1.25,-1.0672 0.331,-0.4406 0.577,-0.9218 0.738,-1.4428 0.16,-0.5211 0.241,-1.0418 0.241,-1.5632 z m 3.027,-2.9009 c 0.371,0.9119 0.557,1.8789 0.557,2.9009 0,1.022 -0.186,1.9893 -0.557,2.9009 -0.372,0.9123 -0.889,1.7134 -1.551,2.4045 -0.663,0.6918 -1.461,1.2379 -2.395,1.6387 -0.934,0.4004 -1.963,0.6011 -3.087,0.6011 -1.126,0 -2.154,-0.2007 -3.088,-0.6011 -0.934,-0.4008 -1.732,-0.9469 -2.395,-1.6387 -0.663,-0.6911 -1.18,-1.4922 -1.551,-2.4045 -0.372,-0.9116 -0.558,-1.8789 -0.558,-2.9009 0,-1.022 0.186,-1.989 0.558,-2.9009 0.371,-0.9116 0.888,-1.7085 1.551,-2.3897 0.663,-0.6812 1.461,-1.222 2.395,-1.6235 0.934,-0.4004 1.962,-0.6011 3.088,-0.6011 1.124,0 2.153,0.2007 3.087,0.6011 0.934,0.4015 1.732,0.9423 2.395,1.6235 0.662,0.6812 1.179,1.4781 1.551,2.3897 z m -17.224,7.1695 c -0.331,0.1605 -0.778,0.2406 -1.34,0.2406 -0.603,0 -1.04,-0.2152 -1.311,-0.6466 -0.271,-0.4304 -0.406,-1.0467 -0.406,-1.8486 v -6.1623 h 3.795 v -2.8861 h -3.795 V 8.4184 h -3.555 v 4.5692 h -2.41 v 2.8861 h 2.41 v 6.4029 c 0,0.7814 0.08,1.4982 0.241,2.1491 0.161,0.6516 0.427,1.2076 0.798,1.6683 0.372,0.4614 0.859,0.817 1.461,1.0675 0.603,0.2505 1.336,0.3757 2.199,0.3757 0.844,0 1.607,-0.1252 2.29,-0.3757 0.682,-0.2505 1.375,-0.6664 2.078,-1.2478 l -1.506,-2.1946 c -0.301,0.2212 -0.617,0.411 -0.949,0.5715 z M 98.013,20.1123 c 0,-0.6015 -0.065,-1.162 -0.196,-1.6834 -0.13,-0.5211 -0.341,-0.9772 -0.632,-1.3681 -0.292,-0.3905 -0.668,-0.701 -1.13,-0.9317 -0.462,-0.2304 -1.034,-0.3457 -1.717,-0.3457 -0.542,0 -1.034,0.1153 -1.476,0.3457 -0.442,0.2307 -0.818,0.526 -1.129,0.8869 -0.312,0.3605 -0.553,0.7567 -0.723,1.1871 -0.171,0.4314 -0.256,0.847 -0.256,1.2477 v 4.1783 c 0.703,0.5818 1.767,0.8718 3.193,0.8718 0.642,0 1.214,-0.1249 1.717,-0.3758 0.501,-0.2504 0.928,-0.581 1.28,-0.992 0.351,-0.4102 0.618,-0.8763 0.798,-1.3977 0.181,-0.521 0.271,-1.0622 0.271,-1.6231 z m 3.193,-2.7358 c 0.261,0.882 0.392,1.7939 0.392,2.7358 0,1.1021 -0.161,2.044 -0.482,2.8258 -0.322,0.781 -0.723,1.4629 -1.205,2.0439 -0.804,0.9621 -1.682,1.6334 -2.636,2.0141 -0.954,0.3806 -1.933,0.5711 -2.937,0.5711 -0.462,0 -0.858,-0.0205 -1.19,-0.0603 -0.331,-0.0402 -0.632,-0.0949 -0.903,-0.1651 -0.271,-0.0706 -0.523,-0.1503 -0.753,-0.2406 -0.231,-0.0903 -0.478,-0.1852 -0.738,-0.2854 v 6.2826 H 87.229 V 12.9876 h 3.434 l 0.091,1.5932 c 0.18,-0.2001 0.406,-0.4103 0.677,-0.6312 0.272,-0.2201 0.593,-0.4208 0.964,-0.6011 0.372,-0.1803 0.793,-0.3309 1.265,-0.4508 0.472,-0.1203 0.999,-0.1803 1.582,-0.1803 1.084,0 2.023,0.2102 2.817,0.6311 0.792,0.4209 1.45,0.9768 1.972,1.6683 0.522,0.6914 0.914,1.4781 1.175,2.3597 z M 78.7951,22.6371 74.7588,12.9876 H 70.662 l 6.3557,13.9785 -0.4518,1.1423 c -0.3418,0.8417 -0.6678,1.4622 -0.9788,1.8637 -0.3118,0.4004 -0.7081,0.6011 -1.1899,0.6011 -0.3617,0 -0.6629,-0.0751 -0.9039,-0.2254 -0.2408,-0.1503 -0.4621,-0.3055 -0.6625,-0.466 l -1.5964,2.4948 c 0.4012,0.3408 0.8682,0.6061 1.4005,0.7969 0.5317,0.1902 1.1998,0.2858 2.0034,0.2858 0.9233,0 1.6865,-0.2007 2.2892,-0.6015 0.6024,-0.4011 1.1094,-0.9169 1.5212,-1.548 0.4111,-0.6315 0.7583,-1.318 1.0393,-2.0591 0.281,-0.7419 0.562,-1.463 0.844,-2.1647 L 86.236,12.9876 H 82.35 Z m -10.422,-9.9197 c -0.5829,0 -1.0998,0.0702 -1.5515,0.2102 -0.4518,0.1404 -0.8488,0.3112 -1.1899,0.5112 -0.3415,0.2004 -0.6378,0.4205 -0.8884,0.6615 -0.2513,0.2402 -0.4571,0.4611 -0.6176,0.6611 L 64.0352,12.9876 H 60.6314 V 27.086 h 3.5544 v -7.6052 c 0,-0.5207 0.0951,-0.992 0.2864,-1.4128 0.1905,-0.4209 0.4465,-0.7814 0.7681,-1.0824 0.3207,-0.3005 0.7025,-0.5305 1.1443,-0.6911 0.4419,-0.1601 0.9039,-0.2405 1.3858,-0.2405 0.3411,0 0.6373,0.0201 0.8887,0.0599 0.2506,0.0406 0.497,0.1104 0.7381,0.2106 l 0.7229,-3.3369 c -0.2814,-0.0998 -0.5575,-0.17 -0.8286,-0.2102 -0.2711,-0.0399 -0.5773,-0.06 -0.9184,-0.06 z m -18.3444,5.6511 c -0.1612,0.5412 -0.2411,1.0926 -0.2411,1.6535 0,0.5412 0.0799,1.0724 0.2411,1.5931 0.1605,0.5214 0.4065,0.992 0.7378,1.4129 0.3316,0.4209 0.748,0.7617 1.2503,1.022 0.5016,0.2607 1.0941,0.3909 1.7771,0.3909 0.7027,0 1.3451,-0.1355 1.928,-0.4057 0.5822,-0.2706 1.0739,-0.6361 1.4759,-1.0971 l 2.1086,2.2842 c -0.6628,0.7017 -1.4458,1.2626 -2.3497,1.6834 -0.9036,0.4209 -1.9577,0.6315 -3.1628,0.6315 -1.2048,0 -2.2794,-0.1806 -3.2233,-0.5411 -0.9438,-0.3609 -1.7371,-0.8718 -2.3794,-1.5332 -0.643,-0.6611 -1.1348,-1.4528 -1.4762,-2.3749 -0.3415,-0.9215 -0.5119,-1.9435 -0.5119,-3.066 0,-1.022 0.1852,-1.989 0.5571,-2.9009 0.3715,-0.9116 0.8887,-1.7085 1.5515,-2.3897 0.6625,-0.6812 1.4607,-1.222 2.3947,-1.6235 0.9339,-0.4004 1.9626,-0.6011 3.0875,-0.6011 1.1446,0 2.1885,0.2056 3.1327,0.6163 0.9439,0.411 1.747,0.9669 2.4099,1.6683 l -2.2593,2.2845 c -0.4019,-0.4607 -0.8735,-0.8216 -1.4158,-1.0823 -0.5422,-0.26 -1.1648,-0.3905 -1.8675,-0.3905 -0.683,0 -1.2755,0.1256 -1.7771,0.3757 -0.5023,0.2508 -0.9187,0.5764 -1.2503,0.9769 -0.3313,0.4014 -0.5773,0.8717 -0.7378,1.4128 z"
     fill="#000000"
     id="path1"
     style="fill:#ffffff;fill-opacity:1" />
  <path
     fill-rule="evenodd"
     clip-rule="evenodd"
     d="M 40.0824,20 C 40.0824,8.9542 31.1098,0 20.0412,0 8.9726,0 0,8.9542 0,20 0,31.0458 8.9726,40 20.0412,40 31.1098,40 40.0824,31.0458 40.0824,20 Z"
     fill="#0080c9"
     id="path2" />
  <path
     fill-rule="evenodd"
     clip-rule="evenodd"
     d="m 8.9469,24.5518 c -0.6992,0 -1.2659,0.5655 -1.2659,1.2633 0,0.6975 0.5667,1.263 1.2659,1.263 0.6993,0 1.2659,-0.5655 1.2659,-1.263 0,-0.6978 -0.5666,-1.2633 -1.2659,-1.2633 z m 23.0121,7.3449 c 3.1837,-3.1772 4.9371,-7.4013 4.9371,-11.8943 0,-4.4644 -1.8284,-8.8275 -5.0159,-11.9711 -0.2485,-0.2445 -0.6494,-0.2428 -0.8951,0.0056 -0.2457,0.248 -0.2436,0.6481 0.0053,0.8929 2.9486,2.9079 4.6398,6.9437 4.6398,11.0726 0,4.1554 -1.6216,8.0624 -4.5663,11.001 -2.9443,2.9387 -6.8594,4.5569 -11.0233,4.5565 -4.1639,4e-4 -8.079,-1.6178 -11.0233,-4.5565 C 6.0726,28.0651 4.4511,24.1581 4.4514,20.0028 4.4514,15.847 6.073,11.9404 9.0173,9.0018 12.8574,5.1699 18.1738,3.6515 23.6025,4.8344 23.9444,4.9095 24.2813,4.6933 24.3558,4.3525 24.4304,4.0114 24.2141,3.6748 23.8726,3.6004 18.014,2.3226 12.2731,3.9662 8.1222,8.1085 4.9386,11.2856 3.1855,15.5098 3.1855,20.0028 c -3e-4,4.4926 1.7531,8.7167 4.9367,11.8939 3.1837,3.1771 7.4165,4.9269 11.9184,4.9265 4.5019,0 8.7351,-1.7498 11.9184,-4.9265 z M 27.8577,4.5511 c -0.6993,0 -1.2659,0.5655 -1.2659,1.2633 0,0.6974 0.5666,1.2629 1.2659,1.2629 0.6988,0 1.2655,-0.5655 1.2655,-1.2629 0,-0.6978 -0.5667,-1.2633 -1.2655,-1.2633 z m 1.4868,24.7371 c 5.1304,-5.1198 5.1304,-13.4507 0,-18.5709 -5.1304,-5.1195 -13.4788,-5.1195 -18.6092,0 -3.1621,3.156 -4.4955,7.6493 -3.5672,12.0202 0.0725,0.3415 0.4094,0.5588 0.7505,0.4872 0.3418,-0.0723 0.5603,-0.4075 0.4878,-0.749 -0.8392,-3.9511 0.3659,-8.013 3.224,-10.8652 4.6369,-4.6273 12.1821,-4.6273 16.819,0 4.6373,4.6278 4.6373,12.1571 0,16.7845 -2.2486,2.2444 -5.2304,3.4763 -8.407,3.4763 -0.0354,0 -0.0711,0 -0.1064,-4e-4 -3.2155,-0.0279 -6.2178,-1.3159 -8.4544,-3.6269 -0.2429,-0.2512 -0.6434,-0.2579 -0.8947,-0.0155 -0.2517,0.2423 -0.2585,0.6424 -0.0156,0.8932 2.4738,2.5566 5.7957,3.9815 9.3534,4.0122 0.0396,3e-4 0.0784,7e-4 0.118,7e-4 3.5142,0 6.8138,-1.3635 9.3018,-3.8464 z m -9.3042,-0.3256 c -4.9505,0 -8.978,-4.0192 -8.978,-8.9595 0,-4.9406 4.0275,-8.9598 8.978,-8.9598 2.9726,0 5.7476,1.4647 7.4236,3.9186 0.4592,0.6728 0.2856,1.5893 -0.3885,2.0479 -0.6738,0.4583 -1.5926,0.2847 -2.0518,-0.3877 -1.1255,-1.6478 -2.9882,-2.6317 -4.9833,-2.6317 -3.3219,0 -6.0248,2.6973 -6.0248,6.0127 0,3.3151 2.7029,6.0124 6.0248,6.0124 1.9951,0 3.8578,-0.9839 4.9833,-2.6317 0.4592,-0.6728 1.378,-0.8463 2.0518,-0.3877 0.6741,0.4582 0.8477,1.3751 0.3885,2.0475 -1.676,2.4539 -4.451,3.919 -7.4236,3.919 z"
     fill="#ffffff"
     id="path3" />
</svg>
