<?xml version="1.0" encoding="UTF-8"?>
<svg id="Layer_2" data-name="Layer 2" xmlns="http://www.w3.org/2000/svg" viewBox="0 0 902.09 212.26">
  <g id="Layer_1-2" data-name="Layer 1">
    <g>
      <rect x="0" y="0" width="53.06" height="53.06" rx="26.53" ry="26.53" fill="#15616d"/>
      <rect x="0" y="53.06" width="53.06" height="53.06" rx="26.53" ry="26.53" fill="#ff7d00"/>
      <rect x="0" y="106.13" width="53.06" height="53.06" rx="26.53" ry="26.53" fill="#15616d"/>
      <rect x="0" y="159.19" width="53.06" height="53.06" rx="26.53" ry="26.53" fill="#ff7d00"/>
      <rect x="53.06" y="0" width="53.06" height="53.06" rx="26.53" ry="26.53" fill="#ff7d00"/>
      <rect x="53.06" y="53.06" width="53.06" height="53.06" rx="26.53" ry="26.53" fill="#15616d"/>
      <rect x="106.13" y="53.06" width="53.06" height="53.06" rx="26.53" ry="26.53" fill="#ff7d00"/>
      <rect x="53.06" y="106.13" width="53.06" height="53.06" rx="26.53" ry="26.53" fill="#ff7d00"/>
      <rect x="318.39" y="0" width="53.06" height="53.06" rx="26.53" ry="26.53" fill="#15616d"/>
      <rect x="159.19" y="53.06" width="53.06" height="53.06" rx="26.53" ry="26.53" fill="#15616d"/>
      <rect x="212.26" y="53.06" width="53.06" height="53.06" rx="26.53" ry="26.53" fill="#ff7d00"/>
      <rect x="318.39" y="53.06" width="53.06" height="53.06" rx="26.53" ry="26.53" fill="#ff7d00"/>
      <rect x="159.19" y="106.13" width="53.06" height="53.06" rx="26.53" ry="26.53" fill="#ff7d00"/>
      <rect x="212.26" y="106.13" width="53.06" height="53.06" rx="26.53" ry="26.53" fill="#15616d"/>
      <rect x="265.32" y="106.13" width="53.06" height="53.06" rx="26.53" ry="26.53" fill="#ff7d00"/>
      <rect x="318.39" y="106.13" width="53.06" height="53.06" rx="26.53" ry="26.53" fill="#15616d"/>
      <rect x="212.26" y="159.19" width="53.06" height="53.06" rx="26.53" ry="26.53" fill="#ff7d00"/>
      <rect x="265.32" y="159.19" width="53.06" height="53.06" rx="26.53" ry="26.53" fill="#15616d"/>
      <rect x="371.45" y="0" width="53.06" height="53.06" rx="26.53" ry="26.53" fill="#ff7d00"/>
      <rect x="424.51" y="0" width="53.06" height="53.06" rx="26.53" ry="26.53" fill="#15616d"/>
      <rect x="371.45" y="53.06" width="53.06" height="53.06" rx="26.53" ry="26.53" fill="#15616d"/>
      <rect x="371.45" y="106.13" width="53.06" height="53.06" rx="26.53" ry="26.53" fill="#ff7d00"/>
      <rect x="371.45" y="159.19" width="53.06" height="53.06" rx="26.53" ry="26.53" fill="#15616d"/>
      <rect x="424.51" y="159.19" width="53.06" height="53.06" rx="26.53" ry="26.53" fill="#ff7d00"/>
      <rect x="477.58" y="0" width="53.06" height="53.06" rx="26.53" ry="26.53" fill="#ff7d00"/>
      <rect x="583.71" y="0" width="53.06" height="53.06" rx="26.53" ry="26.53" fill="#ff7d00"/>
      <rect x="477.58" y="53.06" width="53.06" height="53.06" rx="26.53" ry="26.53" fill="#15616d"/>
      <rect x="583.71" y="53.06" width="53.06" height="53.06" rx="26.53" ry="26.53" fill="#15616d"/>
      <rect x="636.77" y="53.06" width="53.06" height="53.06" rx="26.53" ry="26.53" fill="#ff7d00"/>
      <rect x="477.58" y="106.13" width="53.06" height="53.06" rx="26.53" ry="26.53" fill="#ff7d00"/>
      <rect x="530.64" y="106.13" width="53.06" height="53.06" rx="26.53" ry="26.53" fill="#15616d"/>
      <rect x="583.71" y="106.13" width="53.06" height="53.06" rx="26.53" ry="26.53" fill="#ff7d00"/>
      <rect x="583.71" y="159.19" width="53.06" height="53.06" rx="26.53" ry="26.53" fill="#15616d"/>
      <rect x="636.77" y="159.19" width="53.06" height="53.06" rx="26.53" ry="26.53" fill="#ff7d00"/>
      <rect x="689.84" y="0" width="53.06" height="53.06" rx="26.53" ry="26.53" fill="#ff7d00"/>
      <rect x="742.9" y="0" width="53.06" height="53.06" rx="26.53" ry="26.53" fill="#15616d"/>
      <rect x="689.84" y="53.06" width="53.06" height="53.06" rx="26.53" ry="26.53" fill="#15616d"/>
      <rect x="689.84" y="106.13" width="53.06" height="53.06" rx="26.53" ry="26.53" fill="#ff7d00"/>
      <rect x="849.03" y="0" width="53.06" height="53.06" rx="26.53" ry="26.53" fill="#15616d"/>
      <rect x="795.97" y="53.06" width="53.06" height="53.06" rx="26.53" ry="26.53" fill="#15616d"/>
      <rect x="795.97" y="106.13" width="53.06" height="53.06" rx="26.53" ry="26.53" fill="#ff7d00"/>
      <rect x="849.03" y="106.13" width="53.06" height="53.06" rx="26.53" ry="26.53" fill="#15616d"/>
    </g>
  </g>
</svg>