<?xml version="1.0" encoding="UTF-8"?>
<svg id="Layer_1" data-name="Layer 1" xmlns="http://www.w3.org/2000/svg" viewBox="0 0 1500 300">
  <path d="m439.21,268.35h19.28c1.18,0,2.14-.96,2.14-2.14v-38.56c0-1.18.96-2.14,2.14-2.14h59.98c1.18,0,2.14-.96,2.14-2.14v-19.28c0-1.18-.96-2.14-2.14-2.14h-59.98c-1.18,0-2.14-.96-2.14-2.14v-14.99c0-1.18.96-2.14,2.14-2.14h81.4c1.18,0,2.14-.96,2.14-2.14v-19.28c0-1.18-.96-2.14-2.14-2.14h-104.96c-1.18,0-2.14.96-2.14,2.14v104.96c0,1.18.96,2.14,2.14,2.14Z" fill="#1d1d1b"/>
  <path d="m135.03,52h-17.14c-1.18,0-2.14.96-2.14,2.14v17.14c0,1.18-.96,2.14-2.14,2.14h-14.99c-1.18,0-2.14-.96-2.14-2.14v-17.14c0-1.18-.96-2.14-2.14-2.14h-17.14c-1.18,0-2.14-.96-2.14-2.14v-17.14c0-1.18-.96-2.14-2.14-2.14h-19.28c-1.18,0-2.14.96-2.14,2.14v104.96c0,1.18.96,2.14,2.14,2.14h19.28c1.18,0,2.14-.96,2.14-2.14v-59.98c0-1.18.96-2.14,2.14-2.14h14.99c1.18,0,2.14.96,2.14,2.14v17.14c0,1.18.96,2.14,2.14,2.14h19.28c1.18,0,2.14-.96,2.14-2.14v-17.14c0-1.18.96-2.14,2.14-2.14h14.99c1.18,0,2.14.96,2.14,2.14v59.98c0,1.18.96,2.14,2.14,2.14h19.28c1.18,0,2.14-.96,2.14-2.14V32.72c0-1.18-.96-2.14-2.14-2.14h-19.28c-1.18,0-2.14.96-2.14,2.14v17.14c0,1.18-.96,2.14-2.14,2.14Z" fill="#1d1d1b"/>
  <path d="m135.03,180.53h-17.14c-1.18,0-2.14.96-2.14,2.14v17.14c0,1.18-.96,2.14-2.14,2.14h-36.42c-1.18,0-2.14-.96-2.14-2.14v-38.56c0-1.18-.96-2.14-2.14-2.14h-19.28c-1.18,0-2.14.96-2.14,2.14v104.96c0,1.18.96,2.14,2.14,2.14h19.28c1.18,0,2.14-.96,2.14-2.14v-38.56c0-1.18.96-2.14,2.14-2.14h36.42c1.18,0,2.14.96,2.14,2.14v38.56c0,1.18.96,2.14,2.14,2.14h40.7c1.18,0,2.14-.96,2.14-2.14v-19.28c0-1.18-.96-2.14-2.14-2.14h-17.14c-1.18,0-2.14-.96-2.14-2.14v-17.14c0-1.18-.96-2.14-2.14-2.14h-17.14c-1.18,0-2.14-.96-2.14-2.14v-14.99c0-1.18.96-2.14,2.14-2.14h17.14c1.18,0,2.14-.96,2.14-2.14v-17.14c0-1.18.96-2.14,2.14-2.14h17.14c1.18,0,2.14-.96,2.14-2.14v-19.28c0-1.18-.96-2.14-2.14-2.14h-19.28c-1.18,0-2.14.96-2.14,2.14v17.14c0,1.18-.96,2.14-2.14,2.14Z" fill="#1d1d1b"/>
  <path d="m265.7,30.58h-62.12c-1.18,0-2.14.96-2.14,2.14v17.14c0,1.18-.96,2.14-2.14,2.14h-17.14c-1.18,0-2.14.96-2.14,2.14v62.12c0,1.18.96,2.14,2.14,2.14h17.14c1.18,0,2.14.96,2.14,2.14v17.14c0,1.18.96,2.14,2.14,2.14h62.12c1.18,0,2.14-.96,2.14-2.14v-17.14c0-1.18.96-2.14,2.14-2.14h17.14c1.18,0,2.14-.96,2.14-2.14v-62.12c0-1.18-.96-2.14-2.14-2.14h-17.14c-1.18,0-2.14-.96-2.14-2.14v-17.14c0-1.18-.96-2.14-2.14-2.14Zm0,25.71v57.84c0,1.18-.96,2.14-2.14,2.14h-57.84c-1.18,0-2.14-.96-2.14-2.14v-57.84c0-1.18.96-2.14,2.14-2.14h57.84c1.18,0,2.14.96,2.14,2.14Z" fill="#1d1d1b"/>
  <path d="m265.7,159.1h-62.12c-1.18,0-2.14.96-2.14,2.14v17.14c0,1.18-.96,2.14-2.14,2.14h-17.14c-1.18,0-2.14.96-2.14,2.14v62.12c0,1.18.96,2.14,2.14,2.14h17.14c1.18,0,2.14.96,2.14,2.14v17.14c0,1.18.96,2.14,2.14,2.14h62.12c1.18,0,2.14-.96,2.14-2.14v-17.14c0-1.18.96-2.14,2.14-2.14h17.14c1.18,0,2.14-.96,2.14-2.14v-62.12c0-1.18-.96-2.14-2.14-2.14h-17.14c-1.18,0-2.14-.96-2.14-2.14v-17.14c0-1.18-.96-2.14-2.14-2.14Zm0,25.71v57.84c0,1.18-.96,2.14-2.14,2.14h-57.84c-1.18,0-2.14-.96-2.14-2.14v-57.84c0-1.18.96-2.14,2.14-2.14h57.84c1.18,0,2.14.96,2.14,2.14Z" fill="#1d1d1b"/>
  <path d="m717.69,139.82h62.12c1.18,0,2.14-.96,2.14-2.14v-17.14c0-1.18.96-2.14,2.14-2.14h17.14c1.18,0,2.14-.96,2.14-2.14v-62.12c0-1.18-.96-2.14-2.14-2.14h-17.14c-1.18,0-2.14-.96-2.14-2.14v-17.14c0-1.18-.96-2.14-2.14-2.14h-62.12c-1.18,0-2.14.96-2.14,2.14v17.14c0,1.18-.96,2.14-2.14,2.14h-17.14c-1.18,0-2.14.96-2.14,2.14v62.12c0,1.18.96,2.14,2.14,2.14h17.14c1.18,0,2.14.96,2.14,2.14v17.14c0,1.18.96,2.14,2.14,2.14Zm0-25.71v-57.84c0-1.18.96-2.14,2.14-2.14h57.84c1.18,0,2.14.96,2.14,2.14v57.84c0,1.18-.96,2.14-2.14,2.14h-57.84c-1.18,0-2.14-.96-2.14-2.14Z" fill="#1d1d1b"/>
  <path d="m1293.92,159.1h-62.12c-1.18,0-2.14.96-2.14,2.14v17.14c0,1.18-.96,2.14-2.14,2.14h-17.14c-1.18,0-2.14.96-2.14,2.14v62.12c0,1.18.96,2.14,2.14,2.14h17.14c1.18,0,2.14.96,2.14,2.14v17.14c0,1.18.96,2.14,2.14,2.14h62.12c1.18,0,2.14-.96,2.14-2.14v-17.14c0-1.18.96-2.14,2.14-2.14h17.14c1.18,0,2.14-.96,2.14-2.14v-62.12c0-1.18-.96-2.14-2.14-2.14h-17.14c-1.18,0-2.14-.96-2.14-2.14v-17.14c0-1.18-.96-2.14-2.14-2.14Zm0,25.71v57.84c0,1.18-.96,2.14-2.14,2.14h-57.84c-1.18,0-2.14-.96-2.14-2.14v-57.84c0-1.18.96-2.14,2.14-2.14h57.84c1.18,0,2.14.96,2.14,2.14Z" fill="#1d1d1b"/>
  <path d="m334.25,54.14h15c1.18,0,2.14.96,2.14,2.14v17.13c0,1.18.96,2.14,2.14,2.14h17.13c1.18,0,2.14.96,2.14,2.14v17.14c0,1.18.96,2.14,2.14,2.14h17.14c1.18,0,2.14.96,2.14,2.14v38.56c0,1.18.96,2.14,2.14,2.14h19.28c1.18,0,2.14-.96,2.14-2.14V32.72c0-1.18-.96-2.14-2.14-2.14h-19.28c-1.18,0-2.14.96-2.14,2.14v38.56c0,1.18-.96,2.14-2.14,2.14h-14.99c-1.18,0-2.14-.96-2.14-2.14v-17.14c0-1.18-.96-2.14-2.14-2.14h-17.14c-1.18,0-2.14-.96-2.14-2.14v-17.13c0-1.18-.96-2.14-2.14-2.14h-40.7c-1.18,0-2.14.96-2.14,2.14v104.96c0,1.18.96,2.14,2.14,2.14h19.28c1.18,0,2.14-.96,2.14-2.14V56.28c0-1.18.96-2.14,2.14-2.14Z" fill="#1d1d1b"/>
  <path d="m1034.72,201.95h-14.99c-1.18,0-2.14-.96-2.14-2.14v-17.14c0-1.18-.96-2.14-2.14-2.14h-17.14c-1.18,0-2.14-.96-2.14-2.14v-17.13c0-1.18-.96-2.14-2.14-2.14h-40.7c-1.18,0-2.14.96-2.14,2.14v104.96c0,1.18.96,2.14,2.14,2.14h19.28c1.18,0,2.14-.96,2.14-2.14v-81.4c0-1.18.96-2.14,2.14-2.14h15c1.18,0,2.14.96,2.14,2.14v17.13c0,1.18.96,2.14,2.14,2.14h17.13c1.18,0,2.14.96,2.14,2.14v17.14c0,1.18.96,2.14,2.14,2.14h17.14c1.18,0,2.14.96,2.14,2.14v38.56c0,1.18.96,2.14,2.14,2.14h19.28c1.18,0,2.14-.96,2.14-2.14v-104.96c0-1.18-.96-2.14-2.14-2.14h-19.28c-1.18,0-2.14.96-2.14,2.14v38.56c0,1.18-.96,2.14-2.14,2.14Z" fill="#1d1d1b"/>
  <path d="m392.1,201.95h-14.99c-1.18,0-2.14-.96-2.14-2.14v-17.14c0-1.18-.96-2.14-2.14-2.14h-17.14c-1.18,0-2.14-.96-2.14-2.14v-17.13c0-1.18-.96-2.14-2.14-2.14h-40.7c-1.18,0-2.14.96-2.14,2.14v104.96c0,1.18.96,2.14,2.14,2.14h19.28c1.18,0,2.14-.96,2.14-2.14v-81.4c0-1.18.96-2.14,2.14-2.14h15c1.18,0,2.14.96,2.14,2.14v17.13c0,1.18.96,2.14,2.14,2.14h17.13c1.18,0,2.14.96,2.14,2.14v17.14c0,1.18.96,2.14,2.14,2.14h17.14c1.18,0,2.14.96,2.14,2.14v38.56c0,1.18.96,2.14,2.14,2.14h19.28c1.18,0,2.14-.96,2.14-2.14v-104.96c0-1.18-.96-2.14-2.14-2.14h-19.28c-1.18,0-2.14.96-2.14,2.14v38.56c0,1.18-.96,2.14-2.14,2.14Z" fill="#1d1d1b"/>
  <path d="m439.21,139.82h104.96c1.18,0,2.14-.96,2.14-2.14v-19.28c0-1.18-.96-2.14-2.14-2.14h-81.4c-1.18,0-2.14-.96-2.14-2.14v-14.99c0-1.18.96-2.14,2.14-2.14h59.98c1.18,0,2.14-.96,2.14-2.14v-19.28c0-1.18-.96-2.14-2.14-2.14h-59.98c-1.18,0-2.14-.96-2.14-2.14v-14.99c0-1.18.96-2.14,2.14-2.14h81.4c1.18,0,2.14-.96,2.14-2.14v-19.28c0-1.18-.96-2.14-2.14-2.14h-104.96c-1.18,0-2.14.96-2.14,2.14v104.96c0,1.18.96,2.14,2.14,2.14Z" fill="#1d1d1b"/>
  <path d="m824.8,268.35h104.96c1.18,0,2.14-.96,2.14-2.14v-19.28c0-1.18-.96-2.14-2.14-2.14h-81.4c-1.18,0-2.14-.96-2.14-2.14v-14.99c0-1.18.96-2.14,2.14-2.14h59.98c1.18,0,2.14-.96,2.14-2.14v-19.28c0-1.18-.96-2.14-2.14-2.14h-59.98c-1.18,0-2.14-.96-2.14-2.14v-14.99c0-1.18.96-2.14,2.14-2.14h81.4c1.18,0,2.14-.96,2.14-2.14v-19.28c0-1.18-.96-2.14-2.14-2.14h-104.96c-1.18,0-2.14.96-2.14,2.14v104.96c0,1.18.96,2.14,2.14,2.14Z" fill="#1d1d1b"/>
  <path d="m567.74,268.35h104.96c1.18,0,2.14-.96,2.14-2.14v-19.28c0-1.18-.96-2.14-2.14-2.14h-81.4c-1.18,0-2.14-.96-2.14-2.14v-14.99c0-1.18.96-2.14,2.14-2.14h59.98c1.18,0,2.14-.96,2.14-2.14v-19.28c0-1.18-.96-2.14-2.14-2.14h-59.98c-1.18,0-2.14-.96-2.14-2.14v-14.99c0-1.18.96-2.14,2.14-2.14h81.4c1.18,0,2.14-.96,2.14-2.14v-19.28c0-1.18-.96-2.14-2.14-2.14h-104.96c-1.18,0-2.14.96-2.14,2.14v104.96c0,1.18.96,2.14,2.14,2.14Z" fill="#1d1d1b"/>
  <path d="m655.57,96.98h17.14c1.18,0,2.14-.96,2.14-2.14v-40.7c0-1.18-.96-2.14-2.14-2.14h-17.14c-1.18,0-2.14-.96-2.14-2.14v-17.14c0-1.18-.96-2.14-2.14-2.14h-83.54c-1.18,0-2.14.96-2.14,2.14v104.96c0,1.18.96,2.14,2.14,2.14h19.28c1.18,0,2.14-.96,2.14-2.14v-38.56c0-1.18.96-2.14,2.14-2.14h36.42c1.18,0,2.14.96,2.14,2.14v17.14c0,1.18.96,2.14,2.14,2.14h17.15c1.18,0,2.14.96,2.14,2.14v17.14c0,1.18.96,2.14,2.14,2.14h19.28c1.18,0,2.14-.96,2.14-2.14v-19.28c0-1.18-.96-2.14-2.14-2.14h-17.15c-1.18,0-2.14-.96-2.14-2.14v-14.99c0-1.18.96-2.14,2.14-2.14Zm-66.41-25.71v-14.99c0-1.18.96-2.14,2.14-2.14h57.84c1.18,0,2.14.96,2.14,2.14v14.99c0,1.18-.96,2.14-2.14,2.14h-57.84c-1.18,0-2.14-.96-2.14-2.14Z" fill="#1d1d1b"/>
  <path d="m784.1,225.51h17.14c1.18,0,2.14-.96,2.14-2.14v-40.7c0-1.18-.96-2.14-2.14-2.14h-17.14c-1.18,0-2.14-.96-2.14-2.14v-17.14c0-1.18-.96-2.14-2.14-2.14h-83.54c-1.18,0-2.14.96-2.14,2.14v104.96c0,1.18.96,2.14,2.14,2.14h19.28c1.18,0,2.14-.96,2.14-2.14v-38.56c0-1.18.96-2.14,2.14-2.14h36.42c1.18,0,2.14.96,2.14,2.14v17.14c0,1.18.96,2.14,2.14,2.14h17.15c1.18,0,2.14.96,2.14,2.14v17.14c0,1.18.96,2.14,2.14,2.14h19.28c1.18,0,2.14-.96,2.14-2.14v-19.28c0-1.18-.96-2.14-2.14-2.14h-17.15c-1.18,0-2.14-.96-2.14-2.14v-14.99c0-1.18.96-2.14,2.14-2.14Zm-66.41-25.71v-14.99c0-1.18.96-2.14,2.14-2.14h57.84c1.18,0,2.14.96,2.14,2.14v14.99c0,1.18-.96,2.14-2.14,2.14h-57.84c-1.18,0-2.14-.96-2.14-2.14Z" fill="#1d1d1b"/>
  <path d="m1423.87,269.42h-62.12c-1.77,0-3.21-1.44-3.21-3.21v-17.14c0-.59-.48-1.07-1.07-1.07h-17.14c-1.77,0-3.21-1.44-3.21-3.21v-62.12c0-1.77,1.44-3.21,3.21-3.21h17.14c.59,0,1.07-.48,1.07-1.07v-17.14c0-1.77,1.44-3.21,3.21-3.21h62.12c1.77,0,3.21,1.44,3.21,3.21v19.28c0,1.77-1.44,3.21-3.21,3.21h-59.98c-.59,0-1.07.48-1.07,1.07v14.99c0,.59.48,1.07,1.07,1.07h81.4c1.77,0,3.21,1.44,3.21,3.21v40.7c0,1.77-1.44,3.21-3.21,3.21h-17.14c-.59,0-1.07.48-1.07,1.07v17.14c0,1.77-1.44,3.21-3.21,3.21Zm-83.54-87.83c-.59,0-1.07.48-1.07,1.07v62.12c0,.59.48,1.07,1.07,1.07h17.14c1.77,0,3.21,1.44,3.21,3.21v17.14c0,.59.48,1.07,1.07,1.07h62.12c.59,0,1.07-.48,1.07-1.07v-17.14c0-1.77,1.44-3.21,3.21-3.21h17.14c.59,0,1.07-.48,1.07-1.07v-40.7c0-.59-.48-1.07-1.07-1.07h-81.4c-1.77,0-3.21-1.44-3.21-3.21v-14.99c0-1.77,1.44-3.21,3.21-3.21h59.98c.59,0,1.07-.48,1.07-1.07v-19.28c0-.59-.48-1.07-1.07-1.07h-62.12c-.59,0-1.07.48-1.07,1.07v17.14c0,1.77-1.44,3.21-3.21,3.21h-17.14Zm81.4,64.26h-57.84c-1.77,0-3.21-1.44-3.21-3.21v-15c0-1.77,1.44-3.21,3.21-3.21h57.84c1.77,0,3.21,1.44,3.21,3.21v15c0,1.77-1.44,3.21-3.21,3.21Zm-57.84-19.28c-.59,0-1.07.48-1.07,1.07v15c0,.59.48,1.07,1.07,1.07h57.84c.59,0,1.07-.48,1.07-1.07v-15c0-.59-.48-1.07-1.07-1.07h-57.84Z" fill="#1d1d1b"/>
  <path d="m1188.96,201.94v-19.28c0-1.18-.96-2.14-2.14-2.14h-17.14c-1.18,0-2.14-.96-2.14-2.14v-17.13c0-1.18-.96-2.14-2.14-2.14h-62.12c-1.18,0-2.14.96-2.14,2.14v17.14c0,1.18-.96,2.14-2.14,2.14h-17.14c-1.18,0-2.14.96-2.14,2.14v62.12c0,1.18.96,2.14,2.14,2.14h17.14c1.18,0,2.14.96,2.14,2.14v17.14c0,1.18.96,2.14,2.14,2.14h62.12c1.18,0,2.14-.96,2.14-2.14v-17.14c0-1.18.96-2.14,2.14-2.14h17.14c1.18,0,2.14-.96,2.14-2.14v-19.28c0-1.18-.96-2.14-2.14-2.14h-19.28c-1.18,0-2.14.96-2.14,2.14v17.14c0,1.18-.96,2.14-2.14,2.14h-57.84c-1.18,0-2.14-.96-2.14-2.14v-57.84c0-1.18.96-2.14,2.14-2.14h57.84c1.18,0,2.14.96,2.14,2.14v17.13c0,1.18.96,2.14,2.14,2.14h19.28c1.18,0,2.14-.96,2.14-2.14Z" fill="#1d1d1b"/>
  <path d="m824.8,139.82h19.28c1.18,0,2.14-.96,2.14-2.14v-59.98c0-1.18.96-2.14,2.14-2.14h14.99c1.18,0,2.14.96,2.14,2.14v17.14c0,1.18.96,2.14,2.14,2.14h17.14c1.18,0,2.14.96,2.14,2.14v17.14c0,1.18.96,2.14,2.14,2.14h17.14c1.18,0,2.14.96,2.14,2.14v17.14c0,1.18.96,2.14,2.14,2.14h19.28c1.18,0,2.14-.96,2.14-2.14v-19.28c0-1.18-.96-2.14-2.14-2.14h-17.14c-1.18,0-2.14-.96-2.14-2.14v-17.14c0-1.18-.96-2.14-2.14-2.14h-17.14c-1.18,0-2.14-.96-2.14-2.14v-17.14c0-1.18-.96-2.14-2.14-2.14h-17.14c-1.18,0-2.14-.96-2.14-2.14v-14.99c0-1.18.96-2.14,2.14-2.14h59.98c1.18,0,2.14-.96,2.14-2.14v-19.28c0-1.18-.96-2.14-2.14-2.14h-104.96c-1.18,0-2.14.96-2.14,2.14v104.96c0,1.18.96,2.14,2.14,2.14Z" fill="#1d1d1b"/>
  <g>
    <path d="m1036.88,30.58h-62.12c-1.18,0-2.14.96-2.14,2.14v17.14c0,1.18-.96,2.14-2.14,2.14h-17.14c-1.18,0-2.14.96-2.14,2.14v40.7c0,1.18.96,2.14,2.14,2.14h104.96c1.18,0,2.14-.96,2.14-2.14v-40.7c0-1.18-.96-2.14-2.14-2.14h-17.14c-1.18,0-2.14-.96-2.14-2.14v-17.14c0-1.18-.96-2.14-2.14-2.14Zm-19.28,40.7v-14.99c0-1.18.96-2.14,2.14-2.14h14.99c1.18,0,2.14.96,2.14,2.14v14.99c0,1.18-.96,2.14-2.14,2.14h-14.99c-1.18,0-2.14-.96-2.14-2.14Zm-40.7-17.14h14.99c1.18,0,2.14.96,2.14,2.14v14.99c0,1.18-.96,2.14-2.14,2.14h-14.99c-1.18,0-2.14-.96-2.14-2.14v-14.99c0-1.18.96-2.14,2.14-2.14Z" fill="#1d1d1b"/>
    <rect x="972.62" y="116.26" width="66.41" height="23.56" rx="2.14" ry="2.14" fill="#1d1d1b"/>
  </g>
  <path d="m1291.78,52h-14.99c-1.18,0-2.14-.96-2.14-2.14v-17.14c0-1.18-.96-2.14-2.14-2.14h-19.28c-1.18,0-2.14.96-2.14,2.14v17.14c0,1.18-.96,2.14-2.14,2.14h-14.99c-1.18,0-2.14-.96-2.14-2.14v-17.14c0-1.18-.96-2.14-2.14-2.14h-19.28c-1.18,0-2.14.96-2.14,2.14v19.28c0,1.18.96,2.14,2.14,2.14h17.14c1.18,0,2.14.96,2.14,2.14v17.14c0,1.18.96,2.14,2.14,2.14h17.14c1.18,0,2.14.96,2.14,2.14v14.99c0,1.18-.96,2.14-2.14,2.14h-17.14c-1.18,0-2.14.96-2.14,2.14v17.14c0,1.18-.96,2.14-2.14,2.14h-17.14c-1.18,0-2.14.96-2.14,2.14v19.28c0,1.18.96,2.14,2.14,2.14h40.7c1.18,0,2.14-.96,2.14-2.14v-17.14c0-1.18.96-2.14,2.14-2.14h14.99c1.18,0,2.14.96,2.14,2.14v17.14c0,1.18.96,2.14,2.14,2.14h40.7c1.18,0,2.14-.96,2.14-2.14v-19.28c0-1.18-.96-2.14-2.14-2.14h-17.14c-1.18,0-2.14-.96-2.14-2.14v-17.14c0-1.18-.96-2.14-2.14-2.14h-17.14c-1.18,0-2.14-.96-2.14-2.14v-14.99c0-1.18.96-2.14,2.14-2.14h17.14c1.18,0,2.14-.96,2.14-2.14v-17.14c0-1.18.96-2.14,2.14-2.14h17.14c1.18,0,2.14-.96,2.14-2.14v-19.28c0-1.18-.96-2.14-2.14-2.14h-19.28c-1.18,0-2.14.96-2.14,2.14v17.14c0,1.18-.96,2.14-2.14,2.14Z" fill="#1d1d1b"/>
  <g>
    <path d="m1338.19,32.72v19.28c0,1.18.96,2.14,2.14,2.14h81.4c1.18,0,2.14.96,2.14,2.14v81.4c0,1.18.96,2.14,2.14,2.14h19.28c1.18,0,2.14-.96,2.14-2.14V32.72c0-1.18-.96-2.14-2.14-2.14h-104.96c-1.18,0-2.14.96-2.14,2.14Z" fill="#1d1d1b"/>
    <path d="m1383.17,139.82h19.28c1.18,0,2.14-.96,2.14-2.14v-62.12c0-1.18-.96-2.14-2.14-2.14h-62.12c-1.18,0-2.14.96-2.14,2.14v19.28c0,1.18.96,2.14,2.14,2.14h38.56c1.18,0,2.14.96,2.14,2.14v38.56c0,1.18.96,2.14,2.14,2.14Z" fill="#1d1d1b"/>
    <rect x="1338.19" y="116.26" width="23.56" height="23.56" rx="2.14" ry="2.14" fill="#1d1d1b"/>
  </g>
  <g>
    <rect x="1079.71" y="30.58" width="23.56" height="23.56" rx="2.14" ry="2.14" fill="#1d1d1b"/>
    <rect x="1122.56" y="30.58" width="66.41" height="23.56" rx="2.14" ry="2.14" fill="#1d1d1b"/>
    <rect x="1079.71" y="73.42" width="23.56" height="23.56" rx="2.14" ry="2.14" fill="#1d1d1b"/>
    <rect x="1122.56" y="73.42" width="66.41" height="23.56" rx="2.14" ry="2.14" fill="#1d1d1b"/>
    <rect x="1079.71" y="116.26" width="23.56" height="23.56" rx="2.14" ry="2.14" fill="#1d1d1b"/>
    <rect x="1122.56" y="116.26" width="66.41" height="23.56" rx="2.14" ry="2.14" fill="#1d1d1b"/>
  </g>
</svg>