<?xml version="1.0" encoding="UTF-8"?>
<svg id="Layer_2" data-name="Layer 2" xmlns="http://www.w3.org/2000/svg" viewBox="0 0 921.9 368.78">
  <g id="Layer_1-2" data-name="Layer 1">
    <g>
      <path id="_149931032" data-name=" 149931032" d="m460.95,0c-50.9,0-92.24,41.34-92.18,92.19.01,10.17,1.64,19.96,4.68,29.12h27.58V43.75l59.92,59.92,59.91-59.92v77.55h27.59c3.05-9.15,4.66-18.94,4.68-29.12C553.22,41.28,511.86.01,460.95.01h0Z" fill="#ff7d00"/>
      <path id="_149931160" data-name=" 149931160" d="m447.17,117.44l-26.15-26.15v48.8h-38.86c16.18,26.55,45.42,44.31,78.78,44.31s62.6-17.76,78.79-44.31h-38.87v-48.8l-26.15,26.15-13.77,13.77-13.78-13.77h0Z" fill="#ff7d00"/>
      <g>
        <path d="m911.17,79.04c-1.91-2.14-4.59-3.19-8.02-3.16-2.43,0-4.37.52-5.82,1.56-1.02.73-1.67,1.66-1.97,2.78h-.2l.17-14.07h17.2v-4.75h-22.24l-.29,23.4h5.21c.5-1.31,1.31-2.36,2.43-3.16,1.12-.79,2.43-1.19,3.94-1.19,2.39,0,4.2.66,5.42,1.97,1.22,1.31,1.82,3.17,1.82,5.56v4.11c0,2.39-.61,4.25-1.82,5.56-1.22,1.31-3.04,1.97-5.47,1.97-2.12,0-3.8-.45-5.04-1.36-1.24-.91-1.95-2.19-2.14-3.85h-5.21c.39,3.01,1.68,5.41,3.88,7.18,2.2,1.78,5.02,2.66,8.46,2.66,3.98,0,7.07-1.09,9.27-3.27,2.2-2.18,3.3-5.14,3.3-8.89v-4.11c0-3.82-.96-6.81-2.87-8.95Z" fill="#15616d"/>
        <path d="m577.79,48.05V5.92h6.39l4.11,13.62c.4,1.23.76,2.46,1.08,3.67.32,1.21.56,2.14.7,2.8.18-.66.42-1.59.7-2.8.29-1.21.61-2.45.98-3.72l3.9-13.56h6.39v42.13h-4.76v-15.3c0-1.69.06-3.61.16-5.77.11-2.15.25-4.36.43-6.61.18-2.25.37-4.4.57-6.46s.37-3.86.51-5.4l-6.39,21.06h-5.14l-6.44-21.06c.18,1.5.36,3.24.54,5.22.18,1.98.34,4.08.49,6.29.14,2.21.27,4.42.38,6.61.11,2.19.16,4.23.16,6.12v15.3h-4.76Z" fill="#15616d"/>
        <path d="m618.34,48.63c-2.38,0-4.43-.48-6.14-1.44-1.72-.96-3.03-2.36-3.95-4.19-.92-1.83-1.38-3.99-1.38-6.49v-19.05c0-2.54.46-4.71,1.38-6.52s2.24-3.19,3.95-4.16c1.71-.96,3.76-1.44,6.14-1.44s4.43.48,6.14,1.44c1.71.96,3.03,2.35,3.95,4.16.92,1.81,1.38,3.96,1.38,6.46v19.1c0,2.5-.46,4.67-1.38,6.49-.92,1.83-2.24,3.22-3.95,4.19-1.71.96-3.76,1.44-6.14,1.44Zm0-4.67c2.13,0,3.76-.65,4.9-1.94,1.14-1.29,1.71-3.12,1.71-5.51v-19.05c0-2.38-.57-4.22-1.71-5.51-1.14-1.29-2.77-1.94-4.9-1.94s-3.72.65-4.87,1.94c-1.16,1.29-1.73,3.13-1.73,5.51v19.05c0,2.39.58,4.22,1.73,5.51,1.15,1.29,2.78,1.94,4.87,1.94Z" fill="#15616d"/>
        <path d="m635.39,48.05V5.92h6.5l12.07,36.07c-.07-.96-.15-2.14-.24-3.55-.09-1.41-.16-2.89-.22-4.44-.05-1.56-.08-3.03-.08-4.42V5.92h4.71v42.13h-6.5l-12.02-36.07c.07.92.14,2.09.22,3.49.07,1.4.14,2.89.19,4.44.05,1.56.08,3.05.08,4.47v23.66h-4.71Z" fill="#15616d"/>
        <path d="m664.36,48.05V5.92h22.74v4.73h-17.92v13.04h16.02v4.68h-16.02v14.95h17.92v4.73h-22.74Z" fill="#15616d"/>
        <path d="m692.34,48.05V5.92h12.24c2.34,0,4.4.51,6.17,1.53,1.77,1.02,3.14,2.43,4.11,4.24.97,1.81,1.46,3.92,1.46,6.35,0,2.85-.7,5.29-2.08,7.33-1.39,2.04-3.28,3.44-5.66,4.21l8.28,18.47h-5.74l-7.58-17.89h-6.33v17.89h-4.87Zm4.87-22.57h7.36c2.02,0,3.64-.68,4.87-2.05,1.23-1.37,1.84-3.16,1.84-5.4s-.61-4.08-1.84-5.43c-1.23-1.35-2.85-2.02-4.87-2.02h-7.36v14.89Z" fill="#15616d"/>
        <path d="m732.02,48.63c-2.38,0-4.43-.48-6.14-1.44-1.72-.96-3.03-2.36-3.95-4.19s-1.38-3.99-1.38-6.49v-19.05c0-2.54.46-4.71,1.38-6.52s2.24-3.19,3.95-4.16c1.71-.96,3.76-1.44,6.14-1.44s4.43.48,6.14,1.44c1.71.96,3.03,2.35,3.95,4.16.92,1.81,1.38,3.96,1.38,6.46v19.1c0,2.5-.46,4.67-1.38,6.49-.92,1.83-2.24,3.22-3.95,4.19-1.71.96-3.76,1.44-6.14,1.44Zm0-4.67c2.13,0,3.76-.65,4.9-1.94,1.14-1.29,1.71-3.12,1.71-5.51v-19.05c0-2.38-.57-4.22-1.71-5.51-1.14-1.29-2.77-1.94-4.9-1.94s-3.72.65-4.87,1.94c-1.16,1.29-1.73,3.13-1.73,5.51v19.05c0,2.39.58,4.22,1.73,5.51,1.15,1.29,2.78,1.94,4.87,1.94Z" fill="#15616d"/>
        <path d="m578.66,103.2v-42.13h4.87v18.06h5.85l8.77-18.06h5.31l-9.8,20.26,10.34,21.88h-5.58l-9.2-19.51h-5.68v19.51h-4.87Z" fill="#15616d"/>
        <path d="m618.34,103.78c-2.38,0-4.43-.48-6.14-1.44-1.72-.96-3.03-2.36-3.95-4.19s-1.38-3.99-1.38-6.49v-19.05c0-2.54.46-4.71,1.38-6.52s2.24-3.19,3.95-4.16c1.71-.96,3.76-1.44,6.14-1.44s4.43.48,6.14,1.44c1.71.96,3.03,2.35,3.95,4.16s1.38,3.96,1.38,6.46v19.1c0,2.5-.46,4.67-1.38,6.49s-2.24,3.22-3.95,4.19c-1.71.96-3.76,1.44-6.14,1.44Zm0-4.67c2.13,0,3.76-.65,4.9-1.94,1.14-1.29,1.71-3.12,1.71-5.51v-19.05c0-2.38-.57-4.22-1.71-5.51-1.14-1.29-2.77-1.94-4.9-1.94s-3.72.65-4.87,1.94c-1.16,1.29-1.73,3.13-1.73,5.51v19.05c0,2.39.58,4.22,1.73,5.51,1.15,1.29,2.78,1.94,4.87,1.94Z" fill="#15616d"/>
        <path d="m635.39,103.2v-42.13h6.5l12.07,36.07c-.07-.96-.15-2.14-.24-3.55-.09-1.41-.16-2.89-.22-4.44-.05-1.56-.08-3.03-.08-4.42v-23.66h4.71v42.13h-6.5l-12.02-36.07c.07.92.14,2.09.22,3.49s.14,2.89.19,4.44c.05,1.56.08,3.05.08,4.47v23.66h-4.71Z" fill="#15616d"/>
        <path d="m664.08,103.2v-42.19h23.28v4.73h-18.51v14.02h17.11v4.73h-17v18.7h-4.87Z" fill="#15616d"/>
        <path d="m692.78,103.2v-42.13h22.74v4.73h-17.92v13.04h16.02v4.68h-16.02v14.95h17.92v4.73h-22.74Z" fill="#15616d"/>
        <path d="m720.76,103.2v-42.13h12.24c2.34,0,4.4.51,6.17,1.53,1.77,1.02,3.14,2.43,4.11,4.24.97,1.81,1.46,3.92,1.46,6.35,0,2.85-.7,5.29-2.08,7.33-1.39,2.04-3.28,3.44-5.66,4.21l8.28,18.47h-5.74l-7.58-17.89h-6.33v17.89h-4.87Zm4.87-22.57h7.36c2.02,0,3.64-.68,4.87-2.05,1.23-1.37,1.84-3.16,1.84-5.4s-.61-4.08-1.84-5.43c-1.23-1.35-2.85-2.02-4.87-2.02h-7.36v14.89Z" fill="#15616d"/>
        <path d="m749.62,103.2v-42.13h22.74v4.73h-17.92v13.04h16.02v4.68h-16.02v14.95h17.92v4.73h-22.74Z" fill="#15616d"/>
        <path d="m777.5,103.2v-42.13h6.5l12.07,36.07c-.07-.96-.15-2.14-.24-3.55-.09-1.41-.16-2.89-.22-4.44-.05-1.56-.08-3.03-.08-4.42v-23.66h4.71v42.13h-6.5l-12.02-36.07c.07.92.14,2.09.22,3.49.07,1.4.14,2.89.19,4.44s.08,3.05.08,4.47v23.66h-4.71Z" fill="#15616d"/>
        <path d="m817.5,103.78c-2.38,0-4.45-.48-6.2-1.44-1.75-.96-3.1-2.36-4.06-4.19-.96-1.83-1.44-3.99-1.44-6.49v-19.05c0-2.54.48-4.71,1.44-6.52.96-1.81,2.31-3.19,4.06-4.16,1.75-.96,3.82-1.44,6.2-1.44s4.44.49,6.17,1.47c1.73.98,3.07,2.38,4.01,4.19.94,1.81,1.41,3.96,1.41,6.46h-4.87c0-2.38-.59-4.22-1.76-5.51-1.17-1.29-2.82-1.94-4.95-1.94s-3.8.64-5.01,1.91c-1.21,1.27-1.81,3.1-1.81,5.48v19.1c0,2.39.6,4.22,1.81,5.51,1.21,1.29,2.88,1.94,5.01,1.94s3.78-.65,4.95-1.94,1.76-3.12,1.76-5.51h4.87c0,2.46-.47,4.61-1.41,6.44-.94,1.83-2.27,3.23-4.01,4.21-1.73.98-3.79,1.47-6.17,1.47Z" fill="#15616d"/>
        <path d="m845.71,103.78c-2.38,0-4.43-.48-6.14-1.44-1.72-.96-3.03-2.36-3.95-4.19-.92-1.83-1.38-3.99-1.38-6.49v-19.05c0-2.54.46-4.71,1.38-6.52.92-1.81,2.24-3.19,3.95-4.16,1.71-.96,3.76-1.44,6.14-1.44s4.43.48,6.14,1.44c1.71.96,3.03,2.35,3.95,4.16s1.38,3.96,1.38,6.46v19.1c0,2.5-.46,4.67-1.38,6.49s-2.24,3.22-3.95,4.19c-1.71.96-3.76,1.44-6.14,1.44Zm0-4.67c2.13,0,3.76-.65,4.9-1.94,1.14-1.29,1.71-3.12,1.71-5.51v-19.05c0-2.38-.57-4.22-1.71-5.51-1.14-1.29-2.77-1.94-4.9-1.94s-3.72.65-4.87,1.94c-1.16,1.29-1.73,3.13-1.73,5.51v19.05c0,2.39.58,4.22,1.73,5.51,1.15,1.29,2.78,1.94,4.87,1.94Z" fill="#15616d"/>
        <path d="m579.63,158.35v-42.13h11.64c2.31,0,4.31.48,6.01,1.44,1.7.96,3.01,2.32,3.95,4.07.94,1.75,1.41,3.82,1.41,6.2s-.47,4.41-1.41,6.17c-.94,1.77-2.26,3.14-3.95,4.1-1.7.96-3.7,1.44-6.01,1.44h-8.93v18.7h-2.71Zm2.71-21.36h8.93c2.63,0,4.74-.82,6.31-2.45,1.57-1.63,2.36-3.84,2.36-6.61s-.78-5.02-2.33-6.64c-1.55-1.62-3.66-2.42-6.33-2.42h-8.93v18.12Z" fill="#15616d"/>
        <path d="m608.05,158.35v-42.13h11.1c2.35,0,4.37.47,6.06,1.41,1.69.94,3,2.29,3.92,4.04.92,1.75,1.38,3.82,1.38,6.21,0,3.04-.8,5.58-2.41,7.62s-3.8,3.27-6.58,3.69l9.26,19.16h-3.25l-8.93-19.05h-7.85v19.05h-2.71Zm2.71-21.64h8.39c2.63,0,4.74-.82,6.31-2.45s2.35-3.8,2.35-6.49-.78-4.89-2.35-6.49c-1.57-1.6-3.67-2.4-6.31-2.4h-8.39v17.83Z" fill="#15616d"/>
        <path d="m634.2,158.35l10.88-42.13h3.36l10.88,42.13h-2.81l-3.03-12.12h-13.53l-3.03,12.12h-2.71Zm6.39-14.72h12.23l-4.28-17.03c-.51-2.08-.91-3.82-1.22-5.22-.31-1.4-.5-2.32-.57-2.74-.07.42-.27,1.34-.6,2.74-.32,1.41-.74,3.15-1.25,5.22l-4.33,17.03Z" fill="#15616d"/>
        <path d="m664.9,158.35v-42.13h2.71v18.93h15.16v-18.93h2.71v42.13h-2.71v-20.55h-15.16v20.55h-2.71Z" fill="#15616d"/>
        <path d="m691.04,158.35l10.88-42.13h3.36l10.88,42.13h-2.81l-3.03-12.12h-13.53l-3.03,12.12h-2.71Zm6.39-14.72h12.23l-4.28-17.03c-.51-2.08-.91-3.82-1.22-5.22-.31-1.4-.5-2.32-.57-2.74-.07.42-.27,1.34-.6,2.74-.32,1.41-.74,3.15-1.25,5.22l-4.33,17.03Z" fill="#15616d"/>
        <path d="m751.78,140.58v-2.6h17.32v2.6h-17.32Z" fill="#15616d"/>
        <path d="m820.88,143.96c2.98-2.9,5.17-5.69,6.58-8.38,1.41-2.69,2.12-5.33,2.12-7.92,0-2.4-.5-4.47-1.51-6.21-1.01-1.74-2.44-3.08-4.29-4.03-1.86-.95-4.04-1.42-6.55-1.42s-4.64.48-6.5,1.45c-1.86.97-3.3,2.34-4.32,4.12-1.02,1.78-1.54,3.89-1.54,6.32h2.9c0-2.86.85-5.13,2.55-6.82,1.7-1.68,4-2.52,6.9-2.52s5.2.83,6.9,2.49c1.7,1.66,2.55,3.93,2.55,6.79,0,2.28-.62,4.57-1.86,6.87-1.24,2.3-3.17,4.79-5.8,7.45l-13.46,13.57v3.19h25.17v-2.61h-22.33l12.47-12.36Z" fill="#15616d"/>
        <path d="m851.62,117.45c-1.7-.97-3.69-1.45-5.97-1.45s-4.27.48-5.97,1.45c-1.7.97-3.02,2.31-3.94,4.03-.93,1.72-1.39,3.76-1.39,6.12v20.3c0,2.36.46,4.41,1.39,6.15.93,1.74,2.24,3.08,3.94,4.03,1.7.95,3.69,1.42,5.97,1.42s4.32-.47,6-1.42c1.68-.95,2.99-2.29,3.92-4.03.93-1.74,1.39-3.79,1.39-6.15v-20.3c0-2.36-.46-4.4-1.39-6.12-.93-1.72-2.24-3.06-3.94-4.03Zm2.44,30.45c0,2.86-.74,5.09-2.2,6.67-1.47,1.59-3.54,2.38-6.21,2.38s-4.74-.79-6.21-2.38c-1.47-1.59-2.2-3.81-2.2-6.67v-20.3c0-2.86.74-5.08,2.23-6.67,1.49-1.59,3.55-2.38,6.18-2.38s4.69.79,6.18,2.38c1.49,1.59,2.23,3.81,2.23,6.67v20.3Z" fill="#15616d"/>
        <path d="m877.38,143.96c2.98-2.9,5.17-5.69,6.58-8.38,1.41-2.69,2.12-5.33,2.12-7.92,0-2.4-.5-4.47-1.51-6.21-1.01-1.74-2.44-3.08-4.29-4.03-1.86-.95-4.04-1.42-6.55-1.42s-4.64.48-6.5,1.45c-1.86.97-3.3,2.34-4.32,4.12-1.02,1.78-1.54,3.89-1.54,6.32h2.9c0-2.86.85-5.13,2.55-6.82,1.7-1.68,4-2.52,6.9-2.52s5.2.83,6.9,2.49c1.7,1.66,2.55,3.93,2.55,6.79,0,2.28-.62,4.57-1.86,6.87-1.24,2.3-3.17,4.79-5.8,7.45l-13.46,13.57v3.19h25.17v-2.61h-22.33l12.47-12.36Z" fill="#15616d"/>
        <path d="m911.05,134.25c-1.8-2.11-4.38-3.16-7.74-3.16-2.78,0-5.02.71-6.7,2.12-1.18.99-1.94,2.21-2.29,3.65l.17-17.66h18.1v-2.61h-20.88l-.29,23.43h2.9c.5-2.01,1.43-3.57,2.78-4.67,1.35-1.1,3.04-1.65,5.05-1.65,2.78,0,4.93.84,6.44,2.52,1.51,1.68,2.26,4.03,2.26,7.05v3.83c0,3.09-.76,5.5-2.29,7.22-1.53,1.72-3.66,2.58-6.41,2.58s-4.7-.68-6.21-2.03c-1.51-1.35-2.34-3.21-2.49-5.57h-2.9c.23,3.17,1.37,5.67,3.42,7.48,2.05,1.82,4.78,2.73,8.18,2.73s6.38-1.12,8.47-3.36c2.09-2.24,3.13-5.26,3.13-9.05v-3.83c0-3.91-.9-6.91-2.7-9.02Z" fill="#15616d"/>
      </g>
      <g>
        <path d="m829.68,300.93l-8.72-8.72h-.02l-16.45-16.56v30.9h-24.7c16.76,27.55,52.69,36.29,80.24,19.53,7.98-4.85,14.67-11.55,19.53-19.53h-24.59v-30.9l-25.28,25.28Z" fill="#15616d"/>
        <path d="m815.02,191.48c.04,14.71-7.03,28.54-18.99,37.11-21,14.84-29.83,41.66-21.74,66.07h17.44v-49.12l37.95,37.93,37.93-37.93v49.12h17.46c8.1-24.38-.68-51.19-21.65-66.05v-.02c-12-8.53-19.14-22.33-19.16-37.06v-5.98c-4.74-.75-9.61-1.15-14.56-1.15s-9.91.4-14.69,1.17v5.91Zm-7.26,55.65c-4.04,0-7.31-3.27-7.31-7.31s3.27-7.31,7.31-7.31,7.31,3.27,7.31,7.31-3.27,7.31-7.31,7.31Zm33.47-23.2c6.37.01,11.53,5.17,11.55,11.54.01,6.38-5.15,11.56-11.54,11.57-6.38.01-11.56-5.15-11.57-11.54,0-6.38,5.15-11.56,11.54-11.57h.02Zm-11.57-25.91c4.04,0,7.31,3.27,7.31,7.31s-3.27,7.31-7.31,7.31-7.31-3.27-7.31-7.31,3.27-7.31,7.31-7.31Z" fill="#15616d"/>
        <path d="m858.86,189.11v2.28c.01,10.07,4.89,19.52,13.09,25.38l.04-.05c6.66,4.73,12.48,10.55,17.21,17.21,23.35,32.85,15.64,78.42-17.21,101.77-32.85,23.35-78.42,15.64-101.77-17.21-23.35-32.85-15.64-78.42,17.21-101.77,8.22-5.83,13.1-15.29,13.09-25.38v-2.21c-36.61,12.21-63,46.76-63,87.47,0,50.92,41.28,92.19,92.19,92.19s92.19-41.28,92.19-92.19c0-40.73-26.41-75.28-63.04-87.48Z" fill="#15616d"/>
      </g>
      <g>
        <circle cx="131.81" cy="41.91" r="27.94" transform="translate(42.65 147.65) rotate(-67.5)" fill="#ff7d00"/>
        <path d="m173.73,49.16c-3.45,20.02-20.93,35.3-41.92,35.3-9.1,0-17.53-2.88-24.46-7.76l-23.37,23.37,16.13,16.13-10.33,10.33-16.13-16.13-22.9,22.9,16.13,16.13-10.33,10.32-26.46-26.46,66.92-66.92c-4.88-6.92-7.76-15.36-7.76-24.46,0-17.47,10.59-32.52,25.69-39.06C107.68,1,100.05.02,92.19.02,41.28.02,0,41.29,0,92.21s41.28,92.19,92.19,92.19,92.19-41.28,92.19-92.19c0-15.55-3.86-30.2-10.66-43.05Z" fill="#ff7d00"/>
      </g>
      <g>
        <path d="m92.19,328.38c8.34-12.17,13.02-28.1,14.04-44.49h-28.09c1.03,16.39,5.71,32.31,14.04,44.49Z" fill="#15616d"/>
        <path d="m36.48,283.89c2.9,22.23,18.82,40.41,39.85,46.61-7.43-13.19-11.93-29.3-12.88-46.61h-26.97Z" fill="#15616d"/>
        <path d="m36.48,269.29h27.01c1.06-17.41,5.71-33.59,13.33-46.75-21.27,6.06-37.42,24.34-40.34,46.75Z" fill="#15616d"/>
        <path d="m92.19,225.54c-8.21,11.99-12.88,27.62-14,43.75h27.99c-1.12-16.13-5.79-31.76-14-43.75Z" fill="#15616d"/>
        <path d="m108.05,330.5c21.02-6.2,36.95-24.38,39.85-46.61h-26.97c-.95,17.3-5.44,33.42-12.87,46.61Z" fill="#15616d"/>
        <path d="m147.9,269.29c-2.92-22.4-19.07-40.69-40.34-46.75,7.62,13.16,12.27,29.34,13.33,46.75h27.01Z" fill="#15616d"/>
        <path d="m92.19,184.4C41.28,184.4,0,225.67,0,276.59s41.28,92.19,92.19,92.19,92.19-41.28,92.19-92.19-41.28-92.19-92.19-92.19Zm0,162.99c-39.04,0-70.8-31.76-70.8-70.8s31.76-70.8,70.8-70.8,70.8,31.76,70.8,70.8-31.76,70.8-70.8,70.8Z" fill="#15616d"/>
      </g>
      <g>
        <path d="m238.1,227.79c7.4-5.29,16.23-8.15,25.5-8.15,11.75,0,22.79,4.57,31.1,12.88l25.94,25.94c15.39,15.39,16.96,39.44,4.73,56.6l21.35,21.35c13.74-16.1,22.05-36.99,22.05-59.82,0-50.92-41.28-92.19-92.19-92.19-22.83,0-43.72,8.3-59.82,22.05l21.35,21.35Z" fill="#ff7d00"/>
        <path d="m314.83,304.52c6.66-11.27,5.16-26.06-4.51-35.74l-25.94-25.94c-5.73-5.73-13.25-8.59-20.77-8.59-5.18,0-10.37,1.36-14.96,4.08l13.64,13.64-10.33,10.33-13.64-13.64c-6.66,11.27-5.16,26.06,4.51,35.74l25.94,25.94c5.55,5.55,12.93,8.61,20.77,8.61,5.35,0,10.48-1.42,14.97-4.09l-13.65-13.65,10.33-10.33,13.64,13.64Z" fill="#ff7d00"/>
        <path d="m315.05,325.39c-7.4,5.29-16.23,8.15-25.5,8.15-11.75,0-22.79-4.58-31.1-12.88l-25.94-25.94c-8.31-8.31-12.88-19.35-12.88-31.1,0-9.28,2.86-18.11,8.15-25.5l-21.35-21.35c-13.74,16.1-22.05,36.99-22.05,59.82,0,50.92,41.28,92.19,92.19,92.19,22.83,0,43.72-8.3,59.82-22.05l-21.35-21.35Z" fill="#ff7d00"/>
      </g>
      <g>
        <path d="m189.03,121.15c2.14-7.48,6.14-14.54,12.02-20.42,18.47-18.47,48.53-18.47,67.01,0,18.47,18.47,18.47,48.54,0,67.01-5.88,5.88-12.94,9.88-20.42,12.02,16.45,5.42,34.12,6.1,50.87,2.01l-6.67-11.11,2.04-3.68c2.45-4.43,4.4-9.12,5.79-13.94l1.17-4.04,25.78-6.45v-16.62s-25.78-6.45-25.78-6.45l-1.16-4.04c-1.38-4.8-3.33-9.49-5.79-13.94l-2.03-3.68,13.68-22.8-11.75-11.75-22.8,13.68-3.68-2.03c-4.45-2.46-9.15-4.41-13.94-5.79l-4.04-1.16-6.45-25.78h-16.62s-6.45,25.78-6.45,25.78l-4.04,1.17c-4.81,1.39-9.5,3.34-13.95,5.79l-3.68,2.03-11.11-6.67c-4.09,16.75-3.41,34.42,2.01,50.87Z" fill="#15616d"/>
        <path d="m198.54,60.16c2.96-1.44,6-2.71,9.1-3.78l7.2-28.81h39.42s7.2,28.81,7.2,28.81c3.09,1.07,6.13,2.33,9.1,3.78l25.48-15.28,27.87,27.87-15.28,25.48c1.45,2.97,2.71,6.01,3.78,9.1l28.81,7.2v39.42s-28.81,7.2-28.81,7.2c-1.07,3.1-2.34,6.14-3.78,9.1l4.08,6.8c10.56-4.49,20.45-11.04,29.06-19.65,36-36,36-94.37,0-130.38-36-36-94.37-36-130.38,0-8.61,8.61-15.16,18.5-19.65,29.06l6.8,4.08Z" fill="#15616d"/>
        <path d="m212.59,158.57c12.85,11.61,32.76,11.22,45.14-1.16,12.78-12.78,12.78-33.58,0-46.36-12.78-12.78-33.58-12.78-46.36,0-12.38,12.38-12.77,32.29-1.16,45.14.39.4.78.81,1.18,1.21s.8.79,1.21,1.18Z" fill="#15616d"/>
      </g>
      <g>
        <path d="m620.56,209.33c0,13.66,11.11,24.77,24.77,24.77s24.77-11.11,24.77-24.77-11.11-24.77-24.77-24.77-24.77,11.11-24.77,24.77Z" fill="#ff7d00"/>
        <path d="m610.84,316.5c1.74-6.38.88-13.06-2.4-18.8-3.29-5.74-8.61-9.86-14.99-11.6-2.16-.59-4.36-.88-6.54-.88-4.26,0-8.46,1.11-12.26,3.28-5.74,3.29-9.86,8.61-11.6,14.99-1.74,6.38-.88,13.06,2.4,18.8,3.29,5.74,8.61,9.86,14.99,11.6,6.38,1.74,13.06.88,18.8-2.4,5.74-3.29,9.86-8.61,11.6-14.99Z" fill="#ff7d00"/>
        <path d="m684.69,209.33c0,1.29-.07,2.56-.19,3.81,21.34,13.17,34.62,36.07,35.34,61.27,1.16.53,2.29,1.11,3.41,1.76,5.52,3.19,10.08,7.58,13.42,12.79.54-4.05.83-8.18.83-12.37,0-38.54-23.65-71.55-57.22-85.32,2.81,5.41,4.4,11.55,4.4,18.06Z" fill="#ff7d00"/>
        <path d="m693.39,272.22c3.85-1.03,7.76-1.46,11.62-1.32-1.64-17.39-10.73-33.08-24.9-43.16-6.62,12.46-19.73,20.96-34.79,20.96s-28.17-8.51-34.79-20.96c-14.11,10.03-23.18,25.63-24.88,42.92,14.09-.44,27.98,6.72,35.46,19.78,7.48,13.07,6.61,28.67-.92,40.6,7.83,3.62,16.38,5.51,25.13,5.51s17.1-1.85,24.86-5.38c-2.05-3.29-3.63-6.9-4.66-10.75-2.72-10.16-1.31-20.77,3.95-29.87,5.26-9.1,13.76-15.61,23.92-18.33Z" fill="#ff7d00"/>
        <path d="m691.16,331.7c11.83,6.84,27,2.78,33.84-9.05,3.31-5.73,4.19-12.4,2.48-18.79-1.71-6.39-5.8-11.73-11.53-15.04-11.82-6.84-27-2.78-33.84,9.05-3.31,5.73-4.19,12.4-2.48,18.79,1.71,6.39,5.8,11.73,11.53,15.05Z" fill="#ff7d00"/>
        <path d="m683.85,344.34c-1.11-.64-2.18-1.33-3.21-2.07-10.82,5.83-22.92,8.88-35.32,8.88s-24.73-3.11-35.62-9.04c-1.03.73-2.1,1.42-3.21,2.05-5.64,3.23-11.74,4.89-17.83,5.15,15.63,12.19,35.29,19.46,56.66,19.46s40.75-7.17,56.33-19.21c-6.08-.28-12.18-1.98-17.8-5.23Z" fill="#ff7d00"/>
        <path d="m567.39,275.82c1.12-.64,2.26-1.22,3.41-1.74.83-25.07,14.09-47.84,35.34-60.95-.12-1.26-.19-2.53-.19-3.81,0-6.51,1.6-12.64,4.4-18.06-33.57,13.77-57.22,46.78-57.22,85.32,0,4.06.26,8.05.77,11.97,3.37-5.2,7.95-9.57,13.48-12.74Z" fill="#ff7d00"/>
      </g>
      <g>
        <path d="m492.92,221.23c-.99-.57-2.21-.85-3.61-.85-4.4,0-10.6,2.73-17.25,7.75-2.93,2.21-5.86,4.78-8.76,7.66,5.47,2.42,10.97,5.21,16.39,8.35,5.41,3.13,10.57,6.48,15.39,10,4.54-17.41,2.97-29.94-2.17-32.91Z" fill="#15616d"/>
        <path d="m390.15,247.48c.78.15,1.58.24,2.41.24,6.86,0,12.45-5.58,12.45-12.45,0-2.53-.76-4.87-2.06-6.84-2.23-3.37-6.05-5.61-10.39-5.61-3.77,0-7.15,1.69-9.43,4.35-.73,1.15-1.44,2.32-2.12,3.5-.57,1.42-.89,2.97-.89,4.6,0,6.04,4.33,11.08,10.04,12.21Z" fill="#15616d"/>
        <path d="m483.39,310.75c3.95,1.04,7.77,1.8,11.41,2.25,10.91,1.34,19.16-.36,21.52-4.45,2.96-5.13-1.94-16.77-14.58-29.58-2.42,5.46-5.2,10.94-8.33,16.35-3.13,5.43-6.5,10.6-10.02,15.43Z" fill="#15616d"/>
        <path d="m460.95,184.4c-24.14,0-46.11,9.28-62.54,24.46,8.76,1.94,15.93,8.15,19.23,16.31,3.48-.15,7.24.01,11.26.51,6.19.76,12.8,2.29,19.61,4.47,4.81-5.29,9.77-9.92,14.75-13.67,14.15-10.68,27.28-13.48,36.96-7.89,9.68,5.59,13.82,18.36,11.64,35.95-.76,6.19-2.29,12.8-4.47,19.61,5.29,4.81,9.92,9.77,13.67,14.75,10.68,14.15,13.48,27.28,7.89,36.96-4.62,8-14.13,12.21-27.22,12.21-2.76,0-5.67-.19-8.74-.57-6.19-.76-12.8-2.29-19.61-4.47-4.81,5.29-9.77,9.92-14.75,13.67-9.39,7.09-18.33,10.71-26.11,10.71-3.95,0-7.59-.93-10.85-2.81-9.68-5.59-13.82-18.36-11.64-35.95.76-6.19,2.29-12.8,4.47-19.61-5.29-4.81-9.92-9.77-13.67-14.75-3.1-4.1-5.53-8.12-7.29-11.99-.33.01-.66.03-1,.03-8.28,0-15.69-3.74-20.66-9.61-2.04,7.62-3.13,15.63-3.13,23.89,0,50.92,41.28,92.19,92.19,92.19s92.19-41.28,92.19-92.19-41.28-92.19-92.19-92.19Z" fill="#15616d"/>
        <path d="m441.14,265.15c-3.86,6.69-6.98,13.16-9.45,19.28,5.41,4.22,11.4,8.26,17.82,11.96,6.42,3.71,12.91,6.87,19.27,9.45,4.07-5.2,8.11-11.13,11.98-17.82,3.86-6.69,6.98-13.16,9.44-19.27-5.2-4.07-11.13-8.11-17.81-11.97-6.69-3.86-13.16-6.98-19.28-9.45-4.22,5.41-8.26,11.4-11.96,17.82Z" fill="#15616d"/>
        <path d="m407.57,257.75c1.25,2.45,2.9,5.05,4.92,7.74,2.21,2.93,4.78,5.86,7.66,8.76,2.42-5.47,5.21-10.97,8.35-16.39,3.13-5.41,6.48-10.57,10-15.39-7.44-1.94-13.99-2.76-19.28-2.67-1.26,7.46-5.59,13.9-11.64,17.96Z" fill="#15616d"/>
        <path d="m426.82,299.05c-4.54,17.41-2.97,29.94,2.17,32.91,5.13,2.97,16.77-1.94,29.58-14.58-5.46-2.42-10.94-5.2-16.36-8.33-5.41-3.13-10.57-6.48-15.39-10Z" fill="#15616d"/>
      </g>
    </g>
  </g>
</svg>