<?xml version="1.0" encoding="utf-8"?>
<!-- Generator: Adobe Illustrator 27.2.0, SVG Export Plug-In . SVG Version: 6.00 Build 0)  -->
<svg version="1.1"
	 id="Layer_2_00000147184727878477107590000009131415393849131402_" xmlns:sodipodi="http://sodipodi.sourceforge.net/DTD/sodipodi-0.dtd" xmlns:inkscape="http://www.inkscape.org/namespaces/inkscape" xmlns:svg="http://www.w3.org/2000/svg" inkscape:export-xdpi="96" inkscape:export-ydpi="96" sodipodi:docname="MKLogo.svg"
	 xmlns="http://www.w3.org/2000/svg" xmlns:xlink="http://www.w3.org/1999/xlink" x="0px" y="0px" viewBox="0 0 792.8 171.4"
	 style="enable-background:new 0 0 792.8 171.4;" xml:space="preserve">
<style type="text/css">
	.st0{fill:#FF7D00;}
	.st1{fill:#001524;}
</style>
<sodipodi:namedview  bordercolor="#000000" borderopacity="0.25" id="namedview28" inkscape:current-layer="Layer_1-2" inkscape:cx="338.22446" inkscape:cy="-22.353915" inkscape:deskcolor="#d1d1d1" inkscape:pagecheckerboard="0" inkscape:pageopacity="0.0" inkscape:showpageshadow="2" inkscape:window-height="720" inkscape:window-maximized="1" inkscape:window-width="1280" inkscape:window-x="0" inkscape:window-y="0" inkscape:zoom="0.51445126" pagecolor="#ffffff">
	</sodipodi:namedview>
<g id="Layer_1-2" transform="translate(-121.81382,-64.485322)">
	<g id="g28">
		<g id="g1" transform="matrix(0.54989773,0,0,0.54989773,121.81389,64.485322)">
			<path id="_149931032" class="st0" d="M155.8,0C69.8,0-0.1,69.9,0,155.9c0,17.2,2.8,33.7,7.9,49.2h46.6V74l101.3,101.3L257.1,74
				v131.1h46.6c5.2-15.5,7.9-32,7.9-49.2C311.8,69.8,241.9,0,155.8,0L155.8,0z"/>
			<path id="_149931160" class="st0" d="M132.5,198.6l-44.2-44.2v82.5H22.7c27.4,44.9,76.8,74.9,133.2,74.9s105.8-30,133.2-74.9
				h-65.7v-82.5l-44.2,44.2l-23.3,23.3L132.5,198.6L132.5,198.6L132.5,198.6z"/>
		</g>
	</g>
</g>
<g>
	<path class="st1" d="M225.3,167.8V96.5h8.4v30.5h10.1L259,96.5h9.2l-16.9,34.3l17.8,37h-9.6l-15.9-33h-9.8v33H225.3z"/>
	<path class="st1" d="M292.9,168.7c-4.1,0-7.6-0.8-10.6-2.4c-3-1.6-5.2-4-6.8-7.1c-1.6-3.1-2.4-6.8-2.4-11V116c0-4.3,0.8-8,2.4-11
		c1.6-3.1,3.9-5.4,6.8-7c3-1.6,6.5-2.4,10.6-2.4c4.1,0,7.6,0.8,10.6,2.4c3,1.6,5.2,4,6.8,7c1.6,3.1,2.4,6.7,2.4,10.9v32.3
		c0,4.2-0.8,7.9-2.4,11c-1.6,3.1-3.9,5.5-6.8,7.1C300.5,167.9,297,168.7,292.9,168.7z M292.9,160.8c3.7,0,6.5-1.1,8.5-3.3
		c2-2.2,2.9-5.3,2.9-9.3V116c0-4-1-7.1-2.9-9.3c-2-2.2-4.8-3.3-8.5-3.3c-3.6,0-6.4,1.1-8.4,3.3c-2,2.2-3,5.3-3,9.3v32.2
		c0,4,1,7.1,3,9.3C286.5,159.8,289.3,160.8,292.9,160.8z"/>
	<path class="st1" d="M321.4,167.8V96.5h11.2l20.8,61c-0.1-1.6-0.3-3.6-0.4-6c-0.2-2.4-0.3-4.9-0.4-7.5s-0.1-5.1-0.1-7.5v-40h8.1
		v71.2h-11.2l-20.7-61c0.1,1.6,0.2,3.5,0.4,5.9c0.1,2.4,0.2,4.9,0.3,7.5c0.1,2.6,0.1,5.2,0.1,7.6v40H321.4z"/>
	<path class="st1" d="M369.9,167.8V96.4h40.2v8h-31.9v23.7h29.5v8h-29.3v31.6H369.9z"/>
	<path class="st1" d="M418.5,167.8V96.5h39.2v8h-30.9v22.1h27.6v7.9h-27.6v25.3h30.9v8H418.5z"/>
	<path class="st1" d="M465.8,167.8V96.5h21.1c4,0,7.6,0.9,10.6,2.6c3,1.7,5.4,4.1,7.1,7.2c1.7,3.1,2.5,6.6,2.5,10.7
		c0,4.8-1.2,8.9-3.6,12.4c-2.4,3.4-5.7,5.8-9.8,7.1l14.3,31.2h-9.9l-13.1-30.3h-10.9v30.3H465.8z M474.2,129.6h12.7
		c3.5,0,6.3-1.2,8.4-3.5c2.1-2.3,3.2-5.4,3.2-9.1c0-3.8-1.1-6.9-3.2-9.2c-2.1-2.3-4.9-3.4-8.4-3.4h-12.7V129.6z"/>
	<path class="st1" d="M514.7,167.8V96.5h39.2v8H523v22.1h27.6v7.9H523v25.3h30.9v8H514.7z"/>
	<path class="st1" d="M561.8,167.8V96.5H573l20.8,61c-0.1-1.6-0.3-3.6-0.4-6c-0.2-2.4-0.3-4.9-0.4-7.5c-0.1-2.6-0.1-5.1-0.1-7.5v-40
		h8.1v71.2h-11.2l-20.7-61c0.1,1.6,0.2,3.5,0.4,5.9c0.1,2.4,0.2,4.9,0.3,7.5c0.1,2.6,0.1,5.2,0.1,7.6v40H561.8z"/>
	<path class="st1" d="M629.9,168.7c-4.1,0-7.7-0.8-10.7-2.4c-3-1.6-5.4-4-7-7.1c-1.7-3.1-2.5-6.8-2.5-11V116c0-4.3,0.8-8,2.5-11
		c1.6-3.1,4-5.4,7-7c3-1.6,6.6-2.4,10.7-2.4c4.1,0,7.7,0.8,10.6,2.5s5.3,4,6.9,7.1c1.6,3.1,2.4,6.7,2.4,10.9h-8.4c0-4-1-7.1-3-9.3
		c-2-2.2-4.9-3.3-8.5-3.3c-3.7,0-6.6,1.1-8.6,3.2c-2.1,2.1-3.1,5.2-3.1,9.3v32.3c0,4,1,7.1,3.1,9.3c2.1,2.2,5,3.3,8.6,3.3
		c3.7,0,6.5-1.1,8.5-3.3c2-2.2,3-5.3,3-9.3h8.4c0,4.2-0.8,7.8-2.4,10.9c-1.6,3.1-3.9,5.5-6.9,7.1S634,168.7,629.9,168.7z"/>
	<path class="st1" d="M677.6,168.7c-4.1,0-7.6-0.8-10.6-2.4c-3-1.6-5.2-4-6.8-7.1c-1.6-3.1-2.4-6.8-2.4-11V116c0-4.3,0.8-8,2.4-11
		c1.6-3.1,3.9-5.4,6.8-7c3-1.6,6.5-2.4,10.6-2.4c4.1,0,7.6,0.8,10.6,2.4c3,1.6,5.2,4,6.8,7c1.6,3.1,2.4,6.7,2.4,10.9v32.3
		c0,4.2-0.8,7.9-2.4,11c-1.6,3.1-3.9,5.5-6.8,7.1C685.3,167.9,681.7,168.7,677.6,168.7z M677.6,160.8c3.7,0,6.5-1.1,8.5-3.3
		c2-2.2,2.9-5.3,2.9-9.3V116c0-4-1-7.1-2.9-9.3c-2-2.2-4.8-3.3-8.5-3.3c-3.6,0-6.4,1.1-8.4,3.3c-2,2.2-3,5.3-3,9.3v32.2
		c0,4,1,7.1,3,9.3C671.2,159.8,674,160.8,677.6,160.8z"/>
	<path class="st1" d="M769.7,168.7c-4.4,0-8.2-1-11.4-2.9c-3.3-1.9-5.8-4.6-7.6-8.1c-1.8-3.4-2.7-7.5-2.7-12c0-3.6,0.5-7.1,1.4-10.5
		c1-3.4,2.4-6.8,4.3-10l17.1-28.8h9.3l-19.3,32.4l0.4,0.3c1.2-1.8,2.8-3.2,4.9-4.2c2.1-1,4.4-1.5,6.9-1.5c3.7,0,7,0.9,9.7,2.7
		c2.7,1.8,4.9,4.4,6.3,7.7c1.5,3.3,2.2,7.3,2.2,11.8c0,4.6-0.9,8.6-2.7,12c-1.8,3.4-4.3,6.1-7.5,8.1
		C777.9,167.8,774.1,168.7,769.7,168.7z M769.6,160.9c4,0,7.2-1.4,9.6-4.1c2.4-2.8,3.6-6.4,3.6-11c0-4.6-1.2-8.2-3.6-11
		c-2.4-2.8-5.6-4.1-9.6-4.1c-4,0-7.2,1.4-9.6,4.1c-2.4,2.8-3.6,6.4-3.6,11c0,4.6,1.2,8.2,3.6,11
		C762.5,159.6,765.7,160.9,769.6,160.9z"/>
</g>
<g>
	<path class="st1" d="M223.9,74.5V3.3h11l7.1,23c0.7,2.1,1.3,4.1,1.9,6.2c0.6,2,1,3.6,1.2,4.7c0.3-1.1,0.7-2.7,1.2-4.7
		c0.5-2,1.1-4.1,1.7-6.3l6.7-22.9h11v71.2h-8.2V48.7c0-2.9,0.1-6.1,0.3-9.8c0.2-3.6,0.4-7.4,0.7-11.2c0.3-3.8,0.6-7.4,1-10.9
		c0.3-3.5,0.6-6.5,0.9-9.1l-11,35.6h-8.9L229.4,7.7c0.3,2.5,0.6,5.5,0.9,8.8c0.3,3.4,0.6,6.9,0.8,10.6c0.2,3.7,0.5,7.5,0.7,11.2
		c0.2,3.7,0.3,7.2,0.3,10.3v25.9H223.9z"/>
	<path class="st1" d="M292.9,75.5c-4.1,0-7.6-0.8-10.6-2.4c-3-1.6-5.2-4-6.8-7.1c-1.6-3.1-2.4-6.7-2.4-11V22.8c0-4.3,0.8-8,2.4-11
		c1.6-3.1,3.9-5.4,6.8-7c3-1.6,6.5-2.4,10.6-2.4c4.1,0,7.6,0.8,10.6,2.4c3,1.6,5.2,4,6.8,7c1.6,3.1,2.4,6.7,2.4,10.9V55
		c0,4.2-0.8,7.9-2.4,11c-1.6,3.1-3.9,5.5-6.8,7.1C300.5,74.7,297,75.5,292.9,75.5z M292.9,67.6c3.7,0,6.5-1.1,8.5-3.3
		c2-2.2,2.9-5.3,2.9-9.3V22.8c0-4-1-7.1-2.9-9.3c-2-2.2-4.8-3.3-8.5-3.3c-3.6,0-6.4,1.1-8.4,3.3c-2,2.2-3,5.3-3,9.3V55
		c0,4,1,7.1,3,9.3C286.5,66.5,289.3,67.6,292.9,67.6z"/>
	<path class="st1" d="M321.4,74.5V3.3h11.2l20.8,61c-0.1-1.6-0.3-3.6-0.4-6c-0.2-2.4-0.3-4.9-0.4-7.5s-0.1-5.1-0.1-7.5v-40h8.1v71.2
		h-11.2l-20.7-61c0.1,1.6,0.2,3.5,0.4,5.9c0.1,2.4,0.2,4.9,0.3,7.5c0.1,2.6,0.1,5.2,0.1,7.6v40H321.4z"/>
	<path class="st1" d="M370.4,74.5V3.3h39.2v8h-30.9v22.1h27.6v7.9h-27.6v25.3h30.9v8H370.4z"/>
	<path class="st1" d="M417.7,74.5V3.3h21.1c4,0,7.6,0.9,10.6,2.6c3,1.7,5.4,4.1,7.1,7.2c1.7,3.1,2.5,6.6,2.5,10.7
		c0,4.8-1.2,8.9-3.6,12.4c-2.4,3.4-5.7,5.8-9.8,7.1L460,74.5h-9.9l-13.1-30.3h-10.9v30.3H417.7z M426.1,36.4h12.7
		c3.5,0,6.3-1.2,8.4-3.5c2.1-2.3,3.2-5.4,3.2-9.1c0-3.8-1.1-6.9-3.2-9.2c-2.1-2.3-4.9-3.4-8.4-3.4h-12.7V36.4z"/>
	<path class="st1" d="M485.2,75.5c-4.1,0-7.6-0.8-10.6-2.4c-3-1.6-5.2-4-6.8-7.1c-1.6-3.1-2.4-6.7-2.4-11V22.8c0-4.3,0.8-8,2.4-11
		c1.6-3.1,3.9-5.4,6.8-7c3-1.6,6.5-2.4,10.6-2.4c4.1,0,7.6,0.8,10.6,2.4c3,1.6,5.2,4,6.8,7c1.6,3.1,2.4,6.7,2.4,10.9V55
		c0,4.2-0.8,7.9-2.4,11c-1.6,3.1-3.9,5.5-6.8,7.1C492.9,74.7,489.4,75.5,485.2,75.5z M485.2,67.6c3.7,0,6.5-1.1,8.5-3.3
		c2-2.2,2.9-5.3,2.9-9.3V22.8c0-4-1-7.1-2.9-9.3c-2-2.2-4.8-3.3-8.5-3.3c-3.6,0-6.4,1.1-8.4,3.3c-2,2.2-3,5.3-3,9.3V55
		c0,4,1,7.1,3,9.3C478.8,66.5,481.6,67.6,485.2,67.6z"/>
</g>
</svg>
