<?xml version="1.0" encoding="UTF-8" standalone="no"?>
<svg
   id="Layer_1"
   data-name="Layer 1"
   viewBox="0 0 783 171"
   version="1.1"
   sodipodi:docname="monero-mk6-black_20260119124353.svg"
   inkscape:version="1.4.3 (0d15f75042, 2025-12-25)"
   xmlns:inkscape="http://www.inkscape.org/namespaces/inkscape"
   xmlns:sodipodi="http://sodipodi.sourceforge.net/DTD/sodipodi-0.dtd"
   xmlns="http://www.w3.org/2000/svg"
   xmlns:svg="http://www.w3.org/2000/svg">
  <defs
     id="defs30" />
  <sodipodi:namedview
     id="namedview30"
     pagecolor="#505050"
     bordercolor="#ffffff"
     borderopacity="1"
     inkscape:showpageshadow="0"
     inkscape:pageopacity="0"
     inkscape:pagecheckerboard="1"
     inkscape:deskcolor="#505050"
     inkscape:zoom="1.0683269"
     inkscape:cx="262.56007"
     inkscape:cy="200.78123"
     inkscape:window-width="1920"
     inkscape:window-height="1080"
     inkscape:window-x="0"
     inkscape:window-y="0"
     inkscape:window-maximized="1"
     inkscape:current-layer="Layer_1" />
  <g
     id="g29"
     style="fill:#ffffff;fill-opacity:1">
    <path
       d="m338.49,136.31h8.28c.51,0,.92-.41.92-.92v-16.55c0-.51.41-.92.92-.92h25.75c.51,0,.92-.41.92-.92v-8.28c0-.51-.41-.92-.92-.92h-25.75c-.51,0-.92-.41-.92-.92v-6.44c0-.51.41-.92.92-.92h34.95c.51,0,.92-.41.92-.92v-8.28c0-.51-.41-.92-.92-.92h-45.06c-.51,0-.92.41-.92.92v45.06c0,.51.41.92.92.92Z"
       fill="#1d1d1b"
       id="path1"
       style="fill:#ffffff;fill-opacity:1" />
    <path
       d="m207.89,43.42h-7.36c-.51,0-.92.41-.92.92v7.36c0,.51-.41.92-.92.92h-6.44c-.51,0-.92-.41-.92-.92v-7.36c0-.51-.41-.92-.92-.92h-7.36c-.51,0-.92-.41-.92-.92v-7.36c0-.51-.41-.92-.92-.92h-8.28c-.51,0-.92.41-.92.92v45.06c0,.51.41.92.92.92h8.28c.51,0,.92-.41.92-.92v-25.75c0-.51.41-.92.92-.92h6.44c.51,0,.92.41.92.92v7.36c0,.51.41.92.92.92h8.28c.51,0,.92-.41.92-.92v-7.36c0-.51.41-.92.92-.92h6.44c.51,0,.92.41.92.92v25.75c0,.51.41.92.92.92h8.28c.51,0,.92-.41.92-.92v-45.06c0-.51-.41-.92-.92-.92h-8.28c-.51,0-.92.41-.92.92v7.36c0,.51-.41.92-.92.92Z"
       fill="#1d1d1b"
       id="path2"
       style="fill:#ffffff;fill-opacity:1" />
    <path
       d="m207.89,98.61h-7.36c-.51,0-.92.41-.92.92v7.36c0,.51-.41.92-.92.92h-15.63c-.51,0-.92-.41-.92-.92v-16.55c0-.51-.41-.92-.92-.92h-8.28c-.51,0-.92.41-.92.92v45.06c0,.51.41.92.92.92h8.28c.51,0,.92-.41.92-.92v-16.55c0-.51.41-.92.92-.92h15.63c.51,0,.92.41.92.92v16.55c0,.51.41.92.92.92h17.47c.51,0,.92-.41.92-.92v-8.28c0-.51-.41-.92-.92-.92h-7.36c-.51,0-.92-.41-.92-.92v-7.36c0-.51-.41-.92-.92-.92h-7.36c-.51,0-.92-.41-.92-.92v-6.44c0-.51.41-.92.92-.92h7.36c.51,0,.92-.41.92-.92v-7.36c0-.51.41-.92.92-.92h7.36c.51,0,.92-.41.92-.92v-8.28c0-.51-.41-.92-.92-.92h-8.28c-.51,0-.92.41-.92.92v7.36c0,.51-.41.92-.92.92Z"
       fill="#1d1d1b"
       id="path3"
       style="fill:#ffffff;fill-opacity:1" />
    <path
       d="m264,34.23h-26.67c-.51,0-.92.41-.92.92v7.36c0,.51-.41.92-.92.92h-7.36c-.51,0-.92.41-.92.92v26.67c0,.51.41.92.92.92h7.36c.51,0,.92.41.92.92v7.36c0,.51.41.92.92.92h26.67c.51,0,.92-.41.92-.92v-7.36c0-.51.41-.92.92-.92h7.36c.51,0,.92-.41.92-.92v-26.67c0-.51-.41-.92-.92-.92h-7.36c-.51,0-.92-.41-.92-.92v-7.36c0-.51-.41-.92-.92-.92Zm0,11.04v24.83c0,.51-.41.92-.92.92h-24.83c-.51,0-.92-.41-.92-.92v-24.83c0-.51.41-.92.92-.92h24.83c.51,0,.92.41.92.92Z"
       fill="#1d1d1b"
       id="path4"
       style="fill:#ffffff;fill-opacity:1" />
    <path
       d="m264,89.41h-26.67c-.51,0-.92.41-.92.92v7.36c0,.51-.41.92-.92.92h-7.36c-.51,0-.92.41-.92.92v26.67c0,.51.41.92.92.92h7.36c.51,0,.92.41.92.92v7.36c0,.51.41.92.92.92h26.67c.51,0,.92-.41.92-.92v-7.36c0-.51.41-.92.92-.92h7.36c.51,0,.92-.41.92-.92v-26.67c0-.51-.41-.92-.92-.92h-7.36c-.51,0-.92-.41-.92-.92v-7.36c0-.51-.41-.92-.92-.92Zm0,11.04v24.83c0,.51-.41.92-.92.92h-24.83c-.51,0-.92-.41-.92-.92v-24.83c0-.51.41-.92.92-.92h24.83c.51,0,.92.41.92.92Z"
       fill="#1d1d1b"
       id="path5"
       style="fill:#ffffff;fill-opacity:1" />
    <path
       d="m458.05,81.13h26.67c.51,0,.92-.41.92-.92v-7.36c0-.51.41-.92.92-.92h7.36c.51,0,.92-.41.92-.92v-26.67c0-.51-.41-.92-.92-.92h-7.36c-.51,0-.92-.41-.92-.92v-7.36c0-.51-.41-.92-.92-.92h-26.67c-.51,0-.92.41-.92.92v7.36c0,.51-.41.92-.92.92h-7.36c-.51,0-.92.41-.92.92v26.67c0,.51.41.92.92.92h7.36c.51,0,.92.41.92.92v7.36c0,.51.41.92.92.92Zm0-11.04v-24.83c0-.51.41-.92.92-.92h24.83c.51,0,.92.41.92.92v24.83c0,.51-.41.92-.92.92h-24.83c-.51,0-.92-.41-.92-.92Z"
       fill="#1d1d1b"
       id="path6"
       style="fill:#ffffff;fill-opacity:1" />
    <path
       d="m705.45,89.41h-26.67c-.51,0-.92.41-.92.92v7.36c0,.51-.41.92-.92.92h-7.36c-.51,0-.92.41-.92.92v26.67c0,.51.41.92.92.92h7.36c.51,0,.92.41.92.92v7.36c0,.51.41.92.92.92h26.67c.51,0,.92-.41.92-.92v-7.36c0-.51.41-.92.92-.92h7.36c.51,0,.92-.41.92-.92v-26.67c0-.51-.41-.92-.92-.92h-7.36c-.51,0-.92-.41-.92-.92v-7.36c0-.51-.41-.92-.92-.92Zm0,11.04v24.83c0,.51-.41.92-.92.92h-24.83c-.51,0-.92-.41-.92-.92v-24.83c0-.51.41-.92.92-.92h24.83c.51,0,.92.41.92.92Z"
       fill="#1d1d1b"
       id="path7"
       style="fill:#ffffff;fill-opacity:1" />
    <path
       d="m293.43,44.34h6.44c.51,0,.92.41.92.92v7.36c0,.51.41.92.92.92h7.36c.51,0,.92.41.92.92v7.36c0,.51.41.92.92.92h7.36c.51,0,.92.41.92.92v16.55c0,.51.41.92.92.92h8.28c.51,0,.92-.41.92-.92v-45.06c0-.51-.41-.92-.92-.92h-8.28c-.51,0-.92.41-.92.92v16.55c0,.51-.41.92-.92.92h-6.44c-.51,0-.92-.41-.92-.92v-7.36c0-.51-.41-.92-.92-.92h-7.36c-.51,0-.92-.41-.92-.92v-7.36c0-.51-.41-.92-.92-.92h-17.47c-.51,0-.92.41-.92.92v45.06c0,.51.41.92.92.92h8.28c.51,0,.92-.41.92-.92v-34.95c0-.51.41-.92.92-.92Z"
       fill="#1d1d1b"
       id="path8"
       style="fill:#ffffff;fill-opacity:1" />
    <path
       d="m594.17,107.8h-6.44c-.51,0-.92-.41-.92-.92v-7.36c0-.51-.41-.92-.92-.92h-7.36c-.51,0-.92-.41-.92-.92v-7.36c0-.51-.41-.92-.92-.92h-17.47c-.51,0-.92.41-.92.92v45.06c0,.51.41.92.92.92h8.28c.51,0,.92-.41.92-.92v-34.95c0-.51.41-.92.92-.92h6.44c.51,0,.92.41.92.92v7.36c0,.51.41.92.92.92h7.36c.51,0,.92.41.92.92v7.36c0,.51.41.92.92.92h7.36c.51,0,.92.41.92.92v16.55c0,.51.41.92.92.92h8.28c.51,0,.92-.41.92-.92v-45.06c0-.51-.41-.92-.92-.92h-8.28c-.51,0-.92.41-.92.92v16.55c0,.51-.41.92-.92.92Z"
       fill="#1d1d1b"
       id="path9"
       style="fill:#ffffff;fill-opacity:1" />
    <path
       d="m318.26,107.8h-6.44c-.51,0-.92-.41-.92-.92v-7.36c0-.51-.41-.92-.92-.92h-7.36c-.51,0-.92-.41-.92-.92v-7.36c0-.51-.41-.92-.92-.92h-17.47c-.51,0-.92.41-.92.92v45.06c0,.51.41.92.92.92h8.28c.51,0,.92-.41.92-.92v-34.95c0-.51.41-.92.92-.92h6.44c.51,0,.92.41.92.92v7.36c0,.51.41.92.92.92h7.36c.51,0,.92.41.92.92v7.36c0,.51.41.92.92.92h7.36c.51,0,.92.41.92.92v16.55c0,.51.41.92.92.92h8.28c.51,0,.92-.41.92-.92v-45.06c0-.51-.41-.92-.92-.92h-8.28c-.51,0-.92.41-.92.92v16.55c0,.51-.41.92-.92.92Z"
       fill="#1d1d1b"
       id="path10"
       style="fill:#ffffff;fill-opacity:1" />
    <path
       d="m338.49,81.13h45.06c.51,0,.92-.41.92-.92v-8.28c0-.51-.41-.92-.92-.92h-34.95c-.51,0-.92-.41-.92-.92v-6.44c0-.51.41-.92.92-.92h25.75c.51,0,.92-.41.92-.92v-8.28c0-.51-.41-.92-.92-.92h-25.75c-.51,0-.92-.41-.92-.92v-6.44c0-.51.41-.92.92-.92h34.95c.51,0,.92-.41.92-.92v-8.28c0-.51-.41-.92-.92-.92h-45.06c-.51,0-.92.41-.92.92v45.06c0,.51.41.92.92.92Z"
       fill="#1d1d1b"
       id="path11"
       style="fill:#ffffff;fill-opacity:1" />
    <path
       d="m504.04,136.31h45.06c.51,0,.92-.41.92-.92v-8.28c0-.51-.41-.92-.92-.92h-34.95c-.51,0-.92-.41-.92-.92v-6.44c0-.51.41-.92.92-.92h25.75c.51,0,.92-.41.92-.92v-8.28c0-.51-.41-.92-.92-.92h-25.75c-.51,0-.92-.41-.92-.92v-6.44c0-.51.41-.92.92-.92h34.95c.51,0,.92-.41.92-.92v-8.28c0-.51-.41-.92-.92-.92h-45.06c-.51,0-.92.41-.92.92v45.06c0,.51.41.92.92.92Z"
       fill="#1d1d1b"
       id="path12"
       style="fill:#ffffff;fill-opacity:1" />
    <path
       d="m393.67,136.31h45.06c.51,0,.92-.41.92-.92v-8.28c0-.51-.41-.92-.92-.92h-34.95c-.51,0-.92-.41-.92-.92v-6.44c0-.51.41-.92.92-.92h25.75c.51,0,.92-.41.92-.92v-8.28c0-.51-.41-.92-.92-.92h-25.75c-.51,0-.92-.41-.92-.92v-6.44c0-.51.41-.92.92-.92h34.95c.51,0,.92-.41.92-.92v-8.28c0-.51-.41-.92-.92-.92h-45.06c-.51,0-.92.41-.92.92v45.06c0,.51.41.92.92.92Z"
       fill="#1d1d1b"
       id="path13"
       style="fill:#ffffff;fill-opacity:1" />
    <path
       d="m431.38,62.74h7.36c.51,0,.92-.41.92-.92v-17.47c0-.51-.41-.92-.92-.92h-7.36c-.51,0-.92-.41-.92-.92v-7.36c0-.51-.41-.92-.92-.92h-35.87c-.51,0-.92.41-.92.92v45.06c0,.51.41.92.92.92h8.28c.51,0,.92-.41.92-.92v-16.55c0-.51.41-.92.92-.92h15.63c.51,0,.92.41.92.92v7.36c0,.51.41.92.92.92h7.36c.51,0,.92.41.92.92v7.36c0,.51.41.92.92.92h8.28c.51,0,.92-.41.92-.92v-8.28c0-.51-.41-.92-.92-.92h-7.36c-.51,0-.92-.41-.92-.92v-6.44c0-.51.41-.92.92-.92Zm-28.51-11.04v-6.44c0-.51.41-.92.92-.92h24.83c.51,0,.92.41.92.92v6.44c0,.51-.41.92-.92.92h-24.83c-.51,0-.92-.41-.92-.92Z"
       fill="#1d1d1b"
       id="path14"
       style="fill:#ffffff;fill-opacity:1" />
    <path
       d="m486.56,117.92h7.36c.51,0,.92-.41.92-.92v-17.47c0-.51-.41-.92-.92-.92h-7.36c-.51,0-.92-.41-.92-.92v-7.36c0-.51-.41-.92-.92-.92h-35.87c-.51,0-.92.41-.92.92v45.06c0,.51.41.92.92.92h8.28c.51,0,.92-.41.92-.92v-16.55c0-.51.41-.92.92-.92h15.63c.51,0,.92.41.92.92v7.36c0,.51.41.92.92.92h7.36c.51,0,.92.41.92.92v7.36c0,.51.41.92.92.92h8.28c.51,0,.92-.41.92-.92v-8.28c0-.51-.41-.92-.92-.92h-7.36c-.51,0-.92-.41-.92-.92v-6.44c0-.51.41-.92.92-.92Zm-28.51-11.04v-6.44c0-.51.41-.92.92-.92h24.83c.51,0,.92.41.92.92v6.44c0,.51-.41.92-.92.92h-24.83c-.51,0-.92-.41-.92-.92Z"
       fill="#1d1d1b"
       id="path15"
       style="fill:#ffffff;fill-opacity:1" />
    <path
       d="m761.24,136.77h-26.67c-.76,0-1.38-.62-1.38-1.38v-7.36c0-.25-.21-.46-.46-.46h-7.36c-.76,0-1.38-.62-1.38-1.38v-26.67c0-.76.62-1.38,1.38-1.38h7.36c.25,0,.46-.21.46-.46v-7.36c0-.76.62-1.38,1.38-1.38h26.67c.76,0,1.38.62,1.38,1.38v8.28c0,.76-.62,1.38-1.38,1.38h-25.75c-.25,0-.46.21-.46.46v6.44c0,.25.21.46.46.46h34.95c.76,0,1.38.62,1.38,1.38v17.47c0,.76-.62,1.38-1.38,1.38h-7.36c-.25,0-.46.21-.46.46v7.36c0,.76-.62,1.38-1.38,1.38Zm-35.87-37.71c-.25,0-.46.21-.46.46v26.67c0,.25.21.46.46.46h7.36c.76,0,1.38.62,1.38,1.38v7.36c0,.25.21.46.46.46h26.67c.25,0,.46-.21.46-.46v-7.36c0-.76.62-1.38,1.38-1.38h7.36c.25,0,.46-.21.46-.46v-17.47c0-.25-.21-.46-.46-.46h-34.95c-.76,0-1.38-.62-1.38-1.38v-6.44c0-.76.62-1.38,1.38-1.38h25.75c.25,0,.46-.21.46-.46v-8.28c0-.25-.21-.46-.46-.46h-26.67c-.25,0-.46.21-.46.46v7.36c0,.76-.62,1.38-1.38,1.38h-7.36Zm34.95,27.59h-24.83c-.76,0-1.38-.62-1.38-1.38v-6.44c0-.76.62-1.38,1.38-1.38h24.83c.76,0,1.38.62,1.38,1.38v6.44c0,.76-.62,1.38-1.38,1.38Zm-24.83-8.28c-.25,0-.46.21-.46.46v6.44c0,.25.21.46.46.46h24.83c.25,0,.46-.21.46-.46v-6.44c0-.25-.21-.46-.46-.46h-24.83Z"
       fill="#1d1d1b"
       id="path16"
       style="fill:#ffffff;fill-opacity:1" />
    <path
       d="m660.38,107.8v-8.28c0-.51-.41-.92-.92-.92h-7.36c-.51,0-.92-.41-.92-.92v-7.35c0-.51-.41-.92-.92-.92h-26.67c-.51,0-.92.41-.92.92v7.36c0,.51-.41.92-.92.92h-7.36c-.51,0-.92.41-.92.92v26.67c0,.51.41.92.92.92h7.36c.51,0,.92.41.92.92v7.36c0,.51.41.92.92.92h26.67c.51,0,.92-.41.92-.92v-7.36c0-.51.41-.92.92-.92h7.36c.51,0,.92-.41.92-.92v-8.28c0-.51-.41-.92-.92-.92h-8.28c-.51,0-.92.41-.92.92v7.36c0,.51-.41.92-.92.92h-24.83c-.51,0-.92-.41-.92-.92v-24.83c0-.51.41-.92.92-.92h24.83c.51,0,.92.41.92.92v7.35c0,.51.41.92.92.92h8.28c.51,0,.92-.41.92-.92Z"
       fill="#1d1d1b"
       id="path17"
       style="fill:#ffffff;fill-opacity:1" />
    <path
       d="m504.04,81.13h8.28c.51,0,.92-.41.92-.92v-25.75c0-.51.41-.92.92-.92h6.44c.51,0,.92.41.92.92v7.36c0,.51.41.92.92.92h7.36c.51,0,.92.41.92.92v7.36c0,.51.41.92.92.92h7.36c.51,0,.92.41.92.92v7.36c0,.51.41.92.92.92h8.28c.51,0,.92-.41.92-.92v-8.28c0-.51-.41-.92-.92-.92h-7.36c-.51,0-.92-.41-.92-.92v-7.36c0-.51-.41-.92-.92-.92h-7.36c-.51,0-.92-.41-.92-.92v-7.36c0-.51-.41-.92-.92-.92h-7.36c-.51,0-.92-.41-.92-.92v-6.44c0-.51.41-.92.92-.92h25.75c.51,0,.92-.41.92-.92v-8.28c0-.51-.41-.92-.92-.92h-45.06c-.51,0-.92.41-.92.92v45.06c0,.51.41.92.92.92Z"
       fill="#1d1d1b"
       id="path18"
       style="fill:#ffffff;fill-opacity:1" />
    <g
       id="g19"
       style="fill:#ffffff;fill-opacity:1">
      <path
         d="m595.09,34.23h-26.67c-.51,0-.92.41-.92.92v7.36c0,.51-.41.92-.92.92h-7.36c-.51,0-.92.41-.92.92v17.47c0,.51.41.92.92.92h45.06c.51,0,.92-.41.92-.92v-17.47c0-.51-.41-.92-.92-.92h-7.36c-.51,0-.92-.41-.92-.92v-7.36c0-.51-.41-.92-.92-.92Zm-8.28,17.47v-6.44c0-.51.41-.92.92-.92h6.44c.51,0,.92.41.92.92v6.44c0,.51-.41.92-.92.92h-6.44c-.51,0-.92-.41-.92-.92Zm-17.47-7.36h6.44c.51,0,.92.41.92.92v6.44c0,.51-.41.92-.92.92h-6.44c-.51,0-.92-.41-.92-.92v-6.44c0-.51.41-.92.92-.92Z"
         fill="#1d1d1b"
         id="path19"
         style="fill:#ffffff;fill-opacity:1" />
      <rect
         x="567.5"
         y="71.01"
         width="28.51"
         height="10.12"
         rx=".92"
         ry=".92"
         fill="#1d1d1b"
         id="rect19"
         style="fill:#ffffff;fill-opacity:1" />
    </g>
    <path
       d="m704.53,43.42h-6.44c-.51,0-.92-.41-.92-.92v-7.36c0-.51-.41-.92-.92-.92h-8.28c-.51,0-.92.41-.92.92v7.36c0,.51-.41.92-.92.92h-6.44c-.51,0-.92-.41-.92-.92v-7.36c0-.51-.41-.92-.92-.92h-8.28c-.51,0-.92.41-.92.92v8.28c0,.51.41.92.92.92h7.36c.51,0,.92.41.92.92v7.36c0,.51.41.92.92.92h7.36c.51,0,.92.41.92.92v6.44c0,.51-.41.92-.92.92h-7.36c-.51,0-.92.41-.92.92v7.36c0,.51-.41.92-.92.92h-7.36c-.51,0-.92.41-.92.92v8.28c0,.51.41.92.92.92h17.47c.51,0,.92-.41.92-.92v-7.36c0-.51.41-.92.92-.92h6.44c.51,0,.92.41.92.92v7.36c0,.51.41.92.92.92h17.47c.51,0,.92-.41.92-.92v-8.28c0-.51-.41-.92-.92-.92h-7.36c-.51,0-.92-.41-.92-.92v-7.36c0-.51-.41-.92-.92-.92h-7.36c-.51,0-.92-.41-.92-.92v-6.44c0-.51.41-.92.92-.92h7.36c.51,0,.92-.41.92-.92v-7.36c0-.51.41-.92.92-.92h7.36c.51,0,.92-.41.92-.92v-8.28c0-.51-.41-.92-.92-.92h-8.28c-.51,0-.92.41-.92.92v7.36c0,.51-.41.92-.92.92Z"
       fill="#1d1d1b"
       id="path20"
       style="fill:#ffffff;fill-opacity:1" />
    <g
       id="g22"
       style="fill:#ffffff;fill-opacity:1">
      <path
         d="m724.46,35.15v8.28c0,.51.41.92.92.92h34.95c.51,0,.92.41.92.92v34.95c0,.51.41.92.92.92h8.28c.51,0,.92-.41.92-.92v-45.06c0-.51-.41-.92-.92-.92h-45.06c-.51,0-.92.41-.92.92Z"
         fill="#1d1d1b"
         id="path21"
         style="fill:#ffffff;fill-opacity:1" />
      <path
         d="m743.77,81.13h8.28c.51,0,.92-.41.92-.92v-26.67c0-.51-.41-.92-.92-.92h-26.67c-.51,0-.92.41-.92.92v8.28c0,.51.41.92.92.92h16.55c.51,0,.92.41.92.92v16.55c0,.51.41.92.92.92Z"
         fill="#1d1d1b"
         id="path22"
         style="fill:#ffffff;fill-opacity:1" />
      <rect
         x="724.46"
         y="71.01"
         width="10.12"
         height="10.12"
         rx=".92"
         ry=".92"
         fill="#1d1d1b"
         id="rect22"
         style="fill:#ffffff;fill-opacity:1" />
    </g>
    <g
       id="g28"
       style="fill:#ffffff;fill-opacity:1">
      <rect
         x="613.48"
         y="34.23"
         width="10.12"
         height="10.12"
         rx=".92"
         ry=".92"
         fill="#1d1d1b"
         id="rect23"
         style="fill:#ffffff;fill-opacity:1" />
      <rect
         x="631.88"
         y="34.23"
         width="28.51"
         height="10.12"
         rx=".92"
         ry=".92"
         fill="#1d1d1b"
         id="rect24"
         style="fill:#ffffff;fill-opacity:1" />
      <rect
         x="613.48"
         y="52.62"
         width="10.12"
         height="10.12"
         rx=".92"
         ry=".92"
         fill="#1d1d1b"
         id="rect25"
         style="fill:#ffffff;fill-opacity:1" />
      <rect
         x="631.88"
         y="52.62"
         width="28.51"
         height="10.12"
         rx=".92"
         ry=".92"
         fill="#1d1d1b"
         id="rect26"
         style="fill:#ffffff;fill-opacity:1" />
      <rect
         x="613.48"
         y="71.01"
         width="10.12"
         height="10.12"
         rx=".92"
         ry=".92"
         fill="#1d1d1b"
         id="rect27"
         style="fill:#ffffff;fill-opacity:1" />
      <rect
         x="631.88"
         y="71.01"
         width="28.51"
         height="10.12"
         rx=".92"
         ry=".92"
         fill="#1d1d1b"
         id="rect28"
         style="fill:#ffffff;fill-opacity:1" />
    </g>
  </g>
  <g
     id="g30">
    <path
       id="_149931032"
       data-name=" 149931032"
       d="m73.67,22.99c-34.51,0-62.53,28.02-62.49,62.5,0,6.9,1.11,13.53,3.17,19.74h18.7v-52.58l40.62,40.62,40.62-40.62v52.58h18.7c2.07-6.21,3.16-12.84,3.17-19.74.06-34.51-27.98-62.49-62.49-62.49h0Z"
       fill="#ff7d00" />
    <path
       id="_149931160"
       data-name=" 149931160"
       d="m64.33,102.61l-17.73-17.73v33.08h-26.34c10.97,18,30.79,30.04,53.41,30.04s42.44-12.04,53.41-30.04h-26.35v-33.08l-17.73,17.73-9.34,9.34-9.34-9.34h0Z"
       fill="#ff7d00" />
  </g>
</svg>
