<?xml version="1.0" encoding="UTF-8" standalone="no"?>
<svg
   id="Layer_2"
   data-name="Layer 2"
   viewBox="0 0 792.77702 171.44163"
   version="1.1"
   sodipodi:docname="MKLogo.svg"
   inkscape:version="1.3.2 (091e20ef0f, 2023-11-25)"
   inkscape:export-filename="MKLogo.svg"
   inkscape:export-xdpi="96"
   inkscape:export-ydpi="96"
   width="792.77704"
   height="171.44162"
   xmlns:inkscape="http://www.inkscape.org/namespaces/inkscape"
   xmlns:sodipodi="http://sodipodi.sourceforge.net/DTD/sodipodi-0.dtd"
   xmlns="http://www.w3.org/2000/svg"
   xmlns:svg="http://www.w3.org/2000/svg">
  <defs
     id="defs28" />
  <sodipodi:namedview
     id="namedview28"
     pagecolor="#ffffff"
     bordercolor="#000000"
     borderopacity="0.25"
     inkscape:showpageshadow="2"
     inkscape:pageopacity="0.0"
     inkscape:pagecheckerboard="0"
     inkscape:deskcolor="#d1d1d1"
     inkscape:zoom="0.51445126"
     inkscape:cx="338.22446"
     inkscape:cy="-22.353915"
     inkscape:window-width="1280"
     inkscape:window-height="720"
     inkscape:window-x="0"
     inkscape:window-y="0"
     inkscape:window-maximized="1"
     inkscape:current-layer="Layer_1-2" />
  <g
     id="Layer_1-2"
     data-name="Layer 1"
     transform="translate(-121.81382,-64.485322)">
    <g
       id="g28">
      <g
         id="g1"
         transform="matrix(0.54989773,0,0,0.54989773,121.81389,64.485322)">
        <path
           id="_149931032"
           data-name=" 149931032"
           d="M 155.85,0 C 69.79,0 -0.11,69.89 0,155.86 c 0.02,17.2 2.76,33.75 7.91,49.23 H 54.54 V 73.97 l 101.3,101.3 101.3,-101.3 v 131.12 h 46.64 c 5.16,-15.48 7.88,-32.02 7.92,-49.23 C 311.85,69.8 241.91,0.02 155.85,0.02 Z"
           fill="#ff7d00" />
        <path
           id="_149931160"
           data-name=" 149931160"
           d="M 132.55,198.56 88.34,154.35 v 82.51 H 22.65 c 27.36,44.89 76.8,74.91 133.2,74.91 56.4,0 105.84,-30.03 133.21,-74.91 h -65.71 v -82.51 l -44.21,44.21 -23.29,23.29 -23.29,-23.29 v 0 z"
           fill="#ff7d00" />
      </g>
      <g
         id="g27"
         transform="translate(-7.3091584,41.245626)">
        <path
           d="m 917.05,150.16 c -3.23,-3.62 -7.75,-5.4 -13.56,-5.34 -4.11,0 -7.39,0.88 -9.84,2.64 -1.72,1.24 -2.83,2.81 -3.34,4.7 h -0.34 l 0.29,-23.8 h 29.08 v -8.03 h -37.6 l -0.49,39.56 h 8.81 c 0.85,-2.22 2.22,-4 4.11,-5.34 1.89,-1.34 4.11,-2.01 6.66,-2.01 4.05,0 7.1,1.11 9.16,3.33 2.06,2.22 3.08,5.35 3.08,9.4 v 6.95 c 0,4.05 -1.03,7.18 -3.08,9.4 -2.06,2.22 -5.14,3.33 -9.25,3.33 -3.59,0 -6.43,-0.77 -8.52,-2.3 -2.09,-1.53 -3.3,-3.7 -3.62,-6.51 h -8.81 c 0.65,5.09 2.84,9.14 6.56,12.14 3.72,3 8.49,4.5 14.3,4.5 6.72,0 11.95,-1.84 15.67,-5.53 3.72,-3.69 5.58,-8.7 5.58,-15.03 v -6.95 c 0,-6.46 -1.62,-11.51 -4.85,-15.13 z"
           fill="#ffecd1"
           id="path1" />
        <path
           d="M 353.39,97.77 V 26.53 h 10.8 l 6.96,23.03 c 0.67,2.08 1.28,4.15 1.83,6.2 0.55,2.05 0.95,3.63 1.19,4.74 0.31,-1.11 0.7,-2.68 1.19,-4.74 0.49,-2.05 1.04,-4.15 1.65,-6.29 l 6.59,-22.93 h 10.8 v 71.24 h -8.06 V 71.92 c 0,-2.86 0.09,-6.11 0.28,-9.76 0.18,-3.64 0.43,-7.37 0.73,-11.17 0.31,-3.8 0.63,-7.45 0.96,-10.93 0.33,-3.48 0.62,-6.52 0.87,-9.12 l -10.8,35.61 h -8.7 L 358.79,30.94 c 0.3,2.53 0.61,5.48 0.91,8.83 0.31,3.35 0.58,6.9 0.82,10.64 0.24,3.74 0.46,7.47 0.64,11.17 0.18,3.71 0.28,7.16 0.28,10.34 v 25.86 h -8.06 z"
           fill="#ffecd1"
           id="path2" />
        <path
           d="m 421.95,98.74 c -4.03,0 -7.49,-0.81 -10.39,-2.44 -2.9,-1.63 -5.13,-3.99 -6.68,-7.08 -1.56,-3.09 -2.34,-6.75 -2.34,-10.98 v -32.2 c 0,-4.29 0.78,-7.97 2.34,-11.02 1.56,-3.06 3.78,-5.4 6.68,-7.03 2.9,-1.62 6.36,-2.44 10.39,-2.44 4.03,0 7.49,0.81 10.39,2.44 2.9,1.63 5.13,3.97 6.68,7.03 1.56,3.06 2.34,6.7 2.34,10.93 v 32.3 c 0,4.23 -0.78,7.89 -2.34,10.98 -1.56,3.09 -3.78,5.45 -6.68,7.08 -2.9,1.62 -6.36,2.44 -10.39,2.44 z m 0,-7.9 c 3.6,0 6.36,-1.09 8.28,-3.27 1.92,-2.18 2.88,-5.28 2.88,-9.32 v -32.2 c 0,-4.03 -0.96,-7.13 -2.88,-9.31 -1.92,-2.18 -4.68,-3.27 -8.28,-3.27 -3.6,0 -6.29,1.09 -8.24,3.27 -1.96,2.18 -2.93,5.29 -2.93,9.31 v 32.2 c 0,4.04 0.97,7.14 2.93,9.32 1.95,2.18 4.7,3.27 8.24,3.27 z"
           fill="#ffecd1"
           id="path3" />
        <path
           d="M 450.78,97.77 V 26.53 h 10.98 l 20.41,60.99 c -0.12,-1.62 -0.26,-3.63 -0.41,-6 -0.15,-2.38 -0.27,-4.88 -0.37,-7.52 -0.09,-2.64 -0.14,-5.13 -0.14,-7.47 v -40 h 7.96 V 97.77 H 478.23 L 457.91,36.78 c 0.12,1.56 0.24,3.53 0.37,5.9 0.12,2.37 0.23,4.88 0.32,7.52 0.09,2.64 0.14,5.15 0.14,7.56 v 40.01 z"
           fill="#ffecd1"
           id="path4" />
        <path
           d="M 499.75,97.77 V 26.53 h 38.44 v 8 h -30.3 v 22.05 h 27.09 v 7.91 h -27.09 v 25.27 h 30.3 v 8 h -38.44 z"
           fill="#ffecd1"
           id="path5" />
        <path
           d="M 547.07,97.77 V 26.53 h 20.69 c 3.96,0 7.44,0.86 10.43,2.59 2.99,1.72 5.31,4.11 6.96,7.17 1.65,3.06 2.47,6.63 2.47,10.73 0,4.82 -1.18,8.95 -3.52,12.39 -2.35,3.45 -5.54,5.82 -9.56,7.12 l 14,31.23 h -9.7 L 566.02,67.51 h -10.71 v 30.25 h -8.24 z m 8.24,-38.15 h 12.45 c 3.41,0 6.16,-1.16 8.24,-3.47 2.08,-2.31 3.11,-5.35 3.11,-9.12 0,-3.77 -1.04,-6.9 -3.11,-9.18 -2.07,-2.28 -4.82,-3.41 -8.24,-3.41 h -12.45 z"
           fill="#ffecd1"
           id="path6" />
        <path
           d="m 614.16,98.74 c -4.03,0 -7.49,-0.81 -10.39,-2.44 -2.9,-1.63 -5.13,-3.99 -6.68,-7.08 -1.56,-3.09 -2.34,-6.75 -2.34,-10.98 v -32.2 c 0,-4.29 0.78,-7.97 2.34,-11.02 1.56,-3.06 3.78,-5.4 6.68,-7.03 2.9,-1.62 6.36,-2.44 10.39,-2.44 4.03,0 7.49,0.81 10.39,2.44 2.9,1.63 5.13,3.97 6.68,7.03 1.56,3.06 2.34,6.7 2.34,10.93 v 32.3 c 0,4.23 -0.78,7.89 -2.34,10.98 -1.56,3.09 -3.78,5.45 -6.68,7.08 -2.9,1.62 -6.36,2.44 -10.39,2.44 z m 0,-7.9 c 3.6,0 6.36,-1.09 8.28,-3.27 1.92,-2.18 2.88,-5.28 2.88,-9.32 v -32.2 c 0,-4.03 -0.96,-7.13 -2.88,-9.31 -1.92,-2.18 -4.68,-3.27 -8.28,-3.27 -3.6,0 -6.29,1.09 -8.24,3.27 -1.96,2.18 -2.93,5.29 -2.93,9.31 v 32.2 c 0,4.04 0.97,7.14 2.93,9.32 1.95,2.18 4.7,3.27 8.24,3.27 z"
           fill="#ffecd1"
           id="path7" />
        <path
           d="m 354.86,191.01 v -71.24 h 8.24 v 30.54 h 9.89 l 14.83,-30.54 h 8.97 l -16.56,34.25 17.48,36.99 h -9.43 l -15.56,-32.98 h -9.61 v 32.98 h -8.24 z"
           fill="#ffecd1"
           id="path8" />
        <path
           d="m 421.95,191.99 c -4.03,0 -7.49,-0.81 -10.39,-2.44 -2.9,-1.63 -5.13,-3.99 -6.68,-7.08 -1.56,-3.09 -2.34,-6.75 -2.34,-10.98 v -32.2 c 0,-4.29 0.78,-7.97 2.34,-11.02 1.56,-3.06 3.78,-5.4 6.68,-7.03 2.9,-1.62 6.36,-2.44 10.39,-2.44 4.03,0 7.49,0.81 10.39,2.44 2.9,1.63 5.13,3.97 6.68,7.03 1.56,3.06 2.34,6.7 2.34,10.93 v 32.3 c 0,4.23 -0.78,7.89 -2.34,10.98 -1.56,3.09 -3.78,5.45 -6.68,7.08 -2.9,1.62 -6.36,2.44 -10.39,2.44 z m 0,-7.9 c 3.6,0 6.36,-1.09 8.28,-3.27 1.92,-2.18 2.88,-5.28 2.88,-9.32 v -32.2 c 0,-4.03 -0.96,-7.13 -2.88,-9.31 -1.92,-2.18 -4.68,-3.27 -8.28,-3.27 -3.6,0 -6.29,1.09 -8.24,3.27 -1.96,2.18 -2.93,5.29 -2.93,9.31 v 32.2 c 0,4.04 0.97,7.14 2.93,9.32 1.95,2.18 4.7,3.27 8.24,3.27 z"
           fill="#ffecd1"
           id="path9" />
        <path
           d="m 450.78,191.01 v -71.24 h 10.98 l 20.41,60.99 c -0.12,-1.62 -0.26,-3.63 -0.41,-6 -0.15,-2.38 -0.27,-4.88 -0.37,-7.52 -0.09,-2.64 -0.14,-5.13 -0.14,-7.47 v -40.01 h 7.96 V 191 h -10.98 l -20.32,-60.99 c 0.12,1.56 0.24,3.53 0.37,5.9 0.12,2.37 0.23,4.88 0.32,7.52 0.09,2.64 0.14,5.15 0.14,7.56 V 191 h -7.96 z"
           fill="#ffecd1"
           id="path10" />
        <path
           d="m 499.29,191.01 v -71.33 h 39.36 v 8 h -31.3 v 23.71 h 28.92 v 8 h -28.74 v 31.62 z"
           fill="#ffecd1"
           id="path11" />
        <path
           d="m 547.8,191.01 v -71.24 h 38.44 v 8 h -30.3 v 22.05 h 27.09 v 7.91 H 555.94 V 183 h 30.3 v 8 H 547.8 Z"
           fill="#ffecd1"
           id="path12" />
        <path
           d="m 595.12,191.01 v -71.24 h 20.69 c 3.96,0 7.44,0.86 10.43,2.59 2.99,1.72 5.31,4.11 6.96,7.17 1.65,3.06 2.47,6.63 2.47,10.73 0,4.82 -1.18,8.95 -3.52,12.39 -2.35,3.45 -5.54,5.82 -9.56,7.12 l 14,31.23 h -9.7 L 614.07,160.75 H 603.36 V 191 h -8.24 z m 8.24,-38.15 h 12.45 c 3.41,0 6.16,-1.16 8.24,-3.47 2.08,-2.31 3.11,-5.35 3.11,-9.12 0,-3.77 -1.04,-6.9 -3.11,-9.18 -2.07,-2.28 -4.82,-3.41 -8.24,-3.41 h -12.45 z"
           fill="#ffecd1"
           id="path13" />
        <path
           d="m 643.9,191.01 v -71.24 h 38.44 v 8 h -30.3 v 22.05 h 27.09 v 7.91 H 652.04 V 183 h 30.3 v 8 H 643.9 Z"
           fill="#ffecd1"
           id="path14" />
        <path
           d="m 691.04,191.01 v -71.24 h 10.98 l 20.41,60.99 c -0.12,-1.62 -0.26,-3.63 -0.41,-6 -0.15,-2.38 -0.27,-4.88 -0.37,-7.52 -0.09,-2.64 -0.14,-5.13 -0.14,-7.47 v -40.01 h 7.96 V 191 h -10.98 l -20.32,-60.99 c 0.12,1.56 0.24,3.53 0.37,5.9 0.12,2.37 0.23,4.88 0.32,7.52 0.09,2.64 0.14,5.15 0.14,7.56 V 191 h -7.96 z"
           fill="#ffecd1"
           id="path15" />
        <path
           d="m 758.68,191.99 c -4.03,0 -7.52,-0.81 -10.48,-2.44 -2.96,-1.63 -5.25,-3.99 -6.86,-7.08 -1.62,-3.09 -2.43,-6.75 -2.43,-10.98 v -32.2 c 0,-4.29 0.81,-7.97 2.43,-11.02 1.61,-3.06 3.9,-5.4 6.86,-7.03 2.96,-1.62 6.45,-2.44 10.48,-2.44 4.03,0 7.51,0.83 10.43,2.49 2.93,1.66 5.19,4.02 6.77,7.08 1.59,3.06 2.38,6.7 2.38,10.93 h -8.24 c 0,-4.03 -0.99,-7.13 -2.98,-9.31 -1.98,-2.18 -4.78,-3.27 -8.37,-3.27 -3.59,0 -6.42,1.08 -8.47,3.22 -2.05,2.14 -3.07,5.23 -3.07,9.27 v 32.3 c 0,4.04 1.02,7.14 3.07,9.32 2.04,2.18 4.87,3.27 8.47,3.27 3.6,0 6.39,-1.09 8.37,-3.27 1.98,-2.18 2.98,-5.28 2.98,-9.32 h 8.24 c 0,4.17 -0.8,7.79 -2.38,10.88 -1.59,3.09 -3.84,5.46 -6.77,7.12 -2.93,1.66 -6.41,2.49 -10.43,2.49 z"
           fill="#ffecd1"
           id="path16" />
        <path
           d="m 806.36,191.99 c -4.03,0 -7.49,-0.81 -10.39,-2.44 -2.9,-1.63 -5.13,-3.99 -6.68,-7.08 -1.56,-3.09 -2.34,-6.75 -2.34,-10.98 v -32.2 c 0,-4.29 0.78,-7.97 2.34,-11.02 1.56,-3.06 3.78,-5.4 6.68,-7.03 2.9,-1.62 6.36,-2.44 10.39,-2.44 4.03,0 7.49,0.81 10.39,2.44 2.9,1.63 5.13,3.97 6.68,7.03 1.55,3.06 2.34,6.7 2.34,10.93 v 32.3 c 0,4.23 -0.78,7.89 -2.34,10.98 -1.56,3.09 -3.78,5.45 -6.68,7.08 -2.9,1.62 -6.36,2.44 -10.39,2.44 z m 0,-7.9 c 3.6,0 6.36,-1.09 8.28,-3.27 1.92,-2.18 2.88,-5.28 2.88,-9.32 v -32.2 c 0,-4.03 -0.96,-7.13 -2.88,-9.31 -1.92,-2.18 -4.68,-3.27 -8.28,-3.27 -3.6,0 -6.29,1.09 -8.24,3.27 -1.96,2.18 -2.93,5.29 -2.93,9.31 v 32.2 c 0,4.04 0.97,7.14 2.93,9.32 1.95,2.18 4.7,3.27 8.24,3.27 z"
           fill="#ffecd1"
           id="path17" />
      </g>
    </g>
  </g>
</svg>
