<svg width="230" height="42" viewBox="0 0 230 42" fill="none" xmlns="http://www.w3.org/2000/svg">
<g clip-path="url(#clip0_2102_108)">
<path d="M7.81714 21.3102V21.6477L7.82854 21.0161C7.8217 21.1141 7.81714 21.2053 7.81714 21.3102Z" fill="#0A0A0A"/>
<path d="M31.9003 14.3801L31.9117 15.0118V26.2587C31.9117 27.8025 30.6621 29.0567 29.1137 29.0567H25.2393V25.3351H26.6418C27.4673 25.3351 28.1354 24.667 28.1354 23.8483V17.0892C28.1354 16.2637 27.4673 15.5956 26.6418 15.5956H19.755C18.9295 15.5956 18.2613 16.2637 18.2613 17.0892V23.8483C18.2613 24.6692 18.9295 25.3351 19.755 25.3351H21.4744V29.0567H17.2876C15.7438 29.0567 14.4896 27.8071 14.4896 26.2587V14.6766C14.4896 13.1328 15.7392 11.8785 17.2876 11.8785H27.652L31.9368 5.59151L31.9003 14.3824V14.3801Z" fill="#0189FF"/>
<path d="M26.6554 25.3328H19.1073V29.0544H25.9462C27.1594 29.0544 28.1445 28.0693 28.1445 26.8561V23.8437C28.1445 24.6647 27.4763 25.3306 26.6577 25.3306L26.6554 25.3328Z" fill="url(#paint0_linear_2102_108)"/>
<path d="M22.448 18.5122H18.2613V22.2338H19.9807C20.8062 22.2338 21.4743 22.9019 21.4743 23.7206V30.4728C21.4743 31.2983 20.8062 31.9665 19.9807 31.9665H13.0802C12.2547 31.9665 11.5866 31.2983 11.5866 30.4728V23.7206C11.5866 22.8997 12.2547 22.2338 13.0802 22.2338H14.4826V18.5122H12.0837L7.79883 12.2252L7.82847 21.0161L7.81707 21.6477V32.8946C7.81707 34.4384 9.06672 35.6926 10.6151 35.6926H22.4549C23.9987 35.6926 25.2529 34.443 25.2529 32.8946V21.3125C25.2461 19.7641 23.9987 18.5145 22.448 18.5145V18.5122Z" fill="#3EC745"/>
<path d="M19.7504 18.5122H13.0825V22.2338H19.7504V18.5122Z" fill="url(#paint1_linear_2102_108)"/>
<path d="M11.5888 30.4751V26.7034H7.83533V29.0658C7.83533 30.6689 9.13287 31.9688 10.7383 31.9688H13.0825C12.2616 31.9688 11.5888 31.3006 11.5888 30.4751Z" fill="url(#paint2_linear_2102_108)"/>
<path d="M25.2461 32.8923V26.7034H21.4743V30.1809C21.4743 30.1809 21.9509 35.6858 18.3639 35.6858H22.4526C23.9965 35.6858 25.2438 34.4361 25.2438 32.8946L25.2461 32.8923Z" fill="url(#paint3_linear_2102_108)"/>
<path d="M18.2613 18.5122H14.4896V22.2338H18.2613V18.5122Z" fill="#1574AD"/>
<path d="M18.2613 23.8369V17.1827H14.4896V22.7651C14.4896 24.179 15.6412 25.3306 17.055 25.3306H19.755C18.9295 25.3306 18.2613 24.6624 18.2613 23.8369Z" fill="url(#paint4_linear_2102_108)"/>
<path d="M20.6398 41.2773C15.1258 41.2773 9.94478 39.1315 6.04531 35.232C2.14585 31.3348 0 26.1515 0 20.6398C0 15.1281 2.14585 9.9425 6.04531 6.04531C9.9425 2.14585 15.1258 0 20.6398 0C26.1538 0 31.3348 2.14585 35.2343 6.04531C39.1315 9.9425 41.2796 15.1258 41.2796 20.6398C41.2796 26.1538 39.1338 31.3348 35.2343 35.2343C31.3371 39.1315 26.1538 41.2796 20.6398 41.2796V41.2773ZM20.6398 1.42296C10.0428 1.42296 1.42296 10.0428 1.42296 20.6398C1.42296 31.2368 10.0428 39.8566 20.6398 39.8566C31.2368 39.8566 39.8566 31.2368 39.8566 20.6398C39.8566 10.0428 31.2368 1.42296 20.6398 1.42296Z" fill="#34AF3A"/>
<path d="M229.9 31.7042C229.808 31.6199 229.742 31.5127 229.633 31.4488C229.608 31.3667 229.539 31.3166 229.482 31.2573C228.429 30.1399 227.373 29.0225 226.317 27.9074C226.256 27.8413 226.203 27.766 226.119 27.7227C226.082 27.6246 225.998 27.5631 225.929 27.4924C224.671 26.1561 223.414 24.822 222.153 23.4903C222.016 23.3443 221.891 23.187 221.727 23.0684C221.704 22.9954 221.645 22.9498 221.594 22.8974C220.876 22.1357 220.158 21.3718 219.437 20.6124C219.344 20.5144 219.264 20.4004 219.145 20.3297C219.065 20.1723 218.917 20.0743 218.808 19.942C218.717 19.8325 218.712 19.8097 218.803 19.714C218.872 19.641 218.947 19.5749 219.015 19.5019C219.255 19.2533 219.522 19.0321 219.74 18.7653C219.816 18.7425 219.859 18.6809 219.909 18.6308C220.796 17.7619 221.681 16.8931 222.566 16.0243C222.598 15.9924 222.623 15.9536 222.65 15.9194C222.723 15.8966 222.769 15.835 222.819 15.7849C223.663 14.9594 224.504 14.1316 225.346 13.3038C225.384 13.2673 225.414 13.2217 225.448 13.1784C225.56 13.1282 225.633 13.0301 225.715 12.948C226.504 12.175 227.291 11.3997 228.082 10.6266C228.29 10.4237 228.509 10.2275 228.721 10.0291C228.762 9.98126 228.798 9.92881 228.844 9.88549C229.024 9.70533 229.209 9.52746 229.389 9.34731C229.434 9.30171 229.485 9.25838 229.519 9.20821C229.612 9.06911 229.544 8.9414 229.375 8.93684C229.348 8.93684 229.32 8.93684 229.293 8.93684C226.798 8.93684 224.306 8.93684 221.811 8.93456C221.654 8.93456 221.537 8.97789 221.426 9.09191C220.767 9.74866 220.101 10.3986 219.439 11.053C219.401 11.0918 219.371 11.1351 219.335 11.1785C219.305 11.1853 219.287 11.2035 219.28 11.2332L219.296 11.2492C219.296 11.2492 219.296 11.2492 219.294 11.2514C219.289 11.2446 219.287 11.24 219.282 11.2332C219.252 11.24 219.234 11.2583 219.227 11.2879L219.243 11.3039C219.239 11.2993 219.234 11.2925 219.23 11.2879C219.2 11.2948 219.182 11.313 219.175 11.3404C219.182 11.3449 219.186 11.3518 219.193 11.3563L219.177 11.3404C219.148 11.3472 219.129 11.3655 219.122 11.3951C219.093 11.4042 219.077 11.4225 219.068 11.4498L219.084 11.4658C219.079 11.4612 219.075 11.4567 219.068 11.4498C218.995 11.4726 218.949 11.5319 218.897 11.5821C218.32 12.1499 217.743 12.7177 217.166 13.2878C217.12 13.3312 217.084 13.3836 217.045 13.4315C216.858 13.5729 216.692 13.7393 216.546 13.9218C216.27 14.1544 216.012 14.4075 215.773 14.6811C215.743 14.688 215.725 14.7062 215.718 14.7359L215.732 14.7496C215.732 14.7496 215.732 14.7496 215.729 14.7518C215.725 14.745 215.722 14.7404 215.718 14.7336C215.688 14.7404 215.67 14.7587 215.663 14.7883C215.633 14.7974 215.604 14.8088 215.574 14.818C215.526 14.8727 215.483 14.9297 215.433 14.9799C215.109 15.2991 214.785 15.6184 214.461 15.9354C214.404 15.9924 214.352 16.0608 214.256 16.0471C214.229 16.0106 214.206 15.9718 214.174 15.9399C213.551 15.2809 212.929 14.6219 212.304 13.9651C212.268 13.9263 212.222 13.8944 212.181 13.8602C212.16 13.7872 212.099 13.7416 212.051 13.6892C211.645 13.2605 211.239 12.8295 210.829 12.403C210.678 12.2457 210.544 12.0724 210.368 11.9424C210.343 11.8603 210.275 11.8101 210.22 11.7531C209.996 11.516 209.768 11.2811 209.545 11.0439C209.476 10.971 209.399 10.9071 209.356 10.8136C209.278 10.7794 209.23 10.7087 209.175 10.6494C208.683 10.134 208.188 9.62096 207.705 9.09875C207.588 8.97333 207.47 8.92544 207.299 8.92544C204.747 8.93 202.193 8.92772 199.641 8.93C199.577 8.93 199.513 8.93 199.45 8.93456C199.397 8.93684 199.367 8.96877 199.358 9.01894C199.347 9.09419 199.352 9.16488 199.406 9.22417C199.45 9.27206 199.497 9.31539 199.539 9.36328C199.65 9.49326 199.803 9.58903 199.885 9.74866C199.933 9.78971 199.985 9.8262 200.029 9.8718C200.948 10.7999 201.864 11.728 202.783 12.6539C202.866 12.7383 202.939 12.834 203.043 12.8933C203.221 13.1168 203.427 13.3152 203.648 13.4976C203.75 13.6116 203.848 13.7302 203.956 13.8397C204.804 14.6994 205.655 15.5568 206.505 16.4165C206.555 16.4667 206.596 16.5305 206.669 16.5556C206.683 16.5784 206.694 16.6058 206.713 16.624C207.02 16.9364 207.328 17.2466 207.638 17.559C207.657 17.5772 207.684 17.5864 207.707 17.6C207.711 17.6342 207.732 17.6525 207.766 17.6616C207.798 17.7391 207.866 17.7893 207.923 17.8463C208.489 18.421 209.057 18.9956 209.622 19.5703C209.693 19.641 209.764 19.7117 209.83 19.7869C209.864 19.8257 209.86 19.869 209.825 19.9101C209.759 19.9944 209.661 20.0537 209.618 20.1586C209.577 20.1928 209.529 20.2225 209.492 20.2613C209.016 20.7493 208.541 21.2395 208.067 21.7275C208.031 21.7663 207.985 21.8005 207.971 21.8575C207.93 21.8917 207.882 21.9214 207.846 21.9579C207.369 22.4459 206.895 22.9361 206.421 23.4242C206.384 23.4629 206.357 23.5108 206.325 23.5541C206.277 23.5952 206.225 23.6317 206.181 23.6773C205.755 24.1151 205.328 24.5529 204.902 24.9931C204.859 25.0387 204.806 25.0774 204.786 25.1436C204.713 25.1709 204.674 25.2348 204.624 25.2849C204.026 25.8984 203.431 26.5141 202.834 27.1275C201.883 28.1081 200.93 29.0886 199.979 30.0692C199.928 30.1217 199.867 30.165 199.844 30.238C199.828 30.2471 199.81 30.2516 199.798 30.2653C199.322 30.7533 198.85 31.2436 198.371 31.727C198.261 31.8388 198.236 31.9574 198.277 32.0987C198.36 32.0987 198.442 32.0987 198.524 32.0987C201 32.0987 203.477 32.0987 205.953 32.0987C206.017 32.0987 206.081 32.101 206.145 32.0942C206.179 32.0896 206.211 32.0691 206.243 32.0531C206.314 32.0212 206.364 31.9642 206.4 31.8981C206.418 31.8776 206.437 31.857 206.455 31.8365C206.485 31.8297 206.503 31.8114 206.512 31.7818C206.542 31.7749 206.56 31.7544 206.567 31.727C206.596 31.7202 206.612 31.6997 206.621 31.6723C206.64 31.6723 206.658 31.6769 206.676 31.6792C207.226 31.1113 207.773 30.5458 208.32 29.9757C208.382 29.9119 208.459 29.8571 208.491 29.7682C208.576 29.7271 208.63 29.6519 208.692 29.5858C209.239 29.0225 209.784 28.4593 210.332 27.896C211.253 26.9451 212.174 25.9964 213.095 25.0455C213.157 24.9817 213.237 24.9292 213.266 24.838C213.387 24.7673 213.467 24.6533 213.563 24.5575C213.718 24.4024 213.868 24.2451 214.024 24.0877C214.06 24.0513 214.106 24.0513 214.144 24.0877C214.197 24.1379 214.247 24.1904 214.297 24.2451C214.835 24.8175 215.371 25.3921 215.909 25.9622C215.971 26.0284 216.021 26.1059 216.108 26.1469C216.126 26.2108 216.176 26.2518 216.22 26.2974C216.94 27.0659 217.661 27.8321 218.381 28.5984C218.425 28.644 218.459 28.6987 218.523 28.7215C218.546 28.8059 218.619 28.8515 218.673 28.9108C219.175 29.4489 219.674 29.9894 220.181 30.5207C220.411 30.7624 220.625 31.0247 220.883 31.239C220.926 31.3417 221.013 31.4078 221.086 31.4876C221.275 31.6928 221.467 31.8935 221.658 32.0965C221.734 32.1466 221.818 32.1238 221.898 32.1238C224.518 32.1238 227.14 32.1238 229.76 32.1238C229.84 32.1238 229.925 32.1444 230.002 32.0987V31.7704C229.95 31.7704 229.934 31.7202 229.902 31.6906L229.9 31.7042ZM220.753 17.6776C220.753 17.6776 220.732 17.6958 220.721 17.7049C220.721 17.7027 220.719 17.7004 220.716 17.6958C220.728 17.6913 220.742 17.6844 220.753 17.6776ZM219.351 11.1899L219.337 11.1739C219.341 11.1807 219.346 11.1853 219.353 11.1899H219.351ZM199.908 30.2585C199.908 30.2585 199.901 30.2516 199.899 30.2494C199.903 30.2494 199.908 30.2494 199.91 30.2494C199.91 30.2494 199.908 30.2539 199.906 30.2562L199.908 30.2585ZM204.85 25.1618C204.85 25.1618 204.85 25.1572 204.85 25.155C204.85 25.155 204.852 25.155 204.854 25.155C204.854 25.155 204.852 25.1595 204.852 25.1618H204.85ZM206.615 31.6769C206.596 31.6951 206.578 31.7134 206.56 31.7316C206.542 31.7499 206.526 31.7681 206.507 31.7841C206.521 31.7613 206.539 31.743 206.562 31.7293C206.576 31.7065 206.594 31.686 206.617 31.6746L206.615 31.6769ZM219.077 20.3388C219.077 20.3388 219.077 20.3388 219.077 20.3365C219.077 20.3365 219.077 20.3365 219.077 20.3388Z" fill="url(#paint5_linear_2102_108)"/>
<path d="M196.722 9.5001C196.704 9.46817 196.681 9.44081 196.667 9.4066C196.528 9.09647 196.275 8.96421 195.949 8.9414C195.849 8.93456 195.748 8.93456 195.648 8.93456C187.416 8.93456 179.181 8.93456 170.949 8.93456C170.84 8.93456 170.73 8.93456 170.621 8.9414C170.21 8.97333 169.925 9.24926 169.884 9.65517C169.873 9.78287 169.873 9.91057 169.873 10.0383C169.873 13.452 169.871 16.8658 169.871 20.2795C169.871 20.3707 169.88 20.4619 169.884 20.5509C169.862 20.8975 169.862 21.2441 169.884 21.593C169.88 21.6637 169.871 21.7367 169.871 21.8074C169.871 22.284 169.871 22.7628 169.871 23.2394C169.871 23.3101 169.88 23.3831 169.884 23.4538C169.88 23.5359 169.871 23.6157 169.871 23.6978C169.871 25.5244 169.871 27.3533 169.871 29.1799C169.871 29.2619 169.88 29.3418 169.884 29.4239C169.857 30.0692 169.866 30.7168 169.882 31.3622C169.882 31.4169 169.887 31.4716 169.928 31.515C169.928 31.5765 169.934 31.6381 169.989 31.6769C169.998 31.7499 170.03 31.8069 170.101 31.8388C170.172 31.9733 170.306 32.0098 170.432 32.06C170.486 32.06 170.541 32.06 170.594 32.06C170.712 32.1352 170.842 32.0988 170.967 32.101C179.38 32.101 187.794 32.101 196.207 32.101C196.307 32.101 196.408 32.101 196.508 32.101C196.544 31.9939 196.531 31.8844 196.531 31.7749C196.531 29.9962 196.531 28.2175 196.531 26.4388C196.531 26.3841 196.531 26.3294 196.531 26.2746C196.526 26.1013 196.508 26.0831 196.346 26.0785C196.264 26.0762 196.182 26.0785 196.1 26.0785C189.81 26.0785 183.521 26.0785 177.229 26.0785C177.147 26.0785 177.065 26.0762 176.983 26.0785C176.824 26.0854 176.675 26.0489 176.541 25.9622C176.47 25.8186 176.463 25.6658 176.463 25.5084C176.463 23.3375 176.463 21.1666 176.463 18.9979C176.463 18.9341 176.463 18.8702 176.463 18.8064C176.463 18.7608 176.472 18.7151 176.529 18.7015C176.598 18.6855 176.659 18.706 176.691 18.7676C176.716 18.8155 176.732 18.8679 176.753 18.9204C177.161 20.0036 177.569 21.0868 177.977 22.1699C178.016 22.2703 178.041 22.3775 178.11 22.4664C178.158 22.6762 178.281 22.7818 178.477 22.7834C178.495 22.7834 178.513 22.7834 178.532 22.7834C181.348 22.7834 184.166 22.7834 186.983 22.7834C187.361 22.7834 187.332 22.8016 187.332 22.4208C187.332 21.1073 187.332 19.7915 187.332 18.478C187.332 18.0059 187.398 18.063 186.905 18.0607C183.548 18.0607 180.192 18.0607 176.835 18.0607C176.744 18.0607 176.653 18.0607 176.561 18.0538C176.509 18.0516 176.477 18.0196 176.472 17.9672C176.468 17.9216 176.468 17.876 176.468 17.8304C176.468 16.9547 176.468 16.079 176.468 15.2011C176.468 15.1372 176.468 15.0734 176.484 15.0118C176.525 14.8316 176.621 14.745 176.805 14.729C176.915 14.7199 177.024 14.7222 177.134 14.7222C180.985 14.7222 184.835 14.7222 188.686 14.7222C189.097 14.7222 189.509 14.7222 189.92 14.7222C189.993 14.7222 190.066 14.7222 190.139 14.7313C190.278 14.7518 190.351 14.8225 190.369 14.9616C190.383 15.0597 190.383 15.1623 190.383 15.2626C190.383 16.1109 190.383 16.9592 190.383 17.8098C190.383 17.8828 190.383 17.9558 190.387 18.0288C190.396 18.1268 190.451 18.1701 190.554 18.1656C190.59 18.1656 190.627 18.161 190.661 18.1473C190.953 18.0424 191.252 17.9581 191.525 17.8098C191.771 17.7528 192.009 17.6662 192.234 17.5453C192.321 17.5522 192.394 17.5065 192.469 17.4792C193.546 17.0824 194.624 16.6879 195.698 16.2843C195.935 16.1953 196.182 16.1269 196.405 16.0015C196.512 16.0015 196.601 15.9582 196.686 15.8966C196.722 15.8852 196.756 15.8692 196.759 15.8282C196.763 15.7461 196.766 15.664 196.766 15.5819C196.766 13.8784 196.766 12.1727 196.766 10.4693C196.766 10.1409 196.779 9.81251 196.722 9.4887V9.5001ZM170.596 32.0098C170.596 32.0098 170.596 32.0053 170.596 32.003C170.596 32.003 170.596 32.003 170.598 32.003C170.598 32.003 170.596 32.0053 170.594 32.0075L170.596 32.0098Z" fill="url(#paint6_linear_2102_108)"/>
<path d="M102.777 18.0265C102.784 18.1405 102.841 18.1907 102.957 18.1724C103.137 18.1428 103.311 18.0858 103.466 17.9854C103.767 17.9079 104.059 17.803 104.337 17.6616C104.433 17.6662 104.512 17.6206 104.597 17.5886C105.739 17.1668 106.884 16.7449 108.024 16.3185C108.277 16.2227 108.542 16.152 108.781 16.0174C108.916 16.0129 109.03 15.9468 109.148 15.8943C109.148 13.9491 109.148 12.0062 109.148 10.0611C109.148 9.90601 109.139 9.75322 109.112 9.59816C109.039 9.20821 108.738 8.96649 108.343 8.9414C108.243 8.93456 108.143 8.93456 108.042 8.93456C99.7989 8.93456 91.5575 8.93456 83.3139 8.93456C83.2136 8.93456 83.1133 8.93456 83.0129 8.9414C82.5865 8.97561 82.306 9.24926 82.2672 9.67797C82.2558 9.80567 82.2558 9.93337 82.2558 10.0611C82.2558 17.0345 82.2536 24.0079 82.2513 30.9836C82.2513 31.1205 82.2581 31.2573 82.2627 31.3941C82.2627 31.4397 82.2741 31.4853 82.3083 31.5195C82.3083 31.6222 82.3539 31.7065 82.4109 31.7841C82.4679 31.8593 82.5386 31.9254 82.6047 31.9961C82.6732 32.0189 82.7416 32.044 82.8077 32.0668C82.8601 32.0668 82.9149 32.0668 82.9673 32.0645C83.0836 32.1466 83.2159 32.1079 83.3413 32.1079C91.7491 32.1079 100.157 32.1079 108.565 32.1079C108.638 32.1079 108.711 32.1079 108.784 32.1079C108.822 32.1079 108.854 32.0942 108.875 32.06C108.882 31.9688 108.891 31.8798 108.891 31.7886C108.891 30.2425 108.891 28.6987 108.891 27.1526C108.891 27.0705 108.884 26.9884 108.882 26.9086C108.898 26.6372 108.9 26.3659 108.879 26.0945C108.761 26.0922 108.642 26.0854 108.524 26.0854C102.223 26.0854 95.9199 26.0854 89.6192 26.0854C89.528 26.0854 89.4368 26.0854 89.3456 26.0854C88.9693 26.0762 88.853 25.9599 88.8484 25.5928C88.8484 25.5837 88.8484 25.5746 88.8484 25.5654C88.8484 23.3671 88.8484 21.1666 88.8484 18.9683C88.8484 18.9044 88.8484 18.8406 88.8576 18.7767C88.8644 18.7197 88.91 18.7083 88.9579 18.7083C89.0058 18.7083 89.0491 18.722 89.0719 18.7676C89.0993 18.8246 89.1221 18.8839 89.1449 18.9432C89.528 19.9602 89.9088 20.975 90.2942 21.9921C90.3353 22.1015 90.3603 22.2201 90.4356 22.3136C90.431 22.3889 90.4675 22.455 90.4926 22.5234C90.5952 22.8039 90.5701 22.7948 90.8803 22.7948C93.7239 22.7948 96.5698 22.7948 99.4135 22.7948C99.4773 22.7948 99.5412 22.7948 99.605 22.7902C99.6666 22.7856 99.7077 22.7514 99.7122 22.6876C99.7168 22.6055 99.7168 22.5234 99.7168 22.4413C99.7168 21.1096 99.7168 19.7755 99.7168 18.4438C99.7168 18.0356 99.7624 18.0721 99.3542 18.0721C95.9883 18.0721 92.6225 18.0721 89.2566 18.0721C89.1745 18.0721 89.0924 18.0721 89.0104 18.0721C88.983 18.0721 88.9556 18.0698 88.9283 18.063C88.8895 18.0538 88.8621 18.0288 88.8576 17.99C88.8507 17.9444 88.8507 17.8988 88.8507 17.8532C88.8507 16.9775 88.8507 16.1018 88.8507 15.2239C88.8507 15.1691 88.8507 15.1144 88.8576 15.0597C88.8918 14.8545 88.9944 14.7564 89.2042 14.7404C89.3045 14.7313 89.4049 14.7359 89.5052 14.7359C92.057 14.7359 94.6087 14.7359 97.1605 14.7359C98.8525 14.7359 100.545 14.7359 102.237 14.7359C102.337 14.7359 102.437 14.7359 102.538 14.7496C102.647 14.7632 102.718 14.8316 102.747 14.9388C102.777 15.046 102.779 15.1555 102.779 15.2649C102.779 16.1132 102.779 16.9615 102.779 17.8121C102.779 17.8851 102.777 17.9581 102.779 18.031L102.777 18.0265ZM99.6598 20.0515C99.6598 20.0515 99.6598 20.056 99.6598 20.0583L99.6552 20.0537H99.6598V20.0515Z" fill="url(#paint7_linear_2102_108)"/>
<path d="M137.286 26.0603C137.186 26.0557 137.086 26.0534 136.985 26.0534C133.152 26.0534 129.319 26.0534 125.485 26.0534C123.435 26.0534 121.387 26.0534 119.337 26.0534C119.219 26.0534 119.098 26.0534 118.982 26.042C118.637 26.0056 118.48 25.8528 118.423 25.5084C118.407 25.4104 118.402 25.31 118.393 25.2097C118.398 25.1276 118.409 25.0478 118.409 24.9657C118.409 22.9361 118.409 20.9089 118.409 18.8793C118.409 18.7972 118.4 18.7174 118.395 18.6353C118.4 18.5624 118.409 18.4917 118.409 18.4187C118.409 17.2671 118.409 16.1155 118.409 14.9639C118.409 14.8909 118.4 14.8202 118.395 14.7473C118.4 14.6469 118.409 14.5466 118.409 14.4485C118.409 12.7246 118.409 10.9983 118.409 9.27434C118.409 8.9072 118.434 8.93456 118.067 8.93456C116.101 8.93456 114.136 8.93456 112.168 8.93456C112.122 8.93456 112.077 8.93456 112.031 8.93456C111.833 8.93912 111.823 8.95052 111.817 9.16032C111.817 9.22417 111.817 9.28802 111.817 9.35187C111.817 14.8545 111.814 20.357 111.812 25.8596C111.812 27.3099 111.812 28.7603 111.812 30.2129C111.812 30.3383 111.789 30.4683 111.846 30.5914C111.826 30.8787 111.917 31.1387 112.035 31.3918C112.07 31.4625 112.099 31.5423 112.175 31.5834C112.197 31.6951 112.316 31.7362 112.362 31.8319C112.533 31.9232 112.708 32.003 112.895 32.06C113.03 32.0372 113.153 32.0851 113.278 32.1147C113.324 32.1124 113.37 32.1079 113.415 32.1079C121.255 32.1079 129.095 32.1079 136.937 32.1079C137.083 32.1079 137.229 32.1079 137.377 32.1079C137.384 32.0167 137.393 31.9254 137.393 31.8365C137.393 30.0099 137.393 28.1856 137.393 26.359C137.393 26.2952 137.393 26.2313 137.389 26.1675C137.387 26.1013 137.348 26.0671 137.286 26.0648V26.0603Z" fill="url(#paint8_linear_2102_108)"/>
<path d="M166.975 15.6526C166.851 14.9411 166.674 14.2433 166.4 13.5729C166.347 13.4474 166.311 13.3152 166.215 13.2103C166.211 13.1829 166.211 13.1556 166.199 13.1305C165.809 12.3255 165.287 11.6186 164.617 11.0234C163.996 10.4715 163.287 10.0656 162.523 9.74638C162.323 9.662 162.12 9.57991 161.917 9.49782C161.83 9.50694 161.757 9.46589 161.677 9.44309C160.665 9.13295 159.625 9.00297 158.574 8.94596C158.218 8.92772 157.86 8.93456 157.504 8.93456C151.824 8.93456 146.146 8.93456 140.465 8.93456C140.365 8.93456 140.264 8.93456 140.164 8.93456C139.827 8.93456 139.56 9.05998 139.407 9.37924C139.334 9.67341 139.352 9.97442 139.35 10.2731C139.35 11.801 139.35 13.3312 139.35 14.859C139.35 14.9685 139.357 15.0779 139.359 15.1851C139.357 15.249 139.35 15.3128 139.35 15.3767C139.35 17.2489 139.35 19.1188 139.35 20.991C139.35 21.0639 139.357 21.1369 139.359 21.2099C139.357 21.292 139.35 21.3741 139.35 21.4562C139.35 24.9041 139.35 28.3521 139.35 31.8C139.35 32.1261 139.336 32.1056 139.669 32.1056C141.635 32.1056 143.601 32.1056 145.566 32.1056C145.603 32.1056 145.639 32.1056 145.676 32.1056C145.888 32.101 145.89 32.0988 145.895 31.8912C145.895 31.8274 145.895 31.7635 145.895 31.6997C145.895 30.149 145.895 28.5984 145.895 27.0477C145.895 26.9291 145.902 26.8105 145.906 26.6919C145.959 26.6874 146.009 26.6828 146.061 26.6805C146.104 26.6805 146.146 26.6897 146.166 26.7376C146.216 26.8539 146.271 26.9702 146.317 27.0865C146.962 28.742 147.607 30.3999 148.25 32.0554C148.269 32.0554 148.285 32.0554 148.303 32.0554L148.31 32.0486C148.31 32.0486 148.305 32.0531 148.303 32.0554C148.396 32.1375 148.513 32.101 148.617 32.101C151.634 32.1033 154.651 32.101 157.666 32.101C157.821 32.101 157.976 32.1033 158.131 32.1056C158.263 32.0919 158.398 32.0759 158.533 32.0668C158.729 32.0554 158.925 32.0281 159.121 32.0531C159.283 32.0349 159.447 32.0144 159.609 32.0007C160.236 31.9391 160.852 31.8228 161.456 31.6541C161.691 31.5879 161.933 31.5378 162.145 31.4078C162.375 31.3759 162.576 31.2618 162.781 31.1706C163.648 30.783 164.421 30.263 165.068 29.5607C165.6 28.986 166.012 28.3338 166.325 27.6201C166.455 27.3213 166.587 27.018 166.646 26.6942C166.706 26.619 166.715 26.5278 166.74 26.4411C167.032 25.3784 167.159 24.293 167.171 23.1938C167.187 21.5884 167.175 19.9808 167.178 18.3731C167.178 17.4587 167.127 16.5488 166.97 15.648L166.975 15.6526ZM160.464 22.4025C160.464 22.8974 160.405 23.3854 160.314 23.8711C160.293 23.9783 160.259 24.0832 160.277 24.1949C160.284 24.2246 160.298 24.2519 160.316 24.2747C160.193 24.2953 160.184 24.4116 160.152 24.4959C159.914 25.1162 159.465 25.5153 158.852 25.7479C158.765 25.7821 158.647 25.7821 158.622 25.9075C158.615 25.9007 158.608 25.8915 158.596 25.887C158.48 25.8322 158.364 25.8619 158.248 25.8824C157.796 25.9599 157.342 26.001 156.884 26.001C153.454 25.9987 150.024 26.001 146.595 26.001C146.494 26.001 146.394 25.9964 146.294 26.001C146.109 26.0055 146.025 25.9189 146.031 25.7342C146.034 25.6703 146.031 25.6065 146.031 25.5426C146.031 22.1927 146.031 18.8451 146.031 15.4952C146.031 15.3949 146.031 15.2946 146.038 15.1942C146.057 14.9822 146.173 14.8636 146.385 14.8408C146.485 14.8316 146.586 14.8339 146.686 14.8339C150.28 14.8339 153.874 14.8339 157.468 14.8339C157.837 14.8339 158.197 14.8864 158.553 14.9799C159.415 15.2033 160.008 15.705 160.243 16.5944C160.384 17.128 160.453 17.6707 160.457 18.218C160.469 19.6136 160.457 21.0092 160.462 22.4071L160.464 22.4025ZM162.14 31.3462C162.14 31.3462 162.14 31.3485 162.14 31.3508C162.14 31.3508 162.14 31.3508 162.14 31.3485V31.3462Z" fill="url(#paint9_linear_2102_108)"/>
<path d="M79.9116 23.7457C79.8592 22.5667 79.3985 21.5748 78.5138 20.7835C78.2743 20.5691 78.0144 20.3844 77.7339 20.227C77.5811 20.1427 77.5788 20.1267 77.7111 20.0264C78.0622 19.7573 78.3655 19.4426 78.6323 19.0937C78.6985 19.007 78.7783 18.9295 78.8079 18.82C78.8695 18.7813 78.906 18.7243 78.9174 18.6536C79.1386 18.3594 79.2526 18.0265 79.3028 17.6662C79.3165 17.6342 79.3393 17.6023 79.3461 17.5681C79.41 17.2466 79.4442 16.9182 79.4442 16.5921C79.4442 15.6731 79.4761 14.7541 79.4168 13.8351C79.3803 13.2787 79.2914 12.7314 79.1112 12.2046C78.7737 11.2195 78.2127 10.4009 77.3188 9.83304C77.296 9.81935 77.2801 9.79655 77.2595 9.77831C77.2253 9.76462 77.1889 9.75778 77.1569 9.73954C76.4044 9.31311 75.5812 9.11699 74.7329 9.00754C74.2244 8.94368 73.7113 8.93456 73.2005 8.93456C66.918 8.93456 60.6355 8.93456 54.353 8.93456C54.2345 8.93456 54.1159 8.93456 53.9973 8.94368C53.8103 8.95737 53.6438 9.02578 53.5047 9.15804C53.466 9.19453 53.4272 9.23329 53.3862 9.27206C53.279 9.42257 53.2357 9.59131 53.2448 9.77603C53.2471 11.2948 53.2402 12.8158 53.2493 14.3345C53.2585 14.355 53.2699 14.3664 53.2858 14.371C53.2813 14.4691 53.2767 14.5671 53.2767 14.6629C53.2767 18.3982 53.2767 22.1335 53.2767 25.8687C53.2767 25.8984 53.2767 25.9303 53.2767 25.9599C53.2767 26.977 53.2767 27.9918 53.2767 29.0088C53.2767 29.0339 53.2767 29.0613 53.2767 29.0864C53.2767 29.9803 53.2767 30.8719 53.2767 31.7658C53.2767 31.8753 53.2835 31.9847 53.2881 32.0942C53.3884 32.0988 53.4888 32.1079 53.5891 32.1079C55.5594 32.1079 57.5296 32.1079 59.4999 32.1079C59.5729 32.1079 59.6458 32.1079 59.7188 32.1056C59.7576 32.1056 59.7895 32.0896 59.81 32.0577C59.826 32.0531 59.8397 32.0486 59.8556 32.0463C59.8556 30.5983 59.8556 29.1502 59.8556 27.6999C59.8556 27.6178 59.8556 27.5357 59.8602 27.4536C59.8647 27.3966 59.9149 27.3624 59.9765 27.3692C60.0244 27.3738 60.0654 27.392 60.0859 27.4376C60.111 27.4969 60.1361 27.5539 60.1589 27.6132C60.7199 29.075 61.2809 30.539 61.8396 32.0007C61.851 32.0189 61.8646 32.0235 61.8806 32.0098C61.8624 32.0395 61.8669 32.0714 61.8966 32.1056C61.9239 32.1056 61.9513 32.101 61.9787 32.101C65.885 32.101 69.7913 32.101 73.6976 32.101C73.88 32.101 74.0624 32.1033 74.2449 32.1056C74.4638 32.0714 74.6804 32.0372 74.9039 32.0577C74.9974 32.0874 75.0886 32.1056 75.1798 32.0486C75.2505 32.0326 75.3212 32.0098 75.3919 32.0007C75.9301 31.9323 76.4523 31.8069 76.9563 31.613C77.4374 31.4283 77.8844 31.182 78.2698 30.8354C78.5753 30.5595 78.8467 30.2516 79.0291 29.8777C79.0633 29.8343 79.1021 29.7956 79.1272 29.75C79.3849 29.2939 79.5627 28.8059 79.6836 28.2973C79.8501 27.6018 79.9208 26.8949 79.9208 26.1811C79.9208 25.6703 79.9208 25.1595 79.9208 24.6464C79.9208 24.3454 79.9253 24.0444 79.9116 23.7434V23.7457ZM59.9537 14.6105C59.956 14.3459 60.0745 14.2342 60.3322 14.1886C60.4326 14.1726 60.5329 14.1749 60.6332 14.1749C64.0538 14.1749 67.4767 14.1749 70.8973 14.1749C71.1458 14.1749 71.3898 14.2045 71.6338 14.2524C72.2951 14.3801 72.6121 14.7108 72.7353 15.3767C72.8219 15.8487 72.7831 16.323 72.7831 16.7973C72.7831 17.2511 72.7011 17.689 72.3886 18.0493C72.3544 18.088 72.3271 18.1314 72.3157 18.1793C72.3043 18.1838 72.2929 18.1884 72.2815 18.1907C72.172 18.2499 72.0055 18.25 71.985 18.405C71.887 18.332 71.7775 18.3571 71.6726 18.3822C71.4195 18.4392 71.1664 18.4438 70.9087 18.4438C67.4425 18.4438 63.974 18.4438 60.5078 18.4438C60.4075 18.4438 60.3071 18.4415 60.2068 18.4438C60.0198 18.4483 59.9468 18.3548 59.9491 18.1747C59.9491 16.9889 59.9423 15.8008 59.956 14.615L59.9537 14.6105ZM72.9017 25.7251C72.8789 25.7387 72.8561 25.757 72.8379 25.7844C72.8151 25.8208 72.7968 25.8596 72.7809 25.9007C72.7307 26.0192 72.6691 26.131 72.5802 26.2268C72.5619 26.245 72.5414 26.2632 72.5209 26.2815C72.5095 26.2883 72.4981 26.2974 72.4867 26.3043C72.4616 26.3202 72.4365 26.3362 72.4114 26.3545C72.0717 26.5734 71.6931 26.6623 71.2941 26.6646C67.5953 26.6669 63.8942 26.6646 60.1954 26.6646C60.0882 26.6646 59.9742 26.6874 59.8807 26.6053C59.8761 26.5962 59.8716 26.5893 59.8693 26.5802C59.8921 26.5004 59.8807 26.4115 59.883 26.3271C59.8921 25.6293 59.794 24.9338 59.8283 24.2337C59.8397 23.9988 59.8328 23.7617 59.8283 23.5245C59.8283 23.4173 59.8374 23.3033 59.7553 23.2144C59.7553 23.2144 59.7553 23.2144 59.753 23.2144V22.4071C59.9058 22.3113 60.0768 22.3273 60.2456 22.3273C63.5886 22.3273 66.9317 22.3273 70.2747 22.3273C70.7126 22.3273 71.1527 22.309 71.5905 22.3318C72.115 22.3592 72.5825 22.5097 72.7854 23.073C72.8105 23.1459 72.847 23.2121 72.9177 23.2508C72.8812 23.2942 72.8789 23.3489 72.8858 23.4059C72.8949 23.4515 72.9063 23.4971 72.9063 23.5427C72.9359 24.2132 72.977 24.8859 72.8698 25.554C72.8607 25.6156 72.8698 25.6726 72.904 25.7251H72.9017Z" fill="url(#paint10_linear_2102_108)"/>
</g>
<defs>
<linearGradient id="paint0_linear_2102_108" x1="28.1422" y1="26.4502" x2="19.105" y2="26.4502" gradientUnits="userSpaceOnUse">
<stop stop-opacity="0.3"/>
<stop offset="1" stop-color="#0189FF"/>
</linearGradient>
<linearGradient id="paint1_linear_2102_108" x1="19.7481" y1="20.373" x2="13.0825" y2="20.373" gradientUnits="userSpaceOnUse">
<stop stop-color="#3EC745"/>
<stop offset="0.06" stop-color="#3AB940" stop-opacity="0.92"/>
<stop offset="0.16" stop-color="#2F9534" stop-opacity="0.78"/>
<stop offset="0.3" stop-color="#1C5B20" stop-opacity="0.58"/>
<stop offset="0.48" stop-color="#040B04" stop-opacity="0.33"/>
<stop offset="0.5" stop-opacity="0.3"/>
<stop offset="0.61" stop-color="#123914" stop-opacity="0.46"/>
<stop offset="0.75" stop-color="#257529" stop-opacity="0.65"/>
<stop offset="0.86" stop-color="#32A238" stop-opacity="0.8"/>
<stop offset="0.95" stop-color="#3BBD41" stop-opacity="0.93"/>
<stop offset="1" stop-color="#3EC745"/>
</linearGradient>
<linearGradient id="paint2_linear_2102_108" x1="10.4578" y1="31.9688" x2="10.4578" y2="26.7034" gradientUnits="userSpaceOnUse">
<stop stop-opacity="0.3"/>
<stop offset="0.07" stop-color="#071808" stop-opacity="0.35"/>
<stop offset="0.25" stop-color="#184D1B" stop-opacity="0.47"/>
<stop offset="0.42" stop-color="#26792A" stop-opacity="0.59"/>
<stop offset="0.58" stop-color="#309B36" stop-opacity="0.71"/>
<stop offset="0.74" stop-color="#38B33E" stop-opacity="0.82"/>
<stop offset="0.88" stop-color="#3CC243" stop-opacity="0.92"/>
<stop offset="1" stop-color="#3EC745"/>
</linearGradient>
<linearGradient id="paint3_linear_2102_108" x1="21.805" y1="35.6858" x2="21.805" y2="26.7034" gradientUnits="userSpaceOnUse">
<stop stop-opacity="0.3"/>
<stop offset="0.23" stop-color="#123914" stop-opacity="0.46"/>
<stop offset="0.49" stop-color="#257529" stop-opacity="0.65"/>
<stop offset="0.72" stop-color="#32A238" stop-opacity="0.8"/>
<stop offset="0.9" stop-color="#3BBD41" stop-opacity="0.93"/>
<stop offset="1" stop-color="#3EC745"/>
</linearGradient>
<linearGradient id="paint4_linear_2102_108" x1="17.1234" y1="25.3328" x2="17.1234" y2="17.185" gradientUnits="userSpaceOnUse">
<stop stop-opacity="0.3"/>
<stop offset="0.18" stop-color="#062233" stop-opacity="0.43"/>
<stop offset="1" stop-color="#0189FF"/>
</linearGradient>
<linearGradient id="paint5_linear_2102_108" x1="214.126" y1="32.1421" x2="214.126" y2="8.93" gradientUnits="userSpaceOnUse">
<stop stop-color="#289148"/>
<stop offset="1" stop-color="#3EC745"/>
</linearGradient>
<linearGradient id="paint6_linear_2102_108" x1="183.316" y1="32.1124" x2="183.316" y2="8.93456" gradientUnits="userSpaceOnUse">
<stop stop-color="#289148"/>
<stop offset="1" stop-color="#3EC745"/>
</linearGradient>
<linearGradient id="paint7_linear_2102_108" x1="95.6987" y1="32.1147" x2="95.6987" y2="8.93456" gradientUnits="userSpaceOnUse">
<stop stop-color="#289148"/>
<stop offset="1" stop-color="#3EC745"/>
</linearGradient>
<linearGradient id="paint8_linear_2102_108" x1="124.6" y1="32.1124" x2="124.6" y2="8.93456" gradientUnits="userSpaceOnUse">
<stop stop-color="#289148"/>
<stop offset="1" stop-color="#3EC745"/>
</linearGradient>
<linearGradient id="paint9_linear_2102_108" x1="153.267" y1="32.1124" x2="153.267" y2="8.93456" gradientUnits="userSpaceOnUse">
<stop stop-color="#289148"/>
<stop offset="1" stop-color="#3EC745"/>
</linearGradient>
<linearGradient id="paint10_linear_2102_108" x1="66.5828" y1="32.1102" x2="66.5828" y2="8.93456" gradientUnits="userSpaceOnUse">
<stop stop-color="#289148"/>
<stop offset="1" stop-color="#3EC745"/>
</linearGradient>
<clipPath id="clip0_2102_108">
<rect width="230" height="41.2773" fill="white"/>
</clipPath>
</defs>
</svg>
