<?xml version="1.0" encoding="UTF-8"?>
<svg id="Layer_1" data-name="Layer 1" xmlns="http://www.w3.org/2000/svg" xmlns:xlink="http://www.w3.org/1999/xlink" viewBox="0 0 506.97 86.2">
  <defs>
    <style>
      .cls-1 {
        fill: url(#linear-gradient-7);
      }

      .cls-2 {
        fill: url(#linear-gradient-9);
      }

      .cls-3 {
        fill: url(#linear-gradient-6);
      }

      .cls-4 {
        fill: url(#linear-gradient-8);
      }

      .cls-5 {
        fill: url(#linear-gradient-3);
      }

      .cls-6 {
        fill: url(#linear-gradient-2);
      }

      .cls-7 {
        fill: url(#linear-gradient-4);
      }

      .cls-8 {
        fill: url(#linear-gradient-5);
      }

      .cls-9 {
        fill: #0189ff;
      }

      .cls-10 {
        fill: #1574ad;
      }

      .cls-11 {
        fill: #3ec745;
      }

      .cls-12 {
        fill: #34af3a;
      }

      .cls-13 {
        fill: #0a0a0a;
      }

      .cls-14 {
        fill: url(#linear-gradient);
      }

      .cls-15 {
        fill: url(#linear-gradient-10);
      }

      .cls-16 {
        fill: url(#linear-gradient-11);
      }
    </style>
    <linearGradient id="linear-gradient" x1="58.77" y1="-759.8" x2="39.9" y2="-759.8" gradientTransform="translate(0 -704.57) scale(1 -1)" gradientUnits="userSpaceOnUse">
      <stop offset="0" stop-color="#000" stop-opacity=".3"/>
      <stop offset="1" stop-color="#0189ff"/>
    </linearGradient>
    <linearGradient id="linear-gradient-2" x1="41.24" y1="-747.11" x2="27.32" y2="-747.11" gradientTransform="translate(0 -704.57) scale(1 -1)" gradientUnits="userSpaceOnUse">
      <stop offset="0" stop-color="#3ec745"/>
      <stop offset=".06" stop-color="#3ab940" stop-opacity=".92"/>
      <stop offset=".16" stop-color="#2f9534" stop-opacity=".78"/>
      <stop offset=".3" stop-color="#1c5b20" stop-opacity=".58"/>
      <stop offset=".48" stop-color="#040b04" stop-opacity=".33"/>
      <stop offset=".5" stop-color="#000" stop-opacity=".3"/>
      <stop offset=".61" stop-color="#123914" stop-opacity=".46"/>
      <stop offset=".75" stop-color="#257529" stop-opacity=".65"/>
      <stop offset=".86" stop-color="#32a238" stop-opacity=".8"/>
      <stop offset=".95" stop-color="#3bbd41" stop-opacity=".93"/>
      <stop offset="1" stop-color="#3ec745"/>
    </linearGradient>
    <linearGradient id="linear-gradient-3" x1="21.84" y1="-771.33" x2="21.84" y2="-760.33" gradientTransform="translate(0 -704.57) scale(1 -1)" gradientUnits="userSpaceOnUse">
      <stop offset="0" stop-color="#000" stop-opacity=".3"/>
      <stop offset=".07" stop-color="#071808" stop-opacity=".35"/>
      <stop offset=".25" stop-color="#184d1b" stop-opacity=".47"/>
      <stop offset=".42" stop-color="#26792a" stop-opacity=".59"/>
      <stop offset=".58" stop-color="#309b36" stop-opacity=".71"/>
      <stop offset=".74" stop-color="#38b33e" stop-opacity=".82"/>
      <stop offset=".88" stop-color="#3cc243" stop-opacity=".92"/>
      <stop offset="1" stop-color="#3ec745"/>
    </linearGradient>
    <linearGradient id="linear-gradient-4" x1="45.54" y1="-779.09" x2="45.54" y2="-760.33" gradientTransform="translate(0 -704.57) scale(1 -1)" gradientUnits="userSpaceOnUse">
      <stop offset="0" stop-color="#000" stop-opacity=".3"/>
      <stop offset=".23" stop-color="#123914" stop-opacity=".46"/>
      <stop offset=".49" stop-color="#257529" stop-opacity=".65"/>
      <stop offset=".72" stop-color="#32a238" stop-opacity=".8"/>
      <stop offset=".9" stop-color="#3bbd41" stop-opacity=".93"/>
      <stop offset="1" stop-color="#3ec745"/>
    </linearGradient>
    <linearGradient id="linear-gradient-5" x1="35.76" y1="-757.47" x2="35.76" y2="-740.45" gradientTransform="translate(0 -704.57) scale(1 -1)" gradientUnits="userSpaceOnUse">
      <stop offset="0" stop-color="#000" stop-opacity=".3"/>
      <stop offset=".18" stop-color="#062233" stop-opacity=".43"/>
      <stop offset="1" stop-color="#0189ff"/>
    </linearGradient>
    <linearGradient id="linear-gradient-6" x1="471.06" y1="70.36" x2="471.06" y2="17.85" gradientTransform="matrix(1, 0, 0, 1, 0, 0)" gradientUnits="userSpaceOnUse">
      <stop offset="0" stop-color="#289148"/>
      <stop offset="1" stop-color="#3ec745"/>
    </linearGradient>
    <linearGradient id="linear-gradient-7" x1="401.37" y1="70.29" x2="401.37" y2="17.85" xlink:href="#linear-gradient-6"/>
    <linearGradient id="linear-gradient-8" x1="203.16" y1="70.29" x2="203.16" y2="17.85" xlink:href="#linear-gradient-6"/>
    <linearGradient id="linear-gradient-9" x1="268.54" y1="70.29" x2="268.54" y2="17.85" xlink:href="#linear-gradient-6"/>
    <linearGradient id="linear-gradient-10" x1="333.39" y1="70.29" x2="333.39" y2="17.85" xlink:href="#linear-gradient-6"/>
    <linearGradient id="linear-gradient-11" x1="137.29" y1="70.28" x2="137.29" y2="17.85" xlink:href="#linear-gradient-6"/>
  </defs>
  <g>
    <g>
      <path class="cls-13" d="M16.32,44.5v.7l.03-1.32c-.01,.2-.03,.4-.03,.61Z"/>
      <path class="cls-9" d="M66.62,30.03l.03,1.32v23.49c0,3.22-2.61,5.84-5.84,5.84h-8.09v-7.77h2.93c1.73,0,3.12-1.39,3.12-3.11v-14.11c0-1.73-1.39-3.12-3.12-3.12h-14.38c-1.73,0-3.12,1.39-3.12,3.12v14.11c0,1.71,1.39,3.11,3.12,3.11h3.59v7.77h-8.74c-3.22,0-5.84-2.61-5.84-5.84V30.64c0-3.22,2.61-5.84,5.84-5.84h21.64l8.95-13.13-.08,18.36Z"/>
      <path class="cls-14" d="M55.66,52.9h-15.76v7.77h14.28c2.53,0,4.59-2.06,4.59-4.59v-6.29c0,1.71-1.39,3.11-3.11,3.11Z"/>
      <path class="cls-11" d="M46.88,38.66h-8.74v7.77h3.59c1.73,0,3.12,1.39,3.12,3.11v14.1c0,1.73-1.39,3.12-3.12,3.12h-14.41c-1.73,0-3.12-1.39-3.12-3.12v-14.1c0-1.71,1.39-3.11,3.12-3.11h2.93v-7.77h-5.01l-8.95-13.13,.06,18.36-.03,1.32v23.49c0,3.22,2.61,5.84,5.84,5.84h24.73c3.22,0,5.84-2.61,5.84-5.84v-24.19c-.01-3.23-2.62-5.84-5.86-5.84Z"/>
      <rect class="cls-6" x="27.32" y="38.66" width="13.92" height="7.77"/>
      <path class="cls-5" d="M24.2,63.64v-7.88h-7.84v4.93c0,3.35,2.71,6.06,6.06,6.06h4.9c-1.71,0-3.12-1.39-3.12-3.12Z"/>
      <path class="cls-7" d="M52.72,68.69v-12.93h-7.88v7.26s1,11.49-6.49,11.49h8.54c3.22,0,5.83-2.61,5.83-5.83Z"/>
      <rect class="cls-10" x="30.26" y="38.66" width="7.88" height="7.77"/>
      <path class="cls-8" d="M38.14,49.78v-13.9h-7.88v11.66c0,2.95,2.4,5.36,5.36,5.36h5.64c-1.73,0-3.12-1.39-3.12-3.12Z"/>
    </g>
    <path class="cls-12" d="M43.1,86.2c-11.51,0-22.34-4.48-30.48-12.62C4.48,65.44,0,54.61,0,43.1S4.48,20.76,12.62,12.62C20.76,4.48,31.59,0,43.1,0s22.34,4.48,30.48,12.62c8.14,8.14,12.62,18.96,12.62,30.48s-4.48,22.34-12.62,30.48c-8.14,8.14-18.96,12.62-30.48,12.62Zm0-83.23C20.97,2.97,2.97,20.97,2.97,43.1s18,40.13,40.13,40.13,40.13-18,40.13-40.13S65.23,2.97,43.1,2.97Z"/>
  </g>
  <g>
    <path class="cls-3" d="M506.75,69.37c-.2-.19-.36-.44-.6-.58-.06-.19-.21-.3-.34-.43-2.39-2.53-4.77-5.05-7.16-7.58-.14-.15-.26-.32-.45-.42-.08-.22-.27-.36-.43-.52-2.85-3.02-5.69-6.04-8.54-9.06-.31-.33-.59-.69-.96-.96-.05-.17-.19-.27-.3-.39-1.63-1.72-3.25-3.45-4.88-5.17-.21-.22-.39-.48-.66-.64-.18-.36-.52-.58-.76-.88-.21-.25-.21-.3,0-.52,.15-.16,.32-.32,.48-.48,.54-.56,1.14-1.06,1.64-1.66h0c.17-.05,.27-.19,.38-.31,2.01-1.96,4.01-3.93,6.01-5.9,.07-.07,.13-.16,.19-.24h0c.17-.05,.27-.19,.38-.3,1.91-1.87,3.81-3.74,5.72-5.61,.09-.08,.16-.19,.23-.28h0c.25-.11,.42-.34,.61-.52,1.79-1.75,3.57-3.5,5.35-5.25,.47-.46,.96-.9,1.44-1.35,.09-.11,.18-.23,.28-.33,.41-.41,.82-.81,1.24-1.22,.1-.1,.21-.2,.29-.32,.21-.32,.06-.6-.32-.62-.06,0-.12,0-.19,0-5.64,0-11.28,0-16.92,0-.36,0-.62,.1-.87,.35-1.49,1.49-3,2.96-4.5,4.44-.09,.09-.16,.19-.24,.28h0c-.07,.02-.11,.06-.12,.12l.03,.03h0l-.03-.03c-.07,.02-.11,.06-.12,.12l.03,.03h0l-.03-.03c-.07,.01-.11,.06-.13,.12l.04,.03h0l-.04-.03c-.07,.02-.11,.06-.12,.12-.07,.02-.11,.06-.12,.13l.04,.03h0l-.03-.03c-.17,.05-.27,.19-.38,.3-1.31,1.28-2.61,2.57-3.91,3.86-.1,.1-.18,.22-.28,.33h0c-.42,.32-.8,.69-1.13,1.11h0c-.63,.53-1.21,1.1-1.75,1.72h0c-.07,.02-.11,.06-.12,.12l.03,.03h0l-.03-.03c-.07,.02-.11,.06-.13,.12l-.2,.07c-.11,.12-.21,.25-.32,.37-.73,.72-1.46,1.44-2.2,2.16-.13,.13-.25,.29-.46,.25-.06-.08-.11-.17-.18-.24-1.41-1.49-2.82-2.98-4.23-4.47-.08-.09-.18-.16-.28-.24h0c-.05-.17-.18-.27-.3-.39-.92-.97-1.84-1.94-2.76-2.91-.34-.35-.64-.75-1.04-1.04h0c-.06-.19-.21-.3-.34-.43-.51-.54-1.02-1.07-1.53-1.6-.15-.16-.33-.31-.43-.52-.18-.08-.28-.24-.41-.37-1.11-1.17-2.23-2.33-3.33-3.51-.26-.28-.53-.39-.92-.39-5.77,.01-11.55,0-17.32,0-.14,0-.29,0-.43,.01-.12,0-.19,.08-.2,.19-.03,.17-.02,.33,.11,.47,.1,.11,.21,.2,.3,.31,.25,.3,.6,.51,.78,.87,.11,.09,.23,.18,.33,.28,2.08,2.1,4.15,4.2,6.23,6.29,.19,.19,.35,.41,.59,.54h0c.4,.51,.87,.95,1.36,1.37h0c.23,.26,.45,.53,.7,.77,1.92,1.95,3.84,3.89,5.77,5.83,.11,.12,.21,.26,.37,.31h0c.03,.05,.06,.11,.1,.15,.7,.71,1.39,1.41,2.09,2.11,.04,.04,.1,.06,.15,.09,.01,.08,.06,.12,.13,.14h0c.07,.18,.23,.29,.36,.42,1.28,1.3,2.56,2.6,3.85,3.9,.16,.16,.32,.32,.47,.49,.08,.09,.07,.18,0,.28-.15,.19-.37,.32-.47,.56-.1,.08-.2,.14-.28,.23-1.08,1.1-2.15,2.21-3.23,3.32-.08,.09-.18,.17-.22,.29-.1,.08-.2,.14-.28,.23-1.08,1.1-2.15,2.21-3.22,3.32-.08,.09-.14,.2-.22,.29h0c-.11,.09-.23,.18-.33,.28-.97,.99-1.93,1.98-2.89,2.98-.1,.1-.22,.19-.26,.34h0c-.16,.06-.25,.21-.37,.32-1.35,1.39-2.7,2.78-4.05,4.17-2.15,2.22-4.31,4.43-6.46,6.65-.11,.12-.25,.22-.3,.38h0s-.08,.03-.11,.06c-1.08,1.1-2.15,2.21-3.23,3.31-.25,.25-.3,.52-.21,.84,.19,0,.37,0,.56,0,5.6,0,11.21,0,16.81,0,.14,0,.29,0,.43,0,.08,0,.15-.06,.22-.09h0c.16-.07,.27-.2,.36-.35h0l.12-.14c.07-.02,.11-.06,.13-.13,.07-.02,.11-.06,.12-.12,.06-.02,.11-.06,.12-.12h0l.13,.02c1.24-1.28,2.48-2.57,3.72-3.85,.14-.15,.31-.27,.39-.47h0c.19-.09,.31-.27,.45-.41,1.24-1.27,2.47-2.55,3.71-3.82,2.08-2.15,4.17-4.3,6.25-6.45,.14-.15,.32-.26,.39-.47,.27-.16,.45-.42,.67-.63,.35-.35,.69-.71,1.04-1.06,.08-.08,.19-.08,.27,0,.12,.11,.23,.23,.35,.35,1.21,1.3,2.43,2.59,3.64,3.89,.14,.15,.25,.33,.45,.42,.04,.15,.16,.24,.25,.34,1.63,1.74,3.26,3.47,4.89,5.21,.1,.1,.18,.23,.32,.28h0c.05,.19,.22,.3,.34,.43,1.14,1.22,2.27,2.44,3.41,3.64,.52,.55,1,1.14,1.59,1.63h0c.1,.23,.3,.38,.46,.56,.43,.46,.86,.92,1.3,1.38,.17,.11,.36,.06,.54,.06,5.93,0,11.86,0,17.79,0,.18,0,.37,.05,.55-.06v-.74c-.12,0-.16-.11-.23-.18Zm-20.69-31.73s-.05,.04-.07,.06v-.02s.04-.03,.07-.04Zm-3.17-14.68h0l-.03-.04s.02,.03,.03,.04Zm-43.98,43.13s-.01-.01-.02-.02h.03v.02Zm11.17-11.53h0Zm3.99,14.74l-.12,.12h0l-.12,.12h0c.03-.05,.07-.09,.12-.12,.03-.05,.07-.1,.12-.13h0Zm15.14-15.87h0Zm13.05-9.78h0Z"/>
    <path class="cls-1" d="M431.7,19.13c-.04-.07-.09-.14-.13-.21-.31-.7-.89-1-1.62-1.05-.23-.02-.45-.01-.68-.01-18.62,0-37.25,0-55.87,0-.25,0-.5,0-.74,.02-.93,.07-1.58,.69-1.67,1.62-.03,.29-.03,.58-.03,.87,0,7.72,0,15.45,0,23.17,0,.21,.02,.41,.03,.62h0c-.05,.79-.05,1.57,0,2.36-.01,.16-.03,.32-.03,.49,0,1.08,0,2.16,0,3.24,0,.16,.02,.32,.03,.49-.01,.18-.03,.37-.03,.55,0,4.13,0,8.27,0,12.4,0,.18,.02,.37,.03,.55-.06,1.46-.04,2.92,0,4.39,0,.12,.01,.25,.1,.35h0c0,.14,.01,.28,.14,.37h0c.02,.17,.09,.29,.25,.37h0c.16,.3,.46,.39,.75,.5h.37c.27,.17,.56,.09,.85,.09,19.03,0,38.06,0,57.1,0,.23,0,.45,0,.68,0,.08-.24,.05-.49,.05-.74,0-4.02,0-8.05,0-12.07,0-.12,0-.25,0-.37-.01-.39-.05-.43-.42-.44-.19,0-.37,0-.56,0-14.23,0-28.46,0-42.69,0-.19,0-.37,0-.56,0-.36,.01-.7-.07-1-.26h0c-.16-.32-.17-.67-.17-1.02,0-4.91,0-9.82,0-14.73,0-.14,0-.29,0-.43,0-.1,.02-.21,.15-.24,.16-.04,.3,.01,.36,.15,.05,.11,.1,.23,.14,.34,.92,2.45,1.85,4.9,2.77,7.35,.09,.23,.15,.47,.3,.67h0q.16,.71,.83,.72s.08,0,.12,0c6.37,0,12.75,0,19.12,0,.86,0,.79,.04,.79-.82,0-2.97,0-5.95,0-8.92,0-1.07,.15-.94-.97-.94-7.59,0-15.19,0-22.78,0-.21,0-.41,0-.62-.02-.12,0-.19-.08-.2-.19-.01-.1-.01-.21-.01-.31,0-1.98,0-3.96,0-5.95,0-.14,0-.29,.03-.43,.09-.41,.31-.6,.73-.64,.25-.02,.5-.02,.74-.02,8.71,0,17.42,0,26.13,0,.93,0,1.86,0,2.79,0,.17,0,.33,0,.5,.02,.31,.05,.48,.21,.52,.52,.03,.22,.03,.45,.03,.68,0,1.92,0,3.84,0,5.76,0,.17,0,.33,.01,.49,.02,.22,.14,.32,.38,.31,.08,0,.17-.01,.24-.04,.66-.24,1.34-.43,1.96-.76h0c.56-.13,1.1-.33,1.6-.6,.2,.02,.36-.09,.53-.15,2.44-.9,4.87-1.79,7.3-2.7,.54-.2,1.1-.35,1.6-.64h0c.24,0,.45-.1,.64-.24h0c.08-.02,.16-.06,.17-.16,.01-.18,.02-.37,.02-.56,0-3.86,0-7.71,0-11.57,0-.74,.03-1.48-.1-2.22Zm-59.1,50.92h0Z"/>
    <path class="cls-4" d="M219.17,38.42c.01,.26,.14,.37,.41,.33,.41-.07,.8-.19,1.15-.42h0c.68-.17,1.34-.41,1.97-.73,.22,.01,.4-.09,.59-.17,2.59-.95,5.17-1.91,7.76-2.87,.57-.22,1.17-.38,1.71-.68h0c.3-.01,.56-.16,.83-.28,0-4.4,0-8.8,0-13.19,0-.35-.02-.7-.08-1.05-.16-.88-.84-1.43-1.74-1.48-.23-.01-.46-.01-.68-.01-18.65,0-37.29,0-55.94,0-.23,0-.46,0-.68,.02-.97,.08-1.6,.7-1.69,1.66-.03,.29-.02,.58-.02,.87,0,15.78,0,31.55,0,47.33,0,.31,.02,.62,.03,.93,0,.1,.02,.2,.1,.28,0,.23,.1,.42,.23,.6,.13,.17,.29,.32,.44,.48l.46,.16h.36c.26,.18,.56,.09,.84,.09,19.02,0,38.04,0,57.06,0,.17,0,.33,0,.5,0,.09,0,.16-.03,.21-.11h0c.01-.2,.04-.41,.04-.61,0-3.5,0-6.99,0-10.49,0-.18-.01-.37-.02-.55h0c.03-.61,.04-1.23,0-1.84-.27,0-.54-.02-.81-.02-14.26,0-28.51,0-42.77,0-.21,0-.41,0-.62,0-.85-.02-1.11-.28-1.13-1.12,0-.02,0-.04,0-.06,0-4.98,0-9.95,0-14.93,0-.14,0-.29,.02-.43,.01-.13,.12-.15,.23-.15,.11,0,.21,.03,.26,.13,.06,.13,.11,.26,.17,.4,.87,2.3,1.73,4.6,2.6,6.89,.09,.25,.15,.51,.32,.73-.01,.17,.07,.32,.13,.47,.23,.63,.18,.61,.88,.61,6.44,0,12.87,0,19.31,0,.14,0,.29,0,.43-.01,.14-.01,.23-.09,.24-.23,0-.19,0-.37,0-.56,0-3.01,0-6.03,0-9.04,0-.92,.1-.84-.82-.84-7.61,0-15.23,0-22.84,0-.19,0-.37,0-.56,0-.06,0-.12,0-.18-.02-.09-.02-.15-.08-.16-.16-.01-.1-.02-.21-.02-.31,0-1.98,0-3.96,0-5.95,0-.12,0-.25,.02-.37,.08-.47,.31-.69,.78-.72,.23-.02,.45-.01,.68-.01,5.77,0,11.55,0,17.32,0,3.83,0,7.66,0,11.48,0,.23,0,.46,0,.68,.03,.25,.03,.41,.18,.47,.43,.07,.24,.07,.49,.07,.74,0,1.92,0,3.84,0,5.76,0,.17,0,.33,0,.5Zm-7.05,4.58v.02h-.01v-.02Z"/>
    <path class="cls-2" d="M297.24,56.6c-.23-.01-.45-.01-.68-.01-8.67,0-17.34,0-26.02,0-4.64,0-9.27,0-13.91,0-.27,0-.54,0-.81-.02-.78-.08-1.14-.43-1.26-1.21-.04-.22-.05-.45-.07-.68h0c.01-.18,.03-.37,.03-.55,0-4.59,0-9.18,0-13.77,0-.18-.02-.37-.03-.55h0c.01-.16,.03-.33,.03-.49,0-2.61,0-5.21,0-7.82,0-.16-.02-.33-.03-.49h0c.01-.23,.03-.45,.03-.68,0-3.9,0-7.8,0-11.7,0-.83,.05-.77-.77-.77-4.45,0-8.9,0-13.34,0-.1,0-.21,0-.31,0-.45,.01-.47,.04-.48,.51,0,.14,0,.29,0,.43,0,12.45,0,24.89,0,37.34,0,3.28,0,6.56,0,9.85,0,.29-.05,.58,.08,.85-.05,.65,.16,1.24,.43,1.81,.08,.16,.14,.34,.32,.44h0c.05,.26,.32,.35,.42,.56,.39,.21,.79,.39,1.21,.52,.3-.05,.58,.06,.87,.12,.1,0,.21-.02,.31-.02,17.74,0,35.47,0,53.21,0,.33,0,.66,0,.99,0,.01-.21,.04-.41,.04-.62,0-4.13,0-8.26,0-12.39,0-.14,0-.29,0-.43,0-.15-.09-.23-.23-.23Zm-56.79,12.33h0Z"/>
    <path class="cls-15" d="M364.4,33.05c-.28-1.61-.68-3.19-1.3-4.7-.12-.28-.2-.59-.42-.82h0c-.01-.06-.01-.13-.04-.18-.88-1.82-2.06-3.42-3.58-4.77-1.4-1.25-3.01-2.17-4.74-2.89-.46-.19-.91-.37-1.37-.56-.19,.02-.36-.07-.54-.13-2.29-.7-4.64-1-7.02-1.12-.8-.04-1.61-.03-2.42-.03-12.85,0-25.7,0-38.54,0-.23,0-.46,0-.68,0-.77,0-1.37,.28-1.71,1-.16,.67-.13,1.35-.13,2.02,0,3.46,0,6.92,0,10.37,0,.25,.01,.49,.02,.74h0c0,.14-.02,.29-.02,.43,0,4.23,0,8.47,0,12.7,0,.16,.01,.33,.02,.49h0c0,.19-.02,.37-.02,.56,0,7.8,0,15.6,0,23.4,0,.74-.03,.69,.72,.69,4.45,0,8.89,0,13.34,0,.08,0,.17,0,.25,0,.48,0,.48-.01,.49-.49,0-.14,0-.29,0-.43,0-3.51,0-7.02,0-10.52,0-.27,.02-.54,.03-.8h0c.12,0,.23-.02,.35-.02,.1,0,.19,.02,.24,.13,.11,.26,.24,.52,.34,.79,1.46,3.75,2.92,7.49,4.38,11.24,.04,0,.08,0,.12,0h0c.21,.19,.47,.1,.71,.1,6.82,0,13.65,0,20.47,0,.35,0,.7,0,1.05,.01,.3-.03,.6-.07,.91-.09,.44-.02,.89-.09,1.33-.03,.37-.04,.74-.09,1.1-.12,1.42-.14,2.81-.4,4.18-.79,.53-.15,1.08-.26,1.56-.55,.52-.07,.97-.33,1.44-.54,1.96-.88,3.71-2.06,5.18-3.64,1.2-1.3,2.14-2.77,2.84-4.39,.3-.68,.59-1.36,.73-2.1h0c.13-.17,.16-.38,.21-.57,.66-2.4,.95-4.86,.98-7.34,.04-3.63,.01-7.27,.02-10.9,0-2.07-.12-4.12-.47-6.17Zm-14.73,15.27c0,1.12-.14,2.22-.34,3.32-.05,.24-.13,.48-.08,.73,.02,.07,.04,.13,.09,.18-.28,.05-.3,.31-.37,.5-.54,1.4-1.55,2.31-2.94,2.83-.2,.07-.46,.08-.52,.36-.01-.02-.03-.03-.06-.05-.26-.13-.53-.06-.79-.01-1.02,.17-2.05,.27-3.09,.27-7.76,0-15.52,0-23.27,0-.23,0-.46,0-.68,0-.42,0-.61-.19-.59-.6,0-.14,0-.29,0-.43,0-7.58,0-15.15,0-22.73,0-.23,0-.45,.02-.68,.04-.48,.3-.75,.79-.8,.23-.02,.45-.02,.68-.02,8.13,0,16.26,0,24.39,0,.84,0,1.65,.12,2.45,.33,1.95,.51,3.29,1.64,3.82,3.65,.32,1.21,.47,2.43,.48,3.67,.03,3.16,0,6.32,.01,9.48Zm3.79,20.23h0Z"/>
    <path class="cls-16" d="M167.44,51.36c-.12-2.67-1.16-4.91-3.16-6.7-.54-.48-1.13-.9-1.76-1.26-.34-.19-.35-.23-.05-.46,.79-.61,1.48-1.32,2.09-2.11,.15-.19,.33-.37,.4-.62h0c.14-.09,.22-.22,.25-.38h0c.5-.66,.76-1.42,.87-2.23h0c.03-.07,.08-.14,.1-.22,.14-.73,.22-1.47,.22-2.21,0-2.08,.07-4.16-.06-6.24-.08-1.26-.29-2.5-.69-3.69-.76-2.23-2.03-4.08-4.05-5.37-.05-.03-.09-.08-.13-.13-.08-.03-.16-.05-.23-.09-1.7-.97-3.57-1.41-5.48-1.66-1.15-.15-2.31-.16-3.47-.16-14.21,0-28.42,0-42.64,0-.27,0-.54,0-.81,.02-.43,.03-.8,.19-1.11,.49-.09,.09-.18,.17-.27,.26-.24,.34-.34,.72-.32,1.14,0,3.44-.01,6.88,0,10.31,.02,.04,.05,.07,.08,.08,0,.22-.02,.44-.02,.66,0,8.45,0,16.9,0,25.35,0,.07,0,.14,0,.21,0,2.3,0,4.6,0,6.9,0,.06,0,.12,0,.18,0,2.02,0,4.04,0,6.06,0,.25,.02,.49,.02,.74,.23,.01,.45,.03,.68,.03,4.46,0,8.92,0,13.37,0,.17,0,.33,0,.5,0,.09,0,.16-.04,.21-.11h0s.07-.02,.1-.02c0-3.28,0-6.55,0-9.83,0-.19,0-.37,.01-.56,0-.13,.12-.21,.26-.19,.11,0,.2,.05,.25,.16,.06,.13,.11,.26,.17,.4,1.27,3.31,2.54,6.62,3.8,9.93,.03,.04,.06,.05,.09,.02-.04,.07-.03,.14,.04,.22h0c.06,0,.12-.01,.19-.01,8.84,0,17.67,0,26.51,0,.41,0,.83,0,1.24,.01,.49-.08,.99-.15,1.49-.11,.21,.07,.42,.11,.62-.02,.16-.04,.32-.09,.48-.11,1.21-.15,2.4-.44,3.54-.88,1.09-.42,2.1-.98,2.97-1.76,.69-.62,1.3-1.32,1.72-2.17,.08-.1,.16-.18,.22-.29,.58-1.03,.98-2.14,1.26-3.29,.38-1.57,.54-3.17,.54-4.79,0-1.16,0-2.31,0-3.47,0-.68,0-1.36-.02-2.04Zm-45.15-20.66c0-.6,.27-.85,.86-.95,.23-.04,.45-.03,.68-.03,7.74,0,15.48,0,23.22,0,.56,0,1.12,.07,1.66,.17,1.5,.29,2.21,1.04,2.49,2.54,.2,1.07,.11,2.14,.11,3.21,0,1.03-.19,2.02-.89,2.83-.08,.09-.14,.18-.16,.3-.03,0-.05,.02-.08,.03-.25,.14-.62,.13-.67,.48-.22-.16-.47-.11-.71-.05-.57,.13-1.15,.14-1.73,.14-7.84,0-15.69,0-23.53,0-.23,0-.46,0-.68,0-.42,0-.59-.2-.59-.61,0-2.68-.02-5.37,.01-8.05Zm29.29,25.14c-.05,.03-.1,.07-.14,.13-.05,.08-.09,.17-.13,.26-.11,.27-.26,.52-.45,.74-.04,.04-.09,.08-.13,.12-.03,.02-.05,.04-.08,.05-.06,.04-.11,.07-.17,.11-.77,.49-1.63,.7-2.53,.7-8.37,0-16.74,0-25.11,0-.24,0-.5,.05-.71-.14-.01-.02-.02-.04-.03-.06,.05-.18,.03-.38,.03-.57,.02-1.58-.2-3.15-.13-4.73,.03-.53,0-1.07,0-1.6,0-.24,.02-.5-.17-.7h0v-1.83c.35-.22,.73-.18,1.12-.18,7.56,0,15.13,0,22.69,0,.99,0,1.99-.04,2.97,.01,1.19,.06,2.25,.4,2.7,1.67,.06,.16,.14,.31,.3,.4-.08,.1-.09,.22-.07,.35,.02,.1,.05,.2,.05,.31,.07,1.52,.16,3.04-.08,4.55-.02,.14,0,.27,.08,.38Z"/>
  </g>
</svg>