<svg width="133" height="32" viewBox="0 0 133 32" fill="none" xmlns="http://www.w3.org/2000/svg">
<path fill-rule="evenodd" clip-rule="evenodd" d="M8.67793 8.67798C4.684 8.67798 1.44629 11.9157 1.44629 15.9096C1.44629 19.9035 4.684 23.1413 8.67793 23.1413H13.3785V19.5254H8.67793C6.68097 19.5254 5.06211 17.9066 5.06211 15.9096C5.06211 13.9127 6.68097 12.2938 8.67793 12.2938H13.3785V8.67798H8.67793ZM21.6949 8.67798C17.701 8.67798 14.4632 11.9157 14.4632 15.9096C14.4632 19.9035 17.701 23.1413 21.6949 23.1413H26.3954V19.5254H21.6949C19.6979 19.5254 18.0791 17.9066 18.0791 15.9096C18.0791 13.9127 19.6979 12.2938 21.6949 12.2938H26.3954V8.67798H21.6949ZM28.2034 11.2091C28.2034 9.81118 29.3366 8.67798 30.7344 8.67798H40.1356V12.2938H31.8192V19.5254H40.1356V23.1413H30.7344C29.3366 23.1413 28.2034 22.0081 28.2034 20.6102V11.2091ZM40.1356 14.1017H33.6271V17.7175H40.1356V14.1017Z" fill="#0EBE8F"/>
<path fill-rule="evenodd" clip-rule="evenodd" d="M77.7402 15.9096C77.7402 11.9157 80.9779 8.67798 84.9719 8.67798H89.6724V12.2938H84.9719C82.9749 12.2938 81.3561 13.9127 81.3561 15.9096C81.3561 17.9066 82.9749 19.5254 84.9719 19.5254H89.6724V23.1413H84.9719C80.9779 23.1413 77.7402 19.9035 77.7402 15.9096ZM91.4803 15.548C91.4803 11.7538 94.5562 8.67798 98.3504 8.67798C102.145 8.67798 105.22 11.7538 105.22 15.548V23.1413H101.605V19.5254H95.0962V23.1413H91.4803V15.548ZM101.605 15.9096V15.548C101.605 13.7508 100.148 12.2938 98.3504 12.2938C96.5531 12.2938 95.0962 13.7508 95.0962 15.548V15.9096H101.605ZM107.028 13.1978C107.028 10.7016 109.052 8.67798 111.548 8.67798H117.153V12.2938H111.548C111.049 12.2938 110.644 12.6985 110.644 13.1978C110.644 13.697 111.049 14.1017 111.548 14.1017H112.633C115.129 14.1017 117.153 16.1253 117.153 18.6215C117.153 21.1177 115.129 23.1413 112.633 23.1413H107.028V19.5254H112.633C113.132 19.5254 113.537 19.1207 113.537 18.6215C113.537 18.1222 113.132 17.7175 112.633 17.7175H111.548C109.052 17.7175 107.028 15.694 107.028 13.1978ZM122.576 14.1017V8.67798H118.961V23.1413H122.576V17.7175H127.277V23.1413H130.893V8.67798H127.277V14.1017H122.576Z" fill="#CFD8EE"/>
<path d="M44.4746 15.9096C44.4746 7.92178 50.95 1.44635 58.9379 1.44635H67.7003C69.6254 1.44635 70.5968 3.76723 69.2457 5.1385L60.7705 13.7401H61.6882C62.3244 13.7401 62.4408 14.6465 61.8253 14.8073L53.9595 16.8618C53.4275 17.0008 53.0502 16.3511 53.4346 15.9579L60.5518 8.67799H58.9379C54.944 8.67799 51.7062 11.9157 51.7062 15.9096C51.7062 17.7964 52.4288 19.5145 53.6124 20.8021L48.5108 25.9327C46.0112 23.3331 44.4746 19.8008 44.4746 15.9096Z" fill="url(#paint0_linear_136_4419)"/>
<path d="M73.401 15.9096C73.401 23.8975 66.9256 30.3729 58.9378 30.3729H50.2297C48.2969 30.3729 47.329 28.036 48.6957 26.6693L56.9243 18.4407H56.0067C55.3705 18.4407 55.254 17.5343 55.8696 17.3736L63.696 15.3293C64.2309 15.1895 64.6075 15.846 64.2169 16.2372L57.3238 23.1413H58.9378C62.9317 23.1413 66.1694 19.9035 66.1694 15.9096C66.1694 14.0228 65.4468 12.3048 64.2633 11.0171L69.3649 5.88654C71.8644 8.48619 73.401 12.0185 73.401 15.9096Z" fill="url(#paint1_linear_136_4419)"/>
<path d="M67.7003 1.44635H61.9209C55.5805 1.44635 50.4407 6.58622 50.4407 12.9266C50.4407 15.9866 51.6379 18.7671 53.5896 20.825L53.6124 20.8021C52.4288 19.5145 51.7062 17.7964 51.7062 15.9096C51.7062 11.9157 54.9439 8.67799 58.9378 8.67799H60.5518L53.4346 15.9579C53.0502 16.3511 53.4275 17.0008 53.9595 16.8618L61.8252 14.8073C62.4408 14.6465 62.3244 13.7401 61.6882 13.7401H60.7705L69.2456 5.13851C70.5967 3.76723 69.6253 1.44635 67.7003 1.44635Z" fill="url(#paint2_linear_136_4419)" fill-opacity="0.3"/>
<path d="M55.9946 30.3942H50.2642C48.3314 30.3942 47.3634 28.0573 48.7301 26.6906L56.9588 18.462H56.0411C55.4049 18.462 55.2885 17.5556 55.904 17.3948L63.7304 15.3505C64.2654 15.2108 64.642 15.8673 64.2513 16.2585L57.3582 23.1625H58.9722C62.9661 23.1625 66.2038 19.9248 66.2038 15.9309C66.2038 14.0441 65.4812 12.3261 64.2977 11.0384L64.3078 11.0283C66.2523 13.0849 67.4447 15.8602 67.4447 18.914C67.4447 25.2443 62.3211 30.3779 55.9946 30.3942Z" fill="url(#paint3_linear_136_4419)" fill-opacity="0.3"/>
<defs>
<linearGradient id="paint0_linear_136_4419" x1="58.7571" y1="1.44635" x2="58.7571" y2="21.243" gradientUnits="userSpaceOnUse">
<stop stop-color="#11DA83"/>
<stop offset="1" stop-color="#1FA473"/>
</linearGradient>
<linearGradient id="paint1_linear_136_4419" x1="63.0713" y1="30.2933" x2="63.0713" y2="10.9487" gradientUnits="userSpaceOnUse">
<stop stop-color="#DEE5EB"/>
<stop offset="1" stop-color="#CFD8EE"/>
</linearGradient>
<linearGradient id="paint2_linear_136_4419" x1="62.7345" y1="18.4407" x2="56.4068" y2="12.8362" gradientUnits="userSpaceOnUse">
<stop stop-color="#12D883"/>
<stop offset="1" stop-color="#177D63"/>
</linearGradient>
<linearGradient id="paint3_linear_136_4419" x1="53.8111" y1="19.1144" x2="58.305" y2="22.8701" gradientUnits="userSpaceOnUse">
<stop stop-color="#D0DBE8"/>
<stop offset="1" stop-color="#8C95A3"/>
</linearGradient>
</defs>
</svg>