<?xml version="1.0" encoding="UTF-8" standalone="no"?>
<svg
   version="1.1"
   id="Layer_1"
   x="0px"
   y="0px"
   viewBox="0 0 600 200"
   xml:space="preserve"
   width="600"
   height="200"
   xmlns="http://www.w3.org/2000/svg"
   xmlns:svg="http://www.w3.org/2000/svg"><defs
   id="defs41" />
<style
   type="text/css"
   id="style2">
	.st0{fill:#F1F1F2;}
	.st1{fill:#FFFFFF;}
	.st2{fill:#61776B;}
</style>
<g
   id="g36"
   transform="translate(-25,-25)">
	<g
   id="g6">
		<path
   d="M 25,69 H 53.6 V 97.6 H 25 Z m 28.6,87.3 v 28.6 H 25 v -28.6 z"
   id="path4" />
	</g>
	<g
   id="g10">
		<path
   d="m 94.5,53.6 h -30 V 25 h 58.6 V 225 H 64.5 v -28.6 h 30 z"
   id="path8" />
	</g>
	<g
   id="g14">
		<path
   d="m 133.9,153.6 h 17.3 V 96.4 H 133.9 V 67.9 h 63.2 v 28.6 h -17.3 v 57.1 h 17.3 v 28.6 h -63.2 z"
   id="path12" />
	</g>
	<g
   id="g18">
		<path
   d="m 286.6,153.6 v -14.2 h -15.1 c -2,0 -3.8,-0.3 -5.4,-0.9 -1.6,-0.6 -2.9,-1.3 -3.9,-2.1 -1,-0.8 -1.8,-2 -2.5,-3.5 -0.7,-1.5 -1.2,-2.9 -1.6,-4.1 -0.3,-1.2 -0.6,-2.8 -0.7,-4.7 -0.2,-2 -0.2,-3.5 -0.2,-4.6 0,-1.1 0,-2.6 0.1,-4.7 0.1,-2 0.1,-3.3 0.1,-4 h 57.9 v 71.3 h -74.5 c -9.9,0 -18.3,-3.5 -25.3,-10.4 -7,-7 -10.4,-15.4 -10.4,-25.3 v -42.8 c 0,-9.9 3.5,-18.3 10.4,-25.3 7,-7 15.4,-10.4 25.3,-10.4 h 74.5 v 28.6 h -63.9 c -4.9,0 -9.1,1.7 -12.6,5.2 -3.5,3.5 -5.2,7.7 -5.2,12.6 0,1.2 0,3.1 -0.1,5.8 -0.1,2.7 -0.1,4.8 -0.2,6.5 -0.1,1.7 0,3.8 0.2,6.4 0.2,2.6 0.5,4.8 0.9,6.4 0.4,1.7 1.1,3.5 2,5.5 0.9,2 1.9,3.5 3.2,4.7 1.3,1.1 2.9,2.1 4.9,2.9 2,0.8 4.3,1.1 6.9,1.1 z"
   id="path16" />
	</g>
	<g
   id="g22">
		<path
   d="m 326.1,153.6 h 17.3 V 96.4 H 326.1 V 67.9 h 63.2 V 96.5 H 372 v 57.1 h 17.3 v 28.6 h -63.2 z"
   id="path20" />
	</g>
	<g
   id="g26">
		<path
   d="M 400.1,182.1 V 67.9 h 28.6 v 85.7 h 102.4 v 28.6 h -131 z"
   id="path24" />
	</g>
	<g
   id="g30">
		<path
   d="M 541.9,182.1 V 67.9 h 28.6 v 85.7 H 625 v 28.6 h -83.1 z"
   id="path28" />
	</g>
	<g
   id="g34">
		<path
   d="m 439.5,67.9 v 74.9 h 91.6 V 67.9 Z m 28.6,46.3 V 96.4 h 34.5 v 17.7 h -34.5 z"
   id="path32" />
	</g>
</g>
</svg>
