<svg xmlns="http://www.w3.org/2000/svg" fill="#3bdb78" viewBox="0 0 124 52">
  <path
    d="M0 1v26c0 .6.5 1 1 1h74c.6 0 1-.5 1-1V1c0-.6-.5-1-1-1H1a1 1 0 0 0-1 1Zm5 3h2c.6 0 1 .5 1 1v6c0 .6.5 1 1 1h6c.6 0 1 .5 1 1v3h3c.6 0 1 .5 1 1v3h3c.6 0 1 .5 1 1v2c0 .6-.5 1-1 1h-2a1 1 0 0 1-1-1v-3h-3a1 1 0 0 1-1-1v-3H9a1 1 0 0 0-1 1v6c0 .6-.5 1-1 1H5a1 1 0 0 1-1-1V5c0-.6.5-1 1-1Zm12 0h3c.6 0 1 .5 1 1v3c0 .6-.5 1-1 1h-3a1 1 0 0 1-1-1V5c0-.6.5-1 1-1Zm12.8 0h2.4c.3 0 .7.2.8.5l5 7.8 5-7.8c.2-.3.5-.5.8-.5h2.4a1 1 0 0 1 .9 1.5l-7 10.8a1 1 0 0 0-.1.6V23c0 .6-.5 1-1 1h-2a1 1 0 0 1-1-1v-6.1l-.1-.6-7-10.8A1 1 0 0 1 30 4ZM57 4h14c.6 0 1 .5 1 1v2c0 .6-.5 1-1 1H56v12h15c.6 0 1 .5 1 1v2c0 .6-.5 1-1 1H57a1 1 0 0 1-1-1v-3h-3a1 1 0 0 1-1-1V9c0-.6.5-1 1-1h3V5c0-.6.5-1 1-1ZM1 32a1 1 0 0 0-1 1v18c0 .6.5 1 1 1h2c.6 0 1-.5 1-1V35.6l9.2 15.9c.2.3.5.5.8.5h5c.6 0 1-.5 1-1V33c0-.6-.5-1-1-1h-2a1 1 0 0 0-1 1v15.4L6.8 32.5A1 1 0 0 0 6 32H1Zm29 0a1 1 0 0 0-1 1v3h12v-3c0-.6-.5-1-1-1H30Zm11 4v12h3c.6 0 1-.5 1-1V37c0-.6-.5-1-1-1h-3Zm0 12H29v3c0 .6.5 1 1 1h10c.6 0 1-.5 1-1v-3Zm-12 0V36h-3a1 1 0 0 0-1 1v10c0 .6.5 1 1 1h3Zm21-16a1 1 0 0 0-1 1v6c0 .6.5 1 1 1h2c.6 0 1-.5 1-1v-3h4v15c0 .6.5 1 1 1h2c.6 0 1-.5 1-1V36h4v3c0 .6.5 1 1 1h2c.6 0 1-.5 1-1v-6c0-.6-.5-1-1-1H50Zm27 0a1 1 0 0 0-1 1v18c0 .6.5 1 1 1h2c.6 0 1-.5 1-1V39.4l5.5 12c.2.4.6.6 1 .6h3a1 1 0 0 0 1-.6l5.5-12V51c0 .6.5 1 1 1h2c.6 0 1-.4 1-1V33c0-.5-.5-1-1-1h-3.4a1 1 0 0 0-.9.6L88 47.2l-6.7-14.6a1 1 0 0 0-1-.6H77Zm32 0a1 1 0 0 0-1 1v3h15c.6 0 1-.5 1-1v-2c0-.6-.5-1-1-1h-14Zm-1 4h-3a1 1 0 0 0-1 1v14c0 .6.5 1 1 1h18c.6 0 1-.5 1-1v-2c0-.6-.5-1-1-1h-14a1 1 0 0 1-1-1v-3h7c.6 0 1-.5 1-1v-2c0-.6-.5-1-1-1h-7v-4ZM70 48a1 1 0 0 0-1 1v2c0 .6.5 1 1 1h2c.6 0 1-.5 1-1v-2c0-.6-.5-1-1-1h-2Z" />
</svg>