<?xml version="1.0" encoding="UTF-8" standalone="no"?>
<svg
   id="Layer_1"
   data-name="Layer 1"
   viewBox="0 0 535.06999 582.05998"
   version="1.1"
   sodipodi:docname="MB - White Text.svg"
   width="401.30249"
   height="436.54498"
   inkscape:version="1.4.2 (ebf0e940d0, 2025-05-08)"
   xmlns:inkscape="http://www.inkscape.org/namespaces/inkscape"
   xmlns:sodipodi="http://sodipodi.sourceforge.net/DTD/sodipodi-0.dtd"
   xmlns="http://www.w3.org/2000/svg"
   xmlns:svg="http://www.w3.org/2000/svg">
  <defs
     id="defs36" />
  <sodipodi:namedview
     id="namedview36"
     pagecolor="#505050"
     bordercolor="#ffffff"
     borderopacity="1"
     inkscape:showpageshadow="0"
     inkscape:pageopacity="0"
     inkscape:pagecheckerboard="1"
     inkscape:deskcolor="#505050"
     inkscape:zoom="1.3637687"
     inkscape:cx="267.64069"
     inkscape:cy="290.37182"
     inkscape:window-width="1918"
     inkscape:window-height="1051"
     inkscape:window-x="0"
     inkscape:window-y="0"
     inkscape:window-maximized="0"
     inkscape:current-layer="Layer_1" />
  <g
     id="g12"
     transform="translate(-18.21,-18.04)">
    <path
       d="m 69.09,558.95 c -0.26,-7.05 -0.52,-15.57 -0.52,-24.1 H 68.4 c -1.91,7.48 -4.35,15.83 -6.61,22.71 l -7.13,22.88 H 44.31 l -6.26,-22.62 c -1.91,-6.96 -3.83,-15.31 -5.31,-22.97 h -0.17 c -0.26,7.92 -0.61,16.96 -0.96,24.27 l -1.13,22.27 H 18.21 l 3.74,-58.64 h 17.66 l 5.74,19.58 c 1.91,6.79 3.65,14.09 4.96,20.97 h 0.35 c 1.57,-6.78 3.57,-14.53 5.57,-21.05 l 6.18,-19.49 h 17.4 l 3.13,58.64 H 70.06 L 69.1,558.95 Z"
       fill="#ffffff"
       id="path1" />
    <path
       d="m 128.33,571.13 c 0,4 0.17,7.92 0.7,10.27 h -11.92 l -0.78,-4.26 h -0.26 c -2.78,3.39 -7.13,5.22 -12.18,5.22 -8.61,0 -13.75,-6.26 -13.75,-13.05 0,-11.05 9.92,-16.27 24.97,-16.27 v -0.52 c 0,-2.35 -1.22,-5.57 -7.74,-5.57 -4.35,0 -8.96,1.48 -11.75,3.22 l -2.44,-8.53 c 2.96,-1.65 8.79,-3.83 16.53,-3.83 14.18,0 18.62,8.35 18.62,18.44 z m -12.79,-9.83 c -6.96,0 -12.35,1.65 -12.35,6.7 0,3.39 2.26,5.05 5.22,5.05 3.22,0 6,-2.17 6.87,-4.87 0.17,-0.7 0.26,-1.48 0.26,-2.26 v -4.61 z"
       fill="#ffffff"
       id="path2" />
    <path
       d="m 130.15,589.74 c 3.39,-0.26 6.18,-1.04 7.83,-2.78 1.91,-2 2.61,-5.39 2.61,-13.83 v -34.28 h 13.22 v 37.5 c 0,9.22 -2,14.88 -6,18.53 -3.92,3.65 -10.09,5.22 -16.36,5.22 l -1.3,-10.35 z m 24.01,-62.73 c 0,3.65 -2.7,6.61 -7.13,6.61 -4.18,0 -6.87,-2.96 -6.87,-6.61 0,-3.65 2.78,-6.61 7.05,-6.61 4.27,0 6.87,2.87 6.96,6.61 z"
       fill="#ffffff"
       id="path3" />
    <path
       d="m 174.35,564.34 c 0.35,5.48 5.83,8.09 12.01,8.09 4.52,0 8.18,-0.61 11.75,-1.83 l 1.74,8.96 c -4.35,1.83 -9.66,2.7 -15.4,2.7 -14.44,0 -22.71,-8.35 -22.71,-21.66 0,-10.79 6.7,-22.71 21.49,-22.71 13.75,0 18.97,10.7 18.97,21.23 0,2.26 -0.26,4.26 -0.43,5.22 h -27.41 z m 15.57,-9.05 c 0,-3.22 -1.39,-8.61 -7.48,-8.61 -5.57,0 -7.83,5.13 -8.18,8.61 z"
       fill="#ffffff"
       id="path4" />
    <path
       d="m 210.01,569.91 c 2.44,1.48 7.48,3.13 11.4,3.13 3.92,0 5.65,-1.3 5.65,-3.48 0,-2.18 -1.3,-3.31 -6.18,-4.96 -8.87,-2.96 -12.27,-7.74 -12.18,-12.79 0,-8 6.79,-14.01 17.31,-14.01 4.96,0 9.31,1.22 11.92,2.52 l -2.26,9.14 c -1.91,-1.04 -5.65,-2.44 -9.22,-2.44 -3.22,0 -5.05,1.3 -5.05,3.39 0,2.09 1.65,3.13 6.87,4.96 8.09,2.78 11.4,6.96 11.48,13.14 0,8 -6.18,13.83 -18.36,13.83 -5.57,0 -10.53,-1.3 -13.75,-3.05 l 2.35,-9.4 z"
       fill="#ffffff"
       id="path5" />
    <path
       d="m 262.65,527.37 v 11.48 h 9.48 v 9.74 h -9.48 v 15.4 c 0,5.13 1.3,7.48 5.22,7.48 1.83,0 2.7,-0.09 3.92,-0.35 l 0.09,10 c -1.65,0.61 -4.87,1.13 -8.53,1.13 -4.26,0 -7.83,-1.48 -10,-3.65 -2.44,-2.52 -3.65,-6.61 -3.65,-12.62 v -17.4 h -5.65 v -9.74 h 5.65 v -7.92 l 12.96,-3.57 z"
       fill="#ffffff"
       id="path6" />
    <path
       d="m 293.44,527.02 c 0,3.65 -2.7,6.61 -7.13,6.61 -4.18,0 -6.87,-2.96 -6.87,-6.61 0,-3.65 2.78,-6.61 7.05,-6.61 4.27,0 6.87,2.87 6.96,6.61 z M 279.78,581.4 V 538.86 H 293 v 42.54 z"
       fill="#ffffff"
       id="path7" />
    <path
       d="m 335.55,580.26 c -2.35,1.13 -6.79,2 -11.83,2 -13.75,0 -22.53,-8.44 -22.53,-21.75 0,-12.44 8.53,-22.62 24.36,-22.62 3.48,0 7.31,0.61 10.09,1.65 l -2.09,9.83 c -1.57,-0.7 -3.92,-1.31 -7.4,-1.31 -6.96,0 -11.48,4.96 -11.4,11.92 0,7.74 5.22,11.92 11.66,11.92 3.13,0 5.57,-0.52 7.57,-1.39 l 1.57,9.74 z"
       fill="#ffffff"
       id="path8" />
    <path
       d="m 360.86,523.54 c 3.48,-0.61 10.44,-1.22 17.14,-1.22 8.09,0 13.05,0.78 17.4,3.31 4.09,2.17 6.96,6.18 6.96,11.57 0,5.39 -3.05,9.92 -9.66,12.44 v 0.17 c 6.7,1.74 11.66,6.87 11.66,14.35 0,5.39 -2.44,9.57 -6.09,12.53 -4.26,3.39 -11.4,5.31 -23.05,5.31 -6.52,0 -11.4,-0.43 -14.35,-0.87 V 523.54 Z M 374,545.99 h 4.35 c 7.05,0 10.7,-2.87 10.7,-7.22 0,-4.35 -3.39,-6.79 -9.4,-6.79 -2.96,0 -4.61,0.17 -5.65,0.35 z m 0,26.01 c 1.3,0.17 2.87,0.17 5.13,0.17 6,0 11.31,-2.35 11.31,-8.53 0,-5.83 -5.31,-8.18 -11.92,-8.18 H 374 v 16.53 z"
       fill="#ffffff"
       id="path9" />
    <path
       d="m 448.64,571.13 c 0,4 0.17,7.92 0.7,10.27 h -11.92 l -0.78,-4.26 h -0.26 c -2.78,3.39 -7.13,5.22 -12.18,5.22 -8.61,0 -13.75,-6.26 -13.75,-13.05 0,-11.05 9.92,-16.27 24.97,-16.27 v -0.52 c 0,-2.35 -1.22,-5.57 -7.74,-5.57 -4.35,0 -8.96,1.48 -11.75,3.22 l -2.44,-8.53 c 2.96,-1.65 8.79,-3.83 16.53,-3.83 14.18,0 18.62,8.35 18.62,18.44 z m -12.79,-9.83 c -6.96,0 -12.35,1.65 -12.35,6.7 0,3.39 2.26,5.05 5.22,5.05 3.22,0 6,-2.17 6.87,-4.87 0.17,-0.7 0.26,-1.48 0.26,-2.26 v -4.61 z"
       fill="#ffffff"
       id="path10" />
    <path
       d="m 459.16,552.42 c 0,-5.31 -0.17,-9.74 -0.35,-13.57 h 11.48 l 0.61,5.92 h 0.26 c 1.74,-2.78 6,-6.87 13.14,-6.87 8.7,0 15.23,5.83 15.23,18.36 v 25.14 h -13.22 v -23.58 c 0,-5.48 -1.91,-9.22 -6.7,-9.22 -3.65,0 -5.83,2.52 -6.79,4.96 -0.35,0.87 -0.43,2.09 -0.43,3.31 v 24.53 h -13.22 v -28.97 z"
       fill="#ffffff"
       id="path11" />
    <path
       d="m 523.36,556.77 h 0.17 c 0.96,-1.83 2,-3.57 3.05,-5.13 l 8.61,-12.79 h 15.92 l -15.23,17.23 17.4,25.32 h -16.27 l -10.35,-17.49 -3.31,4.18 v 13.31 h -13.22 v -61.77 h 13.22 v 37.15 z"
       fill="#ffffff"
       id="path12" />
  </g>
  <g
     id="g36"
     transform="translate(-18.21,-18.04)">
    <path
       d="m 489.26,171.18 c -4.79,0 -9.4,-2.67 -11.64,-7.27 C 441.55,89.9 368.03,43.92 285.74,43.92 c -43.63,0 -85.57,13.08 -121.3,37.82 -5.88,4.07 -13.94,2.6 -18.01,-3.27 -4.07,-5.87 -2.6,-13.94 3.27,-18.01 40.08,-27.75 87.12,-42.42 136.03,-42.42 45.7,0 90.13,12.94 128.49,37.41 37.33,23.82 67.29,57.4 86.65,97.12 3.13,6.43 0.46,14.17 -5.96,17.3 -1.83,0.89 -3.76,1.31 -5.66,1.31 z"
       fill="#f27442"
       id="path13" />
    <path
       d="m 285.74,496.44 c -5.08,0 -10.21,-0.16 -15.27,-0.48 -7.13,-0.45 -12.55,-6.6 -12.1,-13.73 0.45,-7.13 6.6,-12.54 13.73,-12.1 4.51,0.28 9.1,0.43 13.64,0.43 117.62,0 213.32,-95.69 213.32,-213.32 0,-4.3 -0.13,-8.64 -0.38,-12.92 -0.42,-7.14 5.01,-13.26 12.15,-13.69 7.14,-0.43 13.26,5.02 13.69,12.15 0.29,4.79 0.43,9.66 0.43,14.46 0,131.9 -107.31,239.2 -239.2,239.2 z"
       fill="#f27442"
       id="path14" />
    <path
       d="m 191.31,475.86 c -1.81,0 -3.65,-0.38 -5.4,-1.19 C 144.9,455.81 110.14,425.83 85.38,387.96 59.97,349.08 46.53,303.88 46.53,257.24 c 0,-46.64 14.18,-94.35 41.01,-133.97 4.01,-5.92 12.05,-7.47 17.97,-3.46 5.92,4.01 7.47,12.05 3.46,17.97 -23.92,35.32 -36.56,76.62 -36.56,119.45 0,83.08 48.79,159.2 124.3,193.92 6.49,2.99 9.34,10.67 6.35,17.17 -2.18,4.74 -6.87,7.54 -11.77,7.54 z"
       fill="#f27442"
       id="path15" />
    <path
       d="m 456.49,418.63 h -31.06 c -7.15,0 -12.94,-5.79 -12.94,-12.94 V 247.78 L 295.03,369.07 c -2.44,2.52 -5.79,3.94 -9.3,3.94 v 0 c -3.5,0 -6.86,-1.42 -9.3,-3.94 L 158.97,247.78 v 157.91 c 0,7.15 -5.79,12.94 -12.94,12.94 h -31.06 c -7.15,0 -12.94,-5.79 -12.94,-12.94 0,-7.15 5.79,-12.94 12.94,-12.94 h 18.11 V 215.81 c 0,-5.27 3.2,-10.02 8.08,-12 4.88,-1.98 10.48,-0.8 14.15,2.99 l 130.4,134.65 130.4,-134.65 c 3.67,-3.79 9.27,-4.97 14.15,-2.99 4.89,1.98 8.08,6.72 8.08,12 v 176.94 h 18.11 c 7.15,0 12.94,5.79 12.94,12.94 0,7.15 -5.79,12.94 -12.94,12.94 z"
       fill="#f27442"
       id="path16" />
    <g
       id="g31">
      <path
         d="m 210.56,148.26 h 7.04 v 44.89 h -7.04 z"
         fill="#3689c9"
         fill-rule="evenodd"
         id="path17" />
      <g
         id="Rectangle_2_copy"
         data-name="Rectangle 2 copy">
        <path
           d="m 207.92,194.92 h 11.88 v 4.4 h -11.88 z"
           fill="#3689c9"
           fill-rule="evenodd"
           id="path18" />
      </g>
      <path
         d="m 286.87,69.42 -55.19,30.29 -3.6,-3.3 -5.7,3.3 0.3,5.1 -17.7,11.4 v 7.2 l 81.89,-45.59 80.09,45.59 v -9 z"
         fill="#3689c9"
         fill-rule="evenodd"
         id="path19" />
      <path
         d="M 286.87,80.51 211.58,121.9 H 360.35 L 286.86,80.51 Z"
         fill="#3689c9"
         fill-rule="evenodd"
         id="path20" />
      <path
         d="m 204.99,134.64 h 161.97 v 8.4 H 204.99 Z"
         fill="#3689c9"
         fill-rule="evenodd"
         id="path21" />
      <g
         id="Rectangle_1_copy_2"
         data-name="Rectangle 1 copy 2">
        <path
           d="m 206.08,201.08 h 161.97 v 5.72 H 206.08 Z"
           fill="#3689c9"
           fill-rule="evenodd"
           id="path22" />
      </g>
      <g
         id="Rectangle_1_copy_3"
         data-name="Rectangle 1 copy 3">
        <path
           d="m 198.6,209 h 173.85 v 5.72 H 198.6 Z"
           fill="#3689c9"
           fill-rule="evenodd"
           id="path23" />
      </g>
      <g
         id="Rectangle_1_copy_4"
         data-name="Rectangle 1 copy 4">
        <path
           d="m 194.2,216.48 h 183.1 v 5.72 H 194.2 Z"
           fill="#3689c9"
           fill-rule="evenodd"
           id="path24" />
      </g>
      <g
         id="Rectangle_1_copy"
         data-name="Rectangle 1 copy">
        <path
           d="m 198.39,124.29 h 174.27 v 8.4 H 198.39 Z"
           fill="#3689c9"
           fill-rule="evenodd"
           id="path25" />
      </g>
      <g
         id="Rectangle_2_copy_2"
         data-name="Rectangle 2 copy 2">
        <path
           d="m 250.89,148.26 h 7.04 v 44.89 h -7.04 z"
           fill="#3689c9"
           fill-rule="evenodd"
           id="path26" />
      </g>
      <g
         id="Rectangle_2_copy_3"
         data-name="Rectangle 2 copy 3">
        <path
           d="m 248.69,194.92 h 11.88 v 4.4 h -11.88 z"
           fill="#3689c9"
           fill-rule="evenodd"
           id="path27" />
      </g>
      <g
         id="Rectangle_2_copy_4"
         data-name="Rectangle 2 copy 4">
        <path
           d="m 315.23,148.26 h 7.04 v 44.89 h -7.04 z"
           fill="#3689c9"
           fill-rule="evenodd"
           id="path28" />
      </g>
      <g
         id="Rectangle_2_copy_5"
         data-name="Rectangle 2 copy 5">
        <path
           d="m 312.59,194.92 h 11.88 v 4.4 h -11.88 z"
           fill="#3689c9"
           fill-rule="evenodd"
           id="path29" />
      </g>
      <g
         id="Rectangle_2_copy_6"
         data-name="Rectangle 2 copy 6">
        <path
           d="m 356.24,148.26 h 7.04 v 44.89 h -7.04 z"
           fill="#3689c9"
           fill-rule="evenodd"
           id="path30" />
      </g>
      <g
         id="Rectangle_2_copy_7"
         data-name="Rectangle 2 copy 7">
        <path
           d="m 354.04,194.92 h 11.88 v 4.4 h -11.88 z"
           fill="#3689c9"
           fill-rule="evenodd"
           id="path31" />
      </g>
    </g>
    <circle
       cx="285.73999"
       cy="129.03"
       r="29.719999"
       fill="#f7c52d"
       id="circle31" />
    <path
       d="m 285.74,154.17 c -13.86,0 -25.14,-11.28 -25.14,-25.14 0,-13.86 11.28,-25.14 25.14,-25.14 13.86,0 25.14,11.28 25.14,25.14 0,13.86 -11.28,25.14 -25.14,25.14 z m 0,-47.82 c -12.5,0 -22.68,10.17 -22.68,22.68 0,12.51 10.17,22.68 22.68,22.68 12.51,0 22.68,-10.17 22.68,-22.68 0,-12.51 -10.17,-22.68 -22.68,-22.68 z"
       fill="#58595b"
       id="path32" />
    <path
       d="m 504.64,212.74 c -0.84,0 -1.69,-0.09 -2.53,-0.26 -0.83,-0.16 -1.64,-0.42 -2.42,-0.74 -0.79,-0.32 -1.54,-0.73 -2.24,-1.18 -0.7,-0.48 -1.37,-1.02 -1.96,-1.62 -0.6,-0.59 -1.13,-1.26 -1.61,-1.97 -0.47,-0.7 -0.86,-1.46 -1.18,-2.23 -0.32,-0.77 -0.58,-1.59 -0.74,-2.42 -0.17,-0.84 -0.26,-1.69 -0.26,-2.54 0,-0.85 0.09,-1.69 0.26,-2.53 0.16,-0.83 0.42,-1.64 0.74,-2.42 0.32,-0.78 0.71,-1.53 1.18,-2.23 0.48,-0.71 1.01,-1.37 1.61,-1.97 0.6,-0.6 1.26,-1.13 1.96,-1.62 0.7,-0.46 1.46,-0.86 2.24,-1.18 0.78,-0.32 1.59,-0.57 2.42,-0.74 1.66,-0.33 3.39,-0.33 5.05,0 0.83,0.17 1.65,0.42 2.43,0.74 0.78,0.32 1.53,0.73 2.23,1.18 0.71,0.48 1.37,1.02 1.97,1.62 0.59,0.6 1.13,1.26 1.6,1.97 0.47,0.7 0.88,1.45 1.2,2.23 0.32,0.78 0.57,1.59 0.74,2.42 0.17,0.84 0.26,1.69 0.26,2.53 0,0.84 -0.09,1.7 -0.26,2.54 -0.17,0.83 -0.42,1.64 -0.74,2.42 -0.32,0.78 -0.73,1.53 -1.2,2.23 -0.47,0.71 -1.01,1.38 -1.6,1.97 -0.6,0.59 -1.26,1.13 -1.97,1.62 -0.7,0.45 -1.45,0.86 -2.23,1.18 -0.78,0.32 -1.6,0.58 -2.43,0.74 -0.83,0.17 -1.68,0.26 -2.53,0.26 z"
       fill="#f27442"
       id="path33" />
    <path
       d="m 229.68,489.44 c -0.84,0 -1.69,-0.09 -2.53,-0.25 -0.83,-0.17 -1.64,-0.42 -2.43,-0.74 -0.78,-0.33 -1.53,-0.73 -2.23,-1.2 -0.7,-0.47 -1.37,-1.01 -1.96,-1.6 -2.42,-2.42 -3.8,-5.74 -3.8,-9.16 0,-0.84 0.09,-1.69 0.26,-2.53 0.16,-0.83 0.41,-1.64 0.74,-2.42 0.32,-0.79 0.71,-1.54 1.18,-2.24 0.47,-0.7 1.01,-1.37 1.61,-1.96 0.59,-0.6 1.26,-1.15 1.96,-1.62 0.7,-0.47 1.46,-0.86 2.23,-1.18 0.79,-0.33 1.6,-0.58 2.43,-0.74 1.66,-0.35 3.39,-0.35 5.05,0 0.83,0.16 1.64,0.41 2.43,0.74 0.78,0.32 1.53,0.71 2.23,1.18 0.7,0.47 1.37,1.01 1.96,1.62 0.6,0.59 1.15,1.26 1.62,1.96 0.47,0.7 0.86,1.45 1.2,2.24 0.32,0.78 0.57,1.59 0.74,2.42 0.16,0.84 0.25,1.69 0.25,2.53 0,3.4 -1.38,6.74 -3.8,9.16 -0.59,0.59 -1.26,1.13 -1.96,1.6 -0.7,0.47 -1.45,0.86 -2.23,1.2 -0.79,0.32 -1.6,0.57 -2.43,0.74 -0.83,0.16 -1.68,0.25 -2.53,0.25 z"
       fill="#f27442"
       id="path34" />
    <path
       d="m 124.13,112.26 c -0.84,0 -1.69,-0.09 -2.53,-0.26 -0.83,-0.16 -1.64,-0.42 -2.43,-0.74 -0.78,-0.32 -1.53,-0.71 -2.23,-1.18 -0.7,-0.48 -1.37,-1.01 -1.96,-1.61 -0.6,-0.59 -1.15,-1.26 -1.61,-1.96 -0.47,-0.7 -0.86,-1.45 -1.18,-2.24 -0.33,-0.78 -0.58,-1.59 -0.74,-2.42 -0.17,-0.84 -0.26,-1.69 -0.26,-2.53 0,-0.84 0.09,-1.7 0.26,-2.53 0.16,-0.83 0.41,-1.64 0.74,-2.43 0.32,-0.78 0.71,-1.53 1.18,-2.23 0.47,-0.71 1.01,-1.37 1.61,-1.97 0.59,-0.59 1.26,-1.13 1.96,-1.6 0.7,-0.47 1.46,-0.88 2.23,-1.2 0.79,-0.32 1.6,-0.57 2.43,-0.74 1.66,-0.33 3.39,-0.33 5.05,0 0.83,0.17 1.64,0.42 2.43,0.74 0.78,0.32 1.53,0.73 2.23,1.2 0.7,0.47 1.37,1.01 1.96,1.6 0.59,0.59 1.15,1.26 1.62,1.97 0.47,0.7 0.86,1.45 1.2,2.23 0.32,0.79 0.57,1.6 0.74,2.43 0.16,0.83 0.25,1.68 0.25,2.53 0,0.85 -0.09,1.69 -0.25,2.53 -0.17,0.83 -0.42,1.64 -0.74,2.42 -0.33,0.79 -0.73,1.54 -1.2,2.24 -0.47,0.7 -1.01,1.37 -1.62,1.96 -0.59,0.6 -1.26,1.13 -1.96,1.61 -0.7,0.47 -1.45,0.86 -2.23,1.18 -0.79,0.32 -1.6,0.58 -2.43,0.74 -0.83,0.17 -1.68,0.26 -2.53,0.26 z"
       fill="#f27442"
       id="path35" />
    <path
       d="m 287.08,126.77 c -2.17,-0.86 -3.5,-1.46 -3.5,-2.8 0,-1.1 0.35,-1.69 2.21,-1.69 1.65,0 2.21,0.5 2.21,1.96 v 0.55 c 0,1.22 0.88,1.35 1.26,1.35 h 2.37 c 0.59,0 1.23,-0.35 1.23,-1.35 v -0.73 c 0,-2.99 -1.59,-4.68 -4.86,-5.17 v -1.15 c 0,-0.76 -0.52,-1.26 -1.32,-1.26 h -1.85 c -0.79,0 -1.29,0.48 -1.29,1.26 v 1.15 c -3.33,0.47 -4.89,2.15 -4.89,5.26 0,4.1 3.15,5.28 5.68,6.23 2.36,0.88 3.8,1.51 3.8,3.31 v 0.42 c 0,1.04 -0.4,1.69 -2.39,1.69 -1.78,0 -2.36,-0.49 -2.36,-2.02 v -0.61 c 0,-0.81 -0.48,-1.32 -1.25,-1.32 h -2.55 c -0.79,0 -1.25,0.5 -1.25,1.35 v 0.58 c 0.03,3.41 1.6,5.07 5.22,5.48 v 1.07 c 0,0.77 0.49,1.26 1.29,1.26 h 1.85 c 0.8,0 1.32,-0.49 1.32,-1.26 v -1.08 c 3.59,-0.49 5.19,-2.26 5.19,-5.69 0,-4.37 -3.38,-5.71 -6.1,-6.79 z"
       fill="#231f20"
       id="path36" />
  </g>
</svg>
