<?xml version="1.0" encoding="UTF-8"?>
<svg version="1.1" xmlns="http://www.w3.org/2000/svg" width="750" height="440">
<path d="M0 0 C247.5 0 495 0 750 0 C750 111.54 750 223.08 750 338 C502.5 338 255 338 0 338 C0 226.46 0 114.92 0 0 Z " fill="#FEFEFE" transform="translate(0,0)"/>
<path d="M0 0 C247.5 0 495 0 750 0 C750 8.58 750 17.16 750 26 C502.5 26 255 26 0 26 C0 17.42 0 8.84 0 0 Z " fill="#000000" transform="translate(0,312)"/>
<path d="M0 0 C247.5 0 495 0 750 0 C750 8.58 750 17.16 750 26 C502.5 26 255 26 0 26 C0 17.42 0 8.84 0 0 Z " fill="#FFFFFF" transform="translate(0,286)"/>
<path d="M0 0 C247.5 0 495 0 750 0 C750 8.58 750 17.16 750 26 C502.5 26 255 26 0 26 C0 17.42 0 8.84 0 0 Z " fill="#000000" transform="translate(0,260)"/>
<path d="M0 0 C247.5 0 495 0 750 0 C750 8.58 750 17.16 750 26 C502.5 26 255 26 0 26 C0 17.42 0 8.84 0 0 Z " fill="#FFFFFF" transform="translate(0,234)"/>
<path d="M0 0 C247.5 0 495 0 750 0 C750 8.58 750 17.16 750 26 C502.5 26 255 26 0 26 C0 17.42 0 8.84 0 0 Z " fill="#000000" transform="translate(0,208)"/>
<path d="M0 0 C141.9 0 283.8 0 430 0 C430 8.58 430 17.16 430 26 C288.1 26 146.2 26 0 26 C0 17.42 0 8.84 0 0 Z " fill="#000000" transform="translate(320,156)"/>
<path d="M0 0 C141.9 0 283.8 0 430 0 C430 8.58 430 17.16 430 26 C288.1 26 146.2 26 0 26 C0 17.42 0 8.84 0 0 Z " fill="#000000" transform="translate(320,104)"/>
<path d="M0 0 C141.9 0 283.8 0 430 0 C430 8.58 430 17.16 430 26 C288.1 26 146.2 26 0 26 C0 17.42 0 8.84 0 0 Z " fill="#000000" transform="translate(320,52)"/>
<path d="M0 0 C141.9 0 283.8 0 430 0 C430 8.58 430 17.16 430 26 C288.1 26 146.2 26 0 26 C0 17.42 0 8.84 0 0 Z " fill="#000000" transform="translate(320,0)"/>
<path d="M0 0 C1.134375 0.3403125 2.26875 0.680625 3.4375 1.03125 C16.65266403 5.32038218 27.09400613 12.37452985 37 22 C37.63550781 22.57363281 38.27101562 23.14726563 38.92578125 23.73828125 C52.46676178 36.31848267 61.48873769 57.19520741 62.23828125 75.546875 C62.49141265 87.72179202 61.06872303 98.20459583 58 110 C49.42 110 40.84 110 32 110 C31.67 86.57 31.34 63.14 31 39 C13.18 56.82 -4.64 74.64 -23 93 C-27.26728452 89.34232756 -31.26526886 85.85869594 -35.20092773 81.91259766 C-35.67755639 81.43608953 -36.15418505 80.95958141 -36.645257 80.46863365 C-38.16038638 78.95276848 -39.67206834 77.43352038 -41.18359375 75.9140625 C-42.12936967 74.96681301 -43.07537351 74.01979102 -44.02160645 73.07299805 C-47.49632244 69.59307722 -50.96665589 66.10878263 -54.4375 62.625 C-62.213125 54.82875 -69.98875 47.0325 -78 39 C-78.33 62.43 -78.66 85.86 -79 110 C-87.58 110 -96.16 110 -105 110 C-111.9449142 87.21200028 -110.75770055 64.48543535 -100 43 C-95.63782592 35.07374385 -90.22999596 28.52185163 -84 22 C-83.45988281 21.38511719 -82.91976562 20.77023438 -82.36328125 20.13671875 C-62.65894056 -1.45367974 -27.26377848 -8.80392847 0 0 Z " fill="#FF6702" transform="translate(184,9)"/>
<path d="M0 0 C0.66 0 1.32 0 2 0 C3.24536133 1.25561523 3.24536133 1.25561523 4.76953125 3.12109375 C9.84690547 9.08480576 15.33578495 14.63139691 20.84399414 20.1940918 C22.08371465 21.45055863 23.31801961 22.71238965 24.54711914 23.97924805 C26.33594645 25.82250455 28.14037274 27.64906734 29.94921875 29.47265625 C30.77120003 30.32864159 30.77120003 30.32864159 31.60978699 31.20191956 C33.31518045 32.95607445 33.31518045 32.95607445 36 35 C39.36816216 34.70623178 41.04375689 33.32796305 43.37573242 30.98071289 C44.01286667 30.34657974 44.65000092 29.71244659 45.30644226 29.05909729 C45.982621 28.37057175 46.65879974 27.6820462 47.35546875 26.97265625 C48.40883171 25.91648354 48.40883171 25.91648354 49.48347473 24.838974 C50.96540256 23.35032714 52.44372978 21.85808851 53.91870117 20.36254883 C56.18220696 18.06786594 58.45623015 15.78404618 60.73242188 13.50195312 C62.16989674 12.05530917 63.60676665 10.60806379 65.04296875 9.16015625 C65.72522018 8.47365494 66.40747162 7.78715363 67.11039734 7.07984924 C68.05191399 6.12392128 68.05191399 6.12392128 69.01245117 5.14868164 C69.5666423 4.58766251 70.12083344 4.02664337 70.69181824 3.44862366 C72.10428957 2.01438034 72.10428957 2.01438034 73 0 C73.66 0 74.32 0 75 0 C75 14.85 75 29.7 75 45 C86.55 45 98.1 45 110 45 C108.1539737 49.61506575 106.25046515 52.3172992 102.9375 55.8125 C102.44507813 56.33803467 101.95265625 56.86356934 101.4453125 57.4050293 C85.0041457 74.75162857 65.423201 85.23163253 41.30859375 86.23828125 C17.6254332 86.77105593 -3.20070459 79.57144896 -20.71484375 63.1953125 C-21.46894531 62.47085938 -22.22304687 61.74640625 -23 61 C-23.66128906 60.37867188 -24.32257813 59.75734375 -25.00390625 59.1171875 C-28.88322588 55.38030509 -32.07067596 51.52713716 -35 47 C-35 46.34 -35 45.68 -35 45 C-23.45 45 -11.9 45 0 45 C0 30.15 0 15.3 0 0 Z " fill="#020202" transform="translate(123,91)"/>
<path d="M0 0 C6.27 0 12.54 0 19 0 C22.12887243 7.62228583 24.89956067 15.31965728 27.546875 23.12109375 C27.96294006 24.34280777 28.37900513 25.56452179 28.80767822 26.82325745 C29.68013157 29.38666817 30.55047314 31.95078411 31.41943359 34.51538086 C32.53304917 37.80106462 33.65336151 41.08442247 34.77537155 44.36724758 C35.84919526 47.51295472 36.91640491 50.6608945 37.984375 53.80859375 C38.38742859 54.98667099 38.79048218 56.16474823 39.20574951 57.37852478 C39.75697479 59.01151268 39.75697479 59.01151268 40.31933594 60.67749023 C40.80753815 62.11450539 40.80753815 62.11450539 41.30560303 63.58055115 C42 66 42 66 42 69 C42.66 69 43.32 69 44 69 C44.10038574 68.20158691 44.20077148 67.40317383 44.30419922 66.58056641 C45.17189518 62.11543343 46.61187202 57.9903033 48.1328125 53.7109375 C48.44773651 52.81243073 48.76266052 51.91392395 49.08712769 50.9881897 C50.09516879 48.11549139 51.10993316 45.24522232 52.125 42.375 C52.78430616 40.50015889 53.44316422 38.62516013 54.1015625 36.75 C55.40932777 33.02745016 56.71968511 29.30582933 58.03222656 25.58496094 C61.03740566 17.0622235 64.01786857 8.53082284 67 0 C72.61 0 78.22 0 84 0 C84 29.04 84 58.08 84 88 C79.71 88 75.42 88 71 88 C70.67 67.87 70.34 47.74 70 27 C68.205625 32.424375 66.41125 37.84875 64.5625 43.4375 C59.60072128 58.37857883 54.43777966 73.22461891 49 88 C44.71 88 40.42 88 36 88 C34.45237145 83.65347715 32.90849654 79.30564145 31.36743164 74.95678711 C30.84784145 73.49194307 30.32739561 72.02740212 29.8059082 70.56323242 C24.65864847 56.10763397 19.8543882 41.56316459 15 27 C14.67 47.13 14.34 67.26 14 88 C9.38 88 4.76 88 0 88 C0 58.96 0 29.92 0 0 Z " fill="#000000" transform="translate(6,344)"/>
<path d="M0 0 C2.89069337 1.71119269 5.24110619 3.68754056 7.4375 6.25 C8.118125 5.486875 8.79875 4.72375 9.5 3.9375 C15.75916757 -1.78897245 21.13053905 -2.25329049 29.41015625 -2.03515625 C35.77230526 -1.43588286 39.32019945 1.56085215 43.4375 6.25 C47.51372831 12.36434247 46.57255492 20.96700553 46.53515625 27.99609375 C46.5337413 29.00720718 46.53232635 30.01832062 46.53086853 31.06007385 C46.52529961 34.26924681 46.51275287 37.47834836 46.5 40.6875 C46.49498098 42.87174378 46.49041878 45.05598866 46.48632812 47.24023438 C46.47534036 52.57685016 46.45809724 57.913413 46.4375 63.25 C42.1475 63.25 37.8575 63.25 33.4375 63.25 C33.42291748 61.85241455 33.40833496 60.4548291 33.39331055 59.01489258 C33.33529169 53.82436678 33.25805837 48.63427315 33.17504883 43.4440918 C33.14181649 41.1987205 33.11377931 38.953266 33.09106445 36.70776367 C33.05748798 33.47799257 33.00516927 30.24898273 32.94921875 27.01953125 C32.94282883 26.01727005 32.9364389 25.01500885 32.92985535 23.9823761 C32.79454198 17.1286368 32.79454198 17.1286368 29.4375 11.25 C26.67703545 9.00073259 25.14022732 9.25943723 21.5 9.375 C17.54178312 10.00890438 15.23438371 11.28859372 12.4375 14.25 C9.79917304 19.03727744 10.08907465 24.04103531 10.0234375 29.36328125 C10.00407135 30.33283249 9.9847052 31.30238373 9.9647522 32.30131531 C9.90512564 35.38828828 9.8586386 38.47529888 9.8125 41.5625 C9.77430466 43.65952118 9.73525202 45.75652694 9.6953125 47.85351562 C9.59943791 52.98555131 9.51534423 58.11766043 9.4375 63.25 C5.1475 63.25 0.8575 63.25 -3.5625 63.25 C-3.592229 61.26021118 -3.592229 61.26021118 -3.62255859 59.23022461 C-3.6988656 54.28944528 -3.78754403 49.34895083 -3.87988281 44.40844727 C-3.91806906 42.27373903 -3.95293968 40.13896871 -3.984375 38.00415039 C-4.03025077 34.92832314 -4.08820794 31.8529194 -4.1484375 28.77734375 C-4.15998871 27.82915268 -4.17153992 26.88096161 -4.18344116 25.90403748 C-4.29884582 20.67441654 -4.70326062 16.16370408 -6.5625 11.25 C-9.59613132 9.16979567 -11.38988076 9.24075254 -15.0625 9.4375 C-18.61036191 10.2611108 -20.7353981 10.97261236 -23.5625 13.25 C-27.64781087 19.81567818 -27.72232642 26.65100474 -27.87890625 34.1484375 C-27.89968735 34.98339752 -27.92046844 35.81835754 -27.94187927 36.67861938 C-28.00689469 39.3273349 -28.06603491 41.97614359 -28.125 44.625 C-28.16823096 46.42839478 -28.21184666 48.23178038 -28.25585938 50.03515625 C-28.36252639 54.44001039 -28.46392695 58.8449576 -28.5625 63.25 C-32.5225 63.25 -36.4825 63.25 -40.5625 63.25 C-40.5625 42.13 -40.5625 21.01 -40.5625 -0.75 C-36.9325 -0.75 -33.3025 -0.75 -29.5625 -0.75 C-29.2325 0.9 -28.9025 2.55 -28.5625 4.25 C-28.01980469 3.90066406 -27.47710938 3.55132812 -26.91796875 3.19140625 C-25.84482422 2.50884766 -25.84482422 2.50884766 -24.75 1.8125 C-24.04230469 1.36003906 -23.33460938 0.90757812 -22.60546875 0.44140625 C-16.20110396 -3.29345276 -6.62356785 -3.18681094 0 0 Z " fill="#000000" transform="translate(699.5625,368.75)"/>
<path d="M0 0 C8.57520304 5.68317378 12.50128455 11.35670068 14.9921875 21.3203125 C14.9921875 25.6103125 14.9921875 29.9003125 14.9921875 34.3203125 C-0.1878125 34.3203125 -15.3678125 34.3203125 -31.0078125 34.3203125 C-28.66092488 43.97359082 -28.66092488 43.97359082 -22.24609375 50.421875 C-17.71194754 52.24186388 -12.79486172 51.82657339 -8.0078125 51.3203125 C-3.7719275 49.4624682 -1.96534567 47.69560406 -0.1328125 43.5703125 C0.2384375 42.4978125 0.6096875 41.4253125 0.9921875 40.3203125 C2.57513532 40.26593643 4.15863006 40.22734979 5.7421875 40.1953125 C7.06476563 40.16050781 7.06476563 40.16050781 8.4140625 40.125 C11.1057733 40.32891748 12.69123724 40.95479529 14.9921875 42.3203125 C13.2644567 50.0165679 10.17040069 55.02216796 3.6796875 59.6328125 C-4.90275387 64.95250756 -13.77325974 65.4572512 -23.5078125 63.2578125 C-31.75863101 60.7848781 -37.62563622 55.84120782 -42.03515625 48.5078125 C-46.30366809 38.90794652 -47.06038882 25.67168192 -43.4453125 15.6953125 C-39.60835221 7.83157762 -33.47090734 1.48050473 -25.28125 -1.7578125 C-17.18783034 -4.03710491 -7.51426849 -4.05486941 0 0 Z M-26.0078125 11.3203125 C-28.07879559 14.49855388 -29.80265735 17.71740075 -31.0078125 21.3203125 C-30.6778125 21.9803125 -30.3478125 22.6403125 -30.0078125 23.3203125 C-19.7778125 23.3203125 -9.5478125 23.3203125 0.9921875 23.3203125 C0.35755915 15.49075133 0.35755915 15.49075133 -4.0078125 10.3203125 C-10.74461303 5.77688889 -19.90506958 5.33841597 -26.0078125 11.3203125 Z " fill="#000000" transform="translate(280.0078125,369.6796875)"/>
<path d="M0 0 C4.58355363 3.48748645 6.50728852 7.54180911 8 13 C8.40284656 16.19701477 8.44096227 19.35458059 8.44140625 22.57421875 C8.45461411 23.46107864 8.46782196 24.34793854 8.48143005 25.26167297 C8.52202072 28.0703149 8.54391741 30.87863276 8.5625 33.6875 C8.58634695 36.50698065 8.61451797 39.326159 8.65428162 42.14546204 C8.67849698 43.89274037 8.6934705 45.64017849 8.69789124 47.38761902 C8.75397241 51.76247754 9.13041002 54.96993289 11 59 C11 59.99 11 60.98 11 62 C8.89758397 62.13496251 6.7927039 62.23197307 4.6875 62.3125 C3.51574219 62.37050781 2.34398437 62.42851562 1.13671875 62.48828125 C-2 62 -2 62 -3.91796875 59.48046875 C-4.27503906 58.66191406 -4.63210938 57.84335937 -5 57 C-5.47308594 57.33773437 -5.94617188 57.67546875 -6.43359375 58.0234375 C-14.68338206 63.58762221 -23.49577627 65.2759707 -33.3203125 63.60546875 C-39.68037132 61.93460584 -43.35017972 58.38782994 -47 53 C-48.74998045 47.75005866 -49.13716424 41.84998837 -47.05859375 36.640625 C-42.61353446 29.22754807 -37.16568676 26.16672351 -29 24 C-24.82919221 23.26957935 -20.64532839 22.77665467 -16.4375 22.3125 C-14.78137695 22.11817383 -14.78137695 22.11817383 -13.09179688 21.91992188 C-10.39539431 21.60475794 -7.69830897 21.29831998 -5 21 C-5.25662245 19.55989519 -5.53090821 18.1229313 -5.8125 16.6875 C-5.96332031 15.88699219 -6.11414063 15.08648437 -6.26953125 14.26171875 C-7.08576128 11.73446106 -7.95486225 10.65736175 -10 9 C-15.48379992 7.00589094 -22.47722172 7.14118186 -27.9375 9 C-30.96970538 11.94032036 -32.2933061 15.144136 -34 19 C-38.29 18.67 -42.58 18.34 -47 18 C-44.08365311 6.64159632 -44.08365311 6.64159632 -39 2 C-28.0983636 -4.06513224 -11.33612921 -6.36054309 0 0 Z M-18.375 33.8125 C-20.11910156 34.20405273 -20.11910156 34.20405273 -21.8984375 34.60351562 C-23.5690625 34.99506836 -23.5690625 34.99506836 -25.2734375 35.39453125 C-26.29872559 35.63018799 -27.32401367 35.86584473 -28.38037109 36.10864258 C-31.10576994 37.03598938 -32.29504872 37.71298016 -34 40 C-35.08916154 43.37350049 -35.08916154 43.37350049 -35 47 C-33.36086052 49.79260801 -32.16959263 51.47569986 -29.1875 52.8125 C-21.26546255 53.49153178 -15.39156932 52.72800141 -9.125 47.6875 C-4.90304459 42.34796816 -4.77468156 37.53423467 -5 31 C-9.36412931 31 -14.14468145 32.82713395 -18.375 33.8125 Z " fill="#000000" transform="translate(477,370)"/>
<path d="M0 0 C6.70215303 3.84239976 11.41765029 9.08953317 13.83203125 16.5078125 C16.3865277 27.6368425 16.25985325 40.23003901 10.859375 50.51171875 C6.56892705 56.78053992 0.36023959 61.48855851 -6.984375 63.56640625 C-16.58981307 65.09107896 -25.9730152 64.20492921 -34.234375 58.62890625 C-41.49977292 52.58684022 -45.0316691 44.44672155 -45.921875 35.19140625 C-46.76243491 24.81431213 -45.54135041 14.08803819 -38.66015625 5.875 C-28.4466017 -4.01722923 -12.78951999 -6.07713947 0 0 Z M-29.921875 15.19140625 C-34.28144514 23.69256803 -33.68001073 33.3363389 -30.921875 42.19140625 C-28.69579021 46.8555839 -25.55665005 49.87401872 -20.921875 52.19140625 C-16.09297757 52.59575837 -11.51497019 52.83542345 -6.984375 51.00390625 C-1.10792947 45.83975714 1.25501132 41.1615847 1.828125 33.44140625 C2.31953359 24.8194192 1.14038178 18.30592929 -3.921875 11.19140625 C-8.11049988 7.49363584 -12.34965957 6.59133597 -17.8515625 6.87109375 C-23.13236223 7.68812314 -26.50911979 11.31746791 -29.921875 15.19140625 Z " fill="#000000" transform="translate(633.921875,369.80859375)"/>
<path d="M0 0 C7.32990086 4.17473677 11.27909132 10.00514297 13.62451172 18.06005859 C16.10071163 29.65208593 15.03686255 43.11014917 8.828125 53.21875 C4.11194504 59.52932034 -3.25584975 62.96990962 -10.921875 64.18359375 C-20.04945872 64.81308228 -28.96223497 62.98387082 -36.13671875 57.046875 C-44.73130703 48.07615594 -46.43292785 37.92222125 -46.23046875 25.94140625 C-45.45774301 16.53175863 -41.83137936 9.5511762 -34.921875 3.18359375 C-25.00148609 -4.50976908 -11.30175384 -5.40762725 0 0 Z M-28.171875 13.55859375 C-31.64787573 18.77259485 -32.28534195 23.90397104 -32.234375 30.05859375 C-32.22873535 30.76604736 -32.2230957 31.47350098 -32.21728516 32.20239258 C-32.07859477 38.15852687 -31.73351563 43.21450124 -27.45703125 47.73046875 C-22.48866553 52.05501202 -19.15208529 52.54082818 -12.75 52.45703125 C-8.36925783 52.03347883 -6.38556161 50.94040554 -2.921875 48.18359375 C0.70768975 42.8957508 1.83474118 38.73210848 2.078125 32.37109375 C2.11301025 31.57936768 2.14789551 30.7876416 2.18383789 29.97192383 C2.34475641 22.93119747 1.42750049 16.91675185 -3.421875 11.51171875 C-7.88012534 7.54387594 -11.90224883 6.82781938 -17.640625 6.90234375 C-22.31714006 7.4789004 -25.05221863 10.26562314 -28.171875 13.55859375 Z " fill="#000000" transform="translate(146.921875,369.81640625)"/>
<path d="M0 0 C5.60355379 4.6497574 6.07446921 9.7926434 6.83047485 16.83712769 C7.45460591 24.8000513 7.19651888 32.83274767 7.125 40.8125 C7.11494637 42.77668813 7.10582475 44.74088125 7.09765625 46.70507812 C7.07584026 51.47017779 7.04144282 56.23503228 7 61 C2.71 61 -1.58 61 -6 61 C-6.01458252 59.70900391 -6.02916504 58.41800781 -6.04418945 57.08789062 C-6.1024131 52.27186176 -6.17964414 47.45628871 -6.26245117 42.640625 C-6.2955876 40.5612735 -6.32365424 38.48183448 -6.34643555 36.40234375 C-6.38018951 33.40326854 -6.4325156 30.40498713 -6.48828125 27.40625 C-6.49467117 26.48509399 -6.5010611 25.56393799 -6.50764465 24.61486816 C-6.63893317 18.77605275 -7.48387648 14.30184512 -10 9 C-14.6395677 6.30257692 -18.95501923 6.9576486 -24 8 C-24.928125 8.165 -25.85625 8.33 -26.8125 8.5 C-30.41814809 10.97244441 -30.99966771 14.87482109 -32 19 C-32.41282437 22.36005012 -32.48693549 25.6834036 -32.51171875 29.06640625 C-32.52966995 29.98590561 -32.54762115 30.90540497 -32.56611633 31.85276794 C-32.61979261 34.75596692 -32.65397681 37.65900561 -32.6875 40.5625 C-32.72071084 42.54494398 -32.75520392 44.52736692 -32.79101562 46.50976562 C-32.875494 51.33972724 -32.94250712 56.16964486 -33 61 C-37.29 61 -41.58 61 -46 61 C-46 39.88 -46 18.76 -46 -3 C-42.04 -3 -38.08 -3 -34 -3 C-33.67 -1.35 -33.34 0.3 -33 2 C-32.54109375 1.65066406 -32.0821875 1.30132812 -31.609375 0.94140625 C-30.99578125 0.48636719 -30.3821875 0.03132813 -29.75 -0.4375 C-29.14671875 -0.88996094 -28.5434375 -1.34242188 -27.921875 -1.80859375 C-19.91587238 -6.77166448 -7.53906215 -4.98931671 0 0 Z " fill="#000000" transform="translate(218,371)"/>
<path d="M0 0 C1.31255587 0.71281124 2.60810148 1.45887996 3.875 2.25 C5.23625 3.054375 5.23625 3.054375 6.625 3.875 C10.49983582 7.96510447 13.875 13.522962 13.875 19.25 C9.585 19.91 5.295 20.57 0.875 21.25 C-0.296875 18.7109375 -1.46875 16.171875 -2.640625 13.6328125 C-4.29425658 10.97829864 -5.1953051 10.23019532 -8.125 9.25 C-12.81183808 8.51714895 -16.26866361 8.80597372 -20.5 11 C-24.97464888 14.83541333 -27.23147863 18.37261497 -28.125 24.25 C-28.75735465 33.32101845 -29.03876246 42.35779692 -23.125 49.75 C-18.46932536 53.24175598 -12.68232869 52.92578389 -7.125 52.25 C-3.55855426 50.7848269 -1.65862536 48.46796933 -0.1015625 44.9140625 C0.6574246 42.70673303 1.31256284 40.51454962 1.875 38.25 C6.69860189 38.05705592 10.37146738 38.49252386 14.875 40.25 C13.66922541 49.23094176 9.98292914 54.97497624 2.9375 60.625 C-4.33672109 65.704532 -12.05848384 66.07438015 -20.5625 64.625 C-27.95088741 62.82264252 -33.77977783 58.41100108 -38.125 52.25 C-43.85555197 39.70999584 -43.90071244 25.83158158 -39.30859375 12.9609375 C-35.98527886 5.34912055 -30.58675153 2.42440616 -23.125 -0.75 C-16.18369045 -3.06376985 -6.74913115 -2.90714264 0 0 Z " fill="#000000" transform="translate(411.125,368.75)"/>
<path d="M0 0 C0.59039063 0.36867188 1.18078125 0.73734375 1.7890625 1.1171875 C3.1503125 1.9215625 3.1503125 1.9215625 4.5390625 2.7421875 C8.41389832 6.83229197 11.7890625 12.3901495 11.7890625 18.1171875 C9.83217213 18.47924214 7.87348582 18.83160171 5.9140625 19.1796875 C4.27824219 19.47552734 4.27824219 19.47552734 2.609375 19.77734375 C-0.2109375 20.1171875 -0.2109375 20.1171875 -2.2109375 19.1171875 C-2.88671875 17.375 -2.88671875 17.375 -3.5234375 15.2421875 C-4.54802741 12.42582706 -5.10672898 11.21526611 -7.3359375 9.1171875 C-11.38858678 7.70757036 -14.96957102 7.43647436 -19.2109375 8.1171875 C-24.50618964 10.86287379 -27.38815509 13.65187638 -29.26953125 19.2890625 C-31.44799972 28.14756498 -31.52593786 37.94950824 -27.2109375 46.1171875 C-24.35944086 49.59244902 -22.24632736 50.89351828 -17.72265625 51.390625 C-11.35672726 51.71139124 -11.35672726 51.71139124 -5.7109375 49.1796875 C-2.61822901 45.3911196 -1.37766001 41.81478078 -0.2109375 37.1171875 C4.61266439 36.92424342 8.28552988 37.35971136 12.7890625 39.1171875 C11.62363204 47.79763508 8.08144557 52.82480443 1.9765625 58.9296875 C-5.83721871 64.29208637 -13.57082935 65.0103219 -22.7109375 63.4921875 C-30.25168372 61.62322458 -35.64244372 56.50450133 -39.95703125 50.21484375 C-45.69433244 40.61692868 -45.44204026 28.79010703 -43.70703125 17.9765625 C-41.51741406 9.81867444 -37.58157313 4.49828861 -30.37109375 0.16015625 C-21.03326735 -4.34834221 -9.26934443 -5.03391364 0 0 Z " fill="#000000" transform="translate(573.2109375,369.8828125)"/>
<path d="M0 0 C1.62745563 0.70556359 3.21251571 1.50761689 4.78515625 2.328125 C3.46515625 5.958125 2.14515625 9.588125 0.78515625 13.328125 C-1.78265625 12.9878125 -1.78265625 12.9878125 -4.40234375 12.640625 C-7.71882749 12.36815394 -9.9875719 12.26657221 -13.21484375 13.140625 C-20.58895252 21.20605646 -18.77479766 35.27513063 -18.90234375 45.453125 C-18.93556848 47.28648199 -18.97006278 49.11981643 -19.00585938 50.953125 C-19.09017214 55.41133292 -19.15725762 59.86949504 -19.21484375 64.328125 C-23.50484375 64.328125 -27.79484375 64.328125 -32.21484375 64.328125 C-32.21484375 43.208125 -32.21484375 22.088125 -32.21484375 0.328125 C-28.25484375 0.328125 -24.29484375 0.328125 -20.21484375 0.328125 C-19.88484375 1.648125 -19.55484375 2.968125 -19.21484375 4.328125 C-18.43109375 3.68875 -17.64734375 3.049375 -16.83984375 2.390625 C-11.85252585 -1.52798192 -6.08408684 -1.84561364 0 0 Z " fill="#000000" transform="translate(337.21484375,367.671875)"/>
<path d="M0 0 C4.29 0 8.58 0 13 0 C13 21.12 13 42.24 13 64 C8.71 64 4.42 64 0 64 C0 42.88 0 21.76 0 0 Z " fill="#000000" transform="translate(346,368)"/>
<path d="M0 0 C4.62 0 9.24 0 14 0 C14 4.62 14 9.24 14 14 C9.38 14 4.76 14 0 14 C0 9.38 0 4.76 0 0 Z " fill="#000000" transform="translate(502,418)"/>
<path d="M0 0 C4.29 0 8.58 0 13 0 C13.02685412 2.31243792 13.04632841 4.6249627 13.0625 6.9375 C13.07410156 8.22527344 13.08570313 9.51304687 13.09765625 10.83984375 C13 14 13 14 12 15 C7.99779347 15.14355117 4.00558317 15.04216403 0 15 C0 10.05 0 5.1 0 0 Z " fill="#000000" transform="translate(346,344)"/>
<path d="" fill="#000000" transform="translate(0,0)"/>
<path d="" fill="#000000" transform="translate(0,0)"/>
<path d="" fill="#000000" transform="translate(0,0)"/>
<path d="" fill="#000000" transform="translate(0,0)"/>
<path d="" fill="#000000" transform="translate(0,0)"/>
<path d="" fill="#000000" transform="translate(0,0)"/>
<path d="" fill="#000000" transform="translate(0,0)"/>
</svg>
