<?xml version="1.0" encoding="UTF-8" standalone="no"?>
<svg
   version="1.1"
   viewBox="0 0 477.3 64.4"
   id="svg1"
   sodipodi:docname="shopinbit-dark.svg"
   inkscape:version="1.4 (e7c3feb100, 2024-10-09)"
   xmlns:inkscape="http://www.inkscape.org/namespaces/inkscape"
   xmlns:sodipodi="http://sodipodi.sourceforge.net/DTD/sodipodi-0.dtd"
   xmlns="http://www.w3.org/2000/svg"
   xmlns:svg="http://www.w3.org/2000/svg">
  <defs
     id="defs1" />
  <!-- Generator: Adobe Illustrator 28.7.1, SVG Export Plug-In . SVG Version: 1.2.0 Build 142)  -->
  <g
     id="g1">
    <g
       id="svg5">
      <sodipodi:namedview
         id="namedview7"
         bordercolor="#666666"
         borderopacity="1.0"
         inkscape:current-layer="g1"
         inkscape:cx="224.50393"
         inkscape:cy="-63.719498"
         inkscape:deskcolor="#d1d1d1"
         inkscape:document-units="mm"
         inkscape:pagecheckerboard="true"
         inkscape:pageopacity="0.0"
         inkscape:showpageshadow="2"
         inkscape:window-height="842"
         inkscape:window-maximized="1"
         inkscape:window-width="1463"
         inkscape:window-x="0"
         inkscape:window-y="0"
         inkscape:zoom="1.5144501"
         pagecolor="#ffffff"
         showgrid="false"
         showguides="true">
        <inkscape:grid
           id="grid293"
           originx="-34.162255"
           originy="-137.1448"
           type="xygrid"
           spacingy="1"
           spacingx="1"
           units="mm" />
        <sodipodi:guide
           id="guide295"
           inkscape:locked="false"
           orientation="0,-1"
           position="25.936581,31.970499" />
        <sodipodi:guide
           id="guide305"
           inkscape:locked="false"
           orientation="0,-1"
           position="42.967271,43.923648" />
        <sodipodi:guide
           id="guide307"
           inkscape:locked="false"
           orientation="0,-1"
           position="44.804815,21.138728" />
      </sodipodi:namedview>
      <g
         id="layer1"
         inkscape:groupmode="layer"
         inkscape:label="Ebene 1">
        <g
           id="text119"
           style="fill:#ffffff">
          <path
             id="path517"
             d="M20.1,4.1c-2.3,0-4.4.4-6.3,1.3-2,.8-3.7,2-5.1,3.4-1.4,1.4-2.6,3.1-3.4,5.1-.8,2-1.2,4-1.2,6.2s.3,2.7.8,4c.5,1.2,1.2,2.2,2.1,3.1.9.9,2,1.6,3.2,2.2,1.2.5,2.5.8,3.9.8h24.2c1.9,0,3.7.4,5.4,1.1,1.8.7,3.3,1.7,4.5,2.9,1.3,1.3,2.3,2.7,3,4.4.8,1.7,1.1,3.5,1.1,5.5,0,2.8-.5,5.4-1.6,7.8-1.1,2.5-2.5,4.6-4.3,6.4-1.8,1.8-4,3.3-6.4,4.3-2.5,1-5,1.5-7.7,1.5h-12c-2.8,0-5.4-.5-7.8-1.5-2.5-1.1-4.6-2.5-6.4-4.3-1.8-1.8-3.3-4-4.3-6.4C.5,49.6,0,46.9,0,44.2s.2-.9.6-1.3c.4-.4.9-.7,1.4-.7s1,.2,1.4.7c.4.4.7.8.7,1.3,0,2.3.4,4.4,1.2,6.3.8,2,2,3.7,3.4,5.1s3.1,2.6,5.1,3.4c2,.8,4.1,1.2,6.3,1.2h12c2.2,0,4.3-.4,6.1-1.2,2-.8,3.7-2,5.1-3.4,1.4-1.4,2.6-3.1,3.4-5.1.9-2,1.3-4.1,1.3-6.3s-.3-2.7-.9-3.9c-.5-1.2-1.2-2.2-2.1-3.1-.9-.9-1.9-1.6-3.1-2.1-1.2-.6-2.5-.9-3.9-.9H14c-2,0-3.8-.3-5.5-1-1.7-.8-3.2-1.8-4.4-3-1.3-1.3-2.3-2.8-3-4.5C.3,24,0,22.1,0,20.2,0,17.4.5,14.8,1.5,12.3c1.1-2.5,2.5-4.6,4.3-6.4,1.8-1.8,4-3.2,6.4-4.3C14.7.6,17.3,0,20.1,0h12c2.7,0,5.3.5,7.7,1.6,2.5,1,4.6,2.4,6.4,4.3,1.8,1.8,3.3,4,4.3,6.4,1.1,2.5,1.6,5.1,1.6,7.8s-.2,1-.7,1.4c-.4.4-.9.6-1.4.6s-1.1-.2-1.5-.6c-.4-.4-.6-.9-.6-1.4,0-2.2-.4-4.3-1.3-6.2-.8-2-2-3.7-3.4-5.1s-3.1-2.6-5.1-3.4c-1.9-.9-3.9-1.3-6.1-1.3h-12Z"
             style="fill:#ffffff" />
          <path
             id="path519"
             d="M103,0c1.4,0,2.1.7,2.1,2.1v60.2c0,.5-.2,1-.6,1.4-.3.4-.8.6-1.5.6s-1-.2-1.4-.6c-.4-.4-.6-.9-.6-1.4v-28.1h-38.1v28.1c0,.5-.2,1-.6,1.4-.4.4-.9.6-1.4.6s-1.1-.2-1.5-.6c-.4-.4-.6-.9-.6-1.4V2.1c0-1.4.7-2.1,2.1-2.1s1,.2,1.4.6c.4.4.6.9.6,1.5v28.1h38.1V2.1c0-.6.2-1.1.6-1.5.4-.4.9-.6,1.4-.6h0Z"
             style="fill:#ffffff" />
          <path
             id="path521"
             d="M143.8,0c2.7,0,5.3.5,7.7,1.6,2.5,1,4.6,2.4,6.4,4.3,1.8,1.8,3.3,4,4.3,6.4,1.1,2.5,1.6,5.1,1.6,7.8v24c0,2.8-.5,5.4-1.6,7.8s-2.5,4.6-4.3,6.4c-1.8,1.8-4,3.3-6.4,4.3-2.5,1-5,1.5-7.7,1.5h-12c-2.8,0-5.4-.5-7.8-1.5-2.5-1.1-4.6-2.5-6.4-4.3s-3.3-4-4.3-6.4c-1-2.5-1.5-5.1-1.5-7.8v-24c0-2.8.5-5.4,1.5-7.8,1.1-2.5,2.5-4.6,4.3-6.4,1.8-1.8,4-3.2,6.4-4.3,2.5-1.1,5.1-1.6,7.8-1.6h12ZM159.8,20.2c0-2.2-.4-4.3-1.3-6.2-.8-2-2-3.7-3.4-5.1-1.4-1.4-3.1-2.6-5.1-3.4-1.9-.9-3.9-1.3-6.1-1.3h-12c-2.3,0-4.4.4-6.3,1.3-2,.8-3.7,2-5.1,3.4-1.4,1.4-2.6,3.1-3.4,5.1-.8,2-1.2,4-1.2,6.2v24c0,2.3.4,4.4,1.2,6.3s2,3.7,3.4,5.1c1.4,1.4,3.1,2.6,5.1,3.4,2,.8,4.1,1.2,6.3,1.2h12c2.2,0,4.3-.4,6.1-1.2,2-.8,3.7-2,5.1-3.4s2.6-3.1,3.4-5.1c.9-2,1.3-4.1,1.3-6.3v-24Z"
             style="fill:#ffffff" />
          <path
             id="path523"
             d="M193.8,0c3.1,0,6.1.6,8.9,1.9,2.8,1.2,5.3,2.8,7.4,4.9,2.1,2.1,3.7,4.5,4.9,7.4,1.3,2.8,1.9,5.8,1.9,9s-.6,6.1-1.9,9c-1.2,2.8-2.8,5.2-4.9,7.3-2.1,2.1-4.5,3.7-7.4,4.9-2.8,1.2-5.7,1.8-8.9,1.8h-19.7v16.1c0,.6-.3,1.1-.8,1.5-.4.4-.9.6-1.4.6s-1-.2-1.4-.6c-.4-.4-.6-.9-.6-1.5V2c0-.5.2-.9.6-1.3.4-.4.9-.7,1.4-.7h21.9ZM193.8,42.2c2.6,0,5-.5,7.3-1.5,2.3-1,4.3-2.4,6-4.1,1.8-1.8,3.1-3.8,4.2-6,1-2.3,1.5-4.8,1.5-7.4s-.5-5.1-1.5-7.5c-1-2.3-2.4-4.3-4.2-6-1.7-1.7-3.7-3.1-6-4.1-2.3-1-4.7-1.5-7.3-1.5h-19.7v38.1h19.7Z"
             style="fill:#ffffff" />
          <path
             id="path525"
             d="M224.4,0c.5,0,.9.2,1.3.7.4.4.7.8.7,1.3v60.2c0,.6-.2,1.1-.7,1.5-.4.4-.8.6-1.3.6s-1.1-.2-1.5-.6c-.4-.4-.6-.9-.6-1.5V2c0-.5.2-.9.6-1.3s.9-.7,1.5-.7Z"
             style="fill:#ffffff" />
          <path
             id="path527"
             d="M277.7,0c.7,0,1.2.2,1.5.7.4.4.6.8.6,1.3v60.2c0,.4-.1.9-.4,1.2-.2.4-.5.6-.9.8-.1.1-.3.2-.4,0h-.4c-.3,0-.6,0-.9-.3-.3-.2-.5-.4-.8-.7l-38.4-54.7v53.6c0,.5-.2,1-.6,1.4-.4.4-.9.7-1.4.7s-1.1-.2-1.5-.7c-.4-.4-.6-.9-.6-1.4V1.7c0-.2.2-.3.5-.5l.2-.4c.1-.2.3-.3.5-.5.1,0,.3-.1.4-.2.2,0,.4,0,.6,0s.4,0,.7.2c.1,0,.3.2.5.3.1.1.2.2.3.3.1,0,.2.1.3.2,3.2,4.7,6.4,9.3,9.5,13.8,3.2,4.5,6.4,9,9.5,13.5,3.1,4.5,6.3,9,9.5,13.5,3.2,4.5,6.5,9.1,9.7,13.8V2c0-.5.2-.9.6-1.3.4-.4.9-.7,1.4-.7h0Z"
             style="fill:#ffffff" />
          <path
             id="path529"
             d="M333.1,14.1c0,2.4-.6,4.6-1.7,6.7-1.1,2-2.6,3.7-4.4,4.9,3.6,1.5,6.5,3.9,8.8,7.3,2.3,3.3,3.4,7,3.4,11.1s-.5,5.4-1.6,7.8c-1.1,2.5-2.5,4.6-4.3,6.4-1.8,1.8-4,3.3-6.4,4.3-2.4,1-5,1.5-7.7,1.5h-30.1c-.6,0-1-.2-1.4-.6-.4-.4-.6-.9-.6-1.4V2.1c0-.6.2-1.1.6-1.5.4-.4.9-.6,1.4-.6h30.1c2,0,3.8.4,5.5,1.1s3.2,1.8,4.4,3c1.3,1.3,2.3,2.7,3,4.4.8,1.7,1.1,3.5,1.1,5.5h0ZM329.1,14.1c0-1.4-.3-2.7-.9-3.9-.5-1.2-1.2-2.2-2.1-3.1-.9-.9-2-1.7-3.2-2.2-1.2-.6-2.5-.9-3.9-.9h-28.1v20h28.1c1.4,0,2.7-.3,3.9-.8,1.3-.6,2.3-1.3,3.2-2.2.9-.9,1.6-2,2.1-3.2.6-1.2.9-2.5.9-3.9ZM319.1,60.2c2.2,0,4.3-.4,6.1-1.2,2-.9,3.7-2,5.1-3.5s2.6-3.1,3.4-5.1c.9-2,1.3-4,1.3-6.2s-.4-4.3-1.3-6.1c-.8-2-2-3.7-3.4-5.1s-3.1-2.6-5.1-3.4c-1.9-.9-3.9-1.3-6.1-1.3h-28.1v32h28.1Z"
             style="fill:#ffffff" />
          <path
             id="path531"
             d="M347.4,0c.5,0,.9.2,1.3.7.4.4.7.8.7,1.3v60.2c0,.6-.2,1.1-.7,1.5-.4.4-.8.6-1.3.6s-1.1-.2-1.5-.6c-.4-.4-.6-.9-.6-1.5V2c0-.5.2-.9.6-1.3.4-.4.9-.7,1.5-.7Z"
             style="fill:#ffffff" />
          <path
             id="path533"
             d="M399.4,0c.5,0,1,.2,1.4.7.5.4.8.8.8,1.3s-.3,1.1-.8,1.5c-.4.4-.9.6-1.4.6h-19.6v58.1c0,.6-.2,1.1-.6,1.5-.4.4-.9.6-1.4.6-1.4,0-2.1-.7-2.1-2.1V4.1h-19.6c-.6,0-1-.2-1.4-.6-.4-.4-.6-.9-.6-1.5s.2-.9.6-1.3c.4-.4.9-.7,1.4-.7h43.4Z"
             style="fill:#ffffff" />
        </g>
        <path
           id="Auswahl__x23_1"
           d="M438.3,18.5c0-.5,0-1.1.2-1.6.5-.8,1.8-.8,2.2,0,.2.4.2,1.1.2,1.6,1.1.1,2.2.7,2.8,1.7.3.5.5,1.2.5,1.9,0,.5,0,1.1-.2,1.6,0,.1-.1.3-.2.4,0,0-.1.2,0,.3,0,0,.2.3.2.4.1.2.2.5.3.7.2.7.2,1.1.2,1.8,0,.7-.3,1.5-.9,2-.4.4-1,.8-1.5.9l-.6.2c0,0-.2,0-.3,0-.1,0,0,.4,0,.5,0,.3-.1.6-.3.8-.5.6-1.5.5-2,0-.3-.4-.3-.7-.3-1.1h-2.1c-.5,0-.8,0-1.2-.2-1-.7-.6-2.3.6-2.4v-6.9c-.4,0-.7,0-.9-.3-.6-.5-.5-1.5.1-2,.4-.3.8-.2,1.3-.2h2,0ZM441.1,23.2c.4,0,.6-.5.6-.8,0-.4,0-.6-.3-.9-.2-.2-.6-.3-.8-.3-.6-.1-1.4-.1-2.1,0v2.2s1.8,0,2.6,0ZM438.5,28c.9,0,1.9,0,2.6,0,.5-.1.7-.3.8-.6.3-.5,0-1.2-.2-1.3-.2-.4-3.2-.3-3.2-.3v2.3h0ZM466.8.2h8.5c1.6,0,2.4,1.9,1.5,3.2-.3.4-.9.7-1.4.7h-.9s-3.9,0-3.9,0h-.8c-.2,0-.4,0-.6,0-.5.2-.6,1.2-.7,1.7l-1.5,5.7-3.3,12.4-1.3,5-1.5,5.7-.5,1.8c0,.3-.2.7-.2,1,0,.8.3,1.7.5,2.5l1.1,4.3,3.6,13.6.8,2.8c.2.8.4,1.1.3,1.9,0,1.2-1.1,1.7-2.1,1.7h-18.4c-.5,0-.9,0-1.5-.1-.7-.2-1.2-.7-1.3-1.5,0,0,0-.2,0-.3,0-.3,0-.6.2-.9,0-.1.1-.3.2-.4.5-.8,1.3-.8,2.2-.8h12s3.3,0,3.3,0c.1,0,.2,0,.3,0,.2,0,.3-.1.4-.3,0-.2-.1-.9-.2-1.1l-1.1-4.2-1.9-7.1-1.2-4.5-.6-2.2c0-.3-.2-.9-.4-1.1-.2-.2-.5-.2-.8-.2h-2.1s-8.9,0-8.9,0h-4.5s-5.6,0-5.6,0h-.5s-14,0-14,0h-.6c-.5,0-1.1-.1-1.5-.4-.5-.4-.7-1.2-.9-1.7l-1-3.4-5.3-17.9-.9-3c-.2-.6-.4-1.1-.4-1.7,0-.3,0-.5.2-.7.4-.8,1.1-1.1,2-1.1h38.8c.6,0,1.3.1,1.8.6.2.2.3.4.4.6.4.8.3,1.5-.3,2.1-.2.2-.7.6-.9.6-.1,0-.3,0-.4,0h-.6s-.5,0-.5,0h-28.8c0,0-.6,0-.6,0h-.5s-2.5,0-2.5,0h-.5s-1.6,0-1.6,0c-.3,0-.9-.1-1.1.2,0,.2,0,.3,0,.5.1.3.2.6.3.9l1.2,4,3.7,12.6.7,2.5c.1.4.3.9.7,1.2.4.2.9.2,1.3.2h.6s.5,0,.5,0h13.1s7.1,0,7.1,0h.6s9.6,0,9.6,0h.5s1.3,0,1.3,0c.2,0,.3,0,.4,0,.5-.2.5-.7.6-1.2l1-3.7.5-1.8,1.2-4.3,2.5-9.6c.9-3.7,1.9-7.5,3-11.2l.5-1.7c.2-.8.3-1.4,1.1-1.7.2,0,.3,0,.4-.1h0Z"
           style="fill:#ffffff" />
      </g>
    </g>
  </g>
</svg>
