<?xml version="1.0" encoding="UTF-8" standalone="no"?>
<!-- Generator: Adobe Illustrator 25.1.0, SVG Export Plug-In . SVG Version: 6.00 Build 0)  -->

<svg
   version="1.1"
   id="Layer_1"
   x="0px"
   y="0px"
   viewBox="0 0 300 114.2"
   style="enable-background:new 0 0 300 114.2;"
   xml:space="preserve"
   sodipodi:docname="sweetwater-dark.svg"
   inkscape:version="1.4 (e7c3feb100, 2024-10-09)"
   xmlns:inkscape="http://www.inkscape.org/namespaces/inkscape"
   xmlns:sodipodi="http://sodipodi.sourceforge.net/DTD/sodipodi-0.dtd"
   xmlns="http://www.w3.org/2000/svg"
   xmlns:svg="http://www.w3.org/2000/svg"><defs
   id="defs39" /><sodipodi:namedview
   id="namedview39"
   pagecolor="#ffffff"
   bordercolor="#000000"
   borderopacity="0.25"
   inkscape:showpageshadow="2"
   inkscape:pageopacity="0.0"
   inkscape:pagecheckerboard="0"
   inkscape:deskcolor="#d1d1d1"
   inkscape:zoom="4.5466667"
   inkscape:cx="201.90616"
   inkscape:cy="57.07478"
   inkscape:window-width="1463"
   inkscape:window-height="842"
   inkscape:window-x="0"
   inkscape:window-y="0"
   inkscape:window-maximized="1"
   inkscape:current-layer="g39" />
<style
   type="text/css"
   id="style1">
	.st0{fill:url(#SVGID_1_);}
	.st1{fill:#1D3666;}
	.st2{fill:#1C3564;}
	.st3{fill:#F16A24;}
</style>
<g
   id="g39">
	<linearGradient
   id="SVGID_1_"
   gradientUnits="userSpaceOnUse"
   x1="4.4432"
   y1="37.0681"
   x2="97.3996"
   y2="37.0681">
		<stop
   offset="0"
   style="stop-color:#1C3564"
   id="stop1" />
		<stop
   offset="1"
   style="stop-color:#01A7E0"
   id="stop2" />
	</linearGradient>
	<path
   class="st0"
   d="m 99.6,32.2 v 0 0 C 99.5,31.8 99.3,31.5 99.1,31.2 99,31 98.9,30.8 98.8,30.6 98.6,30.2 98.3,29.7 98,29.3 97.8,29 97.6,28.7 97.4,28.4 97.2,28.2 97.1,27.9 96.9,27.7 96.6,27.4 96.4,27 96.1,26.7 96,26.6 95.9,26.4 95.7,26.3 95.3,25.9 94.8,25.5 94.3,25.1 94.2,25 94,24.9 93.9,24.8 93.4,24.4 92.8,24 92.3,23.7 L 59.6,4.8 C 59,4.4 58.3,4.1 57.6,3.8 56.2,3.2 54.8,2.9 53.4,2.7 52.7,2.6 52,2.6 51.2,2.6 c 0,0 0,0 0,0 0,0 0,0 0,0 -0.7,0 -1.4,0 -2.2,0.1 -1.4,0.2 -2.9,0.6 -4.2,1.1 -0.7,0.3 -1.3,0.6 -2,1 L 10.1,23.7 C 9.6,24 9,24.4 8.5,24.8 8.4,24.9 8.2,25 8.1,25.1 7.6,25.5 7.2,25.9 6.7,26.3 6.6,26.4 6.5,26.6 6.3,26.7 6,27 5.7,27.3 5.5,27.7 5.3,27.9 5.1,28.1 5,28.4 4.8,28.7 4.6,29 4.4,29.3 4.1,29.7 3.9,30.2 3.6,30.6 3.5,30.8 3.4,31 3.3,31.2 3.1,31.5 3,31.9 2.8,32.2 v 0 0 c -0.7,1.9 -1.1,3.9 -1.1,6 v 21.3 h 6.9 l 7.1,-3.1 7,-6.4 h 14.8 l -1.2,3.5 -9.2,2.7 -6.5,8.4 H 1.8 v 2.2 h 20 l 6.7,-8.7 9.6,-2.8 4.4,-12.9 H 59.2 L 56.5,57.2 45,68.7 44.3,69.4 H 1.8 v 0.3 1.9 h 43.4 l 1.8,-1.9 1,-1 10.4,-10.6 4.7,-25.2 h 2.6 l 4.5,-3.5 h 18.4 l 4.1,26.9 8,6.2 V 38.2 c 0.1,-2.1 -0.3,-4.1 -1.1,-6 z"
   id="path2"
   style="display:inline" />
	<g
   id="g31"
   style="display:inline;fill:#ffffff">
		<path
   class="st1"
   d="m 123.8,52.1 c -0.4,-0.7 -0.9,-1.3 -1.5,-1.7 -0.6,-0.5 -1.3,-0.9 -2,-1.2 -0.7,-0.3 -1.4,-0.6 -2.1,-0.8 -0.5,-0.2 -1.1,-0.4 -1.6,-0.6 -0.5,-0.2 -0.9,-0.4 -1.3,-0.7 -0.4,-0.3 -0.7,-0.6 -0.9,-0.9 -0.2,-0.4 -0.3,-0.8 -0.3,-1.3 0,-0.8 0.3,-1.4 1,-1.9 0.6,-0.5 1.6,-0.8 3,-0.8 0.8,0 1.5,0.1 2.3,0.2 0.8,0.2 1.5,0.4 2.2,0.7 l 0.8,-2.5 c -0.8,-0.4 -1.6,-0.7 -2.5,-0.9 -0.9,-0.2 -1.9,-0.3 -3,-0.3 -1.2,0 -2.3,0.1 -3.2,0.4 -0.9,0.3 -1.6,0.7 -2.2,1.2 -0.6,0.5 -1,1.1 -1.3,1.8 -0.3,0.7 -0.4,1.4 -0.4,2.2 0,1 0.2,1.8 0.6,2.5 0.4,0.7 0.9,1.2 1.4,1.7 0.6,0.5 1.2,0.8 1.9,1.1 0.7,0.3 1.3,0.5 2,0.7 0.6,0.2 1.1,0.4 1.7,0.6 0.5,0.2 1,0.4 1.4,0.7 0.4,0.3 0.7,0.6 1,1 0.3,0.4 0.4,0.8 0.4,1.3 0,1.1 -0.4,1.8 -1.3,2.3 -0.9,0.5 -1.9,0.7 -3.2,0.7 -1,0 -1.9,-0.1 -2.8,-0.3 -0.9,-0.2 -1.6,-0.5 -2.3,-0.8 l -0.8,2.6 c 0.7,0.4 1.6,0.7 2.6,1 1,0.2 2.1,0.4 3.4,0.4 1.1,0 2.1,-0.1 3,-0.3 0.9,-0.2 1.7,-0.6 2.4,-1.1 0.7,-0.5 1.2,-1.1 1.6,-1.8 0.4,-0.7 0.6,-1.6 0.6,-2.6 0,-1.1 -0.2,-1.9 -0.6,-2.6 z"
   id="path3"
   style="fill:#ffffff" />
		<path
   class="st1"
   d="m 146.2,49.9 c -0.1,0.6 -0.3,1.2 -0.4,1.8 -0.1,0.6 -0.2,1.1 -0.3,1.7 -0.1,0.6 -0.1,1.1 -0.2,1.7 -0.1,0.6 -0.1,1.2 -0.1,1.8 h -0.1 c -0.2,-1.3 -0.3,-2.5 -0.6,-3.6 -0.2,-1.1 -0.5,-2.1 -0.8,-3.1 l -3.2,-10.6 h -3.3 L 134,50.3 c -0.3,1 -0.6,2 -0.8,3.1 -0.2,1.1 -0.4,2.3 -0.6,3.6 h -0.1 c 0,-0.6 -0.1,-1.3 -0.1,-1.8 -0.1,-0.6 -0.1,-1.2 -0.2,-1.7 -0.1,-0.6 -0.2,-1.1 -0.3,-1.7 -0.1,-0.6 -0.2,-1.2 -0.4,-1.8 L 129.3,39.8 H 126 l 4.7,20.4 h 3.3 l 3.5,-11.9 c 0.3,-0.8 0.5,-1.7 0.7,-2.7 0.2,-0.9 0.4,-1.9 0.5,-2.9 h 0.1 c 0.1,1 0.3,2 0.5,2.9 0.2,0.9 0.4,1.8 0.7,2.7 l 3.5,11.9 h 3.3 l 4.7,-20.4 h -3.3 z"
   id="path4"
   style="fill:#ffffff" />
		<polygon
   class="st1"
   points="166.9,48.2 157.9,48.2 157.9,42.6 167.5,42.6 167.5,39.7 154.7,39.7 154.7,60.1 167.7,60.1 167.7,57.2 157.9,57.2 157.9,51 166.9,51 "
   id="polygon4"
   style="fill:#ffffff" />
		<polygon
   class="st1"
   points="183.5,48.2 174.5,48.2 174.5,42.6 184.1,42.6 184.1,39.7 171.3,39.7 171.3,60.1 184.3,60.1 184.3,57.2 174.5,57.2 174.5,51 183.5,51 "
   id="polygon5"
   style="fill:#ffffff" />
		<polygon
   class="st1"
   points="191.8,60.1 195.1,60.1 195.1,42.6 201.1,42.6 201.1,39.7 185.8,39.7 185.8,42.6 191.8,42.6 "
   id="polygon6"
   style="fill:#ffffff" />
		<path
   class="st1"
   d="m 215,42.6 c 0.1,1 0.3,2 0.5,2.9 0.2,0.9 0.4,1.8 0.7,2.7 l 3.5,11.9 h 3.3 l 4.7,-20.4 h -3.3 l -2.2,10.2 c -0.1,0.6 -0.3,1.2 -0.4,1.8 -0.1,0.6 -0.2,1.1 -0.3,1.7 -0.1,0.6 -0.1,1.1 -0.2,1.7 -0.1,0.6 -0.1,1.2 -0.1,1.8 h -0.1 c -0.2,-1.3 -0.3,-2.5 -0.6,-3.6 -0.2,-1.1 -0.5,-2.1 -0.8,-3.1 l -3.2,-10.6 h -3.3 L 210,50.3 c -0.3,1 -0.6,2 -0.8,3.1 -0.2,1.1 -0.4,2.3 -0.6,3.6 h -0.1 c 0,-0.6 -0.1,-1.3 -0.1,-1.8 -0.1,-0.6 -0.1,-1.2 -0.2,-1.7 -0.1,-0.6 -0.2,-1.1 -0.3,-1.7 -0.1,-0.6 -0.2,-1.2 -0.4,-1.8 L 205.3,39.8 H 202 l 4.7,20.4 h 3.3 l 3.5,-11.9 c 0.3,-0.8 0.5,-1.7 0.7,-2.7 0.4,-1 0.6,-2 0.8,-3 z"
   id="path6"
   style="fill:#ffffff" />
		<polygon
   class="st1"
   points="262.4,39.7 247.2,39.7 247.2,42.6 253.2,42.6 253.2,60.1 256.4,60.1 256.4,42.6 262.4,42.6 "
   id="polygon7"
   style="fill:#ffffff" />
		<polygon
   class="st1"
   points="277.1,48.2 268.1,48.2 268.1,42.6 277.7,42.6 277.7,39.7 264.9,39.7 264.9,60.1 277.9,60.1 277.9,57.2 268.1,57.2 268.1,51 277.1,51 "
   id="polygon8"
   style="fill:#ffffff" />
		<path
   class="st1"
   d="m 284.8,52.3 h 3.5 l 4.5,7.8 h 3.5 l -4.8,-8.3 c 1.4,-0.4 2.4,-1.2 3.2,-2.2 0.8,-1 1.2,-2.3 1.2,-3.7 0,-0.9 -0.2,-1.7 -0.5,-2.4 -0.3,-0.8 -0.8,-1.4 -1.4,-2 -0.6,-0.6 -1.3,-1 -2.2,-1.3 -0.9,-0.3 -1.9,-0.5 -3,-0.5 h -7.5 v 20.4 h 3.3 v -7.8 z m 0,-9.7 h 4.2 c 1.3,0 2.2,0.3 2.8,0.9 0.6,0.6 0.9,1.4 0.9,2.4 0,1 -0.3,1.9 -1,2.5 -0.7,0.6 -1.6,0.9 -2.8,0.9 h -4.1 z"
   id="path8"
   style="fill:#ffffff" />
		<path
   class="st1"
   d="m 236.6,32.9 -9.8,27.2 h 3.4 c 0.1,-0.3 6.4,-18.8 7.7,-22.6 l 0.3,-1.2 h 0.1 l 8.2,23.6 0.2,0.4 h 3.4 L 240,32.9 Z"
   id="path9"
   style="fill:#ffffff" />
		<path
   class="st2"
   d="m 113.5,66.7 h -2.4 v 8.8 h 2.4 c 1.4,0 2.5,-0.4 3.2,-1.1 0.7,-0.7 1.1,-1.8 1.1,-3.3 0,-1.4 -0.4,-2.5 -1.1,-3.3 -0.7,-0.7 -1.8,-1.1 -3.2,-1.1 z m 2.5,7.2 c -0.6,0.6 -1.4,0.8 -2.6,0.8 H 112 v -7.1 h 1.5 c 0.6,0 1,0.1 1.5,0.2 0.4,0.1 0.8,0.3 1.1,0.6 0.3,0.3 0.5,0.7 0.7,1.1 0.2,0.4 0.2,1 0.2,1.6 -0.1,1.3 -0.4,2.2 -1,2.8 z"
   id="path10"
   style="fill:#ffffff" />
		<path
   class="st2"
   d="m 121,66.6 c -0.2,0 -0.4,0.1 -0.5,0.2 -0.1,0.1 -0.2,0.3 -0.2,0.4 0,0.1 0.1,0.3 0.2,0.4 0.1,0.1 0.3,0.2 0.5,0.2 0.2,0 0.4,-0.1 0.5,-0.2 0.1,-0.1 0.2,-0.3 0.2,-0.4 0,-0.1 -0.1,-0.3 -0.2,-0.4 -0.1,-0.2 -0.3,-0.2 -0.5,-0.2 z"
   id="path11"
   style="fill:#ffffff" />
		<rect
   x="120.5"
   y="69.199997"
   class="st2"
   width="0.89999998"
   height="6.3000002"
   id="rect11"
   style="fill:#ffffff" />
		<path
   class="st2"
   d="m 128.9,70.3 c -0.1,-0.1 -0.2,-0.3 -0.3,-0.4 -0.1,-0.1 -0.3,-0.3 -0.4,-0.4 -0.2,-0.1 -0.4,-0.2 -0.6,-0.3 -0.2,-0.1 -0.4,-0.1 -0.7,-0.1 -0.4,0 -0.8,0.1 -1.1,0.2 -0.3,0.2 -0.6,0.4 -0.8,0.7 -0.2,0.3 -0.4,0.6 -0.5,1 -0.1,0.4 -0.2,0.8 -0.2,1.3 0,0.5 0.1,1 0.2,1.4 0.1,0.4 0.3,0.7 0.5,1 0.2,0.3 0.5,0.5 0.8,0.6 0.3,0.1 0.7,0.2 1.1,0.2 0.5,0 0.9,-0.1 1.2,-0.4 0.4,-0.2 0.6,-0.5 0.8,-0.9 H 129 V 75 c 0,0.5 -0.1,0.8 -0.2,1.1 -0.1,0.3 -0.2,0.5 -0.4,0.7 -0.2,0.2 -0.4,0.3 -0.7,0.4 -0.3,0.1 -0.5,0.1 -0.9,0.1 -0.4,0 -0.7,0 -1,-0.1 -0.3,-0.1 -0.6,-0.2 -0.9,-0.3 l -0.2,0.7 c 0.3,0.1 0.6,0.3 1,0.4 0.4,0.1 0.8,0.2 1.3,0.2 0.4,0 0.8,-0.1 1.2,-0.2 0.4,-0.1 0.7,-0.3 0.9,-0.5 0.3,-0.2 0.4,-0.6 0.6,-1 0.1,-0.4 0.2,-0.9 0.2,-1.4 v -5.9 h -0.7 z m 0,2.1 c 0,0.3 0,0.7 -0.1,0.9 -0.1,0.3 -0.2,0.5 -0.4,0.7 -0.2,0.2 -0.4,0.4 -0.6,0.5 -0.2,0.1 -0.5,0.2 -0.8,0.2 -0.2,0 -0.5,0 -0.7,-0.1 -0.2,-0.1 -0.4,-0.2 -0.6,-0.4 -0.2,-0.2 -0.3,-0.4 -0.4,-0.8 -0.1,-0.3 -0.2,-0.7 -0.2,-1.1 0,-0.4 0,-0.8 0.1,-1.1 0.1,-0.3 0.2,-0.6 0.4,-0.8 0.2,-0.2 0.4,-0.4 0.6,-0.5 0.2,-0.1 0.5,-0.1 0.8,-0.1 0.4,0 0.7,0.1 1.1,0.4 0.3,0.2 0.6,0.5 0.8,0.9 z"
   id="path12"
   style="fill:#ffffff" />
		<rect
   x="132.89999"
   y="69.199997"
   class="st2"
   width="0.89999998"
   height="6.3000002"
   id="rect12"
   style="fill:#ffffff" />
		<path
   class="st2"
   d="m 133.3,66.6 c -0.2,0 -0.4,0.1 -0.5,0.2 -0.1,0.1 -0.2,0.3 -0.2,0.4 0,0.1 0.1,0.3 0.2,0.4 0.1,0.1 0.3,0.2 0.5,0.2 0.2,0 0.4,-0.1 0.5,-0.2 0.1,-0.1 0.2,-0.3 0.2,-0.4 0,-0.1 -0.1,-0.3 -0.2,-0.4 -0.1,-0.2 -0.3,-0.2 -0.5,-0.2 z"
   id="path13"
   style="fill:#ffffff" />
		<path
   class="st2"
   d="m 139.9,74.7 c -0.1,0.1 -0.3,0.1 -0.4,0.2 -0.2,0 -0.3,0.1 -0.5,0.1 -0.3,0 -0.6,-0.1 -0.7,-0.3 -0.1,-0.2 -0.2,-0.5 -0.2,-0.8 V 70 h 2 v -0.7 h -2 v -1.8 h -0.6 l -0.3,1.8 h -1 V 70 h 1 v 3.9 c 0,0.6 0.1,1.1 0.4,1.4 0.3,0.3 0.7,0.4 1.2,0.4 0.3,0 0.6,0 0.8,-0.1 0.2,-0.1 0.4,-0.1 0.6,-0.2 0,-0.1 -0.1,-0.2 -0.1,-0.3 -0.1,-0.2 -0.2,-0.3 -0.2,-0.4 z"
   id="path14"
   style="fill:#ffffff" />
		<path
   class="st2"
   d="m 144.7,69.1 c -0.5,0 -0.9,0.1 -1.3,0.2 -0.4,0.1 -0.7,0.2 -0.9,0.4 0,0.1 0.1,0.2 0.1,0.3 0,0.1 0.1,0.2 0.1,0.3 0.3,-0.1 0.6,-0.2 0.9,-0.3 0.3,-0.1 0.7,-0.1 1.1,-0.1 0.5,0 0.9,0.1 1.1,0.4 0.3,0.2 0.4,0.6 0.4,1.2 v 0.3 h -1.4 c -0.9,0 -1.5,0.2 -2,0.5 -0.5,0.3 -0.7,0.9 -0.7,1.6 0,0.3 0,0.6 0.1,0.8 0.1,0.2 0.2,0.4 0.4,0.6 0.2,0.2 0.4,0.3 0.6,0.4 0.2,0.1 0.5,0.1 0.7,0.1 0.3,0 0.6,0 0.8,-0.1 0.2,-0.1 0.4,-0.2 0.6,-0.3 0.2,-0.1 0.3,-0.3 0.5,-0.4 0.1,-0.2 0.2,-0.3 0.4,-0.5 l 0.2,1.2 h 0.7 v -4.1 c 0,-0.7 -0.2,-1.3 -0.6,-1.7 -0.4,-0.6 -1,-0.8 -1.8,-0.8 z m 1.5,3.8 c 0,0.2 0,0.5 -0.1,0.7 -0.1,0.2 -0.2,0.5 -0.4,0.7 -0.2,0.2 -0.4,0.3 -0.7,0.5 -0.3,0.1 -0.6,0.2 -0.9,0.2 -0.3,0 -0.6,-0.1 -0.9,-0.3 -0.2,-0.2 -0.4,-0.5 -0.4,-0.9 0,-0.5 0.2,-0.8 0.5,-1.1 0.3,-0.3 0.8,-0.4 1.4,-0.4 h 1.4 v 0.6 z"
   id="path15"
   style="fill:#ffffff" />
		<rect
   x="150.2"
   y="66.699997"
   class="st2"
   width="0.89999998"
   height="8.8000002"
   id="rect15"
   style="fill:#ffffff" />
		<path
   class="st2"
   d="m 162.1,66.7 h -0.9 l -3.3,8.8 h 0.9 l 0.9,-2.4 h 3.9 l 0.9,2.4 h 0.9 c -0.5,-1.5 -1.1,-2.9 -1.6,-4.4 -0.6,-1.4 -1.2,-2.9 -1.7,-4.4 z m -2.1,5.6 1,-2.7 c 0.1,-0.3 0.2,-0.6 0.3,-1 0.1,-0.4 0.2,-0.7 0.3,-1 0.1,0.3 0.2,0.6 0.3,1 0.1,0.3 0.2,0.7 0.3,1 l 1,2.7 z"
   id="path16"
   style="fill:#ffffff" />
		<path
   class="st2"
   d="m 169.6,71.9 c -0.4,-0.1 -0.7,-0.3 -1,-0.4 -0.3,-0.2 -0.4,-0.4 -0.4,-0.7 0,-0.3 0.1,-0.5 0.4,-0.7 0.2,-0.2 0.6,-0.3 1.1,-0.3 0.3,0 0.6,0 0.9,0.1 0.3,0.1 0.5,0.1 0.7,0.2 0,-0.1 0.1,-0.2 0.1,-0.3 0,-0.1 0.1,-0.2 0.1,-0.3 -0.3,-0.1 -0.5,-0.2 -0.9,-0.3 -0.3,-0.1 -0.7,-0.1 -1,-0.1 -0.7,0 -1.2,0.1 -1.6,0.4 -0.4,0.3 -0.6,0.7 -0.6,1.2 0,0.3 0.1,0.5 0.2,0.7 0.1,0.2 0.2,0.4 0.4,0.5 0.2,0.1 0.4,0.3 0.6,0.4 0.2,0.1 0.5,0.2 0.7,0.3 0.2,0.1 0.4,0.1 0.6,0.2 0.2,0.1 0.4,0.2 0.5,0.3 0.1,0.1 0.3,0.2 0.3,0.4 0.1,0.1 0.1,0.3 0.1,0.5 0,0.3 -0.1,0.6 -0.4,0.8 -0.2,0.2 -0.6,0.3 -1.2,0.3 -0.3,0 -0.6,0 -0.9,-0.1 -0.3,-0.1 -0.6,-0.1 -0.8,-0.2 0,0.1 -0.1,0.2 -0.1,0.3 0,0.1 -0.1,0.2 -0.1,0.3 0.2,0.1 0.5,0.2 0.9,0.3 0.3,0.1 0.7,0.1 1.1,0.1 0.8,0 1.4,-0.2 1.8,-0.5 0.4,-0.3 0.6,-0.7 0.6,-1.2 0,-0.5 -0.2,-0.9 -0.6,-1.3 -0.3,-0.4 -0.9,-0.7 -1.5,-0.9 z"
   id="path17"
   style="fill:#ffffff" />
		<path
   class="st2"
   d="m 176.2,71.9 c -0.4,-0.1 -0.7,-0.3 -1,-0.4 -0.3,-0.2 -0.4,-0.4 -0.4,-0.7 0,-0.3 0.1,-0.5 0.4,-0.7 0.2,-0.2 0.6,-0.3 1.1,-0.3 0.3,0 0.6,0 0.9,0.1 0.3,0.1 0.5,0.1 0.7,0.2 0,-0.1 0.1,-0.2 0.1,-0.3 0,-0.1 0.1,-0.2 0.1,-0.3 -0.3,-0.1 -0.5,-0.2 -0.9,-0.3 -0.3,-0.1 -0.7,-0.1 -1,-0.1 -0.7,0 -1.2,0.1 -1.6,0.4 -0.4,0.3 -0.6,0.7 -0.6,1.2 0,0.3 0.1,0.5 0.2,0.7 0.1,0.2 0.2,0.4 0.4,0.5 0.2,0.1 0.4,0.3 0.6,0.4 0.2,0.1 0.5,0.2 0.7,0.3 0.2,0.1 0.4,0.1 0.6,0.2 0.2,0.1 0.4,0.2 0.5,0.3 0.1,0.1 0.3,0.2 0.3,0.4 0.1,0.1 0.1,0.3 0.1,0.5 0,0.3 -0.1,0.6 -0.4,0.8 -0.2,0.2 -0.6,0.3 -1.2,0.3 -0.3,0 -0.6,0 -0.9,-0.1 -0.3,-0.1 -0.6,-0.1 -0.8,-0.2 0,0.1 -0.1,0.2 -0.1,0.3 0,0.1 -0.1,0.2 -0.1,0.3 0.2,0.1 0.5,0.2 0.9,0.3 0.3,0.1 0.7,0.1 1.1,0.1 0.8,0 1.4,-0.2 1.8,-0.5 0.4,-0.3 0.6,-0.7 0.6,-1.2 0,-0.5 -0.2,-0.9 -0.6,-1.3 -0.2,-0.4 -0.8,-0.7 -1.5,-0.9 z"
   id="path18"
   style="fill:#ffffff" />
		<path
   class="st2"
   d="m 183.5,69.1 c -0.5,0 -0.9,0.1 -1.3,0.2 -0.4,0.2 -0.6,0.4 -0.9,0.7 -0.2,0.3 -0.4,0.6 -0.5,1 -0.1,0.4 -0.2,0.8 -0.2,1.3 0,1 0.3,1.8 0.7,2.4 0.5,0.6 1.3,0.9 2.3,0.9 0.4,0 0.7,0 1.1,-0.1 0.3,-0.1 0.6,-0.2 0.9,-0.3 l -0.2,-0.6 c -0.2,0.1 -0.5,0.2 -0.8,0.3 -0.3,0.1 -0.6,0.1 -0.9,0.1 -0.7,0 -1.2,-0.2 -1.6,-0.6 -0.4,-0.4 -0.6,-0.9 -0.6,-1.6 h 4.3 c 0,-0.2 0.1,-0.3 0.1,-0.5 0,-0.2 0,-0.4 0,-0.6 0,-0.8 -0.2,-1.4 -0.6,-1.9 -0.4,-0.5 -1,-0.7 -1.8,-0.7 z m 1.7,2.8 c 0,0.1 0,0.2 0,0.2 h -3.6 c 0,-0.3 0.1,-0.7 0.1,-1 0.1,-0.3 0.2,-0.5 0.4,-0.8 0.2,-0.2 0.4,-0.4 0.6,-0.5 0.2,-0.1 0.5,-0.2 0.9,-0.2 0.6,0 1,0.2 1.3,0.5 0.3,0.3 0.4,0.8 0.4,1.4 -0.1,0.2 -0.1,0.3 -0.1,0.4 z"
   id="path19"
   style="fill:#ffffff" />
		<path
   class="st2"
   d="m 191.6,74.7 c -0.1,0.1 -0.3,0.1 -0.4,0.2 -0.2,0 -0.3,0.1 -0.5,0.1 -0.3,0 -0.6,-0.1 -0.7,-0.3 -0.1,-0.2 -0.2,-0.5 -0.2,-0.8 V 70 h 2 v -0.7 h -2 v -1.8 h -0.6 l -0.3,1.8 h -1 V 70 h 1 v 3.9 c 0,0.6 0.1,1.1 0.4,1.4 0.3,0.3 0.7,0.4 1.2,0.4 0.3,0 0.6,0 0.8,-0.1 0.2,-0.1 0.4,-0.1 0.6,-0.2 0,-0.1 -0.1,-0.2 -0.1,-0.3 -0.1,-0.2 -0.1,-0.3 -0.2,-0.4 z"
   id="path20"
   style="fill:#ffffff" />
		<path
   class="st2"
   d="m 203.4,74.7 c -0.3,0.1 -0.7,0.1 -1,0.1 -1,0 -1.8,-0.3 -2.4,-1 -0.6,-0.6 -0.9,-1.6 -0.9,-2.7 0,-1.2 0.3,-2.1 0.9,-2.7 0.6,-0.6 1.4,-1 2.4,-1 0.7,0 1.3,0.1 1.8,0.3 0,-0.1 0.1,-0.2 0.1,-0.4 0,-0.1 0.1,-0.2 0.1,-0.4 -0.3,-0.1 -0.6,-0.2 -0.9,-0.3 -0.3,-0.1 -0.7,-0.1 -1.1,-0.1 -0.7,0 -1.3,0.1 -1.8,0.3 -0.5,0.2 -0.9,0.5 -1.3,0.9 -0.4,0.4 -0.6,0.9 -0.8,1.4 -0.2,0.6 -0.3,1.2 -0.3,1.8 0,0.7 0.1,1.3 0.2,1.8 0.2,0.6 0.4,1 0.8,1.4 0.3,0.4 0.8,0.7 1.3,0.9 0.5,0.2 1.1,0.3 1.8,0.3 0.4,0 0.8,0 1.2,-0.1 0.3,-0.1 0.7,-0.2 1,-0.3 l -0.2,-0.7 c -0.3,0.4 -0.6,0.5 -0.9,0.5 z"
   id="path21"
   style="fill:#ffffff" />
		<path
   class="st2"
   d="m 211.6,70 c -0.2,-0.3 -0.5,-0.5 -0.9,-0.7 -0.4,-0.2 -0.8,-0.2 -1.3,-0.2 -0.5,0 -0.9,0.1 -1.3,0.2 -0.4,0.2 -0.7,0.4 -0.9,0.7 -0.2,0.3 -0.4,0.6 -0.5,1 -0.1,0.4 -0.2,0.8 -0.2,1.3 0,0.5 0.1,0.9 0.2,1.3 0.1,0.4 0.3,0.7 0.5,1 0.2,0.3 0.5,0.5 0.9,0.7 0.4,0.2 0.8,0.2 1.3,0.2 0.5,0 0.9,-0.1 1.3,-0.2 0.4,-0.2 0.7,-0.4 0.9,-0.7 0.2,-0.3 0.4,-0.6 0.5,-1 0.1,-0.4 0.2,-0.8 0.2,-1.3 0,-0.5 -0.1,-0.9 -0.2,-1.3 -0.1,-0.4 -0.3,-0.7 -0.5,-1 z m -0.3,3.4 c -0.1,0.3 -0.2,0.6 -0.4,0.8 -0.2,0.2 -0.4,0.4 -0.6,0.5 -0.3,0.1 -0.6,0.2 -0.9,0.2 -0.4,0 -0.7,-0.1 -0.9,-0.2 -0.3,-0.1 -0.5,-0.3 -0.6,-0.5 -0.2,-0.2 -0.3,-0.5 -0.4,-0.8 -0.1,-0.3 -0.1,-0.7 -0.1,-1 0,-0.4 0,-0.7 0.1,-1 0.1,-0.3 0.2,-0.6 0.4,-0.8 0.2,-0.2 0.4,-0.4 0.6,-0.5 0.3,-0.1 0.6,-0.2 0.9,-0.2 0.4,0 0.7,0.1 0.9,0.2 0.3,0.1 0.5,0.3 0.6,0.5 0.2,0.2 0.3,0.5 0.4,0.8 0.1,0.3 0.1,0.7 0.1,1 0,0.3 0,0.7 -0.1,1 z"
   id="path22"
   style="fill:#ffffff" />
		<path
   class="st2"
   d="m 218.1,69.1 c -0.3,0 -0.5,0 -0.8,0.1 -0.2,0.1 -0.4,0.2 -0.6,0.3 -0.2,0.1 -0.4,0.2 -0.5,0.4 -0.2,0.1 -0.3,0.3 -0.4,0.4 l -0.2,-1.1 h -0.7 v 6.3 h 0.9 v -4.4 c 0.2,-0.3 0.6,-0.6 0.9,-0.9 0.4,-0.2 0.8,-0.3 1.2,-0.3 0.4,0 0.8,0.2 1,0.4 0.3,0.3 0.4,0.7 0.4,1.2 v 4 h 0.9 v -4 c 0,-0.8 -0.2,-1.4 -0.6,-1.8 -0.3,-0.4 -0.8,-0.6 -1.5,-0.6 z"
   id="path23"
   style="fill:#ffffff" />
		<path
   class="st2"
   d="m 225.1,71.9 c -0.4,-0.1 -0.7,-0.3 -1,-0.4 -0.3,-0.2 -0.4,-0.4 -0.4,-0.7 0,-0.3 0.1,-0.5 0.4,-0.7 0.2,-0.2 0.6,-0.3 1.1,-0.3 0.3,0 0.6,0 0.9,0.1 0.3,0.1 0.5,0.1 0.7,0.2 0,-0.1 0.1,-0.2 0.1,-0.3 0,-0.1 0.1,-0.2 0.1,-0.3 -0.3,-0.1 -0.5,-0.2 -0.9,-0.3 -0.3,-0.1 -0.7,-0.1 -1,-0.1 -0.7,0 -1.2,0.1 -1.6,0.4 -0.4,0.3 -0.6,0.7 -0.6,1.2 0,0.3 0.1,0.5 0.2,0.7 0.1,0.2 0.2,0.4 0.4,0.5 0.2,0.1 0.4,0.3 0.6,0.4 0.2,0.1 0.5,0.2 0.7,0.3 0.2,0.1 0.4,0.1 0.6,0.2 0.2,0.1 0.4,0.2 0.5,0.3 0.1,0.1 0.3,0.2 0.3,0.4 0.1,0.1 0.1,0.3 0.1,0.5 0,0.3 -0.1,0.6 -0.4,0.8 -0.2,0.2 -0.6,0.3 -1.2,0.3 -0.3,0 -0.6,0 -0.9,-0.1 -0.3,-0.1 -0.6,-0.1 -0.8,-0.2 0,0.1 -0.1,0.2 -0.1,0.3 0,0.1 -0.1,0.2 -0.1,0.3 0.2,0.1 0.5,0.2 0.9,0.3 0.3,0.1 0.7,0.1 1.1,0.1 0.8,0 1.4,-0.2 1.8,-0.5 0.4,-0.3 0.6,-0.7 0.6,-1.2 0,-0.5 -0.2,-0.9 -0.6,-1.3 -0.3,-0.4 -0.9,-0.7 -1.5,-0.9 z"
   id="path24"
   style="fill:#ffffff" />
		<path
   class="st2"
   d="m 234.2,73.5 c -0.1,0.2 -0.2,0.3 -0.4,0.5 -0.2,0.2 -0.3,0.3 -0.5,0.4 -0.2,0.1 -0.4,0.2 -0.6,0.3 -0.2,0.1 -0.4,0.1 -0.7,0.1 -0.4,0 -0.7,-0.1 -1,-0.4 -0.2,-0.3 -0.4,-0.7 -0.4,-1.3 v -4 h -0.8 v 4 c 0,0.9 0.2,1.5 0.6,1.9 0.4,0.4 0.9,0.6 1.5,0.6 0.3,0 0.6,0 0.8,-0.1 0.2,-0.1 0.5,-0.2 0.7,-0.3 0.2,-0.1 0.4,-0.3 0.5,-0.4 0.1,-0.2 0.3,-0.3 0.4,-0.5 l 0.2,1.2 h 0.7 v -6.3 h -0.9 v 4.3 z"
   id="path25"
   style="fill:#ffffff" />
		<rect
   x="238.2"
   y="66.699997"
   class="st2"
   width="0.89999998"
   height="8.8000002"
   id="rect25"
   style="fill:#ffffff" />
		<path
   class="st2"
   d="m 245.2,74.7 c -0.1,0.1 -0.3,0.1 -0.4,0.2 -0.2,0 -0.3,0.1 -0.5,0.1 -0.3,0 -0.6,-0.1 -0.7,-0.3 -0.1,-0.2 -0.2,-0.5 -0.2,-0.8 V 70 h 2 v -0.7 h -2 v -1.8 h -0.6 l -0.3,1.8 h -1 V 70 h 1 v 3.9 c 0,0.6 0.1,1.1 0.4,1.4 0.3,0.3 0.7,0.4 1.2,0.4 0.3,0 0.6,0 0.8,-0.1 0.2,-0.1 0.4,-0.1 0.6,-0.2 0,-0.1 -0.1,-0.2 -0.1,-0.3 -0.1,-0.2 -0.2,-0.3 -0.2,-0.4 z"
   id="path26"
   style="fill:#ffffff" />
		<rect
   x="247.89999"
   y="69.199997"
   class="st2"
   width="0.89999998"
   height="6.3000002"
   id="rect26"
   style="fill:#ffffff" />
		<path
   class="st2"
   d="m 248.3,66.6 c -0.2,0 -0.4,0.1 -0.5,0.2 -0.1,0.1 -0.2,0.3 -0.2,0.4 0,0.1 0.1,0.3 0.2,0.4 0.1,0.1 0.3,0.2 0.5,0.2 0.2,0 0.4,-0.1 0.5,-0.2 0.1,-0.1 0.2,-0.3 0.2,-0.4 0,-0.1 -0.1,-0.3 -0.2,-0.4 -0.1,-0.2 -0.3,-0.2 -0.5,-0.2 z"
   id="path27"
   style="fill:#ffffff" />
		<path
   class="st2"
   d="m 255.1,69.1 c -0.3,0 -0.5,0 -0.8,0.1 -0.2,0.1 -0.4,0.2 -0.6,0.3 -0.2,0.1 -0.4,0.2 -0.5,0.4 -0.2,0.1 -0.3,0.3 -0.4,0.4 l -0.2,-1.1 h -0.7 v 6.3 h 0.9 v -4.4 c 0.2,-0.3 0.6,-0.6 0.9,-0.9 0.4,-0.2 0.8,-0.3 1.2,-0.3 0.4,0 0.8,0.2 1,0.4 0.3,0.3 0.4,0.7 0.4,1.2 v 4 h 0.9 v -4 c 0,-0.8 -0.2,-1.4 -0.6,-1.8 -0.3,-0.4 -0.8,-0.6 -1.5,-0.6 z"
   id="path28"
   style="fill:#ffffff" />
		<path
   class="st2"
   d="m 264.6,70.3 c -0.1,-0.1 -0.2,-0.3 -0.3,-0.4 -0.1,-0.1 -0.3,-0.3 -0.4,-0.4 -0.2,-0.1 -0.4,-0.2 -0.6,-0.3 -0.2,-0.1 -0.4,-0.1 -0.7,-0.1 -0.4,0 -0.8,0.1 -1.1,0.2 -0.3,0.2 -0.6,0.4 -0.8,0.7 -0.2,0.3 -0.4,0.6 -0.5,1 -0.1,0.4 -0.2,0.8 -0.2,1.3 0,0.5 0.1,1 0.2,1.4 0.1,0.4 0.3,0.7 0.5,1 0.2,0.3 0.5,0.5 0.8,0.6 0.3,0.1 0.7,0.2 1.1,0.2 0.5,0 0.9,-0.1 1.2,-0.4 0.4,-0.2 0.6,-0.5 0.8,-0.9 h 0.1 V 75 c 0,0.5 -0.1,0.8 -0.2,1.1 -0.1,0.3 -0.2,0.5 -0.4,0.7 -0.2,0.2 -0.4,0.3 -0.7,0.4 -0.3,0.1 -0.5,0.1 -0.9,0.1 -0.4,0 -0.7,0 -1,-0.1 -0.3,-0.1 -0.6,-0.2 -0.9,-0.3 l -0.2,0.7 c 0.3,0.1 0.6,0.3 1,0.4 0.4,0.1 0.8,0.2 1.3,0.2 0.4,0 0.8,-0.1 1.2,-0.2 0.4,-0.1 0.7,-0.3 0.9,-0.5 0.3,-0.2 0.4,-0.6 0.6,-1 0.1,-0.4 0.2,-0.9 0.2,-1.4 v -5.9 h -0.7 z m 0,2.1 c 0,0.3 0,0.7 -0.1,0.9 -0.1,0.3 -0.2,0.5 -0.4,0.7 -0.2,0.2 -0.4,0.4 -0.6,0.5 -0.2,0.1 -0.5,0.2 -0.8,0.2 -0.2,0 -0.5,0 -0.7,-0.1 -0.2,-0.1 -0.4,-0.2 -0.6,-0.4 -0.2,-0.2 -0.3,-0.4 -0.4,-0.8 -0.1,-0.3 -0.2,-0.7 -0.2,-1.1 0,-0.4 0,-0.8 0.1,-1.1 0.1,-0.3 0.2,-0.6 0.4,-0.8 0.2,-0.2 0.4,-0.4 0.6,-0.5 0.2,-0.1 0.5,-0.1 0.8,-0.1 0.4,0 0.7,0.1 1.1,0.4 0.3,0.2 0.6,0.5 0.8,0.9 z"
   id="path29"
   style="fill:#ffffff" />
		<path
   class="st2"
   d="m 268.4,75.7 c -0.1,0.5 -0.1,0.9 -0.2,1.4 h 0.5 c 0.1,-0.5 0.3,-0.9 0.4,-1.4 0.2,-0.5 0.3,-0.9 0.4,-1.4 h -1 c 0.1,0.5 0,1 -0.1,1.4 z"
   id="path30"
   style="fill:#ffffff" />
		<polygon
   class="st2"
   points="282.2,74.7 278,74.7 278,66.7 277.1,66.7 277.1,75.5 282.2,75.5 "
   id="polygon30"
   style="fill:#ffffff" />
		<polygon
   class="st2"
   points="289.9,74.7 285.7,74.7 285.7,66.7 284.8,66.7 284.8,75.5 289.9,75.5 "
   id="polygon31"
   style="fill:#ffffff" />
		<path
   class="st2"
   d="m 297.8,74.4 c -0.3,0.1 -0.6,0.2 -0.9,0.3 -0.3,0.1 -0.7,0.1 -1,0.1 -1,0 -1.8,-0.3 -2.4,-1 -0.6,-0.6 -0.9,-1.6 -0.9,-2.7 0,-1.2 0.3,-2.1 0.9,-2.7 0.6,-0.6 1.4,-1 2.4,-1 0.7,0 1.3,0.1 1.8,0.3 0,-0.1 0.1,-0.2 0.1,-0.4 0,-0.1 0.1,-0.2 0.1,-0.4 -0.3,-0.1 -0.6,-0.2 -0.9,-0.3 -0.3,-0.1 -0.7,-0.1 -1.1,-0.1 -0.7,0 -1.3,0.1 -1.8,0.3 -0.5,0.2 -0.9,0.5 -1.3,0.9 -0.4,0.4 -0.6,0.9 -0.8,1.4 -0.2,0.6 -0.3,1.2 -0.3,1.8 0,0.7 0.1,1.3 0.2,1.8 0.2,0.6 0.4,1 0.8,1.4 0.3,0.4 0.8,0.7 1.3,0.9 0.5,0.2 1.1,0.3 1.8,0.3 0.4,0 0.8,0 1.2,-0.1 0.3,-0.1 0.7,-0.2 1,-0.3 z"
   id="path31"
   style="display:inline;fill:#ffffff" />
	</g>
	<g
   id="g38">
		<rect
   x="110.9"
   y="78.9"
   class="st3"
   width="187.4"
   height="1.9"
   id="rect31" />
		<rect
   x="110.9"
   y="63.4"
   class="st3"
   width="187.4"
   height="1.9"
   id="rect32" />
		<polygon
   class="st3"
   points="25.6,99.5 76.9,99.5 84.9,94.9 17.6,94.9   "
   id="polygon32" />
		<path
   class="st3"
   d="M4.8,85.6h92.9c1-1.4,1.8-3,2.3-4.6H2.5C3,82.6,3.8,84.2,4.8,85.6z"
   id="path32" />
		<path
   class="st3"
   d="M1.8,76c0,0.9,0.1,1.8,0.2,2.7h98.6c0.1-0.9,0.2-1.8,0.2-2.7v-1.9h-99V76z"
   id="path33" />
		<path
   class="st3"
   d="M42.9,109.4c5.2,3,11.6,3,16.7,0l1.3-0.7H41.6L42.9,109.4z"
   id="path34" />
		<path
   class="st3"
   d="M10.1,90.5l3.5,2h75.3l3.5-2c1.3-0.7,2.4-1.6,3.4-2.6H6.7C7.7,88.9,8.9,89.8,10.1,90.5z"
   id="path35" />
		<polygon
   class="st3"
   points="37.6,106.4 64.9,106.4 72.9,101.8 29.6,101.8   "
   id="polygon35" />
		<polygon
   class="st3"
   points="48,68.7 47,69.7 45.2,71.6 48,69.7 49.4,68.7 62.1,60.1 67.8,35.4 72.4,31.3 88.7,29.4 70.2,29.4     65.7,32.9 63.1,32.9 58.4,58.1   "
   id="polygon36" />
		<polygon
   class="st3"
   points="21.8,66.7 29.8,60.1 40.2,57.1 44.1,44.4 59.2,42.3 42.5,42.3 38.1,55.2 28.5,58   "
   id="polygon37" />
		<polygon
   class="st3"
   points="24.1,51.5 37.6,50 22.8,50 15.8,56.3 8.7,59.5 16.8,57.5   "
   id="polygon38" />
	</g>
</g>
</svg>
