<?xml version="1.0" encoding="utf-8"?>
<!-- Generator: Adobe Illustrator 25.1.0, SVG Export Plug-In . SVG Version: 6.00 Build 0)  -->
<svg version="1.1" id="Layer_1" xmlns="http://www.w3.org/2000/svg" xmlns:xlink="http://www.w3.org/1999/xlink" x="0px" y="0px"
	 viewBox="0 0 300 114.2" style="enable-background:new 0 0 300 114.2;" xml:space="preserve">
<style type="text/css">
	.st0{fill:url(#SVGID_1_);}
	.st1{fill:#1D3666;}
	.st2{fill:#1C3564;}
	.st3{fill:#F16A24;}
</style>
<g>
	<linearGradient id="SVGID_1_" gradientUnits="userSpaceOnUse" x1="4.4432" y1="37.0681" x2="97.3996" y2="37.0681">
		<stop  offset="0" style="stop-color:#1C3564"/>
		<stop  offset="1" style="stop-color:#01A7E0"/>
	</linearGradient>
	<path class="st0" d="M99.6,32.2L99.6,32.2L99.6,32.2c-0.1-0.4-0.3-0.7-0.5-1c-0.1-0.2-0.2-0.4-0.3-0.6c-0.2-0.4-0.5-0.9-0.8-1.3
		c-0.2-0.3-0.4-0.6-0.6-0.9c-0.2-0.2-0.3-0.5-0.5-0.7c-0.3-0.3-0.5-0.7-0.8-1c-0.1-0.1-0.2-0.3-0.4-0.4c-0.4-0.4-0.9-0.8-1.4-1.2
		c-0.1-0.1-0.3-0.2-0.4-0.3c-0.5-0.4-1.1-0.8-1.6-1.1L59.6,4.8c-0.6-0.4-1.3-0.7-2-1c-1.4-0.6-2.8-0.9-4.2-1.1
		c-0.7-0.1-1.4-0.1-2.2-0.1c0,0,0,0,0,0c0,0,0,0,0,0c-0.7,0-1.4,0-2.2,0.1c-1.4,0.2-2.9,0.6-4.2,1.1c-0.7,0.3-1.3,0.6-2,1L10.1,23.7
		C9.6,24,9,24.4,8.5,24.8c-0.1,0.1-0.3,0.2-0.4,0.3c-0.5,0.4-0.9,0.8-1.4,1.2c-0.1,0.1-0.2,0.3-0.4,0.4c-0.3,0.3-0.6,0.6-0.8,1
		c-0.2,0.2-0.4,0.4-0.5,0.7c-0.2,0.3-0.4,0.6-0.6,0.9c-0.3,0.4-0.5,0.9-0.8,1.3c-0.1,0.2-0.2,0.4-0.3,0.6c-0.2,0.3-0.3,0.7-0.5,1
		l0,0h0c-0.7,1.9-1.1,3.9-1.1,6v21.3h6.9l7.1-3.1l7-6.4h14.8l-1.2,3.5l-9.2,2.7l-6.5,8.4H1.8v2.2h20l6.7-8.7l9.6-2.8l4.4-12.9h16.7
		l-2.7,14.8L45,68.7l-0.7,0.7H1.8v0.3v1.9h43.4l1.8-1.9l1-1l10.4-10.6l4.7-25.2h2.6l4.5-3.5h18.4l4.1,26.9l8,6.2V38.2
		C100.8,36.1,100.4,34.1,99.6,32.2z"/>
	<g>
		<path class="st1" d="M123.8,52.1c-0.4-0.7-0.9-1.3-1.5-1.7c-0.6-0.5-1.3-0.9-2-1.2c-0.7-0.3-1.4-0.6-2.1-0.8
			c-0.5-0.2-1.1-0.4-1.6-0.6c-0.5-0.2-0.9-0.4-1.3-0.7c-0.4-0.3-0.7-0.6-0.9-0.9c-0.2-0.4-0.3-0.8-0.3-1.3c0-0.8,0.3-1.4,1-1.9
			c0.6-0.5,1.6-0.8,3-0.8c0.8,0,1.5,0.1,2.3,0.2c0.8,0.2,1.5,0.4,2.2,0.7l0.8-2.5c-0.8-0.4-1.6-0.7-2.5-0.9c-0.9-0.2-1.9-0.3-3-0.3
			c-1.2,0-2.3,0.1-3.2,0.4c-0.9,0.3-1.6,0.7-2.2,1.2c-0.6,0.5-1,1.1-1.3,1.8c-0.3,0.7-0.4,1.4-0.4,2.2c0,1,0.2,1.8,0.6,2.5
			c0.4,0.7,0.9,1.2,1.4,1.7c0.6,0.5,1.2,0.8,1.9,1.1c0.7,0.3,1.3,0.5,2,0.7c0.6,0.2,1.1,0.4,1.7,0.6c0.5,0.2,1,0.4,1.4,0.7
			c0.4,0.3,0.7,0.6,1,1c0.3,0.4,0.4,0.8,0.4,1.3c0,1.1-0.4,1.8-1.3,2.3c-0.9,0.5-1.9,0.7-3.2,0.7c-1,0-1.9-0.1-2.8-0.3
			c-0.9-0.2-1.6-0.5-2.3-0.8l-0.8,2.6c0.7,0.4,1.6,0.7,2.6,1c1,0.2,2.1,0.4,3.4,0.4c1.1,0,2.1-0.1,3-0.3c0.9-0.2,1.7-0.6,2.4-1.1
			c0.7-0.5,1.2-1.1,1.6-1.8c0.4-0.7,0.6-1.6,0.6-2.6C124.4,53.6,124.2,52.8,123.8,52.1z"/>
		<path class="st1" d="M146.2,49.9c-0.1,0.6-0.3,1.2-0.4,1.8c-0.1,0.6-0.2,1.1-0.3,1.7c-0.1,0.6-0.1,1.1-0.2,1.7
			c-0.1,0.6-0.1,1.2-0.1,1.8h-0.1c-0.2-1.3-0.3-2.5-0.6-3.6c-0.2-1.1-0.5-2.1-0.8-3.1l-3.2-10.6h-3.3L134,50.3c-0.3,1-0.6,2-0.8,3.1
			c-0.2,1.1-0.4,2.3-0.6,3.6h-0.1c0-0.6-0.1-1.3-0.1-1.8c-0.1-0.6-0.1-1.2-0.2-1.7c-0.1-0.6-0.2-1.1-0.3-1.7
			c-0.1-0.6-0.2-1.2-0.4-1.8l-2.2-10.2h-3.3l4.7,20.4h3.3l3.5-11.9c0.3-0.8,0.5-1.7,0.7-2.7c0.2-0.9,0.4-1.9,0.5-2.9h0.1
			c0.1,1,0.3,2,0.5,2.9c0.2,0.9,0.4,1.8,0.7,2.7l3.5,11.9h3.3l4.7-20.4h-3.3L146.2,49.9z"/>
		<polygon class="st1" points="167.7,57.2 157.9,57.2 157.9,51 166.9,51 166.9,48.2 157.9,48.2 157.9,42.6 167.5,42.6 167.5,39.7 
			154.7,39.7 154.7,60.1 167.7,60.1 		"/>
		<polygon class="st1" points="184.3,57.2 174.5,57.2 174.5,51 183.5,51 183.5,48.2 174.5,48.2 174.5,42.6 184.1,42.6 184.1,39.7 
			171.3,39.7 171.3,60.1 184.3,60.1 		"/>
		<polygon class="st1" points="201.1,39.7 185.8,39.7 185.8,42.6 191.8,42.6 191.8,60.1 195.1,60.1 195.1,42.6 201.1,42.6 		"/>
		<path class="st1" d="M215,42.6c0.1,1,0.3,2,0.5,2.9c0.2,0.9,0.4,1.8,0.7,2.7l3.5,11.9h3.3l4.7-20.4h-3.3l-2.2,10.2
			c-0.1,0.6-0.3,1.2-0.4,1.8c-0.1,0.6-0.2,1.1-0.3,1.7c-0.1,0.6-0.1,1.1-0.2,1.7c-0.1,0.6-0.1,1.2-0.1,1.8h-0.1
			c-0.2-1.3-0.3-2.5-0.6-3.6c-0.2-1.1-0.5-2.1-0.8-3.1l-3.2-10.6h-3.3L210,50.3c-0.3,1-0.6,2-0.8,3.1c-0.2,1.1-0.4,2.3-0.6,3.6h-0.1
			c0-0.6-0.1-1.3-0.1-1.8c-0.1-0.6-0.1-1.2-0.2-1.7c-0.1-0.6-0.2-1.1-0.3-1.7c-0.1-0.6-0.2-1.2-0.4-1.8l-2.2-10.2h-3.3l4.7,20.4h3.3
			l3.5-11.9c0.3-0.8,0.5-1.7,0.7-2.7C214.6,44.6,214.8,43.6,215,42.6L215,42.6z"/>
		<polygon class="st1" points="253.2,60.1 256.4,60.1 256.4,42.6 262.4,42.6 262.4,39.7 247.2,39.7 247.2,42.6 253.2,42.6 		"/>
		<polygon class="st1" points="277.9,57.2 268.1,57.2 268.1,51 277.1,51 277.1,48.2 268.1,48.2 268.1,42.6 277.7,42.6 277.7,39.7 
			264.9,39.7 264.9,60.1 277.9,60.1 		"/>
		<path class="st1" d="M284.8,52.3h3.5l4.5,7.8h3.5l-4.8-8.3c1.4-0.4,2.4-1.2,3.2-2.2c0.8-1,1.2-2.3,1.2-3.7c0-0.9-0.2-1.7-0.5-2.4
			c-0.3-0.8-0.8-1.4-1.4-2c-0.6-0.6-1.3-1-2.2-1.3c-0.9-0.3-1.9-0.5-3-0.5h-7.5v20.4h3.3V52.3z M284.8,42.6h4.2
			c1.3,0,2.2,0.3,2.8,0.9c0.6,0.6,0.9,1.4,0.9,2.4c0,1-0.3,1.9-1,2.5c-0.7,0.6-1.6,0.9-2.8,0.9h-4.1V42.6z"/>
		<path class="st1" d="M236.6,32.9l-9.8,27.2h3.4c0.1-0.3,6.4-18.8,7.7-22.6l0.3-1.2h0.1l8.2,23.6l0.2,0.4h3.4l-10.1-27.4H236.6z"/>
		<path class="st2" d="M113.5,66.7h-2.4v8.8h2.4c1.4,0,2.5-0.4,3.2-1.1c0.7-0.7,1.1-1.8,1.1-3.3c0-1.4-0.4-2.5-1.1-3.3
			C116,67.1,114.9,66.7,113.5,66.7z M116,73.9c-0.6,0.6-1.4,0.8-2.6,0.8H112v-7.1h1.5c0.6,0,1,0.1,1.5,0.2c0.4,0.1,0.8,0.3,1.1,0.6
			c0.3,0.3,0.5,0.7,0.7,1.1s0.2,1,0.2,1.6C116.9,72.4,116.6,73.3,116,73.9z"/>
		<path class="st2" d="M121,66.6c-0.2,0-0.4,0.1-0.5,0.2c-0.1,0.1-0.2,0.3-0.2,0.4s0.1,0.3,0.2,0.4c0.1,0.1,0.3,0.2,0.5,0.2
			c0.2,0,0.4-0.1,0.5-0.2c0.1-0.1,0.2-0.3,0.2-0.4s-0.1-0.3-0.2-0.4C121.4,66.6,121.2,66.6,121,66.6z"/>
		<rect x="120.5" y="69.2" class="st2" width="0.9" height="6.3"/>
		<path class="st2" d="M128.9,70.3c-0.1-0.1-0.2-0.3-0.3-0.4c-0.1-0.1-0.3-0.3-0.4-0.4c-0.2-0.1-0.4-0.2-0.6-0.3
			c-0.2-0.1-0.4-0.1-0.7-0.1c-0.4,0-0.8,0.1-1.1,0.2c-0.3,0.2-0.6,0.4-0.8,0.7c-0.2,0.3-0.4,0.6-0.5,1c-0.1,0.4-0.2,0.8-0.2,1.3
			c0,0.5,0.1,1,0.2,1.4c0.1,0.4,0.3,0.7,0.5,1c0.2,0.3,0.5,0.5,0.8,0.6c0.3,0.1,0.7,0.2,1.1,0.2c0.5,0,0.9-0.1,1.2-0.4
			c0.4-0.2,0.6-0.5,0.8-0.9l0.1,0v0.8c0,0.5-0.1,0.8-0.2,1.1c-0.1,0.3-0.2,0.5-0.4,0.7c-0.2,0.2-0.4,0.3-0.7,0.4
			c-0.3,0.1-0.5,0.1-0.9,0.1c-0.4,0-0.7,0-1-0.1c-0.3-0.1-0.6-0.2-0.9-0.3l-0.2,0.7c0.3,0.1,0.6,0.3,1,0.4c0.4,0.1,0.8,0.2,1.3,0.2
			c0.4,0,0.8-0.1,1.2-0.2c0.4-0.1,0.7-0.3,0.9-0.5c0.3-0.2,0.4-0.6,0.6-1c0.1-0.4,0.2-0.9,0.2-1.4v-5.9h-0.7L128.9,70.3z
			 M128.9,72.4c0,0.3,0,0.7-0.1,0.9c-0.1,0.3-0.2,0.5-0.4,0.7c-0.2,0.2-0.4,0.4-0.6,0.5c-0.2,0.1-0.5,0.2-0.8,0.2
			c-0.2,0-0.5,0-0.7-0.1c-0.2-0.1-0.4-0.2-0.6-0.4c-0.2-0.2-0.3-0.4-0.4-0.8c-0.1-0.3-0.2-0.7-0.2-1.1c0-0.4,0-0.8,0.1-1.1
			c0.1-0.3,0.2-0.6,0.4-0.8c0.2-0.2,0.4-0.4,0.6-0.5c0.2-0.1,0.5-0.1,0.8-0.1c0.4,0,0.7,0.1,1.1,0.4c0.3,0.2,0.6,0.5,0.8,0.9V72.4z"
			/>
		<rect x="132.9" y="69.2" class="st2" width="0.9" height="6.3"/>
		<path class="st2" d="M133.3,66.6c-0.2,0-0.4,0.1-0.5,0.2c-0.1,0.1-0.2,0.3-0.2,0.4s0.1,0.3,0.2,0.4c0.1,0.1,0.3,0.2,0.5,0.2
			c0.2,0,0.4-0.1,0.5-0.2c0.1-0.1,0.2-0.3,0.2-0.4s-0.1-0.3-0.2-0.4C133.7,66.6,133.5,66.6,133.3,66.6z"/>
		<path class="st2" d="M139.9,74.7c-0.1,0.1-0.3,0.1-0.4,0.2c-0.2,0-0.3,0.1-0.5,0.1c-0.3,0-0.6-0.1-0.7-0.3
			c-0.1-0.2-0.2-0.5-0.2-0.8v-3.9h2v-0.7h-2v-1.8h-0.6l-0.3,1.8h-1v0.7h1v3.9c0,0.6,0.1,1.1,0.4,1.4c0.3,0.3,0.7,0.4,1.2,0.4
			c0.3,0,0.6,0,0.8-0.1c0.2-0.1,0.4-0.1,0.6-0.2c0-0.1-0.1-0.2-0.1-0.3C140,74.9,139.9,74.8,139.9,74.7z"/>
		<path class="st2" d="M144.7,69.1c-0.5,0-0.9,0.1-1.3,0.2c-0.4,0.1-0.7,0.2-0.9,0.4c0,0.1,0.1,0.2,0.1,0.3c0,0.1,0.1,0.2,0.1,0.3
			c0.3-0.1,0.6-0.2,0.9-0.3c0.3-0.1,0.7-0.1,1.1-0.1c0.5,0,0.9,0.1,1.1,0.4c0.3,0.2,0.4,0.6,0.4,1.2v0.3h-1.4c-0.9,0-1.5,0.2-2,0.5
			c-0.5,0.3-0.7,0.9-0.7,1.6c0,0.3,0,0.6,0.1,0.8c0.1,0.2,0.2,0.4,0.4,0.6c0.2,0.2,0.4,0.3,0.6,0.4c0.2,0.1,0.5,0.1,0.7,0.1
			c0.3,0,0.6,0,0.8-0.1c0.2-0.1,0.4-0.2,0.6-0.3c0.2-0.1,0.3-0.3,0.5-0.4c0.1-0.2,0.2-0.3,0.4-0.5l0.2,1.2h0.7v-4.1
			c0-0.7-0.2-1.3-0.6-1.7C146.1,69.3,145.5,69.1,144.7,69.1z M146.2,72.9c0,0.2,0,0.5-0.1,0.7c-0.1,0.2-0.2,0.5-0.4,0.7
			c-0.2,0.2-0.4,0.3-0.7,0.5c-0.3,0.1-0.6,0.2-0.9,0.2c-0.3,0-0.6-0.1-0.9-0.3c-0.2-0.2-0.4-0.5-0.4-0.9c0-0.5,0.2-0.8,0.5-1.1
			c0.3-0.3,0.8-0.4,1.4-0.4h1.4V72.9z"/>
		<rect x="150.2" y="66.7" class="st2" width="0.9" height="8.8"/>
		<path class="st2" d="M162.1,66.7h-0.9l-3.3,8.8h0.9l0.9-2.4h3.9l0.9,2.4h0.9c-0.5-1.5-1.1-2.9-1.6-4.4
			C163.2,69.7,162.6,68.2,162.1,66.7z M160,72.3l1-2.7c0.1-0.3,0.2-0.6,0.3-1c0.1-0.4,0.2-0.7,0.3-1c0.1,0.3,0.2,0.6,0.3,1
			c0.1,0.3,0.2,0.7,0.3,1l1,2.7H160z"/>
		<path class="st2" d="M169.6,71.9c-0.4-0.1-0.7-0.3-1-0.4c-0.3-0.2-0.4-0.4-0.4-0.7c0-0.3,0.1-0.5,0.4-0.7c0.2-0.2,0.6-0.3,1.1-0.3
			c0.3,0,0.6,0,0.9,0.1c0.3,0.1,0.5,0.1,0.7,0.2c0-0.1,0.1-0.2,0.1-0.3c0-0.1,0.1-0.2,0.1-0.3c-0.3-0.1-0.5-0.2-0.9-0.3
			c-0.3-0.1-0.7-0.1-1-0.1c-0.7,0-1.2,0.1-1.6,0.4c-0.4,0.3-0.6,0.7-0.6,1.2c0,0.3,0.1,0.5,0.2,0.7c0.1,0.2,0.2,0.4,0.4,0.5
			c0.2,0.1,0.4,0.3,0.6,0.4c0.2,0.1,0.5,0.2,0.7,0.3c0.2,0.1,0.4,0.1,0.6,0.2c0.2,0.1,0.4,0.2,0.5,0.3c0.1,0.1,0.3,0.2,0.3,0.4
			c0.1,0.1,0.1,0.3,0.1,0.5c0,0.3-0.1,0.6-0.4,0.8c-0.2,0.2-0.6,0.3-1.2,0.3c-0.3,0-0.6,0-0.9-0.1c-0.3-0.1-0.6-0.1-0.8-0.2
			c0,0.1-0.1,0.2-0.1,0.3c0,0.1-0.1,0.2-0.1,0.3c0.2,0.1,0.5,0.2,0.9,0.3c0.3,0.1,0.7,0.1,1.1,0.1c0.8,0,1.4-0.2,1.8-0.5
			c0.4-0.3,0.6-0.7,0.6-1.2c0-0.5-0.2-0.9-0.6-1.3C170.8,72.4,170.2,72.1,169.6,71.9z"/>
		<path class="st2" d="M176.2,71.9c-0.4-0.1-0.7-0.3-1-0.4c-0.3-0.2-0.4-0.4-0.4-0.7c0-0.3,0.1-0.5,0.4-0.7c0.2-0.2,0.6-0.3,1.1-0.3
			c0.3,0,0.6,0,0.9,0.1c0.3,0.1,0.5,0.1,0.7,0.2c0-0.1,0.1-0.2,0.1-0.3c0-0.1,0.1-0.2,0.1-0.3c-0.3-0.1-0.5-0.2-0.9-0.3
			c-0.3-0.1-0.7-0.1-1-0.1c-0.7,0-1.2,0.1-1.6,0.4c-0.4,0.3-0.6,0.7-0.6,1.2c0,0.3,0.1,0.5,0.2,0.7c0.1,0.2,0.2,0.4,0.4,0.5
			c0.2,0.1,0.4,0.3,0.6,0.4c0.2,0.1,0.5,0.2,0.7,0.3c0.2,0.1,0.4,0.1,0.6,0.2s0.4,0.2,0.5,0.3c0.1,0.1,0.3,0.2,0.3,0.4
			c0.1,0.1,0.1,0.3,0.1,0.5c0,0.3-0.1,0.6-0.4,0.8c-0.2,0.2-0.6,0.3-1.2,0.3c-0.3,0-0.6,0-0.9-0.1c-0.3-0.1-0.6-0.1-0.8-0.2
			c0,0.1-0.1,0.2-0.1,0.3c0,0.1-0.1,0.2-0.1,0.3c0.2,0.1,0.5,0.2,0.9,0.3c0.3,0.1,0.7,0.1,1.1,0.1c0.8,0,1.4-0.2,1.8-0.5
			c0.4-0.3,0.6-0.7,0.6-1.2c0-0.5-0.2-0.9-0.6-1.3C177.5,72.4,176.9,72.1,176.2,71.9z"/>
		<path class="st2" d="M183.5,69.1c-0.5,0-0.9,0.1-1.3,0.2c-0.4,0.2-0.6,0.4-0.9,0.7c-0.2,0.3-0.4,0.6-0.5,1
			c-0.1,0.4-0.2,0.8-0.2,1.3c0,1,0.3,1.8,0.7,2.4c0.5,0.6,1.3,0.9,2.3,0.9c0.4,0,0.7,0,1.1-0.1c0.3-0.1,0.6-0.2,0.9-0.3l-0.2-0.6
			c-0.2,0.1-0.5,0.2-0.8,0.3c-0.3,0.1-0.6,0.1-0.9,0.1c-0.7,0-1.2-0.2-1.6-0.6c-0.4-0.4-0.6-0.9-0.6-1.6h4.3c0-0.2,0.1-0.3,0.1-0.5
			c0-0.2,0-0.4,0-0.6c0-0.8-0.2-1.4-0.6-1.9C184.9,69.3,184.3,69.1,183.5,69.1z M185.2,71.9c0,0.1,0,0.2,0,0.2h-3.6
			c0-0.3,0.1-0.7,0.1-1c0.1-0.3,0.2-0.5,0.4-0.8c0.2-0.2,0.4-0.4,0.6-0.5c0.2-0.1,0.5-0.2,0.9-0.2c0.6,0,1,0.2,1.3,0.5
			c0.3,0.3,0.4,0.8,0.4,1.4C185.2,71.7,185.2,71.8,185.2,71.9z"/>
		<path class="st2" d="M191.6,74.7c-0.1,0.1-0.3,0.1-0.4,0.2c-0.2,0-0.3,0.1-0.5,0.1c-0.3,0-0.6-0.1-0.7-0.3
			c-0.1-0.2-0.2-0.5-0.2-0.8v-3.9h2v-0.7h-2v-1.8h-0.6l-0.3,1.8h-1v0.7h1v3.9c0,0.6,0.1,1.1,0.4,1.4c0.3,0.3,0.7,0.4,1.2,0.4
			c0.3,0,0.6,0,0.8-0.1c0.2-0.1,0.4-0.1,0.6-0.2c0-0.1-0.1-0.2-0.1-0.3C191.7,74.9,191.7,74.8,191.6,74.7z"/>
		<path class="st2" d="M203.4,74.7c-0.3,0.1-0.7,0.1-1,0.1c-1,0-1.8-0.3-2.4-1c-0.6-0.6-0.9-1.6-0.9-2.7c0-1.2,0.3-2.1,0.9-2.7
			c0.6-0.6,1.4-1,2.4-1c0.7,0,1.3,0.1,1.8,0.3c0-0.1,0.1-0.2,0.1-0.4c0-0.1,0.1-0.2,0.1-0.4c-0.3-0.1-0.6-0.2-0.9-0.3
			c-0.3-0.1-0.7-0.1-1.1-0.1c-0.7,0-1.3,0.1-1.8,0.3c-0.5,0.2-0.9,0.5-1.3,0.9c-0.4,0.4-0.6,0.9-0.8,1.4c-0.2,0.6-0.3,1.2-0.3,1.8
			c0,0.7,0.1,1.3,0.2,1.8c0.2,0.6,0.4,1,0.8,1.4c0.3,0.4,0.8,0.7,1.3,0.9c0.5,0.2,1.1,0.3,1.8,0.3c0.4,0,0.8,0,1.2-0.1
			c0.3-0.1,0.7-0.2,1-0.3l-0.2-0.7C204,74.6,203.7,74.7,203.4,74.7z"/>
		<path class="st2" d="M211.6,70c-0.2-0.3-0.5-0.5-0.9-0.7c-0.4-0.2-0.8-0.2-1.3-0.2c-0.5,0-0.9,0.1-1.3,0.2
			c-0.4,0.2-0.7,0.4-0.9,0.7c-0.2,0.3-0.4,0.6-0.5,1c-0.1,0.4-0.2,0.8-0.2,1.3c0,0.5,0.1,0.9,0.2,1.3c0.1,0.4,0.3,0.7,0.5,1
			c0.2,0.3,0.5,0.5,0.9,0.7c0.4,0.2,0.8,0.2,1.3,0.2c0.5,0,0.9-0.1,1.3-0.2c0.4-0.2,0.7-0.4,0.9-0.7c0.2-0.3,0.4-0.6,0.5-1
			c0.1-0.4,0.2-0.8,0.2-1.3c0-0.5-0.1-0.9-0.2-1.3S211.8,70.3,211.6,70z M211.3,73.4c-0.1,0.3-0.2,0.6-0.4,0.8
			c-0.2,0.2-0.4,0.4-0.6,0.5c-0.3,0.1-0.6,0.2-0.9,0.2c-0.4,0-0.7-0.1-0.9-0.2c-0.3-0.1-0.5-0.3-0.6-0.5c-0.2-0.2-0.3-0.5-0.4-0.8
			c-0.1-0.3-0.1-0.7-0.1-1c0-0.4,0-0.7,0.1-1c0.1-0.3,0.2-0.6,0.4-0.8c0.2-0.2,0.4-0.4,0.6-0.5c0.3-0.1,0.6-0.2,0.9-0.2
			c0.4,0,0.7,0.1,0.9,0.2c0.3,0.1,0.5,0.3,0.6,0.5c0.2,0.2,0.3,0.5,0.4,0.8c0.1,0.3,0.1,0.7,0.1,1C211.4,72.7,211.4,73.1,211.3,73.4
			z"/>
		<path class="st2" d="M218.1,69.1c-0.3,0-0.5,0-0.8,0.1c-0.2,0.1-0.4,0.2-0.6,0.3c-0.2,0.1-0.4,0.2-0.5,0.4
			c-0.2,0.1-0.3,0.3-0.4,0.4l-0.2-1.1h-0.7v6.3h0.9v-4.4c0.2-0.3,0.6-0.6,0.9-0.9c0.4-0.2,0.8-0.3,1.2-0.3c0.4,0,0.8,0.2,1,0.4
			c0.3,0.3,0.4,0.7,0.4,1.2v4h0.9v-4c0-0.8-0.2-1.4-0.6-1.8C219.3,69.3,218.8,69.1,218.1,69.1z"/>
		<path class="st2" d="M225.1,71.9c-0.4-0.1-0.7-0.3-1-0.4c-0.3-0.2-0.4-0.4-0.4-0.7c0-0.3,0.1-0.5,0.4-0.7c0.2-0.2,0.6-0.3,1.1-0.3
			c0.3,0,0.6,0,0.9,0.1c0.3,0.1,0.5,0.1,0.7,0.2c0-0.1,0.1-0.2,0.1-0.3c0-0.1,0.1-0.2,0.1-0.3c-0.3-0.1-0.5-0.2-0.9-0.3
			c-0.3-0.1-0.7-0.1-1-0.1c-0.7,0-1.2,0.1-1.6,0.4c-0.4,0.3-0.6,0.7-0.6,1.2c0,0.3,0.1,0.5,0.2,0.7c0.1,0.2,0.2,0.4,0.4,0.5
			c0.2,0.1,0.4,0.3,0.6,0.4c0.2,0.1,0.5,0.2,0.7,0.3c0.2,0.1,0.4,0.1,0.6,0.2c0.2,0.1,0.4,0.2,0.5,0.3c0.1,0.1,0.3,0.2,0.3,0.4
			c0.1,0.1,0.1,0.3,0.1,0.5c0,0.3-0.1,0.6-0.4,0.8c-0.2,0.2-0.6,0.3-1.2,0.3c-0.3,0-0.6,0-0.9-0.1c-0.3-0.1-0.6-0.1-0.8-0.2
			c0,0.1-0.1,0.2-0.1,0.3c0,0.1-0.1,0.2-0.1,0.3c0.2,0.1,0.5,0.2,0.9,0.3c0.3,0.1,0.7,0.1,1.1,0.1c0.8,0,1.4-0.2,1.8-0.5
			c0.4-0.3,0.6-0.7,0.6-1.2c0-0.5-0.2-0.9-0.6-1.3C226.3,72.4,225.7,72.1,225.1,71.9z"/>
		<path class="st2" d="M234.2,73.5c-0.1,0.2-0.2,0.3-0.4,0.5c-0.2,0.2-0.3,0.3-0.5,0.4c-0.2,0.1-0.4,0.2-0.6,0.3
			c-0.2,0.1-0.4,0.1-0.7,0.1c-0.4,0-0.7-0.1-1-0.4c-0.2-0.3-0.4-0.7-0.4-1.3v-4h-0.8v4c0,0.9,0.2,1.5,0.6,1.9
			c0.4,0.4,0.9,0.6,1.5,0.6c0.3,0,0.6,0,0.8-0.1c0.2-0.1,0.5-0.2,0.7-0.3c0.2-0.1,0.4-0.3,0.5-0.4c0.1-0.2,0.3-0.3,0.4-0.5l0.2,1.2
			h0.7v-6.3h-0.9V73.5z"/>
		<rect x="238.2" y="66.7" class="st2" width="0.9" height="8.8"/>
		<path class="st2" d="M245.2,74.7c-0.1,0.1-0.3,0.1-0.4,0.2c-0.2,0-0.3,0.1-0.5,0.1c-0.3,0-0.6-0.1-0.7-0.3
			c-0.1-0.2-0.2-0.5-0.2-0.8v-3.9h2v-0.7h-2v-1.8h-0.6l-0.3,1.8h-1v0.7h1v3.9c0,0.6,0.1,1.1,0.4,1.4c0.3,0.3,0.7,0.4,1.2,0.4
			c0.3,0,0.6,0,0.8-0.1c0.2-0.1,0.4-0.1,0.6-0.2c0-0.1-0.1-0.2-0.1-0.3C245.3,74.9,245.2,74.8,245.2,74.7z"/>
		<rect x="247.9" y="69.2" class="st2" width="0.9" height="6.3"/>
		<path class="st2" d="M248.3,66.6c-0.2,0-0.4,0.1-0.5,0.2c-0.1,0.1-0.2,0.3-0.2,0.4s0.1,0.3,0.2,0.4c0.1,0.1,0.3,0.2,0.5,0.2
			c0.2,0,0.4-0.1,0.5-0.2c0.1-0.1,0.2-0.3,0.2-0.4s-0.1-0.3-0.2-0.4C248.7,66.6,248.5,66.6,248.3,66.6z"/>
		<path class="st2" d="M255.1,69.1c-0.3,0-0.5,0-0.8,0.1c-0.2,0.1-0.4,0.2-0.6,0.3c-0.2,0.1-0.4,0.2-0.5,0.4
			c-0.2,0.1-0.3,0.3-0.4,0.4l-0.2-1.1h-0.7v6.3h0.9v-4.4c0.2-0.3,0.6-0.6,0.9-0.9c0.4-0.2,0.8-0.3,1.2-0.3c0.4,0,0.8,0.2,1,0.4
			c0.3,0.3,0.4,0.7,0.4,1.2v4h0.9v-4c0-0.8-0.2-1.4-0.6-1.8C256.3,69.3,255.8,69.1,255.1,69.1z"/>
		<path class="st2" d="M264.6,70.3c-0.1-0.1-0.2-0.3-0.3-0.4c-0.1-0.1-0.3-0.3-0.4-0.4c-0.2-0.1-0.4-0.2-0.6-0.3
			c-0.2-0.1-0.4-0.1-0.7-0.1c-0.4,0-0.8,0.1-1.1,0.2c-0.3,0.2-0.6,0.4-0.8,0.7c-0.2,0.3-0.4,0.6-0.5,1c-0.1,0.4-0.2,0.8-0.2,1.3
			c0,0.5,0.1,1,0.2,1.4c0.1,0.4,0.3,0.7,0.5,1c0.2,0.3,0.5,0.5,0.8,0.6c0.3,0.1,0.7,0.2,1.1,0.2c0.5,0,0.9-0.1,1.2-0.4
			c0.4-0.2,0.6-0.5,0.8-0.9l0.1,0v0.8c0,0.5-0.1,0.8-0.2,1.1c-0.1,0.3-0.2,0.5-0.4,0.7c-0.2,0.2-0.4,0.3-0.7,0.4
			c-0.3,0.1-0.5,0.1-0.9,0.1c-0.4,0-0.7,0-1-0.1c-0.3-0.1-0.6-0.2-0.9-0.3l-0.2,0.7c0.3,0.1,0.6,0.3,1,0.4c0.4,0.1,0.8,0.2,1.3,0.2
			c0.4,0,0.8-0.1,1.2-0.2c0.4-0.1,0.7-0.3,0.9-0.5c0.3-0.2,0.4-0.6,0.6-1c0.1-0.4,0.2-0.9,0.2-1.4v-5.9h-0.7L264.6,70.3z
			 M264.6,72.4c0,0.3,0,0.7-0.1,0.9c-0.1,0.3-0.2,0.5-0.4,0.7c-0.2,0.2-0.4,0.4-0.6,0.5c-0.2,0.1-0.5,0.2-0.8,0.2
			c-0.2,0-0.5,0-0.7-0.1c-0.2-0.1-0.4-0.2-0.6-0.4c-0.2-0.2-0.3-0.4-0.4-0.8c-0.1-0.3-0.2-0.7-0.2-1.1c0-0.4,0-0.8,0.1-1.1
			c0.1-0.3,0.2-0.6,0.4-0.8c0.2-0.2,0.4-0.4,0.6-0.5c0.2-0.1,0.5-0.1,0.8-0.1c0.4,0,0.7,0.1,1.1,0.4c0.3,0.2,0.6,0.5,0.8,0.9V72.4z"
			/>
		<path class="st2" d="M268.4,75.7c-0.1,0.5-0.1,0.9-0.2,1.4h0.5c0.1-0.5,0.3-0.9,0.4-1.4c0.2-0.5,0.3-0.9,0.4-1.4h-1
			C268.6,74.8,268.5,75.3,268.4,75.7z"/>
		<polygon class="st2" points="278,66.7 277.1,66.7 277.1,75.5 282.2,75.5 282.2,74.7 278,74.7 		"/>
		<polygon class="st2" points="285.7,66.7 284.8,66.7 284.8,75.5 289.9,75.5 289.9,74.7 285.7,74.7 		"/>
		<path class="st2" d="M297.8,74.4c-0.3,0.1-0.6,0.2-0.9,0.3c-0.3,0.1-0.7,0.1-1,0.1c-1,0-1.8-0.3-2.4-1c-0.6-0.6-0.9-1.6-0.9-2.7
			c0-1.2,0.3-2.1,0.9-2.7c0.6-0.6,1.4-1,2.4-1c0.7,0,1.3,0.1,1.8,0.3c0-0.1,0.1-0.2,0.1-0.4c0-0.1,0.1-0.2,0.1-0.4
			c-0.3-0.1-0.6-0.2-0.9-0.3c-0.3-0.1-0.7-0.1-1.1-0.1c-0.7,0-1.3,0.1-1.8,0.3c-0.5,0.2-0.9,0.5-1.3,0.9c-0.4,0.4-0.6,0.9-0.8,1.4
			c-0.2,0.6-0.3,1.2-0.3,1.8c0,0.7,0.1,1.3,0.2,1.8c0.2,0.6,0.4,1,0.8,1.4c0.3,0.4,0.8,0.7,1.3,0.9c0.5,0.2,1.1,0.3,1.8,0.3
			c0.4,0,0.8,0,1.2-0.1c0.3-0.1,0.7-0.2,1-0.3L297.8,74.4z"/>
	</g>
	<g>
		<rect x="110.9" y="78.9" class="st3" width="187.4" height="1.9"/>
		<rect x="110.9" y="63.4" class="st3" width="187.4" height="1.9"/>
		<polygon class="st3" points="25.6,99.5 76.9,99.5 84.9,94.9 17.6,94.9 		"/>
		<path class="st3" d="M4.8,85.6h92.9c1-1.4,1.8-3,2.3-4.6H2.5C3,82.6,3.8,84.2,4.8,85.6z"/>
		<path class="st3" d="M1.8,76c0,0.9,0.1,1.8,0.2,2.7h98.6c0.1-0.9,0.2-1.8,0.2-2.7v-1.9h-99V76z"/>
		<path class="st3" d="M42.9,109.4c5.2,3,11.6,3,16.7,0l1.3-0.7H41.6L42.9,109.4z"/>
		<path class="st3" d="M10.1,90.5l3.5,2h75.3l3.5-2c1.3-0.7,2.4-1.6,3.4-2.6H6.7C7.7,88.9,8.9,89.8,10.1,90.5z"/>
		<polygon class="st3" points="37.6,106.4 64.9,106.4 72.9,101.8 29.6,101.8 		"/>
		<polygon class="st3" points="48,68.7 47,69.7 45.2,71.6 48,69.7 49.4,68.7 62.1,60.1 67.8,35.4 72.4,31.3 88.7,29.4 70.2,29.4 
			65.7,32.9 63.1,32.9 58.4,58.1 		"/>
		<polygon class="st3" points="21.8,66.7 29.8,60.1 40.2,57.1 44.1,44.4 59.2,42.3 42.5,42.3 38.1,55.2 28.5,58 		"/>
		<polygon class="st3" points="24.1,51.5 37.6,50 22.8,50 15.8,56.3 8.7,59.5 16.8,57.5 		"/>
	</g>
</g>
</svg>
