<?xml version="1.0" encoding="UTF-8" standalone="no"?>
<!-- Generator: Adobe Illustrator 27.2.0, SVG Export Plug-In . SVG Version: 6.00 Build 0)  -->

<svg
   version="1.1"
   id="Layer_1"
   x="0px"
   y="0px"
   viewBox="0 0 800 800"
   style="enable-background:new 0 0 800 800;"
   xml:space="preserve"
   sodipodi:docname="trocador-dark.svg"
   inkscape:version="1.4 (e7c3feb100, 2024-10-09)"
   xmlns:inkscape="http://www.inkscape.org/namespaces/inkscape"
   xmlns:sodipodi="http://sodipodi.sourceforge.net/DTD/sodipodi-0.dtd"
   xmlns="http://www.w3.org/2000/svg"
   xmlns:svg="http://www.w3.org/2000/svg"><defs
   id="defs14" /><sodipodi:namedview
   id="namedview14"
   pagecolor="#ffffff"
   bordercolor="#000000"
   borderopacity="0.25"
   inkscape:showpageshadow="2"
   inkscape:pageopacity="0.0"
   inkscape:pagecheckerboard="0"
   inkscape:deskcolor="#d1d1d1"
   inkscape:zoom="0.73875"
   inkscape:cx="399.32318"
   inkscape:cy="400"
   inkscape:window-width="1463"
   inkscape:window-height="842"
   inkscape:window-x="0"
   inkscape:window-y="0"
   inkscape:window-maximized="1"
   inkscape:current-layer="Layer_1" />
<style
   type="text/css"
   id="style1">
	.st0{fill:#FC3C04;}
	.st1{fill:#040404;}
	.st2{fill-rule:evenodd;clip-rule:evenodd;fill:#FC3C04;}
</style>
<rect
   x="539"
   y="579.79999"
   class="st0"
   width="18"
   height="18"
   id="rect1"
   style="display:inline" />
<g
   id="g11"
   style="display:inline;fill:#ffffff">
	<path
   class="st1"
   d="M 73.5,597.8 H 56.7 V 532.2 H 35 v -14 h 60.1 v 14 H 73.5 Z"
   id="path1"
   style="fill:#ffffff" />
	<path
   class="st1"
   d="m 140.1,535.7 c 0.8,0 1.8,0 2.9,0.1 1.1,0.1 2,0.2 2.7,0.4 l -1.3,15.6 c -0.5,-0.2 -1.3,-0.3 -2.3,-0.4 -1,-0.1 -1.9,-0.1 -2.6,-0.1 -2.1,0 -4.2,0.3 -6.2,0.8 -2,0.5 -3.8,1.4 -5.4,2.6 -1.6,1.2 -2.9,2.8 -3.8,4.8 -0.9,2 -1.4,4.4 -1.4,7.3 v 31 h -16.6 v -60.9 h 12.6 l 2.5,10.2 h 0.8 c 1.2,-2.1 2.7,-4 4.5,-5.7 1.8,-1.7 3.8,-3.1 6.2,-4.1 2.2,-1 4.7,-1.6 7.4,-1.6 z"
   id="path2"
   style="fill:#ffffff" />
	<path
   class="st1"
   d="m 212.1,567.2 c 0,5.1 -0.7,9.6 -2,13.5 -1.3,3.9 -3.3,7.2 -5.9,9.9 -2.6,2.7 -5.7,4.7 -9.4,6.1 -3.6,1.4 -7.8,2.1 -12.3,2.1 -4.3,0 -8.2,-0.7 -11.8,-2.1 -3.6,-1.4 -6.7,-3.4 -9.3,-6.1 -2.6,-2.7 -4.7,-6 -6.1,-9.9 -1.4,-3.9 -2.2,-8.4 -2.2,-13.5 0,-6.8 1.2,-12.5 3.6,-17.2 2.4,-4.7 5.8,-8.2 10.2,-10.7 4.4,-2.4 9.7,-3.6 15.8,-3.6 5.7,0 10.8,1.2 15.2,3.6 4.4,2.4 7.9,6 10.4,10.7 2.5,4.7 3.8,10.5 3.8,17.2 z m -42.1,0 c 0,4 0.4,7.4 1.3,10.1 0.9,2.7 2.2,4.8 4.1,6.2 1.9,1.4 4.3,2.1 7.2,2.1 2.9,0 5.3,-0.7 7.2,-2.1 1.8,-1.4 3.2,-3.4 4,-6.2 0.9,-2.7 1.3,-6.1 1.3,-10.1 0,-4 -0.4,-7.4 -1.3,-10 -0.9,-2.7 -2.2,-4.7 -4.1,-6 -1.9,-1.3 -4.3,-2 -7.2,-2 -4.4,0 -7.6,1.5 -9.6,4.5 -1.9,3 -2.9,7.5 -2.9,13.5 z"
   id="path3"
   style="fill:#ffffff" />
	<path
   class="st1"
   d="m 250.5,598.8 c -6,0 -11.2,-1.1 -15.4,-3.3 -4.2,-2.2 -7.5,-5.6 -9.7,-10.2 -2.2,-4.6 -3.3,-10.5 -3.3,-17.7 0,-7.4 1.3,-13.5 3.8,-18.2 2.5,-4.7 6,-8.2 10.5,-10.4 4.5,-2.2 9.7,-3.3 15.6,-3.3 4.2,0 7.8,0.4 10.9,1.2 3.1,0.8 5.7,1.8 8,2.9 l -4.9,12.9 c -2.6,-1.1 -5,-1.9 -7.3,-2.6 -2.3,-0.7 -4.5,-1 -6.8,-1 -2.9,0 -5.3,0.7 -7.2,2 -1.9,1.4 -3.4,3.4 -4.3,6.1 -0.9,2.7 -1.4,6.1 -1.4,10.2 0,4 0.5,7.4 1.5,10 1,2.7 2.5,4.6 4.4,5.9 1.9,1.3 4.3,1.9 7,1.9 3.4,0 6.5,-0.5 9.2,-1.4 2.7,-0.9 5.3,-2.2 7.8,-3.9 v 14.2 c -2.5,1.6 -5.2,2.8 -8,3.5 -2.6,0.9 -6.1,1.2 -10.4,1.2 z"
   id="path4"
   style="fill:#ffffff" />
	<path
   class="st1"
   d="m 308.1,535.6 c 8.2,0 14.4,1.8 18.8,5.3 4.4,3.6 6.5,9 6.5,16.2 v 40.6 h -11.6 l -3.2,-8.3 h -0.4 c -1.7,2.2 -3.5,4 -5.3,5.3 -1.8,1.4 -3.9,2.4 -6.3,3 -2.4,0.7 -5.2,1 -8.6,1 -3.6,0 -6.8,-0.7 -9.7,-2.1 -2.9,-1.4 -5.1,-3.5 -6.7,-6.3 -1.6,-2.8 -2.5,-6.5 -2.5,-10.9 0,-6.5 2.3,-11.2 6.8,-14.3 4.5,-3.1 11.3,-4.8 20.4,-5.1 l 10.6,-0.3 V 557 c 0,-3.2 -0.8,-5.5 -2.5,-7 -1.7,-1.5 -4,-2.2 -7,-2.2 -2.9,0 -5.8,0.4 -8.7,1.3 -2.8,0.8 -5.7,1.9 -8.5,3.2 l -5.5,-11.2 c 3.2,-1.7 6.9,-3 10.9,-4 4,-1 8.2,-1.5 12.5,-1.5 z m 8.8,34 -6.4,0.2 c -5.4,0.1 -9.1,1.1 -11.2,2.9 -2.1,1.8 -3.1,4.1 -3.1,7 0,2.5 0.7,4.3 2.2,5.4 1.5,1.1 3.4,1.6 5.8,1.6 3.6,0 6.6,-1.1 9,-3.2 2.5,-2.1 3.7,-5.1 3.7,-9 z"
   id="path5"
   style="fill:#ffffff" />
	<path
   class="st1"
   d="m 369.8,598.8 c -6.8,0 -12.3,-2.7 -16.6,-8 -4.3,-5.3 -6.4,-13.1 -6.4,-23.4 0,-10.4 2.2,-18.3 6.5,-23.7 4.3,-5.4 10,-8 16.9,-8 2.9,0 5.5,0.4 7.7,1.2 2.2,0.8 4.1,1.9 5.7,3.2 1.6,1.3 3,2.9 4.1,4.5 h 0.5 c -0.2,-1.2 -0.5,-2.9 -0.8,-5.1 -0.3,-2.3 -0.5,-4.6 -0.5,-7 V 513 h 16.7 v 84.7 h -12.7 l -3.2,-7.9 H 387 c -1.1,1.7 -2.4,3.2 -3.9,4.5 -1.5,1.3 -3.5,2.4 -5.6,3.2 -2.2,0.9 -4.8,1.3 -7.7,1.3 z m 5.8,-13.2 c 4.5,0 7.7,-1.4 9.6,-4.1 1.9,-2.7 2.9,-6.8 3,-12.2 v -1.8 c 0,-5.9 -0.9,-10.4 -2.7,-13.6 -1.8,-3.1 -5.2,-4.7 -10.1,-4.7 -3.7,0 -6.5,1.6 -8.6,4.7 -2.1,3.1 -3.1,7.7 -3.1,13.7 0,6 1,10.4 3.1,13.4 2,3.1 5,4.6 8.8,4.6 z"
   id="path6"
   style="fill:#ffffff" />
	<path
   class="st1"
   d="m 476.4,567.2 c 0,5.1 -0.7,9.6 -2,13.5 -1.3,3.9 -3.3,7.2 -5.9,9.9 -2.6,2.7 -5.7,4.7 -9.4,6.1 -3.6,1.4 -7.8,2.1 -12.3,2.1 -4.3,0 -8.2,-0.7 -11.8,-2.1 -3.6,-1.4 -6.7,-3.4 -9.3,-6.1 -2.6,-2.7 -4.7,-6 -6.1,-9.9 -1.4,-3.9 -2.2,-8.4 -2.2,-13.5 0,-6.8 1.2,-12.5 3.6,-17.2 2.4,-4.7 5.8,-8.2 10.2,-10.7 4.4,-2.4 9.7,-3.6 15.8,-3.6 5.7,0 10.8,1.2 15.2,3.6 4.4,2.4 7.9,6 10.4,10.7 2.5,4.7 3.8,10.5 3.8,17.2 z m -42.1,0 c 0,4 0.4,7.4 1.3,10.1 0.9,2.7 2.2,4.8 4.1,6.2 1.9,1.4 4.3,2.1 7.2,2.1 2.9,0 5.3,-0.7 7.2,-2.1 1.8,-1.4 3.2,-3.4 4,-6.2 0.9,-2.7 1.3,-6.1 1.3,-10.1 0,-4 -0.4,-7.4 -1.3,-10 -0.9,-2.7 -2.2,-4.7 -4.1,-6 -1.9,-1.3 -4.3,-2 -7.2,-2 -4.4,0 -7.6,1.5 -9.6,4.5 -1.9,3 -2.9,7.5 -2.9,13.5 z"
   id="path7"
   style="fill:#ffffff" />
	<path
   class="st1"
   d="m 524.1,535.7 c 0.8,0 1.8,0 2.9,0.1 1.1,0.1 2,0.2 2.7,0.4 l -1.3,15.6 c -0.5,-0.2 -1.3,-0.3 -2.3,-0.4 -1,-0.1 -1.9,-0.1 -2.6,-0.1 -2.1,0 -4.2,0.3 -6.2,0.8 -2,0.5 -3.8,1.4 -5.4,2.6 -1.6,1.2 -2.9,2.8 -3.8,4.8 -0.9,2 -1.4,4.4 -1.4,7.3 v 31 h -16.6 v -60.9 h 12.6 l 2.5,10.2 h 0.8 c 1.2,-2.1 2.7,-4 4.5,-5.7 1.8,-1.7 3.8,-3.1 6.2,-4.1 2.2,-1 4.7,-1.6 7.4,-1.6 z"
   id="path8"
   style="fill:#ffffff" />
	<path
   class="st1"
   d="m 597.5,535.6 c 8.2,0 14.4,1.8 18.8,5.3 4.4,3.6 6.5,9 6.5,16.2 v 40.6 h -11.6 l -3.2,-8.3 h -0.4 c -1.7,2.2 -3.5,4 -5.3,5.3 -1.8,1.4 -3.9,2.4 -6.3,3 -2.4,0.7 -5.2,1 -8.6,1 -3.6,0 -6.8,-0.7 -9.7,-2.1 -2.9,-1.4 -5.1,-3.5 -6.7,-6.3 -1.6,-2.8 -2.5,-6.5 -2.5,-10.9 0,-6.5 2.3,-11.2 6.8,-14.3 4.5,-3.1 11.3,-4.8 20.4,-5.1 l 10.6,-0.3 V 557 c 0,-3.2 -0.8,-5.5 -2.5,-7 -1.7,-1.5 -4,-2.2 -7,-2.2 -2.9,0 -5.8,0.4 -8.7,1.3 -2.8,0.8 -5.7,1.9 -8.5,3.2 l -5.5,-11.2 c 3.2,-1.7 6.9,-3 10.9,-4 4.1,-1 8.2,-1.5 12.5,-1.5 z m 8.8,34 -6.4,0.2 c -5.4,0.1 -9.1,1.1 -11.2,2.9 -2.1,1.8 -3.1,4.1 -3.1,7 0,2.5 0.7,4.3 2.2,5.4 1.5,1.1 3.4,1.6 5.8,1.6 3.6,0 6.6,-1.1 9,-3.2 2.4,-2.1 3.7,-5.1 3.7,-9 z"
   id="path9"
   style="fill:#ffffff" />
	<path
   class="st1"
   d="m 673.8,535.7 c 6.9,0 12.4,2.7 16.6,8 4.2,5.3 6.3,13.2 6.3,23.5 0,6.9 -1,12.7 -3,17.4 -2,4.7 -4.8,8.2 -8.3,10.6 -3.5,2.4 -7.6,3.6 -12.1,3.6 -2.9,0 -5.5,-0.4 -7.6,-1.1 -2.1,-0.7 -3.9,-1.7 -5.4,-2.9 -1.5,-1.2 -2.8,-2.4 -3.9,-3.8 h -0.9 c 0.3,1.5 0.5,2.9 0.7,4.5 0.1,1.5 0.2,3 0.2,4.5 v 24.6 h -16.6 v -87.7 h 13.5 l 2.3,7.9 h 0.8 c 1.1,-1.6 2.4,-3.1 4,-4.5 1.6,-1.4 3.4,-2.5 5.6,-3.3 2.3,-0.9 4.9,-1.3 7.8,-1.3 z m -5.4,13.3 c -2.9,0 -5.2,0.6 -6.9,1.8 -1.7,1.2 -2.9,3 -3.7,5.4 -0.8,2.4 -1.2,5.4 -1.3,9.1 v 1.8 c 0,3.9 0.4,7.2 1.1,10 0.7,2.8 2,4.8 3.8,6.2 1.8,1.4 4.2,2.1 7.3,2.1 2.5,0 4.6,-0.7 6.3,-2.1 1.7,-1.4 2.9,-3.5 3.7,-6.2 0.8,-2.7 1.2,-6.1 1.2,-10 0,-6 -0.9,-10.4 -2.8,-13.5 -1.9,-3.1 -4.8,-4.6 -8.7,-4.6 z"
   id="path10"
   style="fill:#ffffff" />
	<path
   class="st1"
   d="m 744.3,535.7 c 6.9,0 12.4,2.7 16.6,8 4.2,5.3 6.3,13.2 6.3,23.5 0,6.9 -1,12.7 -3,17.4 -2,4.7 -4.8,8.2 -8.3,10.6 -3.5,2.4 -7.6,3.6 -12.1,3.6 -2.9,0 -5.5,-0.4 -7.6,-1.1 -2.1,-0.7 -3.9,-1.7 -5.4,-2.9 -1.5,-1.2 -2.8,-2.4 -3.9,-3.8 H 726 c 0.3,1.5 0.5,2.9 0.7,4.5 0.1,1.5 0.2,3 0.2,4.5 v 24.6 H 710.3 V 536.9 H 724 l 2.3,7.9 h 0.8 c 1.1,-1.6 2.4,-3.1 4,-4.5 1.6,-1.4 3.4,-2.5 5.6,-3.3 2.2,-0.9 4.7,-1.3 7.6,-1.3 z M 739,549 c -2.9,0 -5.2,0.6 -6.9,1.8 -1.7,1.2 -2.9,3 -3.7,5.4 -0.8,2.4 -1.2,5.4 -1.3,9.1 v 1.8 c 0,3.9 0.4,7.2 1.1,10 0.7,2.8 2,4.8 3.8,6.2 1.8,1.4 4.2,2.1 7.3,2.1 2.5,0 4.6,-0.7 6.3,-2.1 1.7,-1.4 2.9,-3.5 3.7,-6.2 0.8,-2.7 1.2,-6.1 1.2,-10 0,-6 -0.9,-10.4 -2.8,-13.5 -1.9,-3.1 -4.8,-4.6 -8.7,-4.6 z"
   id="path11"
   style="fill:#ffffff" />
</g>
<path
   class="st2"
   d="M590.8,217.5l-59.6-56.9c-10.6-10.1-28.1-2.6-28.1,12V200h-44.7l0.3,0.9l-0.3-0.8L295.6,374h-62  c-4.7,0-8.6,3.8-8.6,8.6v41.9c0,4.7,3.8,8.6,8.6,8.6h85l162.7-173.9v-0.1h22.1v27.4c0,14.6,17.5,22.1,28.1,12l59.6-56.9  C597.7,235,597.7,224,590.8,217.5z"
   id="path12" />
<g
   id="g14">
	<path
   class="st0"
   d="M318.5,200h-85c-4.7,0-8.6,3.8-8.6,8.6v41.9c0,4.7,3.8,8.6,8.6,8.6h62l40,40.1l40.4-40.4L318.5,200z"
   id="path13" />
	<path
   class="st0"
   d="M590.8,391.5l-59.6-56.9c-10.6-10.1-28.1-2.6-28.1,12V374H481v-0.1L443.1,334l-39.6,40.1l55.1,58.8l0.3-0.8   l-0.3,0.9h44.7v27.4c0,14.6,17.5,22.1,28.1,12l59.6-56.9C597.7,409,597.7,398,590.8,391.5z"
   id="path14" />
</g>
</svg>
