<?xml version="1.0" encoding="utf-8"?>
<!-- Generator: Adobe Illustrator 27.2.0, SVG Export Plug-In . SVG Version: 6.00 Build 0)  -->
<svg version="1.1" id="Layer_1" xmlns="http://www.w3.org/2000/svg" xmlns:xlink="http://www.w3.org/1999/xlink" x="0px" y="0px"
	 viewBox="0 0 800 800" style="enable-background:new 0 0 800 800;" xml:space="preserve">
<style type="text/css">
	.st0{fill:#FC3C04;}
	.st1{fill:#040404;}
	.st2{fill-rule:evenodd;clip-rule:evenodd;fill:#FC3C04;}
</style>
<rect x="539" y="579.8" class="st0" width="18" height="18"/>
<g>
	<path class="st1" d="M73.5,597.8H56.7v-65.6H35v-14h60.1v14H73.5V597.8z"/>
	<path class="st1" d="M140.1,535.7c0.8,0,1.8,0,2.9,0.1c1.1,0.1,2,0.2,2.7,0.4l-1.3,15.6c-0.5-0.2-1.3-0.3-2.3-0.4
		c-1-0.1-1.9-0.1-2.6-0.1c-2.1,0-4.2,0.3-6.2,0.8s-3.8,1.4-5.4,2.6c-1.6,1.2-2.9,2.8-3.8,4.8s-1.4,4.4-1.4,7.3v31h-16.6v-60.9h12.6
		l2.5,10.2h0.8c1.2-2.1,2.7-4,4.5-5.7s3.8-3.1,6.2-4.1C134.9,536.3,137.4,535.7,140.1,535.7z"/>
	<path class="st1" d="M212.1,567.2c0,5.1-0.7,9.6-2,13.5s-3.3,7.2-5.9,9.9c-2.6,2.7-5.7,4.7-9.4,6.1c-3.6,1.4-7.8,2.1-12.3,2.1
		c-4.3,0-8.2-0.7-11.8-2.1c-3.6-1.4-6.7-3.4-9.3-6.1c-2.6-2.7-4.7-6-6.1-9.9c-1.4-3.9-2.2-8.4-2.2-13.5c0-6.8,1.2-12.5,3.6-17.2
		c2.4-4.7,5.8-8.2,10.2-10.7c4.4-2.4,9.7-3.6,15.8-3.6c5.7,0,10.8,1.2,15.2,3.6c4.4,2.4,7.9,6,10.4,10.7S212.1,560.5,212.1,567.2z
		 M170,567.2c0,4,0.4,7.4,1.3,10.1s2.2,4.8,4.1,6.2c1.9,1.4,4.3,2.1,7.2,2.1s5.3-0.7,7.2-2.1c1.8-1.4,3.2-3.4,4-6.2
		c0.9-2.7,1.3-6.1,1.3-10.1s-0.4-7.4-1.3-10c-0.9-2.7-2.2-4.7-4.1-6s-4.3-2-7.2-2c-4.4,0-7.6,1.5-9.6,4.5
		C171,556.7,170,561.2,170,567.2z"/>
	<path class="st1" d="M250.5,598.8c-6,0-11.2-1.1-15.4-3.3s-7.5-5.6-9.7-10.2c-2.2-4.6-3.3-10.5-3.3-17.7c0-7.4,1.3-13.5,3.8-18.2
		s6-8.2,10.5-10.4s9.7-3.3,15.6-3.3c4.2,0,7.8,0.4,10.9,1.2s5.7,1.8,8,2.9l-4.9,12.9c-2.6-1.1-5-1.9-7.3-2.6c-2.3-0.7-4.5-1-6.8-1
		c-2.9,0-5.3,0.7-7.2,2c-1.9,1.4-3.4,3.4-4.3,6.1c-0.9,2.7-1.4,6.1-1.4,10.2c0,4,0.5,7.4,1.5,10c1,2.7,2.5,4.6,4.4,5.9
		c1.9,1.3,4.3,1.9,7,1.9c3.4,0,6.5-0.5,9.2-1.4s5.3-2.2,7.8-3.9v14.2c-2.5,1.6-5.2,2.8-8,3.5C258.3,598.5,254.8,598.8,250.5,598.8z"
		/>
	<path class="st1" d="M308.1,535.6c8.2,0,14.4,1.8,18.8,5.3c4.4,3.6,6.5,9,6.5,16.2v40.6h-11.6l-3.2-8.3h-0.4
		c-1.7,2.2-3.5,4-5.3,5.3c-1.8,1.4-3.9,2.4-6.3,3c-2.4,0.7-5.2,1-8.6,1c-3.6,0-6.8-0.7-9.7-2.1c-2.9-1.4-5.1-3.5-6.7-6.3
		s-2.5-6.5-2.5-10.9c0-6.5,2.3-11.2,6.8-14.3s11.3-4.8,20.4-5.1l10.6-0.3V557c0-3.2-0.8-5.5-2.5-7s-4-2.2-7-2.2
		c-2.9,0-5.8,0.4-8.7,1.3c-2.8,0.8-5.7,1.9-8.5,3.2l-5.5-11.2c3.2-1.7,6.9-3,10.9-4C299.6,536.1,303.8,535.6,308.1,535.6z
		 M316.9,569.6l-6.4,0.2c-5.4,0.1-9.1,1.1-11.2,2.9c-2.1,1.8-3.1,4.1-3.1,7c0,2.5,0.7,4.3,2.2,5.4c1.5,1.1,3.4,1.6,5.8,1.6
		c3.6,0,6.6-1.1,9-3.2c2.5-2.1,3.7-5.1,3.7-9V569.6z"/>
	<path class="st1" d="M369.8,598.8c-6.8,0-12.3-2.7-16.6-8c-4.3-5.3-6.4-13.1-6.4-23.4c0-10.4,2.2-18.3,6.5-23.7s10-8,16.9-8
		c2.9,0,5.5,0.4,7.7,1.2s4.1,1.9,5.7,3.2s3,2.9,4.1,4.5h0.5c-0.2-1.2-0.5-2.9-0.8-5.1c-0.3-2.3-0.5-4.6-0.5-7V513h16.7v84.7h-12.7
		l-3.2-7.9H387c-1.1,1.7-2.4,3.2-3.9,4.5s-3.5,2.4-5.6,3.2C375.3,598.4,372.7,598.8,369.8,598.8z M375.6,585.6
		c4.5,0,7.7-1.4,9.6-4.1c1.9-2.7,2.9-6.8,3-12.2v-1.8c0-5.9-0.9-10.4-2.7-13.6c-1.8-3.1-5.2-4.7-10.1-4.7c-3.7,0-6.5,1.6-8.6,4.7
		s-3.1,7.7-3.1,13.7s1,10.4,3.1,13.4C368.8,584.1,371.8,585.6,375.6,585.6z"/>
	<path class="st1" d="M476.4,567.2c0,5.1-0.7,9.6-2,13.5s-3.3,7.2-5.9,9.9s-5.7,4.7-9.4,6.1c-3.6,1.4-7.8,2.1-12.3,2.1
		c-4.3,0-8.2-0.7-11.8-2.1c-3.6-1.4-6.7-3.4-9.3-6.1c-2.6-2.7-4.7-6-6.1-9.9s-2.2-8.4-2.2-13.5c0-6.8,1.2-12.5,3.6-17.2
		s5.8-8.2,10.2-10.7c4.4-2.4,9.7-3.6,15.8-3.6c5.7,0,10.8,1.2,15.2,3.6c4.4,2.4,7.9,6,10.4,10.7
		C475.1,554.7,476.4,560.5,476.4,567.2z M434.3,567.2c0,4,0.4,7.4,1.3,10.1c0.9,2.7,2.2,4.8,4.1,6.2s4.3,2.1,7.2,2.1
		c2.9,0,5.3-0.7,7.2-2.1c1.8-1.4,3.2-3.4,4-6.2c0.9-2.7,1.3-6.1,1.3-10.1s-0.4-7.4-1.3-10c-0.9-2.7-2.2-4.7-4.1-6s-4.3-2-7.2-2
		c-4.4,0-7.6,1.5-9.6,4.5C435.3,556.7,434.3,561.2,434.3,567.2z"/>
	<path class="st1" d="M524.1,535.7c0.8,0,1.8,0,2.9,0.1c1.1,0.1,2,0.2,2.7,0.4l-1.3,15.6c-0.5-0.2-1.3-0.3-2.3-0.4
		c-1-0.1-1.9-0.1-2.6-0.1c-2.1,0-4.2,0.3-6.2,0.8s-3.8,1.4-5.4,2.6c-1.6,1.2-2.9,2.8-3.8,4.8s-1.4,4.4-1.4,7.3v31h-16.6v-60.9h12.6
		l2.5,10.2h0.8c1.2-2.1,2.7-4,4.5-5.7s3.8-3.1,6.2-4.1C518.9,536.3,521.4,535.7,524.1,535.7z"/>
	<path class="st1" d="M597.5,535.6c8.2,0,14.4,1.8,18.8,5.3c4.4,3.6,6.5,9,6.5,16.2v40.6h-11.6l-3.2-8.3h-0.4
		c-1.7,2.2-3.5,4-5.3,5.3c-1.8,1.4-3.9,2.4-6.3,3c-2.4,0.7-5.2,1-8.6,1c-3.6,0-6.8-0.7-9.7-2.1c-2.9-1.4-5.1-3.5-6.7-6.3
		c-1.6-2.8-2.5-6.5-2.5-10.9c0-6.5,2.3-11.2,6.8-14.3s11.3-4.8,20.4-5.1l10.6-0.3V557c0-3.2-0.8-5.5-2.5-7s-4-2.2-7-2.2
		c-2.9,0-5.8,0.4-8.7,1.3c-2.8,0.8-5.7,1.9-8.5,3.2l-5.5-11.2c3.2-1.7,6.9-3,10.9-4C589.1,536.1,593.2,535.6,597.5,535.6z
		 M606.3,569.6l-6.4,0.2c-5.4,0.1-9.1,1.1-11.2,2.9s-3.1,4.1-3.1,7c0,2.5,0.7,4.3,2.2,5.4c1.5,1.1,3.4,1.6,5.8,1.6
		c3.6,0,6.6-1.1,9-3.2s3.7-5.1,3.7-9V569.6z"/>
	<path class="st1" d="M673.8,535.7c6.9,0,12.4,2.7,16.6,8c4.2,5.3,6.3,13.2,6.3,23.5c0,6.9-1,12.7-3,17.4s-4.8,8.2-8.3,10.6
		c-3.5,2.4-7.6,3.6-12.1,3.6c-2.9,0-5.5-0.4-7.6-1.1c-2.1-0.7-3.9-1.7-5.4-2.9s-2.8-2.4-3.9-3.8h-0.9c0.3,1.5,0.5,2.9,0.7,4.5
		c0.1,1.5,0.2,3,0.2,4.5v24.6h-16.6v-87.7h13.5l2.3,7.9h0.8c1.1-1.6,2.4-3.1,4-4.5s3.4-2.5,5.6-3.3
		C668.3,536.1,670.9,535.7,673.8,535.7z M668.4,549c-2.9,0-5.2,0.6-6.9,1.8s-2.9,3-3.7,5.4s-1.2,5.4-1.3,9.1v1.8
		c0,3.9,0.4,7.2,1.1,10s2,4.8,3.8,6.2s4.2,2.1,7.3,2.1c2.5,0,4.6-0.7,6.3-2.1s2.9-3.5,3.7-6.2s1.2-6.1,1.2-10c0-6-0.9-10.4-2.8-13.5
		S672.3,549,668.4,549z"/>
	<path class="st1" d="M744.3,535.7c6.9,0,12.4,2.7,16.6,8c4.2,5.3,6.3,13.2,6.3,23.5c0,6.9-1,12.7-3,17.4s-4.8,8.2-8.3,10.6
		c-3.5,2.4-7.6,3.6-12.1,3.6c-2.9,0-5.5-0.4-7.6-1.1c-2.1-0.7-3.9-1.7-5.4-2.9s-2.8-2.4-3.9-3.8H726c0.3,1.5,0.5,2.9,0.7,4.5
		c0.1,1.5,0.2,3,0.2,4.5v24.6h-16.6v-87.7H724l2.3,7.9h0.8c1.1-1.6,2.4-3.1,4-4.5s3.4-2.5,5.6-3.3
		C738.9,536.1,741.4,535.7,744.3,535.7z M739,549c-2.9,0-5.2,0.6-6.9,1.8s-2.9,3-3.7,5.4s-1.2,5.4-1.3,9.1v1.8c0,3.9,0.4,7.2,1.1,10
		s2,4.8,3.8,6.2s4.2,2.1,7.3,2.1c2.5,0,4.6-0.7,6.3-2.1s2.9-3.5,3.7-6.2s1.2-6.1,1.2-10c0-6-0.9-10.4-2.8-13.5S742.9,549,739,549z"
		/>
</g>
<path class="st2" d="M590.8,217.5l-59.6-56.9c-10.6-10.1-28.1-2.6-28.1,12V200h-44.7l0.3,0.9l-0.3-0.8L295.6,374h-62
	c-4.7,0-8.6,3.8-8.6,8.6v41.9c0,4.7,3.8,8.6,8.6,8.6h85l162.7-173.9v-0.1h22.1v27.4c0,14.6,17.5,22.1,28.1,12l59.6-56.9
	C597.7,235,597.7,224,590.8,217.5z"/>
<g>
	<path class="st0" d="M318.5,200h-85c-4.7,0-8.6,3.8-8.6,8.6v41.9c0,4.7,3.8,8.6,8.6,8.6h62l40,40.1l40.4-40.4L318.5,200z"/>
	<path class="st0" d="M590.8,391.5l-59.6-56.9c-10.6-10.1-28.1-2.6-28.1,12V374H481v-0.1L443.1,334l-39.6,40.1l55.1,58.8l0.3-0.8
		l-0.3,0.9h44.7v27.4c0,14.6,17.5,22.1,28.1,12l59.6-56.9C597.7,409,597.7,398,590.8,391.5z"/>
</g>
</svg>
