<svg width="111" height="16" viewBox="0 0 111 16" fill="none" xmlns="http://www.w3.org/2000/svg">
<path d="M2.98936 6.44652V9.43006H0V6.44652H2.98936ZM5.99948 3.48355V6.44652H2.98936V3.48355H5.99948ZM5.99948 9.43006V12.393H2.98936V9.43006H5.99948ZM8.98884 0.5V3.48355H5.99948V0.5H8.98884ZM8.98884 12.393V15.3766H5.99948V12.393H8.98884Z" fill="#DCF9F9"/>
<path d="M98.3008 8.15434C98.3008 9.32718 98.1139 10.356 97.7195 11.2408C97.3251 12.1255 96.8061 12.8869 96.1626 13.5041C95.519 14.1214 94.7717 14.5741 93.8998 14.9033C93.0279 15.2325 92.1352 15.3766 91.201 15.3766C90.2669 15.3766 89.3535 15.212 88.5023 14.9033C87.6512 14.5741 86.9038 14.1214 86.2603 13.5041C85.6168 12.8869 85.0978 12.1461 84.7033 11.2408C84.3089 10.356 84.1221 9.30661 84.1221 8.15434V7.82513C84.1221 6.67286 84.3089 5.66463 84.7033 4.75928C85.0978 3.87451 85.6168 3.11319 86.2603 2.49591C86.9246 1.87863 87.6719 1.40537 88.5231 1.07616C89.3742 0.746938 90.2669 0.602905 91.201 0.602905C92.1352 0.602905 93.0279 0.767514 93.879 1.07616C94.7302 1.40537 95.4983 1.85805 96.1418 2.49591C96.8061 3.11319 97.3251 3.87451 97.6988 4.75928C98.0932 5.64406 98.28 6.67286 98.28 7.82513V8.15434H98.3008ZM91.201 13.2984C91.8861 13.2984 92.5089 13.1749 93.0902 12.9486C93.6714 12.7222 94.1696 12.3725 94.6056 11.9198C95.0415 11.4671 95.3945 10.9321 95.6228 10.2943C95.8719 9.6564 95.9965 8.95681 95.9965 8.15434V7.82513C95.9965 7.06381 95.8719 6.3848 95.6228 5.74694C95.3737 5.10908 95.0415 4.5741 94.6056 4.12142C94.1696 3.66875 93.6507 3.31895 93.0694 3.07204C92.4881 2.82513 91.8446 2.68109 91.1803 2.68109C90.516 2.68109 89.8932 2.80455 89.2912 3.07204C88.7099 3.31895 88.1909 3.68932 87.755 4.12142C87.319 4.5741 86.9661 5.10908 86.7378 5.74694C86.4887 6.3848 86.3641 7.06381 86.3641 7.82513V8.15434C86.3641 8.93624 86.4887 9.6564 86.7378 10.2943C86.9869 10.9321 87.319 11.4671 87.755 11.9198C88.1909 12.3725 88.7099 12.7222 89.2704 12.9486C89.8517 13.1749 90.4745 13.2984 91.1595 13.2984H91.201Z" fill="#06DE6B"/>
<path d="M68.8849 0.5H65.854V3.50411H68.8849V0.5Z" fill="#06DE6B"/>
<path d="M68.8849 3.50409H65.854V6.5082H68.8849V3.50409Z" fill="#06DE6B"/>
<path d="M71.916 12.4959V9.49176H68.8851V12.4959H71.916Z" fill="#06DE6B"/>
<path d="M74.9258 15.4795V12.4753H71.8949V15.4795H74.9258Z" fill="#06DE6B"/>
<path d="M71.916 9.51236V6.50824H68.8851V9.51236H71.916Z" fill="#06DE6B"/>
<path d="M80.9879 0.5H77.957V3.50411H80.9879V0.5Z" fill="#06DE6B"/>
<path d="M80.9879 3.50409H77.957V6.5082H80.9879V3.50409Z" fill="#06DE6B"/>
<path d="M77.957 12.4959V9.49176H74.9262V12.4959H77.957Z" fill="#06DE6B"/>
<path d="M77.957 9.49179V6.48767H74.9262V9.49179H77.957Z" fill="#06DE6B"/>
<path d="M62.5742 8.13384C62.5742 9.30667 62.3874 10.3355 61.993 11.2203C61.5985 12.105 61.0795 12.8663 60.436 13.4836C59.7924 14.1009 59.0451 14.5536 58.1732 14.8828C57.3013 15.212 56.4087 15.3561 55.4745 15.3561C54.5403 15.3561 53.6269 15.1914 52.7758 14.8828C51.9246 14.5536 51.1773 14.1009 50.5337 13.4836C49.8902 12.8663 49.3712 12.1256 48.9768 11.2203C48.5823 10.3355 48.3955 9.2861 48.3955 8.13384V7.80462C48.3955 6.65235 48.5823 5.64412 48.9768 4.73877C49.3712 3.854 49.8902 3.09268 50.5337 2.4754C51.198 1.85812 51.9454 1.38487 52.7965 1.05565C53.6477 0.72643 54.5403 0.582397 55.4745 0.582397C56.4087 0.582397 57.3013 0.747007 58.1525 1.05565C59.0036 1.38487 59.7717 1.83754 60.4152 2.4754C61.0795 3.09268 61.5985 3.854 61.9722 4.73877C62.3666 5.62355 62.5535 6.65235 62.5535 7.80462V8.13384H62.5742ZM55.4745 13.2779C56.1595 13.2779 56.7823 13.1544 57.3636 12.9281C57.9449 12.7017 58.4431 12.3519 58.879 11.8993C59.315 11.4466 59.6679 10.9116 59.8963 10.2738C60.1454 9.63589 60.2699 8.93631 60.2699 8.13384V7.80462C60.2699 7.0433 60.1454 6.36429 59.8963 5.72643C59.6471 5.08857 59.315 4.55359 58.879 4.10092C58.4431 3.64824 57.9241 3.29845 57.3428 3.05153C56.7616 2.80462 56.118 2.66059 55.4537 2.66059C54.7894 2.66059 54.1666 2.78404 53.5646 3.05153C52.9833 3.29845 52.4644 3.66882 52.0284 4.10092C51.5925 4.55359 51.2396 5.08857 51.0112 5.72643C50.7621 6.36429 50.6375 7.0433 50.6375 7.80462V8.13384C50.6375 8.91573 50.7621 9.63589 51.0112 10.2738C51.2603 10.9116 51.5925 11.4466 52.0284 11.8993C52.4644 12.3519 52.9833 12.7017 53.5439 12.9281C54.1251 13.1544 54.7479 13.2779 55.433 13.2779H55.4745Z" fill="#06DE6B"/>
<path d="M33.0543 8.64824C33.1166 10.0474 33.5525 11.1585 34.3621 12.0021C35.1717 12.8458 36.3135 13.2779 37.7874 13.2779C38.4517 13.2779 39.033 13.1956 39.5312 13.0515C40.0295 12.9075 40.4447 12.7017 40.7976 12.4342C41.1505 12.1668 41.4411 11.8581 41.6487 11.5083C41.8771 11.1585 42.0431 10.7882 42.1677 10.3972L44.2852 10.9528C43.8907 12.2491 43.1434 13.319 42.0847 14.1215C41.0052 14.9445 39.5728 15.3561 37.7459 15.3561C36.7287 15.3561 35.8153 15.1914 34.9641 14.8417C34.113 14.4919 33.3864 13.998 32.7844 13.3602C32.1824 12.7223 31.7049 11.961 31.352 11.0762C31.0198 10.1914 30.833 9.20379 30.833 8.13384V7.45482C30.833 6.46717 30.9991 5.56182 31.352 4.7182C31.7049 3.87458 32.1824 3.13384 32.8259 2.53713C33.4487 1.91985 34.196 1.44659 35.0264 1.0968C35.8776 0.747006 36.791 0.582397 37.7667 0.582397C38.9292 0.582397 39.9257 0.788159 40.7768 1.22026C41.6279 1.65236 42.313 2.16676 42.8528 2.78404C43.3925 3.40133 43.7869 4.08034 44.0568 4.82108C44.3059 5.56182 44.4512 6.24083 44.4512 6.85812V8.66882H33.0543V8.64824ZM37.7874 2.66059C37.1647 2.66059 36.5834 2.76347 36.0436 2.94865C35.5039 3.15441 35.0264 3.4219 34.6112 3.7717C34.196 4.12149 33.8639 4.55359 33.6148 5.02684C33.3657 5.50009 33.1996 6.03507 33.1166 6.59063H42.23C42.1885 5.99392 42.0431 5.43836 41.794 4.94454C41.5449 4.45071 41.2128 4.03919 40.7976 3.70997C40.3824 3.38075 39.9257 3.11326 39.4067 2.92808C38.8877 2.74289 38.3479 2.64001 37.7874 2.64001V2.66059Z" fill="#06DE6B"/>
<path d="M15.7198 0.5H12.689V3.50411H15.7198V0.5Z" fill="#06DE6B"/>
<path d="M18.7506 3.50409H15.7197V6.5082H18.7506V3.50409Z" fill="#06DE6B"/>
<path d="M21.7814 6.48767H18.7505V9.49178H21.7814V6.48767Z" fill="#06DE6B"/>
<path d="M24.8126 9.49176H21.7817V12.4959H24.8126V9.49176Z" fill="#06DE6B"/>
<path d="M27.8224 12.4959H24.7915V15.5H27.8224V12.4959Z" fill="#06DE6B"/>
<path d="M27.8228 3.50411V0.5L24.7919 0.5V3.50411H27.8228Z" fill="#06DE6B"/>
<path d="M24.7915 6.5082V3.50409H21.7606V6.5082H24.7915Z" fill="#06DE6B"/>
<path d="M18.7505 12.4959V9.49176H15.7196V12.4959H18.7505Z" fill="#06DE6B"/>
<path d="M15.7197 15.4795V12.4753H12.6888V15.4795H15.7197Z" fill="#06DE6B"/>
<path d="M104.99 0.5V3.48355H102V0.5H104.99ZM104.99 12.393V15.3766H102V12.393H104.99ZM108 3.48355V6.44652H104.99V3.48355H108ZM108 9.43006V12.393H104.99V9.43006H108ZM110.989 6.44652V9.43006H108V6.44652H110.989Z" fill="#DCF9F9"/>
</svg>
